ISO-10303-21;
HEADER;
/* Generated by software containing ST-Developer
 * from STEP Tools, Inc. (www.steptools.com) 
 */
/* OPTION: using custom renumber hook */

FILE_DESCRIPTION(
/* description */ ('STEP AP242 Edition 2',
'CAx-IF Rec.Pracs.---Representation and Presentation of Product Manufa
cturing Information (PMI)---4.0---2014-10-13',
'CAx-IF Rec.Pracs.---3D Tessellated Geometry---0.4---2014-09-14','2;1',
'CAx-IF Rec.Pracs.---User Defined Attributes---1.5---2016-08-15'),
/* implementation_level */ '2;1');

FILE_NAME(
/* name */ '2nd Barrel V1 Copy 1',
/* time_stamp */ '2026-06-24T13:27:23Z',
/* author */ (''),
/* organization */ (''),
/* preprocessor_version */ 'ST-DEVELOPER v20',
/* originating_system */ 'ONSHAPE BY PTC INC, 1.216',
/* authorisation */ '  ');

FILE_SCHEMA (('AP242_MANAGED_MODEL_BASED_3D_ENGINEERING_MIM_LF { 1 0 10303 442 3 1 4 }'));
ENDSEC;

DATA;
#10=SHAPE_REPRESENTATION_RELATIONSHIP('','',#1337,#11);
#11=ADVANCED_BREP_SHAPE_REPRESENTATION('',(#1335),#2316);
#12=B_SPLINE_SURFACE_WITH_KNOTS('',3,1,((#2267,#2268),(#2269,#2270),(#2271,
#2272),(#2273,#2274)),.SURF_OF_LINEAR_EXTRUSION.,.F.,.F.,.F.,(4,4),(2,2),
(3.92699081698724,4.71238898038469),(0.,1.),.PIECEWISE_BEZIER_KNOTS.);
#13=B_SPLINE_SURFACE_WITH_KNOTS('',3,1,((#2277,#2278),(#2279,#2280),(#2281,
#2282),(#2283,#2284)),.SURF_OF_LINEAR_EXTRUSION.,.F.,.F.,.F.,(4,4),(2,2),
(4.71238898038469,5.49778714378214),(0.,1.),.PIECEWISE_BEZIER_KNOTS.);
#14=TOROIDAL_SURFACE('',#1435,0.0137935579406204,0.00508);
#15=CONICAL_SURFACE('',#1419,0.0167264973081038,0.523598775598299);
#16=ELLIPSE('',#1396,0.00359210244842766,0.00254);
#17=ELLIPSE('',#1397,0.00359210244842766,0.00254);
#18=ELLIPSE('',#1424,0.00359210244842766,0.00254);
#19=ELLIPSE('',#1426,0.00359210244842766,0.00254);
#20=ELLIPSE('',#1428,0.00359210244842766,0.00254);
#21=ELLIPSE('',#1430,0.00359210244842766,0.00254);
#22=ELLIPSE('',#1432,0.00359210244842766,0.00254);
#23=ELLIPSE('',#1434,0.00359210244842766,0.00254);
#24=ELLIPSE('',#1454,0.00359210244842766,0.00254);
#25=ELLIPSE('',#1456,0.00359210244842766,0.00254);
#26=B_SPLINE_CURVE_WITH_KNOTS('',3,(#1942,#1943,#1944,#1945),
 .UNSPECIFIED.,.F.,.F.,(4,4),(0.,0.00871738286402538),.UNSPECIFIED.);
#27=B_SPLINE_CURVE_WITH_KNOTS('',3,(#1947,#1948,#1949,#1950,#1951),
 .UNSPECIFIED.,.F.,.F.,(4,1,4),(2.67957227443461E-16,0.00280076073161527,
0.00560152146323027),.UNSPECIFIED.);
#28=B_SPLINE_CURVE_WITH_KNOTS('',3,(#1987,#1988,#1989,#1990,#1991),
 .UNSPECIFIED.,.F.,.F.,(4,1,4),(0.,0.00280317772632553,0.00560635545265106),
 .UNSPECIFIED.);
#29=B_SPLINE_CURVE_WITH_KNOTS('',3,(#1993,#1994,#1995,#1996),
 .UNSPECIFIED.,.F.,.F.,(4,4),(0.00298169120832234,0.0116990740723485),
 .UNSPECIFIED.);
#30=B_SPLINE_CURVE_WITH_KNOTS('',3,(#2017,#2018,#2019,#2020,#2021,#2022,
#2023,#2024,#2025,#2026,#2027,#2028,#2029,#2030,#2031,#2032,#2033,#2034,
#2035,#2036,#2037,#2038,#2039,#2040,#2041,#2042,#2043),.UNSPECIFIED.,.T.,
 .F.,(1,1,1,1,1,1,1,1,1,1,1,1,1,1,1,1,1,1,1,1,1,1,1,1,1,1,1,1,1,1,1),(-0.00463154690833664,
-0.00370523752666931,-0.00185261876333466,0.,0.00185261876333465,0.00370523752666931,
0.00555785629000396,0.00648416567167129,0.00741047505333862,0.00926309381667327,
0.0111157125800079,0.0129683313433426,0.0148209501066772,0.0166735688700119,
0.0175998782516792,0.0185261876333465,0.0194524970150139,0.0203788063966812,
0.0208419610875149,0.0213051157783485,0.0217682704691822,0.0222314251600158,
0.0231577345416832,0.0240840439233505,0.0250103533050178,0.0259366626866852,
0.0277892814500198,0.0296419002133545,0.0314945189766891,0.0333471377400238,
0.0351997565033584),.UNSPECIFIED.);
#31=B_SPLINE_CURVE_WITH_KNOTS('',3,(#2055,#2056,#2057,#2058,#2059,#2060,
#2061,#2062,#2063,#2064,#2065,#2066,#2067,#2068,#2069),.UNSPECIFIED.,.F.,
 .F.,(4,1,1,1,1,1,1,1,1,1,1,1,4),(0.0247837721279724,0.027603319107235,
0.0304228660864977,0.031832639576129,0.0332424130657603,0.0346521865553916,
0.036061960045023,0.0374717335346543,0.0388815070242856,0.0402912805139169,
0.0417010540035482,0.0445206009828109,0.0473401479620735),.UNSPECIFIED.);
#32=PLANE('',#1342);
#33=PLANE('',#1345);
#34=PLANE('',#1348);
#35=PLANE('',#1351);
#36=PLANE('',#1354);
#37=PLANE('',#1359);
#38=PLANE('',#1361);
#39=PLANE('',#1366);
#40=PLANE('',#1379);
#41=PLANE('',#1389);
#42=PLANE('',#1391);
#43=PLANE('',#1393);
#44=PLANE('',#1394);
#45=PLANE('',#1404);
#46=PLANE('',#1409);
#47=PLANE('',#1410);
#48=PLANE('',#1411);
#49=PLANE('',#1413);
#50=PLANE('',#1414);
#51=PLANE('',#1415);
#52=PLANE('',#1417);
#53=PLANE('',#1421);
#54=PLANE('',#1422);
#55=PLANE('',#1438);
#56=PLANE('',#1441);
#57=PLANE('',#1442);
#58=PLANE('',#1443);
#59=PLANE('',#1446);
#60=PLANE('',#1447);
#61=PLANE('',#1448);
#62=PLANE('',#1449);
#63=PLANE('',#1450);
#64=PLANE('',#1451);
#65=PLANE('',#1452);
#66=PLANE('',#1453);
#67=PLANE('',#1455);
#68=PLANE('',#1457);
#69=PLANE('',#1458);
#70=PLANE('',#1459);
#71=PLANE('',#1460);
#72=PLANE('',#1461);
#73=PLANE('',#1462);
#74=PLANE('',#1465);
#75=PLANE('',#1468);
#76=PLANE('',#1472);
#77=PLANE('',#1473);
#78=PLANE('',#1474);
#79=PLANE('',#1475);
#80=CIRCLE('',#1340,0.00425);
#81=CIRCLE('',#1341,0.00425);
#82=CIRCLE('',#1343,0.01225);
#83=CIRCLE('',#1344,0.01225);
#84=CIRCLE('',#1346,0.008);
#85=CIRCLE('',#1347,0.007);
#86=CIRCLE('',#1349,0.008);
#87=CIRCLE('',#1350,0.0225);
#88=CIRCLE('',#1352,0.008);
#89=CIRCLE('',#1353,0.0225);
#90=CIRCLE('',#1355,0.008);
#91=CIRCLE('',#1357,0.00325);
#92=CIRCLE('',#1358,0.00325);
#93=CIRCLE('',#1360,0.01225);
#94=CIRCLE('',#1362,0.0225);
#95=CIRCLE('',#1363,0.007);
#96=CIRCLE('',#1364,0.0026);
#97=CIRCLE('',#1365,0.0026);
#98=CIRCLE('',#1368,0.00325);
#99=CIRCLE('',#1369,0.00325);
#100=CIRCLE('',#1371,0.007);
#101=CIRCLE('',#1372,0.007);
#102=CIRCLE('',#1373,0.007);
#103=CIRCLE('',#1375,0.0225);
#104=CIRCLE('',#1376,0.0225);
#105=CIRCLE('',#1377,0.0225);
#106=CIRCLE('',#1378,0.0225);
#107=CIRCLE('',#1380,0.01225);
#108=CIRCLE('',#1381,0.01225);
#109=CIRCLE('',#1382,0.00254);
#110=CIRCLE('',#1383,0.00254);
#111=CIRCLE('',#1384,0.00254);
#112=CIRCLE('',#1385,0.00254);
#113=CIRCLE('',#1387,0.013);
#114=CIRCLE('',#1388,0.013);
#115=CIRCLE('',#1390,0.008);
#116=CIRCLE('',#1392,0.01225);
#117=CIRCLE('',#1395,0.0137935579406204);
#118=CIRCLE('',#1399,0.01225);
#119=CIRCLE('',#1400,0.01225);
#120=CIRCLE('',#1402,0.01225);
#121=CIRCLE('',#1403,0.01225);
#122=CIRCLE('',#1406,0.00325);
#123=CIRCLE('',#1408,0.00325);
#124=CIRCLE('',#1412,0.00420647089872892);
#125=CIRCLE('',#1416,0.00625);
#126=CIRCLE('',#1418,0.00425);
#127=CIRCLE('',#1420,0.0181929669918454);
#128=CIRCLE('',#1437,0.0026);
#129=CIRCLE('',#1440,0.0026);
#130=CIRCLE('',#1444,0.008);
#131=CIRCLE('',#1463,0.00625);
#132=CIRCLE('',#1466,0.00420647089872892);
#133=CIRCLE('',#1470,0.00425);
#134=CIRCLE('',#1471,0.00425);
#135=ORIENTED_EDGE('',*,*,#503,.F.);
#136=ORIENTED_EDGE('',*,*,#504,.F.);
#137=ORIENTED_EDGE('',*,*,#505,.T.);
#138=ORIENTED_EDGE('',*,*,#506,.T.);
#139=ORIENTED_EDGE('',*,*,#507,.F.);
#140=ORIENTED_EDGE('',*,*,#508,.F.);
#141=ORIENTED_EDGE('',*,*,#509,.T.);
#142=ORIENTED_EDGE('',*,*,#510,.F.);
#143=ORIENTED_EDGE('',*,*,#511,.T.);
#144=ORIENTED_EDGE('',*,*,#512,.F.);
#145=ORIENTED_EDGE('',*,*,#513,.F.);
#146=ORIENTED_EDGE('',*,*,#514,.T.);
#147=ORIENTED_EDGE('',*,*,#515,.F.);
#148=ORIENTED_EDGE('',*,*,#516,.T.);
#149=ORIENTED_EDGE('',*,*,#517,.T.);
#150=ORIENTED_EDGE('',*,*,#518,.F.);
#151=ORIENTED_EDGE('',*,*,#519,.T.);
#152=ORIENTED_EDGE('',*,*,#520,.T.);
#153=ORIENTED_EDGE('',*,*,#521,.F.);
#154=ORIENTED_EDGE('',*,*,#522,.F.);
#155=ORIENTED_EDGE('',*,*,#523,.F.);
#156=ORIENTED_EDGE('',*,*,#524,.T.);
#157=ORIENTED_EDGE('',*,*,#525,.T.);
#158=ORIENTED_EDGE('',*,*,#526,.T.);
#159=ORIENTED_EDGE('',*,*,#527,.F.);
#160=ORIENTED_EDGE('',*,*,#528,.F.);
#161=ORIENTED_EDGE('',*,*,#529,.F.);
#162=ORIENTED_EDGE('',*,*,#530,.T.);
#163=ORIENTED_EDGE('',*,*,#531,.F.);
#164=ORIENTED_EDGE('',*,*,#532,.T.);
#165=ORIENTED_EDGE('',*,*,#533,.F.);
#166=ORIENTED_EDGE('',*,*,#534,.F.);
#167=ORIENTED_EDGE('',*,*,#535,.T.);
#168=ORIENTED_EDGE('',*,*,#536,.F.);
#169=ORIENTED_EDGE('',*,*,#537,.F.);
#170=ORIENTED_EDGE('',*,*,#538,.T.);
#171=ORIENTED_EDGE('',*,*,#539,.T.);
#172=ORIENTED_EDGE('',*,*,#540,.T.);
#173=ORIENTED_EDGE('',*,*,#541,.T.);
#174=ORIENTED_EDGE('',*,*,#542,.T.);
#175=ORIENTED_EDGE('',*,*,#543,.T.);
#176=ORIENTED_EDGE('',*,*,#544,.F.);
#177=ORIENTED_EDGE('',*,*,#545,.F.);
#178=ORIENTED_EDGE('',*,*,#546,.T.);
#179=ORIENTED_EDGE('',*,*,#547,.F.);
#180=ORIENTED_EDGE('',*,*,#511,.F.);
#181=ORIENTED_EDGE('',*,*,#548,.T.);
#182=ORIENTED_EDGE('',*,*,#549,.T.);
#183=ORIENTED_EDGE('',*,*,#550,.T.);
#184=ORIENTED_EDGE('',*,*,#551,.T.);
#185=ORIENTED_EDGE('',*,*,#552,.F.);
#186=ORIENTED_EDGE('',*,*,#529,.T.);
#187=ORIENTED_EDGE('',*,*,#553,.T.);
#188=ORIENTED_EDGE('',*,*,#554,.F.);
#189=ORIENTED_EDGE('',*,*,#555,.T.);
#190=ORIENTED_EDGE('',*,*,#556,.T.);
#191=ORIENTED_EDGE('',*,*,#557,.T.);
#192=ORIENTED_EDGE('',*,*,#558,.T.);
#193=ORIENTED_EDGE('',*,*,#559,.T.);
#194=ORIENTED_EDGE('',*,*,#560,.T.);
#195=ORIENTED_EDGE('',*,*,#561,.T.);
#196=ORIENTED_EDGE('',*,*,#518,.T.);
#197=ORIENTED_EDGE('',*,*,#562,.T.);
#198=ORIENTED_EDGE('',*,*,#563,.T.);
#199=ORIENTED_EDGE('',*,*,#564,.F.);
#200=ORIENTED_EDGE('',*,*,#565,.T.);
#201=ORIENTED_EDGE('',*,*,#566,.F.);
#202=ORIENTED_EDGE('',*,*,#567,.T.);
#203=ORIENTED_EDGE('',*,*,#550,.F.);
#204=ORIENTED_EDGE('',*,*,#568,.T.);
#205=ORIENTED_EDGE('',*,*,#569,.T.);
#206=ORIENTED_EDGE('',*,*,#570,.T.);
#207=ORIENTED_EDGE('',*,*,#571,.T.);
#208=ORIENTED_EDGE('',*,*,#572,.T.);
#209=ORIENTED_EDGE('',*,*,#573,.T.);
#210=ORIENTED_EDGE('',*,*,#574,.T.);
#211=ORIENTED_EDGE('',*,*,#575,.F.);
#212=ORIENTED_EDGE('',*,*,#576,.T.);
#213=ORIENTED_EDGE('',*,*,#577,.T.);
#214=ORIENTED_EDGE('',*,*,#578,.T.);
#215=ORIENTED_EDGE('',*,*,#579,.F.);
#216=ORIENTED_EDGE('',*,*,#580,.F.);
#217=ORIENTED_EDGE('',*,*,#581,.T.);
#218=ORIENTED_EDGE('',*,*,#537,.T.);
#219=ORIENTED_EDGE('',*,*,#582,.T.);
#220=ORIENTED_EDGE('',*,*,#583,.T.);
#221=ORIENTED_EDGE('',*,*,#545,.T.);
#222=ORIENTED_EDGE('',*,*,#584,.T.);
#223=ORIENTED_EDGE('',*,*,#585,.T.);
#224=ORIENTED_EDGE('',*,*,#586,.F.);
#225=ORIENTED_EDGE('',*,*,#587,.T.);
#226=ORIENTED_EDGE('',*,*,#588,.T.);
#227=ORIENTED_EDGE('',*,*,#589,.T.);
#228=ORIENTED_EDGE('',*,*,#590,.F.);
#229=ORIENTED_EDGE('',*,*,#591,.F.);
#230=ORIENTED_EDGE('',*,*,#592,.T.);
#231=ORIENTED_EDGE('',*,*,#593,.T.);
#232=ORIENTED_EDGE('',*,*,#594,.T.);
#233=ORIENTED_EDGE('',*,*,#595,.F.);
#234=ORIENTED_EDGE('',*,*,#596,.T.);
#235=ORIENTED_EDGE('',*,*,#597,.T.);
#236=ORIENTED_EDGE('',*,*,#598,.T.);
#237=ORIENTED_EDGE('',*,*,#599,.T.);
#238=ORIENTED_EDGE('',*,*,#600,.F.);
#239=ORIENTED_EDGE('',*,*,#601,.F.);
#240=ORIENTED_EDGE('',*,*,#602,.F.);
#241=ORIENTED_EDGE('',*,*,#603,.T.);
#242=ORIENTED_EDGE('',*,*,#604,.F.);
#243=ORIENTED_EDGE('',*,*,#602,.T.);
#244=ORIENTED_EDGE('',*,*,#605,.F.);
#245=ORIENTED_EDGE('',*,*,#606,.T.);
#246=ORIENTED_EDGE('',*,*,#607,.T.);
#247=ORIENTED_EDGE('',*,*,#546,.F.);
#248=ORIENTED_EDGE('',*,*,#583,.F.);
#249=ORIENTED_EDGE('',*,*,#608,.F.);
#250=ORIENTED_EDGE('',*,*,#584,.F.);
#251=ORIENTED_EDGE('',*,*,#549,.F.);
#252=ORIENTED_EDGE('',*,*,#609,.T.);
#253=ORIENTED_EDGE('',*,*,#610,.T.);
#254=ORIENTED_EDGE('',*,*,#556,.F.);
#255=ORIENTED_EDGE('',*,*,#611,.T.);
#256=ORIENTED_EDGE('',*,*,#612,.T.);
#257=ORIENTED_EDGE('',*,*,#595,.T.);
#258=ORIENTED_EDGE('',*,*,#613,.T.);
#259=ORIENTED_EDGE('',*,*,#614,.T.);
#260=ORIENTED_EDGE('',*,*,#540,.F.);
#261=ORIENTED_EDGE('',*,*,#603,.F.);
#262=ORIENTED_EDGE('',*,*,#615,.T.);
#263=ORIENTED_EDGE('',*,*,#514,.F.);
#264=ORIENTED_EDGE('',*,*,#616,.F.);
#265=ORIENTED_EDGE('',*,*,#605,.T.);
#266=ORIENTED_EDGE('',*,*,#617,.T.);
#267=ORIENTED_EDGE('',*,*,#536,.T.);
#268=ORIENTED_EDGE('',*,*,#618,.F.);
#269=ORIENTED_EDGE('',*,*,#588,.F.);
#270=ORIENTED_EDGE('',*,*,#619,.F.);
#271=ORIENTED_EDGE('',*,*,#620,.T.);
#272=ORIENTED_EDGE('',*,*,#508,.T.);
#273=ORIENTED_EDGE('',*,*,#621,.F.);
#274=ORIENTED_EDGE('',*,*,#622,.F.);
#275=ORIENTED_EDGE('',*,*,#623,.T.);
#276=ORIENTED_EDGE('',*,*,#586,.T.);
#277=ORIENTED_EDGE('',*,*,#624,.T.);
#278=ORIENTED_EDGE('',*,*,#625,.F.);
#279=ORIENTED_EDGE('',*,*,#626,.T.);
#280=ORIENTED_EDGE('',*,*,#559,.F.);
#281=ORIENTED_EDGE('',*,*,#625,.T.);
#282=ORIENTED_EDGE('',*,*,#627,.T.);
#283=ORIENTED_EDGE('',*,*,#628,.F.);
#284=ORIENTED_EDGE('',*,*,#629,.F.);
#285=ORIENTED_EDGE('',*,*,#568,.F.);
#286=ORIENTED_EDGE('',*,*,#630,.T.);
#287=ORIENTED_EDGE('',*,*,#575,.T.);
#288=ORIENTED_EDGE('',*,*,#631,.F.);
#289=ORIENTED_EDGE('',*,*,#632,.T.);
#290=ORIENTED_EDGE('',*,*,#633,.T.);
#291=ORIENTED_EDGE('',*,*,#634,.T.);
#292=ORIENTED_EDGE('',*,*,#635,.T.);
#293=ORIENTED_EDGE('',*,*,#636,.T.);
#294=ORIENTED_EDGE('',*,*,#567,.F.);
#295=ORIENTED_EDGE('',*,*,#637,.F.);
#296=ORIENTED_EDGE('',*,*,#578,.F.);
#297=ORIENTED_EDGE('',*,*,#506,.F.);
#298=ORIENTED_EDGE('',*,*,#573,.F.);
#299=ORIENTED_EDGE('',*,*,#523,.T.);
#300=ORIENTED_EDGE('',*,*,#638,.T.);
#301=ORIENTED_EDGE('',*,*,#634,.F.);
#302=ORIENTED_EDGE('',*,*,#577,.F.);
#303=ORIENTED_EDGE('',*,*,#580,.T.);
#304=ORIENTED_EDGE('',*,*,#639,.F.);
#305=ORIENTED_EDGE('',*,*,#579,.T.);
#306=ORIENTED_EDGE('',*,*,#637,.T.);
#307=ORIENTED_EDGE('',*,*,#566,.T.);
#308=ORIENTED_EDGE('',*,*,#640,.F.);
#309=ORIENTED_EDGE('',*,*,#519,.F.);
#310=ORIENTED_EDGE('',*,*,#564,.T.);
#311=ORIENTED_EDGE('',*,*,#641,.F.);
#312=ORIENTED_EDGE('',*,*,#642,.T.);
#313=ORIENTED_EDGE('',*,*,#533,.T.);
#314=ORIENTED_EDGE('',*,*,#643,.T.);
#315=ORIENTED_EDGE('',*,*,#644,.F.);
#316=ORIENTED_EDGE('',*,*,#585,.F.);
#317=ORIENTED_EDGE('',*,*,#608,.T.);
#318=ORIENTED_EDGE('',*,*,#645,.T.);
#319=ORIENTED_EDGE('',*,*,#646,.T.);
#320=ORIENTED_EDGE('',*,*,#641,.T.);
#321=ORIENTED_EDGE('',*,*,#563,.F.);
#322=ORIENTED_EDGE('',*,*,#647,.F.);
#323=ORIENTED_EDGE('',*,*,#527,.T.);
#324=ORIENTED_EDGE('',*,*,#531,.T.);
#325=ORIENTED_EDGE('',*,*,#642,.F.);
#326=ORIENTED_EDGE('',*,*,#646,.F.);
#327=ORIENTED_EDGE('',*,*,#648,.F.);
#328=ORIENTED_EDGE('',*,*,#649,.F.);
#329=ORIENTED_EDGE('',*,*,#569,.F.);
#330=ORIENTED_EDGE('',*,*,#644,.T.);
#331=ORIENTED_EDGE('',*,*,#562,.F.);
#332=ORIENTED_EDGE('',*,*,#517,.F.);
#333=ORIENTED_EDGE('',*,*,#525,.F.);
#334=ORIENTED_EDGE('',*,*,#571,.F.);
#335=ORIENTED_EDGE('',*,*,#558,.F.);
#336=ORIENTED_EDGE('',*,*,#650,.T.);
#337=ORIENTED_EDGE('',*,*,#538,.F.);
#338=ORIENTED_EDGE('',*,*,#581,.F.);
#339=ORIENTED_EDGE('',*,*,#524,.F.);
#340=ORIENTED_EDGE('',*,*,#572,.F.);
#341=ORIENTED_EDGE('',*,*,#530,.F.);
#342=ORIENTED_EDGE('',*,*,#593,.F.);
#343=ORIENTED_EDGE('',*,*,#651,.T.);
#344=ORIENTED_EDGE('',*,*,#652,.T.);
#345=ORIENTED_EDGE('',*,*,#653,.T.);
#346=ORIENTED_EDGE('',*,*,#654,.T.);
#347=ORIENTED_EDGE('',*,*,#655,.T.);
#348=ORIENTED_EDGE('',*,*,#597,.F.);
#349=ORIENTED_EDGE('',*,*,#656,.T.);
#350=ORIENTED_EDGE('',*,*,#594,.F.);
#351=ORIENTED_EDGE('',*,*,#653,.F.);
#352=ORIENTED_EDGE('',*,*,#657,.F.);
#353=ORIENTED_EDGE('',*,*,#613,.F.);
#354=ORIENTED_EDGE('',*,*,#592,.F.);
#355=ORIENTED_EDGE('',*,*,#658,.F.);
#356=ORIENTED_EDGE('',*,*,#659,.F.);
#357=ORIENTED_EDGE('',*,*,#651,.F.);
#358=ORIENTED_EDGE('',*,*,#657,.T.);
#359=ORIENTED_EDGE('',*,*,#652,.F.);
#360=ORIENTED_EDGE('',*,*,#659,.T.);
#361=ORIENTED_EDGE('',*,*,#660,.F.);
#362=ORIENTED_EDGE('',*,*,#541,.F.);
#363=ORIENTED_EDGE('',*,*,#614,.F.);
#364=ORIENTED_EDGE('',*,*,#598,.F.);
#365=ORIENTED_EDGE('',*,*,#655,.F.);
#366=ORIENTED_EDGE('',*,*,#661,.F.);
#367=ORIENTED_EDGE('',*,*,#662,.F.);
#368=ORIENTED_EDGE('',*,*,#596,.F.);
#369=ORIENTED_EDGE('',*,*,#612,.F.);
#370=ORIENTED_EDGE('',*,*,#663,.F.);
#371=ORIENTED_EDGE('',*,*,#656,.F.);
#372=ORIENTED_EDGE('',*,*,#661,.T.);
#373=ORIENTED_EDGE('',*,*,#654,.F.);
#374=ORIENTED_EDGE('',*,*,#663,.T.);
#375=ORIENTED_EDGE('',*,*,#611,.F.);
#376=ORIENTED_EDGE('',*,*,#555,.F.);
#377=ORIENTED_EDGE('',*,*,#664,.F.);
#378=ORIENTED_EDGE('',*,*,#539,.F.);
#379=ORIENTED_EDGE('',*,*,#650,.F.);
#380=ORIENTED_EDGE('',*,*,#557,.F.);
#381=ORIENTED_EDGE('',*,*,#610,.F.);
#382=ORIENTED_EDGE('',*,*,#665,.T.);
#383=ORIENTED_EDGE('',*,*,#551,.F.);
#384=ORIENTED_EDGE('',*,*,#665,.F.);
#385=ORIENTED_EDGE('',*,*,#666,.F.);
#386=ORIENTED_EDGE('',*,*,#552,.T.);
#387=ORIENTED_EDGE('',*,*,#666,.T.);
#388=ORIENTED_EDGE('',*,*,#534,.T.);
#389=ORIENTED_EDGE('',*,*,#617,.F.);
#390=ORIENTED_EDGE('',*,*,#582,.F.);
#391=ORIENTED_EDGE('',*,*,#640,.T.);
#392=ORIENTED_EDGE('',*,*,#565,.F.);
#393=ORIENTED_EDGE('',*,*,#643,.F.);
#394=ORIENTED_EDGE('',*,*,#667,.T.);
#395=ORIENTED_EDGE('',*,*,#604,.T.);
#396=ORIENTED_EDGE('',*,*,#520,.F.);
#397=ORIENTED_EDGE('',*,*,#667,.F.);
#398=ORIENTED_EDGE('',*,*,#532,.F.);
#399=ORIENTED_EDGE('',*,*,#526,.F.);
#400=ORIENTED_EDGE('',*,*,#516,.F.);
#401=ORIENTED_EDGE('',*,*,#521,.T.);
#402=ORIENTED_EDGE('',*,*,#515,.T.);
#403=ORIENTED_EDGE('',*,*,#561,.F.);
#404=ORIENTED_EDGE('',*,*,#636,.F.);
#405=ORIENTED_EDGE('',*,*,#668,.T.);
#406=ORIENTED_EDGE('',*,*,#635,.F.);
#407=ORIENTED_EDGE('',*,*,#638,.F.);
#408=ORIENTED_EDGE('',*,*,#522,.T.);
#409=ORIENTED_EDGE('',*,*,#668,.F.);
#410=ORIENTED_EDGE('',*,*,#669,.F.);
#411=ORIENTED_EDGE('',*,*,#622,.T.);
#412=ORIENTED_EDGE('',*,*,#670,.T.);
#413=ORIENTED_EDGE('',*,*,#620,.F.);
#414=ORIENTED_EDGE('',*,*,#507,.T.);
#415=ORIENTED_EDGE('',*,*,#615,.F.);
#416=ORIENTED_EDGE('',*,*,#670,.F.);
#417=ORIENTED_EDGE('',*,*,#621,.T.);
#418=ORIENTED_EDGE('',*,*,#587,.F.);
#419=ORIENTED_EDGE('',*,*,#623,.F.);
#420=ORIENTED_EDGE('',*,*,#669,.T.);
#421=ORIENTED_EDGE('',*,*,#619,.T.);
#422=ORIENTED_EDGE('',*,*,#509,.F.);
#423=ORIENTED_EDGE('',*,*,#626,.F.);
#424=ORIENTED_EDGE('',*,*,#629,.T.);
#425=ORIENTED_EDGE('',*,*,#671,.T.);
#426=ORIENTED_EDGE('',*,*,#627,.F.);
#427=ORIENTED_EDGE('',*,*,#624,.F.);
#428=ORIENTED_EDGE('',*,*,#601,.T.);
#429=ORIENTED_EDGE('',*,*,#672,.T.);
#430=ORIENTED_EDGE('',*,*,#599,.F.);
#431=ORIENTED_EDGE('',*,*,#662,.T.);
#432=ORIENTED_EDGE('',*,*,#673,.T.);
#433=ORIENTED_EDGE('',*,*,#674,.F.);
#434=ORIENTED_EDGE('',*,*,#664,.T.);
#435=ORIENTED_EDGE('',*,*,#554,.T.);
#436=ORIENTED_EDGE('',*,*,#675,.F.);
#437=ORIENTED_EDGE('',*,*,#673,.F.);
#438=ORIENTED_EDGE('',*,*,#674,.T.);
#439=ORIENTED_EDGE('',*,*,#675,.T.);
#440=ORIENTED_EDGE('',*,*,#553,.F.);
#441=ORIENTED_EDGE('',*,*,#528,.T.);
#442=ORIENTED_EDGE('',*,*,#648,.T.);
#443=ORIENTED_EDGE('',*,*,#645,.F.);
#444=ORIENTED_EDGE('',*,*,#609,.F.);
#445=ORIENTED_EDGE('',*,*,#548,.F.);
#446=ORIENTED_EDGE('',*,*,#510,.T.);
#447=ORIENTED_EDGE('',*,*,#671,.F.);
#448=ORIENTED_EDGE('',*,*,#628,.T.);
#449=ORIENTED_EDGE('',*,*,#672,.F.);
#450=ORIENTED_EDGE('',*,*,#600,.T.);
#451=ORIENTED_EDGE('',*,*,#542,.F.);
#452=ORIENTED_EDGE('',*,*,#660,.T.);
#453=ORIENTED_EDGE('',*,*,#676,.T.);
#454=ORIENTED_EDGE('',*,*,#677,.F.);
#455=ORIENTED_EDGE('',*,*,#676,.F.);
#456=ORIENTED_EDGE('',*,*,#658,.T.);
#457=ORIENTED_EDGE('',*,*,#591,.T.);
#458=ORIENTED_EDGE('',*,*,#678,.F.);
#459=ORIENTED_EDGE('',*,*,#589,.F.);
#460=ORIENTED_EDGE('',*,*,#618,.T.);
#461=ORIENTED_EDGE('',*,*,#544,.T.);
#462=ORIENTED_EDGE('',*,*,#679,.F.);
#463=ORIENTED_EDGE('',*,*,#679,.T.);
#464=ORIENTED_EDGE('',*,*,#543,.F.);
#465=ORIENTED_EDGE('',*,*,#677,.T.);
#466=ORIENTED_EDGE('',*,*,#678,.T.);
#467=ORIENTED_EDGE('',*,*,#590,.T.);
#468=ORIENTED_EDGE('',*,*,#616,.T.);
#469=ORIENTED_EDGE('',*,*,#513,.T.);
#470=ORIENTED_EDGE('',*,*,#680,.F.);
#471=ORIENTED_EDGE('',*,*,#606,.F.);
#472=ORIENTED_EDGE('',*,*,#607,.F.);
#473=ORIENTED_EDGE('',*,*,#680,.T.);
#474=ORIENTED_EDGE('',*,*,#512,.T.);
#475=ORIENTED_EDGE('',*,*,#547,.T.);
#476=ORIENTED_EDGE('',*,*,#560,.F.);
#477=ORIENTED_EDGE('',*,*,#681,.T.);
#478=ORIENTED_EDGE('',*,*,#681,.F.);
#479=ORIENTED_EDGE('',*,*,#647,.T.);
#480=ORIENTED_EDGE('',*,*,#535,.F.);
#481=ORIENTED_EDGE('',*,*,#682,.T.);
#482=ORIENTED_EDGE('',*,*,#682,.F.);
#483=ORIENTED_EDGE('',*,*,#639,.T.);
#484=ORIENTED_EDGE('',*,*,#683,.F.);
#485=ORIENTED_EDGE('',*,*,#632,.F.);
#486=ORIENTED_EDGE('',*,*,#684,.F.);
#487=ORIENTED_EDGE('',*,*,#504,.T.);
#488=ORIENTED_EDGE('',*,*,#685,.F.);
#489=ORIENTED_EDGE('',*,*,#686,.T.);
#490=ORIENTED_EDGE('',*,*,#649,.T.);
#491=ORIENTED_EDGE('',*,*,#630,.F.);
#492=ORIENTED_EDGE('',*,*,#685,.T.);
#493=ORIENTED_EDGE('',*,*,#570,.F.);
#494=ORIENTED_EDGE('',*,*,#686,.F.);
#495=ORIENTED_EDGE('',*,*,#683,.T.);
#496=ORIENTED_EDGE('',*,*,#503,.T.);
#497=ORIENTED_EDGE('',*,*,#576,.F.);
#498=ORIENTED_EDGE('',*,*,#633,.F.);
#499=ORIENTED_EDGE('',*,*,#684,.T.);
#500=ORIENTED_EDGE('',*,*,#631,.T.);
#501=ORIENTED_EDGE('',*,*,#574,.F.);
#502=ORIENTED_EDGE('',*,*,#505,.F.);
#503=EDGE_CURVE('',#687,#688,#810,.T.);
#504=EDGE_CURVE('',#689,#687,#80,.T.);
#505=EDGE_CURVE('',#689,#690,#811,.T.);
#506=EDGE_CURVE('',#690,#688,#81,.T.);
#507=EDGE_CURVE('',#691,#692,#812,.T.);
#508=EDGE_CURVE('',#693,#691,#82,.T.);
#509=EDGE_CURVE('',#693,#694,#813,.T.);
#510=EDGE_CURVE('',#695,#694,#814,.T.);
#511=EDGE_CURVE('',#695,#696,#815,.T.);
#512=EDGE_CURVE('',#697,#696,#816,.F.);
#513=EDGE_CURVE('',#698,#697,#817,.T.);
#514=EDGE_CURVE('',#698,#692,#83,.T.);
#515=EDGE_CURVE('',#699,#700,#818,.T.);
#516=EDGE_CURVE('',#699,#701,#84,.F.);
#517=EDGE_CURVE('',#701,#702,#819,.T.);
#518=EDGE_CURVE('',#700,#702,#85,.F.);
#519=EDGE_CURVE('',#703,#704,#820,.T.);
#520=EDGE_CURVE('',#704,#699,#86,.F.);
#521=EDGE_CURVE('',#705,#699,#821,.T.);
#522=EDGE_CURVE('',#706,#705,#822,.F.);
#523=EDGE_CURVE('',#707,#706,#823,.T.);
#524=EDGE_CURVE('',#707,#703,#87,.T.);
#525=EDGE_CURVE('',#708,#701,#824,.T.);
#526=EDGE_CURVE('',#701,#709,#88,.F.);
#527=EDGE_CURVE('',#710,#709,#825,.T.);
#528=EDGE_CURVE('',#711,#710,#826,.T.);
#529=EDGE_CURVE('',#712,#711,#827,.T.);
#530=EDGE_CURVE('',#712,#708,#89,.T.);
#531=EDGE_CURVE('',#709,#713,#828,.T.);
#532=EDGE_CURVE('',#709,#714,#90,.F.);
#533=EDGE_CURVE('',#713,#714,#829,.T.);
#534=EDGE_CURVE('',#715,#715,#91,.T.);
#535=EDGE_CURVE('',#716,#716,#92,.T.);
#536=EDGE_CURVE('',#717,#718,#93,.T.);
#537=EDGE_CURVE('',#719,#717,#830,.T.);
#538=EDGE_CURVE('',#719,#720,#26,.T.);
#539=EDGE_CURVE('',#720,#721,#27,.T.);
#540=EDGE_CURVE('',#721,#722,#831,.T.);
#541=EDGE_CURVE('',#722,#723,#832,.F.);
#542=EDGE_CURVE('',#723,#724,#833,.T.);
#543=EDGE_CURVE('',#724,#725,#834,.F.);
#544=EDGE_CURVE('',#718,#725,#835,.T.);
#545=EDGE_CURVE('',#726,#727,#94,.T.);
#546=EDGE_CURVE('',#726,#728,#836,.T.);
#547=EDGE_CURVE('',#696,#728,#837,.T.);
#548=EDGE_CURVE('',#695,#729,#838,.F.);
#549=EDGE_CURVE('',#729,#727,#839,.T.);
#550=EDGE_CURVE('',#730,#730,#95,.T.);
#551=EDGE_CURVE('',#731,#731,#96,.T.);
#552=EDGE_CURVE('',#732,#732,#97,.T.);
#553=EDGE_CURVE('',#711,#733,#840,.T.);
#554=EDGE_CURVE('',#734,#733,#841,.T.);
#555=EDGE_CURVE('',#734,#735,#842,.F.);
#556=EDGE_CURVE('',#735,#736,#843,.T.);
#557=EDGE_CURVE('',#736,#737,#28,.T.);
#558=EDGE_CURVE('',#737,#712,#29,.T.);
#559=EDGE_CURVE('',#738,#738,#98,.T.);
#560=EDGE_CURVE('',#739,#739,#99,.T.);
#561=EDGE_CURVE('',#740,#700,#844,.T.);
#562=EDGE_CURVE('',#702,#741,#845,.F.);
#563=EDGE_CURVE('',#741,#742,#100,.F.);
#564=EDGE_CURVE('',#743,#742,#846,.F.);
#565=EDGE_CURVE('',#743,#744,#101,.F.);
#566=EDGE_CURVE('',#745,#744,#847,.T.);
#567=EDGE_CURVE('',#745,#740,#102,.F.);
#568=EDGE_CURVE('',#746,#746,#30,.T.);
#569=EDGE_CURVE('',#747,#748,#848,.F.);
#570=EDGE_CURVE('',#748,#749,#849,.F.);
#571=EDGE_CURVE('',#749,#708,#850,.F.);
#572=EDGE_CURVE('',#708,#707,#103,.F.);
#573=EDGE_CURVE('',#707,#690,#851,.T.);
#574=EDGE_CURVE('',#690,#750,#852,.T.);
#575=EDGE_CURVE('',#751,#750,#31,.T.);
#576=EDGE_CURVE('',#751,#688,#853,.T.);
#577=EDGE_CURVE('',#688,#752,#854,.T.);
#578=EDGE_CURVE('',#752,#753,#104,.T.);
#579=EDGE_CURVE('',#754,#753,#855,.T.);
#580=EDGE_CURVE('',#703,#754,#856,.T.);
#581=EDGE_CURVE('',#703,#719,#105,.F.);
#582=EDGE_CURVE('',#717,#755,#857,.T.);
#583=EDGE_CURVE('',#755,#726,#858,.T.);
#584=EDGE_CURVE('',#727,#756,#859,.F.);
#585=EDGE_CURVE('',#756,#747,#106,.T.);
#586=EDGE_CURVE('',#757,#758,#107,.T.);
#587=EDGE_CURVE('',#757,#759,#860,.T.);
#588=EDGE_CURVE('',#759,#760,#108,.T.);
#589=EDGE_CURVE('',#760,#761,#861,.T.);
#590=EDGE_CURVE('',#762,#761,#862,.F.);
#591=EDGE_CURVE('',#763,#762,#863,.T.);
#592=EDGE_CURVE('',#763,#764,#109,.F.);
#593=EDGE_CURVE('',#764,#765,#864,.F.);
#594=EDGE_CURVE('',#765,#766,#110,.F.);
#595=EDGE_CURVE('',#767,#766,#865,.T.);
#596=EDGE_CURVE('',#767,#768,#111,.F.);
#597=EDGE_CURVE('',#768,#769,#866,.F.);
#598=EDGE_CURVE('',#769,#770,#112,.F.);
#599=EDGE_CURVE('',#770,#771,#867,.T.);
#600=EDGE_CURVE('',#772,#771,#868,.T.);
#601=EDGE_CURVE('',#758,#772,#869,.T.);
#602=EDGE_CURVE('',#773,#773,#113,.T.);
#603=EDGE_CURVE('',#774,#774,#114,.T.);
#604=EDGE_CURVE('',#775,#775,#115,.T.);
#605=EDGE_CURVE('',#776,#755,#116,.T.);
#606=EDGE_CURVE('',#776,#777,#870,.T.);
#607=EDGE_CURVE('',#777,#728,#871,.F.);
#608=EDGE_CURVE('',#756,#778,#872,.T.);
#609=EDGE_CURVE('',#729,#778,#873,.T.);
#610=EDGE_CURVE('',#721,#736,#117,.T.);
#611=EDGE_CURVE('',#735,#779,#16,.T.);
#612=EDGE_CURVE('',#779,#767,#874,.F.);
#613=EDGE_CURVE('',#766,#780,#875,.F.);
#614=EDGE_CURVE('',#780,#722,#17,.T.);
#615=EDGE_CURVE('',#781,#692,#876,.T.);
#616=EDGE_CURVE('',#776,#698,#877,.T.);
#617=EDGE_CURVE('',#755,#717,#118,.T.);
#618=EDGE_CURVE('',#760,#718,#878,.F.);
#619=EDGE_CURVE('',#782,#759,#879,.T.);
#620=EDGE_CURVE('',#782,#781,#119,.T.);
#621=EDGE_CURVE('',#783,#691,#880,.T.);
#622=EDGE_CURVE('',#784,#783,#120,.F.);
#623=EDGE_CURVE('',#784,#757,#881,.T.);
#624=EDGE_CURVE('',#758,#785,#882,.F.);
#625=EDGE_CURVE('',#786,#785,#121,.T.);
#626=EDGE_CURVE('',#786,#693,#883,.T.);
#627=EDGE_CURVE('',#785,#787,#884,.T.);
#628=EDGE_CURVE('',#788,#787,#885,.T.);
#629=EDGE_CURVE('',#786,#788,#886,.T.);
#630=EDGE_CURVE('',#789,#789,#122,.T.);
#631=EDGE_CURVE('',#790,#750,#887,.T.);
#632=EDGE_CURVE('',#790,#791,#123,.T.);
#633=EDGE_CURVE('',#791,#751,#888,.T.);
#634=EDGE_CURVE('',#752,#792,#889,.T.);
#635=EDGE_CURVE('',#792,#793,#890,.F.);
#636=EDGE_CURVE('',#793,#740,#891,.T.);
#637=EDGE_CURVE('',#753,#745,#892,.T.);
#638=EDGE_CURVE('',#706,#792,#893,.F.);
#639=EDGE_CURVE('',#754,#754,#124,.T.);
#640=EDGE_CURVE('',#704,#744,#894,.T.);
#641=EDGE_CURVE('',#794,#742,#895,.T.);
#642=EDGE_CURVE('',#794,#713,#896,.T.);
#643=EDGE_CURVE('',#714,#743,#897,.T.);
#644=EDGE_CURVE('',#747,#741,#898,.T.);
#645=EDGE_CURVE('',#778,#795,#899,.T.);
#646=EDGE_CURVE('',#795,#794,#900,.T.);
#647=EDGE_CURVE('',#796,#796,#125,.T.);
#648=EDGE_CURVE('',#710,#795,#901,.F.);
#649=EDGE_CURVE('',#748,#749,#126,.T.);
#650=EDGE_CURVE('',#737,#720,#127,.F.);
#651=EDGE_CURVE('',#764,#797,#902,.F.);
#652=EDGE_CURVE('',#797,#798,#903,.F.);
#653=EDGE_CURVE('',#798,#765,#904,.F.);
#654=EDGE_CURVE('',#799,#800,#905,.F.);
#655=EDGE_CURVE('',#800,#769,#906,.F.);
#656=EDGE_CURVE('',#768,#799,#907,.F.);
#657=EDGE_CURVE('',#780,#798,#18,.F.);
#658=EDGE_CURVE('',#801,#763,#908,.F.);
#659=EDGE_CURVE('',#797,#801,#19,.T.);
#660=EDGE_CURVE('',#723,#801,#20,.T.);
#661=EDGE_CURVE('',#802,#800,#21,.F.);
#662=EDGE_CURVE('',#770,#802,#909,.F.);
#663=EDGE_CURVE('',#799,#779,#22,.T.);
#664=EDGE_CURVE('',#802,#734,#23,.T.);
#665=EDGE_CURVE('',#803,#803,#128,.T.);
#666=EDGE_CURVE('',#804,#804,#129,.T.);
#667=EDGE_CURVE('',#714,#704,#130,.F.);
#668=EDGE_CURVE('',#793,#705,#910,.T.);
#669=EDGE_CURVE('',#784,#782,#911,.T.);
#670=EDGE_CURVE('',#783,#781,#912,.T.);
#671=EDGE_CURVE('',#788,#694,#913,.T.);
#672=EDGE_CURVE('',#772,#787,#914,.F.);
#673=EDGE_CURVE('',#802,#805,#915,.T.);
#674=EDGE_CURVE('',#771,#805,#916,.F.);
#675=EDGE_CURVE('',#805,#733,#24,.T.);
#676=EDGE_CURVE('',#801,#806,#917,.T.);
#677=EDGE_CURVE('',#724,#806,#25,.T.);
#678=EDGE_CURVE('',#806,#762,#918,.F.);
#679=EDGE_CURVE('',#761,#725,#919,.T.);
#680=EDGE_CURVE('',#777,#697,#920,.F.);
#681=EDGE_CURVE('',#807,#807,#131,.T.);
#682=EDGE_CURVE('',#808,#808,#132,.T.);
#683=EDGE_CURVE('',#791,#687,#921,.T.);
#684=EDGE_CURVE('',#689,#790,#922,.T.);
#685=EDGE_CURVE('',#809,#809,#133,.T.);
#686=EDGE_CURVE('',#749,#748,#134,.T.);
#687=VERTEX_POINT('',#1868);
#688=VERTEX_POINT('',#1869);
#689=VERTEX_POINT('',#1871);
#690=VERTEX_POINT('',#1873);
#691=VERTEX_POINT('',#1877);
#692=VERTEX_POINT('',#1878);
#693=VERTEX_POINT('',#1880);
#694=VERTEX_POINT('',#1882);
#695=VERTEX_POINT('',#1884);
#696=VERTEX_POINT('',#1886);
#697=VERTEX_POINT('',#1888);
#698=VERTEX_POINT('',#1890);
#699=VERTEX_POINT('',#1894);
#700=VERTEX_POINT('',#1895);
#701=VERTEX_POINT('',#1897);
#702=VERTEX_POINT('',#1899);
#703=VERTEX_POINT('',#1903);
#704=VERTEX_POINT('',#1904);
#705=VERTEX_POINT('',#1907);
#706=VERTEX_POINT('',#1909);
#707=VERTEX_POINT('',#1911);
#708=VERTEX_POINT('',#1915);
#709=VERTEX_POINT('',#1917);
#710=VERTEX_POINT('',#1919);
#711=VERTEX_POINT('',#1921);
#712=VERTEX_POINT('',#1923);
#713=VERTEX_POINT('',#1927);
#714=VERTEX_POINT('',#1929);
#715=VERTEX_POINT('',#1933);
#716=VERTEX_POINT('',#1935);
#717=VERTEX_POINT('',#1938);
#718=VERTEX_POINT('',#1939);
#719=VERTEX_POINT('',#1941);
#720=VERTEX_POINT('',#1946);
#721=VERTEX_POINT('',#1952);
#722=VERTEX_POINT('',#1954);
#723=VERTEX_POINT('',#1956);
#724=VERTEX_POINT('',#1958);
#725=VERTEX_POINT('',#1960);
#726=VERTEX_POINT('',#1964);
#727=VERTEX_POINT('',#1965);
#728=VERTEX_POINT('',#1967);
#729=VERTEX_POINT('',#1970);
#730=VERTEX_POINT('',#1973);
#731=VERTEX_POINT('',#1975);
#732=VERTEX_POINT('',#1977);
#733=VERTEX_POINT('',#1980);
#734=VERTEX_POINT('',#1982);
#735=VERTEX_POINT('',#1984);
#736=VERTEX_POINT('',#1986);
#737=VERTEX_POINT('',#1992);
#738=VERTEX_POINT('',#1999);
#739=VERTEX_POINT('',#2001);
#740=VERTEX_POINT('',#2004);
#741=VERTEX_POINT('',#2006);
#742=VERTEX_POINT('',#2008);
#743=VERTEX_POINT('',#2010);
#744=VERTEX_POINT('',#2012);
#745=VERTEX_POINT('',#2014);
#746=VERTEX_POINT('',#2044);
#747=VERTEX_POINT('',#2046);
#748=VERTEX_POINT('',#2047);
#749=VERTEX_POINT('',#2049);
#750=VERTEX_POINT('',#2054);
#751=VERTEX_POINT('',#2070);
#752=VERTEX_POINT('',#2073);
#753=VERTEX_POINT('',#2075);
#754=VERTEX_POINT('',#2077);
#755=VERTEX_POINT('',#2081);
#756=VERTEX_POINT('',#2084);
#757=VERTEX_POINT('',#2088);
#758=VERTEX_POINT('',#2089);
#759=VERTEX_POINT('',#2091);
#760=VERTEX_POINT('',#2093);
#761=VERTEX_POINT('',#2095);
#762=VERTEX_POINT('',#2097);
#763=VERTEX_POINT('',#2099);
#764=VERTEX_POINT('',#2101);
#765=VERTEX_POINT('',#2103);
#766=VERTEX_POINT('',#2105);
#767=VERTEX_POINT('',#2107);
#768=VERTEX_POINT('',#2109);
#769=VERTEX_POINT('',#2111);
#770=VERTEX_POINT('',#2113);
#771=VERTEX_POINT('',#2115);
#772=VERTEX_POINT('',#2117);
#773=VERTEX_POINT('',#2121);
#774=VERTEX_POINT('',#2123);
#775=VERTEX_POINT('',#2126);
#776=VERTEX_POINT('',#2129);
#777=VERTEX_POINT('',#2131);
#778=VERTEX_POINT('',#2135);
#779=VERTEX_POINT('',#2140);
#780=VERTEX_POINT('',#2143);
#781=VERTEX_POINT('',#2147);
#782=VERTEX_POINT('',#2152);
#783=VERTEX_POINT('',#2156);
#784=VERTEX_POINT('',#2158);
#785=VERTEX_POINT('',#2161);
#786=VERTEX_POINT('',#2163);
#787=VERTEX_POINT('',#2167);
#788=VERTEX_POINT('',#2169);
#789=VERTEX_POINT('',#2173);
#790=VERTEX_POINT('',#2176);
#791=VERTEX_POINT('',#2178);
#792=VERTEX_POINT('',#2182);
#793=VERTEX_POINT('',#2184);
#794=VERTEX_POINT('',#2194);
#795=VERTEX_POINT('',#2200);
#796=VERTEX_POINT('',#2204);
#797=VERTEX_POINT('',#2212);
#798=VERTEX_POINT('',#2214);
#799=VERTEX_POINT('',#2218);
#800=VERTEX_POINT('',#2219);
#801=VERTEX_POINT('',#2226);
#802=VERTEX_POINT('',#2232);
#803=VERTEX_POINT('',#2241);
#804=VERTEX_POINT('',#2245);
#805=VERTEX_POINT('',#2265);
#806=VERTEX_POINT('',#2286);
#807=VERTEX_POINT('',#2298);
#808=VERTEX_POINT('',#2302);
#809=VERTEX_POINT('',#2309);
#810=LINE('',#1867,#923);
#811=LINE('',#1872,#924);
#812=LINE('',#1876,#925);
#813=LINE('',#1881,#926);
#814=LINE('',#1883,#927);
#815=LINE('',#1885,#928);
#816=LINE('',#1887,#929);
#817=LINE('',#1889,#930);
#818=LINE('',#1893,#931);
#819=LINE('',#1898,#932);
#820=LINE('',#1902,#933);
#821=LINE('',#1906,#934);
#822=LINE('',#1908,#935);
#823=LINE('',#1910,#936);
#824=LINE('',#1914,#937);
#825=LINE('',#1918,#938);
#826=LINE('',#1920,#939);
#827=LINE('',#1922,#940);
#828=LINE('',#1926,#941);
#829=LINE('',#1930,#942);
#830=LINE('',#1940,#943);
#831=LINE('',#1953,#944);
#832=LINE('',#1955,#945);
#833=LINE('',#1957,#946);
#834=LINE('',#1959,#947);
#835=LINE('',#1961,#948);
#836=LINE('',#1966,#949);
#837=LINE('',#1968,#950);
#838=LINE('',#1969,#951);
#839=LINE('',#1971,#952);
#840=LINE('',#1979,#953);
#841=LINE('',#1981,#954);
#842=LINE('',#1983,#955);
#843=LINE('',#1985,#956);
#844=LINE('',#2003,#957);
#845=LINE('',#2005,#958);
#846=LINE('',#2009,#959);
#847=LINE('',#2013,#960);
#848=LINE('',#2045,#961);
#849=LINE('',#2048,#962);
#850=LINE('',#2050,#963);
#851=LINE('',#2052,#964);
#852=LINE('',#2053,#965);
#853=LINE('',#2071,#966);
#854=LINE('',#2072,#967);
#855=LINE('',#2076,#968);
#856=LINE('',#2078,#969);
#857=LINE('',#2080,#970);
#858=LINE('',#2082,#971);
#859=LINE('',#2083,#972);
#860=LINE('',#2090,#973);
#861=LINE('',#2094,#974);
#862=LINE('',#2096,#975);
#863=LINE('',#2098,#976);
#864=LINE('',#2102,#977);
#865=LINE('',#2106,#978);
#866=LINE('',#2110,#979);
#867=LINE('',#2114,#980);
#868=LINE('',#2116,#981);
#869=LINE('',#2118,#982);
#870=LINE('',#2130,#983);
#871=LINE('',#2132,#984);
#872=LINE('',#2134,#985);
#873=LINE('',#2136,#986);
#874=LINE('',#2141,#987);
#875=LINE('',#2142,#988);
#876=LINE('',#2146,#989);
#877=LINE('',#2148,#990);
#878=LINE('',#2150,#991);
#879=LINE('',#2151,#992);
#880=LINE('',#2155,#993);
#881=LINE('',#2159,#994);
#882=LINE('',#2160,#995);
#883=LINE('',#2164,#996);
#884=LINE('',#2166,#997);
#885=LINE('',#2168,#998);
#886=LINE('',#2170,#999);
#887=LINE('',#2175,#1000);
#888=LINE('',#2179,#1001);
#889=LINE('',#2181,#1002);
#890=LINE('',#2183,#1003);
#891=LINE('',#2185,#1004);
#892=LINE('',#2186,#1005);
#893=LINE('',#2188,#1006);
#894=LINE('',#2191,#1007);
#895=LINE('',#2193,#1008);
#896=LINE('',#2195,#1009);
#897=LINE('',#2196,#1010);
#898=LINE('',#2198,#1011);
#899=LINE('',#2199,#1012);
#900=LINE('',#2201,#1013);
#901=LINE('',#2205,#1014);
#902=LINE('',#2211,#1015);
#903=LINE('',#2213,#1016);
#904=LINE('',#2215,#1017);
#905=LINE('',#2217,#1018);
#906=LINE('',#2220,#1019);
#907=LINE('',#2221,#1020);
#908=LINE('',#2225,#1021);
#909=LINE('',#2233,#1022);
#910=LINE('',#2252,#1023);
#911=LINE('',#2255,#1024);
#912=LINE('',#2256,#1025);
#913=LINE('',#2260,#1026);
#914=LINE('',#2262,#1027);
#915=LINE('',#2264,#1028);
#916=LINE('',#2266,#1029);
#917=LINE('',#2285,#1030);
#918=LINE('',#2289,#1031);
#919=LINE('',#2291,#1032);
#920=LINE('',#2294,#1033);
#921=LINE('',#2305,#1034);
#922=LINE('',#2306,#1035);
#923=VECTOR('',#1480,1.);
#924=VECTOR('',#1483,1.);
#925=VECTOR('',#1488,1.);
#926=VECTOR('',#1491,1.);
#927=VECTOR('',#1492,1.);
#928=VECTOR('',#1493,1.);
#929=VECTOR('',#1494,1.);
#930=VECTOR('',#1495,1.);
#931=VECTOR('',#1500,1.);
#932=VECTOR('',#1503,1.);
#933=VECTOR('',#1508,1.);
#934=VECTOR('',#1511,1.);
#935=VECTOR('',#1512,1.);
#936=VECTOR('',#1513,1.);
#937=VECTOR('',#1518,1.);
#938=VECTOR('',#1521,1.);
#939=VECTOR('',#1522,1.);
#940=VECTOR('',#1523,1.);
#941=VECTOR('',#1528,1.);
#942=VECTOR('',#1531,1.);
#943=VECTOR('',#1542,1.);
#944=VECTOR('',#1543,1.);
#945=VECTOR('',#1544,1.);
#946=VECTOR('',#1545,1.);
#947=VECTOR('',#1546,1.);
#948=VECTOR('',#1547,1.);
#949=VECTOR('',#1552,1.);
#950=VECTOR('',#1553,1.);
#951=VECTOR('',#1554,1.);
#952=VECTOR('',#1555,1.);
#953=VECTOR('',#1564,1.);
#954=VECTOR('',#1565,1.);
#955=VECTOR('',#1566,1.);
#956=VECTOR('',#1567,1.);
#957=VECTOR('',#1576,1.);
#958=VECTOR('',#1577,1.);
#959=VECTOR('',#1580,1.);
#960=VECTOR('',#1583,1.);
#961=VECTOR('',#1588,1.);
#962=VECTOR('',#1589,1.);
#963=VECTOR('',#1590,1.);
#964=VECTOR('',#1593,1.);
#965=VECTOR('',#1594,1.);
#966=VECTOR('',#1595,1.);
#967=VECTOR('',#1596,1.);
#968=VECTOR('',#1599,1.);
#969=VECTOR('',#1600,1.);
#970=VECTOR('',#1603,1.);
#971=VECTOR('',#1604,1.);
#972=VECTOR('',#1605,1.);
#973=VECTOR('',#1612,1.);
#974=VECTOR('',#1615,1.);
#975=VECTOR('',#1616,1.);
#976=VECTOR('',#1617,1.);
#977=VECTOR('',#1620,1.);
#978=VECTOR('',#1623,1.);
#979=VECTOR('',#1626,1.);
#980=VECTOR('',#1629,1.);
#981=VECTOR('',#1630,1.);
#982=VECTOR('',#1631,1.);
#983=VECTOR('',#1646,1.);
#984=VECTOR('',#1647,1.);
#985=VECTOR('',#1650,1.);
#986=VECTOR('',#1651,1.);
#987=VECTOR('',#1658,1.);
#988=VECTOR('',#1659,1.);
#989=VECTOR('',#1664,1.);
#990=VECTOR('',#1665,1.);
#991=VECTOR('',#1668,1.);
#992=VECTOR('',#1669,1.);
#993=VECTOR('',#1674,1.);
#994=VECTOR('',#1677,1.);
#995=VECTOR('',#1678,1.);
#996=VECTOR('',#1681,1.);
#997=VECTOR('',#1684,1.);
#998=VECTOR('',#1685,1.);
#999=VECTOR('',#1686,1.);
#1000=VECTOR('',#1693,1.);
#1001=VECTOR('',#1696,1.);
#1002=VECTOR('',#1699,1.);
#1003=VECTOR('',#1700,1.);
#1004=VECTOR('',#1701,1.);
#1005=VECTOR('',#1702,1.);
#1006=VECTOR('',#1705,1.);
#1007=VECTOR('',#1710,1.);
#1008=VECTOR('',#1713,1.);
#1009=VECTOR('',#1714,1.);
#1010=VECTOR('',#1715,1.);
#1011=VECTOR('',#1718,1.);
#1012=VECTOR('',#1719,1.);
#1013=VECTOR('',#1720,1.);
#1014=VECTOR('',#1725,1.);
#1015=VECTOR('',#1736,1.);
#1016=VECTOR('',#1737,1.);
#1017=VECTOR('',#1738,1.);
#1018=VECTOR('',#1741,1.);
#1019=VECTOR('',#1742,1.);
#1020=VECTOR('',#1743,1.);
#1021=VECTOR('',#1750,1.);
#1022=VECTOR('',#1761,1.);
#1023=VECTOR('',#1794,1.);
#1024=VECTOR('',#1799,1.);
#1025=VECTOR('',#1800,1.);
#1026=VECTOR('',#1807,1.);
#1027=VECTOR('',#1810,1.);
#1028=VECTOR('',#1813,1.);
#1029=VECTOR('',#1814,1.);
#1030=VECTOR('',#1819,1.);
#1031=VECTOR('',#1824,1.);
#1032=VECTOR('',#1827,1.);
#1033=VECTOR('',#1832,1.);
#1034=VECTOR('',#1849,1.);
#1035=VECTOR('',#1850,1.);
#1036=EDGE_LOOP('',(#135,#136,#137,#138));
#1037=EDGE_LOOP('',(#139,#140,#141,#142,#143,#144,#145,#146));
#1038=EDGE_LOOP('',(#147,#148,#149,#150));
#1039=EDGE_LOOP('',(#151,#152,#153,#154,#155,#156));
#1040=EDGE_LOOP('',(#157,#158,#159,#160,#161,#162));
#1041=EDGE_LOOP('',(#163,#164,#165));
#1042=EDGE_LOOP('',(#166));
#1043=EDGE_LOOP('',(#167));
#1044=EDGE_LOOP('',(#168,#169,#170,#171,#172,#173,#174,#175,#176));
#1045=EDGE_LOOP('',(#177,#178,#179,#180,#181,#182));
#1046=EDGE_LOOP('',(#183));
#1047=EDGE_LOOP('',(#184));
#1048=EDGE_LOOP('',(#185));
#1049=EDGE_LOOP('',(#186,#187,#188,#189,#190,#191,#192));
#1050=EDGE_LOOP('',(#193));
#1051=EDGE_LOOP('',(#194));
#1052=EDGE_LOOP('',(#195,#196,#197,#198,#199,#200,#201,#202));
#1053=EDGE_LOOP('',(#203));
#1054=EDGE_LOOP('',(#204));
#1055=EDGE_LOOP('',(#205,#206,#207,#208,#209,#210,#211,#212,#213,#214,#215,
#216,#217,#218,#219,#220,#221,#222,#223));
#1056=EDGE_LOOP('',(#224,#225,#226,#227,#228,#229,#230,#231,#232,#233,#234,
#235,#236,#237,#238,#239));
#1057=EDGE_LOOP('',(#240));
#1058=EDGE_LOOP('',(#241));
#1059=EDGE_LOOP('',(#242));
#1060=EDGE_LOOP('',(#243));
#1061=EDGE_LOOP('',(#244,#245,#246,#247,#248));
#1062=EDGE_LOOP('',(#249,#250,#251,#252));
#1063=EDGE_LOOP('',(#253,#254,#255,#256,#257,#258,#259,#260));
#1064=EDGE_LOOP('',(#261));
#1065=EDGE_LOOP('',(#262,#263,#264,#265,#266,#267,#268,#269,#270,#271));
#1066=EDGE_LOOP('',(#272,#273,#274,#275,#276,#277,#278,#279));
#1067=EDGE_LOOP('',(#280));
#1068=EDGE_LOOP('',(#281,#282,#283,#284));
#1069=EDGE_LOOP('',(#285));
#1070=EDGE_LOOP('',(#286));
#1071=EDGE_LOOP('',(#287,#288,#289,#290));
#1072=EDGE_LOOP('',(#291,#292,#293,#294,#295,#296));
#1073=EDGE_LOOP('',(#297,#298,#299,#300,#301,#302));
#1074=EDGE_LOOP('',(#303,#304,#305,#306,#307,#308,#309));
#1075=EDGE_LOOP('',(#310,#311,#312,#313,#314));
#1076=EDGE_LOOP('',(#315,#316,#317,#318,#319,#320,#321));
#1077=EDGE_LOOP('',(#322));
#1078=EDGE_LOOP('',(#323,#324,#325,#326,#327));
#1079=EDGE_LOOP('',(#328,#329,#330,#331,#332,#333,#334));
#1080=EDGE_LOOP('',(#335,#336,#337,#338,#339,#340,#341));
#1081=EDGE_LOOP('',(#342,#343,#344,#345));
#1082=EDGE_LOOP('',(#346,#347,#348,#349));
#1083=EDGE_LOOP('',(#350,#351,#352,#353));
#1084=EDGE_LOOP('',(#354,#355,#356,#357));
#1085=EDGE_LOOP('',(#358,#359,#360,#361,#362,#363));
#1086=EDGE_LOOP('',(#364,#365,#366,#367));
#1087=EDGE_LOOP('',(#368,#369,#370,#371));
#1088=EDGE_LOOP('',(#372,#373,#374,#375,#376,#377));
#1089=EDGE_LOOP('',(#378,#379,#380,#381));
#1090=EDGE_LOOP('',(#382));
#1091=EDGE_LOOP('',(#383));
#1092=EDGE_LOOP('',(#384));
#1093=EDGE_LOOP('',(#385));
#1094=EDGE_LOOP('',(#386));
#1095=EDGE_LOOP('',(#387));
#1096=EDGE_LOOP('',(#388));
#1097=EDGE_LOOP('',(#389,#390));
#1098=EDGE_LOOP('',(#391,#392,#393,#394));
#1099=EDGE_LOOP('',(#395));
#1100=EDGE_LOOP('',(#396,#397,#398,#399,#400));
#1101=EDGE_LOOP('',(#401,#402,#403,#404,#405));
#1102=EDGE_LOOP('',(#406,#407,#408,#409));
#1103=EDGE_LOOP('',(#410,#411,#412,#413));
#1104=EDGE_LOOP('',(#414,#415,#416,#417));
#1105=EDGE_LOOP('',(#418,#419,#420,#421));
#1106=EDGE_LOOP('',(#422,#423,#424,#425));
#1107=EDGE_LOOP('',(#426,#427,#428,#429));
#1108=EDGE_LOOP('',(#430,#431,#432,#433));
#1109=EDGE_LOOP('',(#434,#435,#436,#437));
#1110=EDGE_LOOP('',(#438,#439,#440,#441,#442,#443,#444,#445,#446,#447,#448,
#449,#450));
#1111=EDGE_LOOP('',(#451,#452,#453,#454));
#1112=EDGE_LOOP('',(#455,#456,#457,#458));
#1113=EDGE_LOOP('',(#459,#460,#461,#462));
#1114=EDGE_LOOP('',(#463,#464,#465,#466,#467));
#1115=EDGE_LOOP('',(#468,#469,#470,#471));
#1116=EDGE_LOOP('',(#472,#473,#474,#475));
#1117=EDGE_LOOP('',(#476));
#1118=EDGE_LOOP('',(#477));
#1119=EDGE_LOOP('',(#478));
#1120=EDGE_LOOP('',(#479));
#1121=EDGE_LOOP('',(#480));
#1122=EDGE_LOOP('',(#481));
#1123=EDGE_LOOP('',(#482));
#1124=EDGE_LOOP('',(#483));
#1125=EDGE_LOOP('',(#484,#485,#486,#487));
#1126=EDGE_LOOP('',(#488));
#1127=EDGE_LOOP('',(#489,#490));
#1128=EDGE_LOOP('',(#491));
#1129=EDGE_LOOP('',(#492));
#1130=EDGE_LOOP('',(#493,#494));
#1131=EDGE_LOOP('',(#495,#496,#497,#498));
#1132=EDGE_LOOP('',(#499,#500,#501,#502));
#1133=FACE_BOUND('',#1036,.T.);
#1134=FACE_BOUND('',#1037,.T.);
#1135=FACE_BOUND('',#1038,.T.);
#1136=FACE_BOUND('',#1039,.T.);
#1137=FACE_BOUND('',#1040,.T.);
#1138=FACE_BOUND('',#1041,.T.);
#1139=FACE_BOUND('',#1042,.T.);
#1140=FACE_BOUND('',#1043,.T.);
#1141=FACE_BOUND('',#1044,.T.);
#1142=FACE_BOUND('',#1045,.T.);
#1143=FACE_BOUND('',#1046,.T.);
#1144=FACE_BOUND('',#1047,.T.);
#1145=FACE_BOUND('',#1048,.T.);
#1146=FACE_BOUND('',#1049,.T.);
#1147=FACE_BOUND('',#1050,.T.);
#1148=FACE_BOUND('',#1051,.T.);
#1149=FACE_BOUND('',#1052,.T.);
#1150=FACE_BOUND('',#1053,.T.);
#1151=FACE_BOUND('',#1054,.T.);
#1152=FACE_BOUND('',#1055,.T.);
#1153=FACE_BOUND('',#1056,.T.);
#1154=FACE_BOUND('',#1057,.T.);
#1155=FACE_BOUND('',#1058,.T.);
#1156=FACE_BOUND('',#1059,.T.);
#1157=FACE_BOUND('',#1060,.T.);
#1158=FACE_BOUND('',#1061,.T.);
#1159=FACE_BOUND('',#1062,.T.);
#1160=FACE_BOUND('',#1063,.T.);
#1161=FACE_BOUND('',#1064,.T.);
#1162=FACE_BOUND('',#1065,.T.);
#1163=FACE_BOUND('',#1066,.T.);
#1164=FACE_BOUND('',#1067,.T.);
#1165=FACE_BOUND('',#1068,.T.);
#1166=FACE_BOUND('',#1069,.T.);
#1167=FACE_BOUND('',#1070,.T.);
#1168=FACE_BOUND('',#1071,.T.);
#1169=FACE_BOUND('',#1072,.T.);
#1170=FACE_BOUND('',#1073,.T.);
#1171=FACE_BOUND('',#1074,.T.);
#1172=FACE_BOUND('',#1075,.T.);
#1173=FACE_BOUND('',#1076,.T.);
#1174=FACE_BOUND('',#1077,.T.);
#1175=FACE_BOUND('',#1078,.T.);
#1176=FACE_BOUND('',#1079,.T.);
#1177=FACE_BOUND('',#1080,.T.);
#1178=FACE_BOUND('',#1081,.T.);
#1179=FACE_BOUND('',#1082,.T.);
#1180=FACE_BOUND('',#1083,.T.);
#1181=FACE_BOUND('',#1084,.T.);
#1182=FACE_BOUND('',#1085,.T.);
#1183=FACE_BOUND('',#1086,.T.);
#1184=FACE_BOUND('',#1087,.T.);
#1185=FACE_BOUND('',#1088,.T.);
#1186=FACE_BOUND('',#1089,.T.);
#1187=FACE_BOUND('',#1090,.T.);
#1188=FACE_BOUND('',#1091,.T.);
#1189=FACE_BOUND('',#1092,.T.);
#1190=FACE_BOUND('',#1093,.T.);
#1191=FACE_BOUND('',#1094,.T.);
#1192=FACE_BOUND('',#1095,.T.);
#1193=FACE_BOUND('',#1096,.T.);
#1194=FACE_BOUND('',#1097,.T.);
#1195=FACE_BOUND('',#1098,.T.);
#1196=FACE_BOUND('',#1099,.T.);
#1197=FACE_BOUND('',#1100,.T.);
#1198=FACE_BOUND('',#1101,.T.);
#1199=FACE_BOUND('',#1102,.T.);
#1200=FACE_BOUND('',#1103,.T.);
#1201=FACE_BOUND('',#1104,.T.);
#1202=FACE_BOUND('',#1105,.T.);
#1203=FACE_BOUND('',#1106,.T.);
#1204=FACE_BOUND('',#1107,.T.);
#1205=FACE_BOUND('',#1108,.T.);
#1206=FACE_BOUND('',#1109,.T.);
#1207=FACE_BOUND('',#1110,.T.);
#1208=FACE_BOUND('',#1111,.T.);
#1209=FACE_BOUND('',#1112,.T.);
#1210=FACE_BOUND('',#1113,.T.);
#1211=FACE_BOUND('',#1114,.T.);
#1212=FACE_BOUND('',#1115,.T.);
#1213=FACE_BOUND('',#1116,.T.);
#1214=FACE_BOUND('',#1117,.T.);
#1215=FACE_BOUND('',#1118,.T.);
#1216=FACE_BOUND('',#1119,.T.);
#1217=FACE_BOUND('',#1120,.T.);
#1218=FACE_BOUND('',#1121,.T.);
#1219=FACE_BOUND('',#1122,.T.);
#1220=FACE_BOUND('',#1123,.T.);
#1221=FACE_BOUND('',#1124,.T.);
#1222=FACE_BOUND('',#1125,.T.);
#1223=FACE_BOUND('',#1126,.T.);
#1224=FACE_BOUND('',#1127,.T.);
#1225=FACE_BOUND('',#1128,.T.);
#1226=FACE_BOUND('',#1129,.T.);
#1227=FACE_BOUND('',#1130,.T.);
#1228=FACE_BOUND('',#1131,.T.);
#1229=FACE_BOUND('',#1132,.T.);
#1230=CYLINDRICAL_SURFACE('',#1339,0.00425);
#1231=CYLINDRICAL_SURFACE('',#1356,0.00325);
#1232=CYLINDRICAL_SURFACE('',#1367,0.00325);
#1233=CYLINDRICAL_SURFACE('',#1370,0.007);
#1234=CYLINDRICAL_SURFACE('',#1374,0.0225);
#1235=CYLINDRICAL_SURFACE('',#1386,0.013);
#1236=CYLINDRICAL_SURFACE('',#1398,0.01225);
#1237=CYLINDRICAL_SURFACE('',#1401,0.01225);
#1238=CYLINDRICAL_SURFACE('',#1405,0.00325);
#1239=CYLINDRICAL_SURFACE('',#1407,0.00325);
#1240=CYLINDRICAL_SURFACE('',#1423,0.00254);
#1241=CYLINDRICAL_SURFACE('',#1425,0.00254);
#1242=CYLINDRICAL_SURFACE('',#1427,0.00254);
#1243=CYLINDRICAL_SURFACE('',#1429,0.00254);
#1244=CYLINDRICAL_SURFACE('',#1431,0.00254);
#1245=CYLINDRICAL_SURFACE('',#1433,0.00254);
#1246=CYLINDRICAL_SURFACE('',#1436,0.0026);
#1247=CYLINDRICAL_SURFACE('',#1439,0.0026);
#1248=CYLINDRICAL_SURFACE('',#1445,0.008);
#1249=CYLINDRICAL_SURFACE('',#1464,0.00625);
#1250=CYLINDRICAL_SURFACE('',#1467,0.00420647089872892);
#1251=CYLINDRICAL_SURFACE('',#1469,0.00425);
#1252=ADVANCED_FACE('',(#1133),#1230,.T.);
#1253=ADVANCED_FACE('',(#1134),#32,.F.);
#1254=ADVANCED_FACE('',(#1135),#33,.F.);
#1255=ADVANCED_FACE('',(#1136),#34,.T.);
#1256=ADVANCED_FACE('',(#1137),#35,.T.);
#1257=ADVANCED_FACE('',(#1138),#36,.T.);
#1258=ADVANCED_FACE('',(#1139,#1140),#1231,.F.);
#1259=ADVANCED_FACE('',(#1141),#37,.T.);
#1260=ADVANCED_FACE('',(#1142,#1143,#1144,#1145),#38,.F.);
#1261=ADVANCED_FACE('',(#1146),#39,.T.);
#1262=ADVANCED_FACE('',(#1147,#1148),#1232,.F.);
#1263=ADVANCED_FACE('',(#1149,#1150),#1233,.F.);
#1264=ADVANCED_FACE('',(#1151,#1152),#1234,.T.);
#1265=ADVANCED_FACE('',(#1153),#40,.F.);
#1266=ADVANCED_FACE('',(#1154,#1155),#1235,.T.);
#1267=ADVANCED_FACE('',(#1156,#1157),#41,.T.);
#1268=ADVANCED_FACE('',(#1158),#42,.T.);
#1269=ADVANCED_FACE('',(#1159),#43,.T.);
#1270=ADVANCED_FACE('',(#1160,#1161),#44,.T.);
#1271=ADVANCED_FACE('',(#1162),#1236,.F.);
#1272=ADVANCED_FACE('',(#1163),#1237,.F.);
#1273=ADVANCED_FACE('',(#1164,#1165),#45,.T.);
#1274=ADVANCED_FACE('',(#1166,#1167),#1238,.F.);
#1275=ADVANCED_FACE('',(#1168),#1239,.F.);
#1276=ADVANCED_FACE('',(#1169),#46,.F.);
#1277=ADVANCED_FACE('',(#1170),#47,.F.);
#1278=ADVANCED_FACE('',(#1171),#48,.T.);
#1279=ADVANCED_FACE('',(#1172),#49,.T.);
#1280=ADVANCED_FACE('',(#1173),#50,.F.);
#1281=ADVANCED_FACE('',(#1174,#1175),#51,.T.);
#1282=ADVANCED_FACE('',(#1176),#52,.F.);
#1283=ADVANCED_FACE('',(#1177),#15,.T.);
#1284=ADVANCED_FACE('',(#1178),#53,.F.);
#1285=ADVANCED_FACE('',(#1179),#54,.F.);
#1286=ADVANCED_FACE('',(#1180),#1240,.T.);
#1287=ADVANCED_FACE('',(#1181),#1241,.T.);
#1288=ADVANCED_FACE('',(#1182),#1242,.T.);
#1289=ADVANCED_FACE('',(#1183),#1243,.T.);
#1290=ADVANCED_FACE('',(#1184),#1244,.T.);
#1291=ADVANCED_FACE('',(#1185),#1245,.T.);
#1292=ADVANCED_FACE('',(#1186),#14,.T.);
#1293=ADVANCED_FACE('',(#1187,#1188),#1246,.F.);
#1294=ADVANCED_FACE('',(#1189),#55,.T.);
#1295=ADVANCED_FACE('',(#1190,#1191),#1247,.F.);
#1296=ADVANCED_FACE('',(#1192),#56,.T.);
#1297=ADVANCED_FACE('',(#1193,#1194),#57,.T.);
#1298=ADVANCED_FACE('',(#1195),#58,.F.);
#1299=ADVANCED_FACE('',(#1196,#1197),#1248,.F.);
#1300=ADVANCED_FACE('',(#1198),#59,.F.);
#1301=ADVANCED_FACE('',(#1199),#60,.F.);
#1302=ADVANCED_FACE('',(#1200),#61,.T.);
#1303=ADVANCED_FACE('',(#1201),#62,.F.);
#1304=ADVANCED_FACE('',(#1202),#63,.T.);
#1305=ADVANCED_FACE('',(#1203),#64,.F.);
#1306=ADVANCED_FACE('',(#1204),#65,.T.);
#1307=ADVANCED_FACE('',(#1205),#66,.F.);
#1308=ADVANCED_FACE('',(#1206),#12,.T.);
#1309=ADVANCED_FACE('',(#1207),#67,.T.);
#1310=ADVANCED_FACE('',(#1208),#13,.T.);
#1311=ADVANCED_FACE('',(#1209),#68,.F.);
#1312=ADVANCED_FACE('',(#1210),#69,.F.);
#1313=ADVANCED_FACE('',(#1211),#70,.T.);
#1314=ADVANCED_FACE('',(#1212),#71,.T.);
#1315=ADVANCED_FACE('',(#1213),#72,.T.);
#1316=ADVANCED_FACE('',(#1214,#1215),#73,.T.);
#1317=ADVANCED_FACE('',(#1216,#1217),#1249,.T.);
#1318=ADVANCED_FACE('',(#1218,#1219),#74,.T.);
#1319=ADVANCED_FACE('',(#1220,#1221),#1250,.T.);
#1320=ADVANCED_FACE('',(#1222),#75,.T.);
#1321=ADVANCED_FACE('',(#1223,#1224),#1251,.T.);
#1322=ADVANCED_FACE('',(#1225,#1226),#76,.T.);
#1323=ADVANCED_FACE('',(#1227),#77,.F.);
#1324=ADVANCED_FACE('',(#1228),#78,.F.);
#1325=ADVANCED_FACE('',(#1229),#79,.F.);
#1326=CLOSED_SHELL('',(#1252,#1253,#1254,#1255,#1256,#1257,#1258,#1259,
#1260,#1261,#1262,#1263,#1264,#1265,#1266,#1267,#1268,#1269,#1270,#1271,
#1272,#1273,#1274,#1275,#1276,#1277,#1278,#1279,#1280,#1281,#1282,#1283,
#1284,#1285,#1286,#1287,#1288,#1289,#1290,#1291,#1292,#1293,#1294,#1295,
#1296,#1297,#1298,#1299,#1300,#1301,#1302,#1303,#1304,#1305,#1306,#1307,
#1308,#1309,#1310,#1311,#1312,#1313,#1314,#1315,#1316,#1317,#1318,#1319,
#1320,#1321,#1322,#1323,#1324,#1325));
#1327=STYLED_ITEM('',(#1328),#1335);
#1328=PRESENTATION_STYLE_ASSIGNMENT((#1329));
#1329=SURFACE_STYLE_USAGE(.BOTH.,#1330);
#1330=SURFACE_SIDE_STYLE('',(#1331));
#1331=SURFACE_STYLE_FILL_AREA(#1332);
#1332=FILL_AREA_STYLE('',(#1333));
#1333=FILL_AREA_STYLE_COLOUR('',#1334);
#1334=COLOUR_RGB('',0.262745098039216,0.282352941176471,0.301960784313725);
#1335=MANIFOLD_SOLID_BREP('Part 1',#1326);
#1336=SHAPE_DEFINITION_REPRESENTATION(#2321,#1337);
#1337=SHAPE_REPRESENTATION('Part 1',(#1338),#2316);
#1338=AXIS2_PLACEMENT_3D('',#1865,#1476,#1477);
#1339=AXIS2_PLACEMENT_3D('',#1866,#1478,#1479);
#1340=AXIS2_PLACEMENT_3D('',#1870,#1481,#1482);
#1341=AXIS2_PLACEMENT_3D('',#1874,#1484,#1485);
#1342=AXIS2_PLACEMENT_3D('',#1875,#1486,#1487);
#1343=AXIS2_PLACEMENT_3D('',#1879,#1489,#1490);
#1344=AXIS2_PLACEMENT_3D('',#1891,#1496,#1497);
#1345=AXIS2_PLACEMENT_3D('',#1892,#1498,#1499);
#1346=AXIS2_PLACEMENT_3D('',#1896,#1501,#1502);
#1347=AXIS2_PLACEMENT_3D('',#1900,#1504,#1505);
#1348=AXIS2_PLACEMENT_3D('',#1901,#1506,#1507);
#1349=AXIS2_PLACEMENT_3D('',#1905,#1509,#1510);
#1350=AXIS2_PLACEMENT_3D('',#1912,#1514,#1515);
#1351=AXIS2_PLACEMENT_3D('',#1913,#1516,#1517);
#1352=AXIS2_PLACEMENT_3D('',#1916,#1519,#1520);
#1353=AXIS2_PLACEMENT_3D('',#1924,#1524,#1525);
#1354=AXIS2_PLACEMENT_3D('',#1925,#1526,#1527);
#1355=AXIS2_PLACEMENT_3D('',#1928,#1529,#1530);
#1356=AXIS2_PLACEMENT_3D('',#1931,#1532,#1533);
#1357=AXIS2_PLACEMENT_3D('',#1932,#1534,#1535);
#1358=AXIS2_PLACEMENT_3D('',#1934,#1536,#1537);
#1359=AXIS2_PLACEMENT_3D('',#1936,#1538,#1539);
#1360=AXIS2_PLACEMENT_3D('',#1937,#1540,#1541);
#1361=AXIS2_PLACEMENT_3D('',#1962,#1548,#1549);
#1362=AXIS2_PLACEMENT_3D('',#1963,#1550,#1551);
#1363=AXIS2_PLACEMENT_3D('',#1972,#1556,#1557);
#1364=AXIS2_PLACEMENT_3D('',#1974,#1558,#1559);
#1365=AXIS2_PLACEMENT_3D('',#1976,#1560,#1561);
#1366=AXIS2_PLACEMENT_3D('',#1978,#1562,#1563);
#1367=AXIS2_PLACEMENT_3D('',#1997,#1568,#1569);
#1368=AXIS2_PLACEMENT_3D('',#1998,#1570,#1571);
#1369=AXIS2_PLACEMENT_3D('',#2000,#1572,#1573);
#1370=AXIS2_PLACEMENT_3D('',#2002,#1574,#1575);
#1371=AXIS2_PLACEMENT_3D('',#2007,#1578,#1579);
#1372=AXIS2_PLACEMENT_3D('',#2011,#1581,#1582);
#1373=AXIS2_PLACEMENT_3D('',#2015,#1584,#1585);
#1374=AXIS2_PLACEMENT_3D('',#2016,#1586,#1587);
#1375=AXIS2_PLACEMENT_3D('',#2051,#1591,#1592);
#1376=AXIS2_PLACEMENT_3D('',#2074,#1597,#1598);
#1377=AXIS2_PLACEMENT_3D('',#2079,#1601,#1602);
#1378=AXIS2_PLACEMENT_3D('',#2085,#1606,#1607);
#1379=AXIS2_PLACEMENT_3D('',#2086,#1608,#1609);
#1380=AXIS2_PLACEMENT_3D('',#2087,#1610,#1611);
#1381=AXIS2_PLACEMENT_3D('',#2092,#1613,#1614);
#1382=AXIS2_PLACEMENT_3D('',#2100,#1618,#1619);
#1383=AXIS2_PLACEMENT_3D('',#2104,#1621,#1622);
#1384=AXIS2_PLACEMENT_3D('',#2108,#1624,#1625);
#1385=AXIS2_PLACEMENT_3D('',#2112,#1627,#1628);
#1386=AXIS2_PLACEMENT_3D('',#2119,#1632,#1633);
#1387=AXIS2_PLACEMENT_3D('',#2120,#1634,#1635);
#1388=AXIS2_PLACEMENT_3D('',#2122,#1636,#1637);
#1389=AXIS2_PLACEMENT_3D('',#2124,#1638,#1639);
#1390=AXIS2_PLACEMENT_3D('',#2125,#1640,#1641);
#1391=AXIS2_PLACEMENT_3D('',#2127,#1642,#1643);
#1392=AXIS2_PLACEMENT_3D('',#2128,#1644,#1645);
#1393=AXIS2_PLACEMENT_3D('',#2133,#1648,#1649);
#1394=AXIS2_PLACEMENT_3D('',#2137,#1652,#1653);
#1395=AXIS2_PLACEMENT_3D('',#2138,#1654,#1655);
#1396=AXIS2_PLACEMENT_3D('',#2139,#1656,#1657);
#1397=AXIS2_PLACEMENT_3D('',#2144,#1660,#1661);
#1398=AXIS2_PLACEMENT_3D('',#2145,#1662,#1663);
#1399=AXIS2_PLACEMENT_3D('',#2149,#1666,#1667);
#1400=AXIS2_PLACEMENT_3D('',#2153,#1670,#1671);
#1401=AXIS2_PLACEMENT_3D('',#2154,#1672,#1673);
#1402=AXIS2_PLACEMENT_3D('',#2157,#1675,#1676);
#1403=AXIS2_PLACEMENT_3D('',#2162,#1679,#1680);
#1404=AXIS2_PLACEMENT_3D('',#2165,#1682,#1683);
#1405=AXIS2_PLACEMENT_3D('',#2171,#1687,#1688);
#1406=AXIS2_PLACEMENT_3D('',#2172,#1689,#1690);
#1407=AXIS2_PLACEMENT_3D('',#2174,#1691,#1692);
#1408=AXIS2_PLACEMENT_3D('',#2177,#1694,#1695);
#1409=AXIS2_PLACEMENT_3D('',#2180,#1697,#1698);
#1410=AXIS2_PLACEMENT_3D('',#2187,#1703,#1704);
#1411=AXIS2_PLACEMENT_3D('',#2189,#1706,#1707);
#1412=AXIS2_PLACEMENT_3D('',#2190,#1708,#1709);
#1413=AXIS2_PLACEMENT_3D('',#2192,#1711,#1712);
#1414=AXIS2_PLACEMENT_3D('',#2197,#1716,#1717);
#1415=AXIS2_PLACEMENT_3D('',#2202,#1721,#1722);
#1416=AXIS2_PLACEMENT_3D('',#2203,#1723,#1724);
#1417=AXIS2_PLACEMENT_3D('',#2206,#1726,#1727);
#1418=AXIS2_PLACEMENT_3D('',#2207,#1728,#1729);
#1419=AXIS2_PLACEMENT_3D('',#2208,#1730,#1731);
#1420=AXIS2_PLACEMENT_3D('',#2209,#1732,#1733);
#1421=AXIS2_PLACEMENT_3D('',#2210,#1734,#1735);
#1422=AXIS2_PLACEMENT_3D('',#2216,#1739,#1740);
#1423=AXIS2_PLACEMENT_3D('',#2222,#1744,#1745);
#1424=AXIS2_PLACEMENT_3D('',#2223,#1746,#1747);
#1425=AXIS2_PLACEMENT_3D('',#2224,#1748,#1749);
#1426=AXIS2_PLACEMENT_3D('',#2227,#1751,#1752);
#1427=AXIS2_PLACEMENT_3D('',#2228,#1753,#1754);
#1428=AXIS2_PLACEMENT_3D('',#2229,#1755,#1756);
#1429=AXIS2_PLACEMENT_3D('',#2230,#1757,#1758);
#1430=AXIS2_PLACEMENT_3D('',#2231,#1759,#1760);
#1431=AXIS2_PLACEMENT_3D('',#2234,#1762,#1763);
#1432=AXIS2_PLACEMENT_3D('',#2235,#1764,#1765);
#1433=AXIS2_PLACEMENT_3D('',#2236,#1766,#1767);
#1434=AXIS2_PLACEMENT_3D('',#2237,#1768,#1769);
#1435=AXIS2_PLACEMENT_3D('',#2238,#1770,#1771);
#1436=AXIS2_PLACEMENT_3D('',#2239,#1772,#1773);
#1437=AXIS2_PLACEMENT_3D('',#2240,#1774,#1775);
#1438=AXIS2_PLACEMENT_3D('',#2242,#1776,#1777);
#1439=AXIS2_PLACEMENT_3D('',#2243,#1778,#1779);
#1440=AXIS2_PLACEMENT_3D('',#2244,#1780,#1781);
#1441=AXIS2_PLACEMENT_3D('',#2246,#1782,#1783);
#1442=AXIS2_PLACEMENT_3D('',#2247,#1784,#1785);
#1443=AXIS2_PLACEMENT_3D('',#2248,#1786,#1787);
#1444=AXIS2_PLACEMENT_3D('',#2249,#1788,#1789);
#1445=AXIS2_PLACEMENT_3D('',#2250,#1790,#1791);
#1446=AXIS2_PLACEMENT_3D('',#2251,#1792,#1793);
#1447=AXIS2_PLACEMENT_3D('',#2253,#1795,#1796);
#1448=AXIS2_PLACEMENT_3D('',#2254,#1797,#1798);
#1449=AXIS2_PLACEMENT_3D('',#2257,#1801,#1802);
#1450=AXIS2_PLACEMENT_3D('',#2258,#1803,#1804);
#1451=AXIS2_PLACEMENT_3D('',#2259,#1805,#1806);
#1452=AXIS2_PLACEMENT_3D('',#2261,#1808,#1809);
#1453=AXIS2_PLACEMENT_3D('',#2263,#1811,#1812);
#1454=AXIS2_PLACEMENT_3D('',#2275,#1815,#1816);
#1455=AXIS2_PLACEMENT_3D('',#2276,#1817,#1818);
#1456=AXIS2_PLACEMENT_3D('',#2287,#1820,#1821);
#1457=AXIS2_PLACEMENT_3D('',#2288,#1822,#1823);
#1458=AXIS2_PLACEMENT_3D('',#2290,#1825,#1826);
#1459=AXIS2_PLACEMENT_3D('',#2292,#1828,#1829);
#1460=AXIS2_PLACEMENT_3D('',#2293,#1830,#1831);
#1461=AXIS2_PLACEMENT_3D('',#2295,#1833,#1834);
#1462=AXIS2_PLACEMENT_3D('',#2296,#1835,#1836);
#1463=AXIS2_PLACEMENT_3D('',#2297,#1837,#1838);
#1464=AXIS2_PLACEMENT_3D('',#2299,#1839,#1840);
#1465=AXIS2_PLACEMENT_3D('',#2300,#1841,#1842);
#1466=AXIS2_PLACEMENT_3D('',#2301,#1843,#1844);
#1467=AXIS2_PLACEMENT_3D('',#2303,#1845,#1846);
#1468=AXIS2_PLACEMENT_3D('',#2304,#1847,#1848);
#1469=AXIS2_PLACEMENT_3D('',#2307,#1851,#1852);
#1470=AXIS2_PLACEMENT_3D('',#2308,#1853,#1854);
#1471=AXIS2_PLACEMENT_3D('',#2310,#1855,#1856);
#1472=AXIS2_PLACEMENT_3D('',#2311,#1857,#1858);
#1473=AXIS2_PLACEMENT_3D('',#2312,#1859,#1860);
#1474=AXIS2_PLACEMENT_3D('',#2313,#1861,#1862);
#1475=AXIS2_PLACEMENT_3D('',#2314,#1863,#1864);
#1476=DIRECTION('',(0.,0.,1.));
#1477=DIRECTION('',(1.,0.,0.));
#1478=DIRECTION('',(-1.3010426069826E-16,1.,0.));
#1479=DIRECTION('',(1.,1.3010426069826E-16,0.));
#1480=DIRECTION('',(-1.3010426069826E-16,1.,0.));
#1481=DIRECTION('',(1.3010426069826E-16,-1.,0.));
#1482=DIRECTION('',(-1.,-1.3010426069826E-16,0.));
#1483=DIRECTION('',(-1.3010426069826E-16,1.,0.));
#1484=DIRECTION('',(1.3010426069826E-16,-1.,0.));
#1485=DIRECTION('',(-1.,-1.3010426069826E-16,0.));
#1486=DIRECTION('',(0.,1.,0.));
#1487=DIRECTION('',(1.,0.,0.));
#1488=DIRECTION('',(0.,0.,-1.));
#1489=DIRECTION('',(0.,-1.,0.));
#1490=DIRECTION('',(-1.,0.,0.));
#1491=DIRECTION('',(0.,0.,1.));
#1492=DIRECTION('',(1.,0.,0.));
#1493=DIRECTION('',(0.,0.,-1.));
#1494=DIRECTION('',(1.,0.,0.));
#1495=DIRECTION('',(0.,0.,-1.));
#1496=DIRECTION('',(0.,1.,0.));
#1497=DIRECTION('',(-1.,0.,0.));
#1498=DIRECTION('',(-1.,0.,0.));
#1499=DIRECTION('',(0.,1.,0.));
#1500=DIRECTION('',(0.,0.,-1.));
#1501=DIRECTION('',(-1.,0.,0.));
#1502=DIRECTION('',(0.,1.,0.));
#1503=DIRECTION('',(0.,0.,-1.));
#1504=DIRECTION('',(-1.,0.,0.));
#1505=DIRECTION('',(0.,1.,0.));
#1506=DIRECTION('',(-1.,0.,0.));
#1507=DIRECTION('',(0.,1.,0.));
#1508=DIRECTION('',(0.,0.,1.));
#1509=DIRECTION('',(-1.,0.,0.));
#1510=DIRECTION('',(0.,1.,0.));
#1511=DIRECTION('',(0.,0.,-1.));
#1512=DIRECTION('',(0.,1.,0.));
#1513=DIRECTION('',(0.,0.,1.));
#1514=DIRECTION('',(-1.,0.,0.));
#1515=DIRECTION('',(0.,1.,0.));
#1516=DIRECTION('',(-1.,0.,0.));
#1517=DIRECTION('',(0.,1.,0.));
#1518=DIRECTION('',(0.,0.,-1.));
#1519=DIRECTION('',(-1.,0.,0.));
#1520=DIRECTION('',(0.,1.,0.));
#1521=DIRECTION('',(0.,0.,-1.));
#1522=DIRECTION('',(0.,-1.,0.));
#1523=DIRECTION('',(0.,0.,1.));
#1524=DIRECTION('',(-1.,0.,0.));
#1525=DIRECTION('',(0.,1.,0.));
#1526=DIRECTION('',(-1.,0.,0.));
#1527=DIRECTION('',(0.,1.,0.));
#1528=DIRECTION('',(0.,0.,-1.));
#1529=DIRECTION('',(-1.,0.,0.));
#1530=DIRECTION('',(0.,1.,0.));
#1531=DIRECTION('',(0.,1.,0.));
#1532=DIRECTION('',(0.,-1.,0.));
#1533=DIRECTION('',(-1.,0.,0.));
#1534=DIRECTION('',(0.,1.,0.));
#1535=DIRECTION('',(1.,0.,0.));
#1536=DIRECTION('',(-1.24683249835833E-16,1.,0.));
#1537=DIRECTION('',(1.,1.24683249835833E-16,0.));
#1538=DIRECTION('',(0.,1.,0.));
#1539=DIRECTION('',(1.,0.,0.));
#1540=DIRECTION('',(0.,1.,0.));
#1541=DIRECTION('',(1.,0.,0.));
#1542=DIRECTION('',(-1.,0.,0.));
#1543=DIRECTION('',(0.,0.,-1.));
#1544=DIRECTION('',(0.707106781186548,0.,0.707106781186548));
#1545=DIRECTION('',(0.,0.,-1.));
#1546=DIRECTION('',(1.,0.,0.));
#1547=DIRECTION('',(0.,0.,-1.));
#1548=DIRECTION('',(1.,0.,0.));
#1549=DIRECTION('',(0.,0.,-1.));
#1550=DIRECTION('',(1.,0.,0.));
#1551=DIRECTION('',(0.,-1.,0.));
#1552=DIRECTION('',(0.,0.,-1.));
#1553=DIRECTION('',(0.,1.,0.));
#1554=DIRECTION('',(0.,-1.,0.));
#1555=DIRECTION('',(0.,0.,-1.));
#1556=DIRECTION('',(1.,0.,0.));
#1557=DIRECTION('',(0.,-1.,0.));
#1558=DIRECTION('',(1.,0.,0.));
#1559=DIRECTION('',(0.,1.,0.));
#1560=DIRECTION('',(-1.,0.,0.));
#1561=DIRECTION('',(0.,1.,0.));
#1562=DIRECTION('',(0.,1.,0.));
#1563=DIRECTION('',(1.,0.,0.));
#1564=DIRECTION('',(1.,0.,0.));
#1565=DIRECTION('',(0.,0.,1.));
#1566=DIRECTION('',(-0.707106781186548,0.,0.707106781186548));
#1567=DIRECTION('',(0.,0.,-1.));
#1568=DIRECTION('',(0.,-1.,0.));
#1569=DIRECTION('',(-1.,0.,0.));
#1570=DIRECTION('',(0.,-1.,0.));
#1571=DIRECTION('',(-1.,0.,0.));
#1572=DIRECTION('',(0.,1.,0.));
#1573=DIRECTION('',(1.,0.,0.));
#1574=DIRECTION('',(1.,0.,0.));
#1575=DIRECTION('',(0.,-1.,0.));
#1576=DIRECTION('',(1.,0.,0.));
#1577=DIRECTION('',(1.,0.,0.));
#1578=DIRECTION('',(-1.,-1.83697019872103E-16,0.));
#1579=DIRECTION('',(-1.83697019872103E-16,1.,0.));
#1580=DIRECTION('',(1.,0.,0.));
#1581=DIRECTION('',(-1.,0.,0.));
#1582=DIRECTION('',(0.,1.,0.));
#1583=DIRECTION('',(1.,0.,0.));
#1584=DIRECTION('',(-1.,-3.06161699786839E-16,0.));
#1585=DIRECTION('',(-3.06161699786839E-16,1.,0.));
#1586=DIRECTION('',(-1.,0.,0.));
#1587=DIRECTION('',(0.,1.,0.));
#1588=DIRECTION('',(-1.,0.,0.));
#1589=DIRECTION('',(-1.,0.,0.));
#1590=DIRECTION('',(-1.,0.,0.));
#1591=DIRECTION('',(1.,0.,0.));
#1592=DIRECTION('',(0.,-1.,0.));
#1593=DIRECTION('',(-1.,0.,0.));
#1594=DIRECTION('',(-1.,0.,0.));
#1595=DIRECTION('',(-1.,0.,0.));
#1596=DIRECTION('',(-1.,0.,0.));
#1597=DIRECTION('',(-1.,-3.06161699786839E-16,0.));
#1598=DIRECTION('',(-3.06161699786839E-16,1.,0.));
#1599=DIRECTION('',(-1.,0.,0.));
#1600=DIRECTION('',(-1.,0.,0.));
#1601=DIRECTION('',(1.,0.,0.));
#1602=DIRECTION('',(0.,-1.,0.));
#1603=DIRECTION('',(-1.,0.,0.));
#1604=DIRECTION('',(-1.,0.,0.));
#1605=DIRECTION('',(-1.,0.,0.));
#1606=DIRECTION('',(-1.,-1.83697019872103E-16,0.));
#1607=DIRECTION('',(-1.83697019872103E-16,1.,0.));
#1608=DIRECTION('',(0.,1.,0.));
#1609=DIRECTION('',(1.,0.,0.));
#1610=DIRECTION('',(0.,-1.,0.));
#1611=DIRECTION('',(-1.,0.,0.));
#1612=DIRECTION('',(0.,0.,-1.));
#1613=DIRECTION('',(0.,1.,0.));
#1614=DIRECTION('',(-1.,0.,0.));
#1615=DIRECTION('',(0.,0.,-1.));
#1616=DIRECTION('',(1.,0.,0.));
#1617=DIRECTION('',(0.,0.,-1.));
#1618=DIRECTION('',(0.,1.,0.));
#1619=DIRECTION('',(1.,0.,0.));
#1620=DIRECTION('',(-0.707106781186548,0.,-0.707106781186548));
#1621=DIRECTION('',(0.,1.,0.));
#1622=DIRECTION('',(1.,0.,0.));
#1623=DIRECTION('',(0.,0.,-1.));
#1624=DIRECTION('',(0.,1.,0.));
#1625=DIRECTION('',(1.,0.,0.));
#1626=DIRECTION('',(0.707106781186548,0.,-0.707106781186548));
#1627=DIRECTION('',(0.,1.,0.));
#1628=DIRECTION('',(1.,0.,0.));
#1629=DIRECTION('',(0.,0.,1.));
#1630=DIRECTION('',(1.,0.,0.));
#1631=DIRECTION('',(0.,0.,1.));
#1632=DIRECTION('',(-1.,0.,0.));
#1633=DIRECTION('',(0.,1.,0.));
#1634=DIRECTION('',(1.,0.,0.));
#1635=DIRECTION('',(0.,-1.,0.));
#1636=DIRECTION('',(1.,0.,0.));
#1637=DIRECTION('',(0.,-1.,0.));
#1638=DIRECTION('',(1.,0.,0.));
#1639=DIRECTION('',(0.,0.,-1.));
#1640=DIRECTION('',(1.,0.,0.));
#1641=DIRECTION('',(0.,-1.,0.));
#1642=DIRECTION('',(0.,1.,0.));
#1643=DIRECTION('',(1.,0.,0.));
#1644=DIRECTION('',(0.,1.,0.));
#1645=DIRECTION('',(1.,0.,0.));
#1646=DIRECTION('',(0.,0.,-1.));
#1647=DIRECTION('',(1.,0.,0.));
#1648=DIRECTION('',(0.,1.,0.));
#1649=DIRECTION('',(1.,0.,0.));
#1650=DIRECTION('',(0.,0.,1.));
#1651=DIRECTION('',(1.,0.,0.));
#1652=DIRECTION('',(1.,0.,0.));
#1653=DIRECTION('',(0.,0.,-1.));
#1654=DIRECTION('',(1.,0.,0.));
#1655=DIRECTION('',(0.,-1.,0.));
#1656=DIRECTION('',(1.,0.,0.));
#1657=DIRECTION('',(0.,0.,1.));
#1658=DIRECTION('',(0.,1.,0.));
#1659=DIRECTION('',(0.,-1.,0.));
#1660=DIRECTION('',(1.,0.,0.));
#1661=DIRECTION('',(0.,0.,1.));
#1662=DIRECTION('',(0.,-1.,0.));
#1663=DIRECTION('',(-1.,0.,0.));
#1664=DIRECTION('',(0.,-1.,0.));
#1665=DIRECTION('',(0.,-1.,0.));
#1666=DIRECTION('',(0.,1.,0.));
#1667=DIRECTION('',(1.,0.,0.));
#1668=DIRECTION('',(0.,-1.,0.));
#1669=DIRECTION('',(0.,-1.,0.));
#1670=DIRECTION('',(0.,-1.,0.));
#1671=DIRECTION('',(-1.,0.,0.));
#1672=DIRECTION('',(0.,-1.,0.));
#1673=DIRECTION('',(-1.,0.,0.));
#1674=DIRECTION('',(0.,-1.,0.));
#1675=DIRECTION('',(0.,-1.,0.));
#1676=DIRECTION('',(-1.,0.,0.));
#1677=DIRECTION('',(0.,-1.,0.));
#1678=DIRECTION('',(0.,-1.,0.));
#1679=DIRECTION('',(0.,-1.,0.));
#1680=DIRECTION('',(-1.,0.,0.));
#1681=DIRECTION('',(0.,-1.,0.));
#1682=DIRECTION('',(0.,-1.,0.));
#1683=DIRECTION('',(1.,0.,0.));
#1684=DIRECTION('',(0.,0.,1.));
#1685=DIRECTION('',(1.,0.,0.));
#1686=DIRECTION('',(0.,0.,1.));
#1687=DIRECTION('',(0.,-1.,0.));
#1688=DIRECTION('',(-1.,0.,0.));
#1689=DIRECTION('',(0.,-1.,0.));
#1690=DIRECTION('',(-1.,0.,0.));
#1691=DIRECTION('',(0.,-1.,0.));
#1692=DIRECTION('',(-1.,0.,0.));
#1693=DIRECTION('',(-1.3010426069826E-16,1.,0.));
#1694=DIRECTION('',(1.3010426069826E-16,-1.,0.));
#1695=DIRECTION('',(-1.,-1.3010426069826E-16,0.));
#1696=DIRECTION('',(-1.3010426069826E-16,1.,0.));
#1697=DIRECTION('',(-1.,-3.06161699786839E-16,0.));
#1698=DIRECTION('',(-3.06161699786839E-16,1.,0.));
#1699=DIRECTION('',(0.,0.,1.));
#1700=DIRECTION('',(0.,1.,0.));
#1701=DIRECTION('',(0.,0.,-1.));
#1702=DIRECTION('',(0.,0.,1.));
#1703=DIRECTION('',(-1.3010426069826E-16,1.,0.));
#1704=DIRECTION('',(1.,1.3010426069826E-16,0.));
#1705=DIRECTION('',(1.,0.,0.));
#1706=DIRECTION('',(-1.24683249835833E-16,1.,0.));
#1707=DIRECTION('',(1.,1.24683249835833E-16,0.));
#1708=DIRECTION('',(-1.24683249835833E-16,1.,0.));
#1709=DIRECTION('',(1.,1.24683249835833E-16,0.));
#1710=DIRECTION('',(0.,0.,1.));
#1711=DIRECTION('',(0.,0.,1.));
#1712=DIRECTION('',(1.,0.,0.));
#1713=DIRECTION('',(-1.83697019872103E-16,1.,0.));
#1714=DIRECTION('',(1.,0.,0.));
#1715=DIRECTION('',(0.,1.,0.));
#1716=DIRECTION('',(-1.,-1.83697019872103E-16,0.));
#1717=DIRECTION('',(-1.83697019872103E-16,1.,0.));
#1718=DIRECTION('',(0.,0.,-1.));
#1719=DIRECTION('',(0.,-1.,0.));
#1720=DIRECTION('',(0.,0.,-1.));
#1721=DIRECTION('',(0.,1.,0.));
#1722=DIRECTION('',(1.,0.,0.));
#1723=DIRECTION('',(0.,1.,0.));
#1724=DIRECTION('',(1.,0.,0.));
#1725=DIRECTION('',(1.,0.,0.));
#1726=DIRECTION('',(0.,1.,0.));
#1727=DIRECTION('',(1.,0.,0.));
#1728=DIRECTION('',(0.,-1.,0.));
#1729=DIRECTION('',(-1.,0.,0.));
#1730=DIRECTION('',(-1.,0.,0.));
#1731=DIRECTION('',(0.,1.,0.));
#1732=DIRECTION('',(1.,0.,0.));
#1733=DIRECTION('',(0.,-1.,0.));
#1734=DIRECTION('',(-0.707106781186548,0.,0.707106781186548));
#1735=DIRECTION('',(0.,1.,0.));
#1736=DIRECTION('',(0.,-1.,0.));
#1737=DIRECTION('',(-0.707106781186548,0.,-0.707106781186548));
#1738=DIRECTION('',(0.,1.,0.));
#1739=DIRECTION('',(-0.707106781186548,0.,-0.707106781186548));
#1740=DIRECTION('',(0.,1.,0.));
#1741=DIRECTION('',(0.707106781186548,0.,-0.707106781186548));
#1742=DIRECTION('',(0.,1.,0.));
#1743=DIRECTION('',(0.,-1.,0.));
#1744=DIRECTION('',(0.,-1.,0.));
#1745=DIRECTION('',(-1.,0.,0.));
#1746=DIRECTION('',(0.5,-0.707106781186548,0.5));
#1747=DIRECTION('',(-0.5,-0.707106781186548,-0.5));
#1748=DIRECTION('',(0.,1.,0.));
#1749=DIRECTION('',(1.,0.,0.));
#1750=DIRECTION('',(0.,1.,0.));
#1751=DIRECTION('',(0.5,0.707106781186548,0.5));
#1752=DIRECTION('',(-0.5,0.707106781186548,-0.5));
#1753=DIRECTION('',(0.707106781186548,0.,0.707106781186548));
#1754=DIRECTION('',(0.707106781186548,0.,-0.707106781186548));
#1755=DIRECTION('',(0.,0.,-1.));
#1756=DIRECTION('',(1.,0.,0.));
#1757=DIRECTION('',(0.,-1.,0.));
#1758=DIRECTION('',(-1.,0.,0.));
#1759=DIRECTION('',(-0.5,-0.707106781186548,0.5));
#1760=DIRECTION('',(0.5,-0.707106781186548,-0.5));
#1761=DIRECTION('',(0.,-1.,0.));
#1762=DIRECTION('',(0.,1.,0.));
#1763=DIRECTION('',(1.,0.,0.));
#1764=DIRECTION('',(-0.5,0.707106781186548,0.5));
#1765=DIRECTION('',(0.5,0.707106781186548,-0.5));
#1766=DIRECTION('',(-0.707106781186548,0.,0.707106781186548));
#1767=DIRECTION('',(0.707106781186548,0.,0.707106781186548));
#1768=DIRECTION('',(0.,0.,1.));
#1769=DIRECTION('',(-1.,0.,0.));
#1770=DIRECTION('',(1.,0.,0.));
#1771=DIRECTION('',(0.,-1.,0.));
#1772=DIRECTION('',(-1.,0.,0.));
#1773=DIRECTION('',(0.,1.,0.));
#1774=DIRECTION('',(1.,0.,0.));
#1775=DIRECTION('',(0.,1.,0.));
#1776=DIRECTION('',(-1.,0.,0.));
#1777=DIRECTION('',(0.,0.,1.));
#1778=DIRECTION('',(-1.,0.,0.));
#1779=DIRECTION('',(0.,1.,0.));
#1780=DIRECTION('',(-1.,0.,0.));
#1781=DIRECTION('',(0.,1.,0.));
#1782=DIRECTION('',(-1.,0.,0.));
#1783=DIRECTION('',(0.,0.,1.));
#1784=DIRECTION('',(0.,-1.,0.));
#1785=DIRECTION('',(1.,0.,0.));
#1786=DIRECTION('',(-1.,0.,0.));
#1787=DIRECTION('',(0.,1.,0.));
#1788=DIRECTION('',(-1.,0.,0.));
#1789=DIRECTION('',(0.,1.,0.));
#1790=DIRECTION('',(1.,0.,0.));
#1791=DIRECTION('',(0.,-1.,0.));
#1792=DIRECTION('',(0.,-1.,0.));
#1793=DIRECTION('',(1.,0.,0.));
#1794=DIRECTION('',(1.,0.,0.));
#1795=DIRECTION('',(0.,0.,1.));
#1796=DIRECTION('',(1.,0.,0.));
#1797=DIRECTION('',(0.,-1.,0.));
#1798=DIRECTION('',(1.,0.,0.));
#1799=DIRECTION('',(0.,0.,-1.));
#1800=DIRECTION('',(0.,0.,-1.));
#1801=DIRECTION('',(-1.,0.,0.));
#1802=DIRECTION('',(0.,1.,0.));
#1803=DIRECTION('',(-1.,0.,0.));
#1804=DIRECTION('',(0.,1.,0.));
#1805=DIRECTION('',(-1.,0.,0.));
#1806=DIRECTION('',(0.,-1.,0.));
#1807=DIRECTION('',(0.,-1.,0.));
#1808=DIRECTION('',(-1.,0.,0.));
#1809=DIRECTION('',(0.,-1.,0.));
#1810=DIRECTION('',(0.,-1.,0.));
#1811=DIRECTION('',(-1.,0.,0.));
#1812=DIRECTION('',(0.,-1.,0.));
#1813=DIRECTION('',(0.,0.,1.));
#1814=DIRECTION('',(0.,-1.,0.));
#1815=DIRECTION('',(0.,0.,1.));
#1816=DIRECTION('',(-1.,0.,0.));
#1817=DIRECTION('',(0.,0.,1.));
#1818=DIRECTION('',(0.,-1.,0.));
#1819=DIRECTION('',(0.,0.,-1.));
#1820=DIRECTION('',(0.,0.,-1.));
#1821=DIRECTION('',(1.,0.,0.));
#1822=DIRECTION('',(-1.,0.,0.));
#1823=DIRECTION('',(0.,1.,0.));
#1824=DIRECTION('',(0.,1.,0.));
#1825=DIRECTION('',(1.,0.,0.));
#1826=DIRECTION('',(0.,-1.,0.));
#1827=DIRECTION('',(0.,1.,0.));
#1828=DIRECTION('',(0.,0.,-1.));
#1829=DIRECTION('',(0.,1.,0.));
#1830=DIRECTION('',(1.,0.,0.));
#1831=DIRECTION('',(0.,-1.,0.));
#1832=DIRECTION('',(0.,1.,0.));
#1833=DIRECTION('',(0.,0.,-1.));
#1834=DIRECTION('',(0.,1.,0.));
#1835=DIRECTION('',(0.,1.,0.));
#1836=DIRECTION('',(1.,0.,0.));
#1837=DIRECTION('',(0.,1.,0.));
#1838=DIRECTION('',(1.,0.,0.));
#1839=DIRECTION('',(0.,-1.,0.));
#1840=DIRECTION('',(-1.,0.,0.));
#1841=DIRECTION('',(-1.24683249835833E-16,1.,0.));
#1842=DIRECTION('',(1.,1.24683249835833E-16,0.));
#1843=DIRECTION('',(-1.24683249835833E-16,1.,0.));
#1844=DIRECTION('',(1.,1.24683249835833E-16,0.));
#1845=DIRECTION('',(1.24683249835833E-16,-1.,0.));
#1846=DIRECTION('',(-1.,-1.24683249835833E-16,0.));
#1847=DIRECTION('',(1.3010426069826E-16,-1.,0.));
#1848=DIRECTION('',(1.,1.3010426069826E-16,0.));
#1849=DIRECTION('',(-1.,-1.3010426069826E-16,0.));
#1850=DIRECTION('',(-1.,-1.3010426069826E-16,0.));
#1851=DIRECTION('',(0.,1.,0.));
#1852=DIRECTION('',(1.,0.,0.));
#1853=DIRECTION('',(0.,-1.,0.));
#1854=DIRECTION('',(-1.,0.,0.));
#1855=DIRECTION('',(0.,-1.,0.));
#1856=DIRECTION('',(-1.,0.,0.));
#1857=DIRECTION('',(0.,-1.,0.));
#1858=DIRECTION('',(1.,0.,0.));
#1859=DIRECTION('',(0.,-1.,0.));
#1860=DIRECTION('',(1.,0.,0.));
#1861=DIRECTION('',(0.,0.,1.));
#1862=DIRECTION('',(-1.,0.,0.));
#1863=DIRECTION('',(0.,0.,1.));
#1864=DIRECTION('',(-1.,0.,0.));
#1865=CARTESIAN_POINT('',(0.,0.,0.));
#1866=CARTESIAN_POINT('',(0.02,0.008,-0.0182712958942601));
#1867=CARTESIAN_POINT('',(0.0164590093663158,0.009,-0.0206215906273013));
#1868=CARTESIAN_POINT('',(0.0164590093663158,0.008,-0.0206215906273013));
#1869=CARTESIAN_POINT('',(0.0164590093663158,0.009,-0.0206215906273013));
#1870=CARTESIAN_POINT('',(0.02,0.008,-0.0182712958942601));
#1871=CARTESIAN_POINT('',(0.0235409906336841,0.008,-0.0206215906273013));
#1872=CARTESIAN_POINT('',(0.0235409906336841,0.009,-0.0206215906273013));
#1873=CARTESIAN_POINT('',(0.0235409906336841,0.009,-0.0206215906273013));
#1874=CARTESIAN_POINT('',(0.02,0.009,-0.0182712958942601));
#1875=CARTESIAN_POINT('',(0.015,-0.036,0.));
#1876=CARTESIAN_POINT('',(0.016,-0.036,0.));
#1877=CARTESIAN_POINT('',(0.016,-0.036,0.00669275971735069));
#1878=CARTESIAN_POINT('',(0.016,-0.036,-0.00669275971735069));
#1879=CARTESIAN_POINT('',(0.02,-0.036,0.0182712958942601));
#1880=CARTESIAN_POINT('',(0.0164644660940673,-0.036,0.03));
#1881=CARTESIAN_POINT('',(0.0164644660940673,-0.036,0.03));
#1882=CARTESIAN_POINT('',(0.0164644660940673,-0.036,0.0315));
#1883=CARTESIAN_POINT('',(0.015,-0.036,0.0315));
#1884=CARTESIAN_POINT('',(-0.01,-0.036,0.0315));
#1885=CARTESIAN_POINT('',(-0.01,-0.036,0.));
#1886=CARTESIAN_POINT('',(-0.01,-0.036,-0.0315));
#1887=CARTESIAN_POINT('',(0.015,-0.036,-0.0315));
#1888=CARTESIAN_POINT('',(0.0164644660940673,-0.036,-0.0315));
#1889=CARTESIAN_POINT('',(0.0164644660940673,-0.036,-0.03));
#1890=CARTESIAN_POINT('',(0.0164644660940673,-0.036,-0.03));
#1891=CARTESIAN_POINT('',(0.02,-0.036,-0.0182712958942601));
#1892=CARTESIAN_POINT('',(0.04,-0.003,0.0537248));
#1893=CARTESIAN_POINT('',(0.04,0.00489897948556636,0.005));
#1894=CARTESIAN_POINT('',(0.04,0.00489897948556636,0.00632455532033676));
#1895=CARTESIAN_POINT('',(0.04,0.00489897948556636,0.005));
#1896=CARTESIAN_POINT('',(0.04,4.89858719658941E-19,0.));
#1897=CARTESIAN_POINT('',(0.04,0.002,0.00774596669241483));
#1898=CARTESIAN_POINT('',(0.04,0.002,0.0537248));
#1899=CARTESIAN_POINT('',(0.04,0.002,0.00670820393249937));
#1900=CARTESIAN_POINT('',(0.04,4.28626379701574E-19,0.));
#1901=CARTESIAN_POINT('',(0.04,0.004,-0.079582));
#1902=CARTESIAN_POINT('',(0.04,-0.001,-0.079582));
#1903=CARTESIAN_POINT('',(0.04,-0.001,-0.022477766792989));
#1904=CARTESIAN_POINT('',(0.04,-0.001,-0.00793725393319377));
#1905=CARTESIAN_POINT('',(0.04,4.89858719658941E-19,0.));
#1906=CARTESIAN_POINT('',(0.04,0.00489897948556636,0.005));
#1907=CARTESIAN_POINT('',(0.04,0.00489897948556636,0.007));
#1908=CARTESIAN_POINT('',(0.04,0.004,0.007));
#1909=CARTESIAN_POINT('',(0.04,0.009,0.007));
#1910=CARTESIAN_POINT('',(0.04,0.009,-0.079582));
#1911=CARTESIAN_POINT('',(0.04,0.009,-0.0206215906273013));
#1912=CARTESIAN_POINT('',(0.04,1.37772764904077E-18,0.));
#1913=CARTESIAN_POINT('',(0.04,-0.003,0.0537248));
#1914=CARTESIAN_POINT('',(0.04,0.002,0.0537248));
#1915=CARTESIAN_POINT('',(0.04,0.002,0.022410934831015));
#1916=CARTESIAN_POINT('',(0.04,4.89858719658941E-19,0.));
#1917=CARTESIAN_POINT('',(0.04,-0.008,0.));
#1918=CARTESIAN_POINT('',(0.04,-0.008,0.0537248));
#1919=CARTESIAN_POINT('',(0.04,-0.008,0.0315));
#1920=CARTESIAN_POINT('',(0.04,-0.036,0.0315));
#1921=CARTESIAN_POINT('',(0.04,-0.006,0.0315));
#1922=CARTESIAN_POINT('',(0.04,-0.006,0.));
#1923=CARTESIAN_POINT('',(0.04,-0.006,0.0216852484422014));
#1924=CARTESIAN_POINT('',(0.04,1.37772764904077E-18,0.));
#1925=CARTESIAN_POINT('',(0.04,-0.003,0.0537248));
#1926=CARTESIAN_POINT('',(0.04,-0.008,0.0537248));
#1927=CARTESIAN_POINT('',(0.04,-0.008,-0.005));
#1928=CARTESIAN_POINT('',(0.04,4.89858719658941E-19,0.));
#1929=CARTESIAN_POINT('',(0.04,-0.0062449979983984,-0.005));
#1930=CARTESIAN_POINT('',(0.04,-0.003,-0.005));
#1931=CARTESIAN_POINT('',(0.02,0.027084,-0.0182712958942601));
#1932=CARTESIAN_POINT('',(0.02,-0.006,-0.0182712958942601));
#1933=CARTESIAN_POINT('',(0.02325,-0.006,-0.0182712958942601));
#1934=CARTESIAN_POINT('',(0.02,-6.50521303491303E-18,-0.0182712958942601));
#1935=CARTESIAN_POINT('',(0.02325,-6.09999247294657E-18,-0.0182712958942601));
#1936=CARTESIAN_POINT('',(0.015,-0.006,0.));
#1937=CARTESIAN_POINT('',(0.02,-0.006,-0.0182712958942601));
#1938=CARTESIAN_POINT('',(0.0317646686311347,-0.006,-0.0216852484422014));
#1939=CARTESIAN_POINT('',(0.0235355339059327,-0.006,-0.03));
#1940=CARTESIAN_POINT('',(0.025,-0.006,-0.0216852484422014));
#1941=CARTESIAN_POINT('',(0.04,-0.006,-0.0216852484422014));
#1942=CARTESIAN_POINT('',(0.04,-0.006,-0.0216852484422014));
#1943=CARTESIAN_POINT('',(0.0424927951754727,-0.006,-0.0201919586921591));
#1944=CARTESIAN_POINT('',(0.044981028267881,-0.006,-0.018691155543493));
#1945=CARTESIAN_POINT('',(0.0474599999999993,-0.006,-0.0171750996493875));
#1946=CARTESIAN_POINT('',(0.0474599999999993,-0.006,-0.0171750996493875));
#1947=CARTESIAN_POINT('',(0.04746,-0.00599999999999522,-0.0171750996493888));
#1948=CARTESIAN_POINT('',(0.0482685095696397,-0.00599999999999522,-0.0166806423376689));
#1949=CARTESIAN_POINT('',(0.0495641812831864,-0.00600000000000239,-0.015247234864362));
#1950=CARTESIAN_POINT('',(0.05,-0.006,-0.0133661659089777));
#1951=CARTESIAN_POINT('',(0.05,-0.006,-0.0124202351290647));
#1952=CARTESIAN_POINT('',(0.05,-0.006,-0.0124202351290647));
#1953=CARTESIAN_POINT('',(0.05,-0.006,0.));
#1954=CARTESIAN_POINT('',(0.05,-0.006,-0.0214078975515723));
#1955=CARTESIAN_POINT('',(0.0432039487757861,-0.006,-0.0282039487757862));
#1956=CARTESIAN_POINT('',(0.0414078975515723,-0.006,-0.03));
#1957=CARTESIAN_POINT('',(0.0414078975515723,-0.006,-0.03));
#1958=CARTESIAN_POINT('',(0.0414078975515723,-0.006,-0.0315));
#1959=CARTESIAN_POINT('',(0.015,-0.006,-0.0315));
#1960=CARTESIAN_POINT('',(0.0235355339059327,-0.006,-0.0315));
#1961=CARTESIAN_POINT('',(0.0235355339059327,-0.006,-0.03));
#1962=CARTESIAN_POINT('',(-0.01,0.,0.));
#1963=CARTESIAN_POINT('',(-0.01,1.37772764904077E-18,0.));
#1964=CARTESIAN_POINT('',(-0.01,-0.006,-0.0216852484422014));
#1965=CARTESIAN_POINT('',(-0.01,-0.006,0.0216852484422014));
#1966=CARTESIAN_POINT('',(-0.01,-0.006,0.));
#1967=CARTESIAN_POINT('',(-0.01,-0.006,-0.0315));
#1968=CARTESIAN_POINT('',(-0.01,-0.036,-0.0315));
#1969=CARTESIAN_POINT('',(-0.01,-0.036,0.0315));
#1970=CARTESIAN_POINT('',(-0.01,-0.006,0.0315));
#1971=CARTESIAN_POINT('',(-0.01,-0.006,0.));
#1972=CARTESIAN_POINT('',(-0.01,4.28626379701574E-19,0.));
#1973=CARTESIAN_POINT('',(-0.01,-0.007,0.));
#1974=CARTESIAN_POINT('',(-0.01,-0.0303,0.0243));
#1975=CARTESIAN_POINT('',(-0.01,-0.0277,0.0243));
#1976=CARTESIAN_POINT('',(-0.01,-0.0303,-0.0243));
#1977=CARTESIAN_POINT('',(-0.01,-0.0277,-0.0243));
#1978=CARTESIAN_POINT('',(0.015,-0.006,0.));
#1979=CARTESIAN_POINT('',(0.015,-0.006,0.0315));
#1980=CARTESIAN_POINT('',(0.0414078975515723,-0.006,0.0315));
#1981=CARTESIAN_POINT('',(0.0414078975515723,-0.006,0.03));
#1982=CARTESIAN_POINT('',(0.0414078975515723,-0.006,0.03));
#1983=CARTESIAN_POINT('',(0.0432039487757861,-0.006,0.0282039487757862));
#1984=CARTESIAN_POINT('',(0.05,-0.006,0.0214078975515723));
#1985=CARTESIAN_POINT('',(0.05,-0.006,0.));
#1986=CARTESIAN_POINT('',(0.05,-0.006,0.0124202351290647));
#1987=CARTESIAN_POINT('',(0.05,-0.006,0.0124202351290647));
#1988=CARTESIAN_POINT('',(0.05,-0.006,0.0133672598101099));
#1989=CARTESIAN_POINT('',(0.0495663346352178,-0.006,0.0152417422428073));
#1990=CARTESIAN_POINT('',(0.0482697642141484,-0.006,0.0166798750392031));
#1991=CARTESIAN_POINT('',(0.04746,-0.006,0.0171750996493871));
#1992=CARTESIAN_POINT('',(0.04746,-0.006,0.0171750996493871));
#1993=CARTESIAN_POINT('',(0.04746,-0.006,0.0171750996493871));
#1994=CARTESIAN_POINT('',(0.0449810282678814,-0.006,0.0186911555434927));
#1995=CARTESIAN_POINT('',(0.042492795175473,-0.006,0.020191958692159));
#1996=CARTESIAN_POINT('',(0.04,-0.006,0.0216852484422014));
#1997=CARTESIAN_POINT('',(0.02,0.027084,0.0182712958942601));
#1998=CARTESIAN_POINT('',(0.02,-0.01,0.0182712958942601));
#1999=CARTESIAN_POINT('',(0.01675,-0.01,0.0182712958942601));
#2000=CARTESIAN_POINT('',(0.02,-0.007,0.0182712958942601));
#2001=CARTESIAN_POINT('',(0.02325,-0.007,0.0182712958942601));
#2002=CARTESIAN_POINT('',(-0.066046,4.28626379701574E-19,0.));
#2003=CARTESIAN_POINT('',(-0.066046,0.00489897948556636,0.005));
#2004=CARTESIAN_POINT('',(-1.08903886754322E-17,0.00489897948556636,0.005));
#2005=CARTESIAN_POINT('',(-0.066046,0.002,0.00670820393249937));
#2006=CARTESIAN_POINT('',(3.46944695195361E-18,0.002,0.00670820393249937));
#2007=CARTESIAN_POINT('',(0.,4.28626379701574E-19,0.));
#2008=CARTESIAN_POINT('',(3.05269536014213E-18,-0.00489897948556636,-0.005));
#2009=CARTESIAN_POINT('',(-0.066046,-0.00489897948556636,-0.005));
#2010=CARTESIAN_POINT('',(0.04,-0.00489897948556636,-0.005));
#2011=CARTESIAN_POINT('',(0.04,4.28626379701574E-19,0.));
#2012=CARTESIAN_POINT('',(0.04,-0.001,-0.0069282032302755));
#2013=CARTESIAN_POINT('',(-0.066046,-0.00100000000000002,-0.00692820323027551));
#2014=CARTESIAN_POINT('',(-9.08434708912354E-18,-0.001,-0.0069282032302755));
#2015=CARTESIAN_POINT('',(-1.38777878078145E-17,4.28626379701574E-19,0.));
#2016=CARTESIAN_POINT('',(0.025,1.37772764904077E-18,0.));
#2017=CARTESIAN_POINT('',(0.0168724615523643,0.0115728118469306,0.0193250754680856));
#2018=CARTESIAN_POINT('',(0.0166897597457348,0.0131505734861464,0.0182890897019509));
#2019=CARTESIAN_POINT('',(0.0168684994646966,0.0146078293429292,0.0171463410896716));
#2020=CARTESIAN_POINT('',(0.0175673018449596,0.0159127445944027,0.0159345376038816));
#2021=CARTESIAN_POINT('',(0.0188021752439106,0.016647544852621,0.0151385116451655));
#2022=CARTESIAN_POINT('',(0.0200640700030791,0.0167927104727057,0.0149748107867967));
#2023=CARTESIAN_POINT('',(0.0213170751498398,0.0166033197829505,0.0151878697821492));
#2024=CARTESIAN_POINT('',(0.0225023369411703,0.0158315664304752,0.016016204564691));
#2025=CARTESIAN_POINT('',(0.0231582438810767,0.0145131315250986,0.0172270214144824));
#2026=CARTESIAN_POINT('',(0.0233080164149694,0.0130352547700718,0.0183715328525568));
#2027=CARTESIAN_POINT('',(0.0231038905704162,0.0114627774719551,0.0193901874868338));
#2028=CARTESIAN_POINT('',(0.0227223454463337,0.010147444438786,0.0200968785814241));
#2029=CARTESIAN_POINT('',(0.0222939852711036,0.00908277628660179,0.0205914349910816));
#2030=CARTESIAN_POINT('',(0.0219055886054667,0.00829344905138799,0.0209212899825453));
#2031=CARTESIAN_POINT('',(0.0214362439244983,0.00753468661314499,0.0212057963402563));
#2032=CARTESIAN_POINT('',(0.0209373765374657,0.00695397172774935,0.0214000950596579));
#2033=CARTESIAN_POINT('',(0.0204161331107126,0.00661806652291131,0.0215049245439404));
#2034=CARTESIAN_POINT('',(0.0199335964084324,0.00652564440084179,0.0215328739336134));
#2035=CARTESIAN_POINT('',(0.0194732748486701,0.00667421485701322,0.021487725742738));
#2036=CARTESIAN_POINT('',(0.0189706078520853,0.00704558482775799,0.0213703527923683));
#2037=CARTESIAN_POINT('',(0.018489519824807,0.00764233878081495,0.0211673582760179));
#2038=CARTESIAN_POINT('',(0.0180359103636143,0.00840250256914374,0.0208777389088018));
#2039=CARTESIAN_POINT('',(0.0176578496590461,0.0091926087255652,0.0205427156096818));
#2040=CARTESIAN_POINT('',(0.0172400371386915,0.0102607305842363,0.0200393682505464));
#2041=CARTESIAN_POINT('',(0.0168724615523643,0.0115728118469306,0.0193250754680856));
#2042=CARTESIAN_POINT('',(0.0166897597457348,0.0131505734861464,0.0182890897019509));
#2043=CARTESIAN_POINT('',(0.0168684994646966,0.0146078293429292,0.0171463410896716));
#2044=CARTESIAN_POINT('',(0.01675,0.0131304891890742,0.0182712958942601));
#2045=CARTESIAN_POINT('',(0.025,0.002,0.022410934831015));
#2046=CARTESIAN_POINT('',(3.46944695195361E-18,0.002,0.022410934831015));
#2047=CARTESIAN_POINT('',(0.0190377684928755,0.002,0.022410934831015));
#2048=CARTESIAN_POINT('',(0.025,0.002,0.022410934831015));
#2049=CARTESIAN_POINT('',(0.0209622315071245,0.002,0.022410934831015));
#2050=CARTESIAN_POINT('',(0.025,0.002,0.022410934831015));
#2051=CARTESIAN_POINT('',(0.04,1.37772764904077E-18,0.));
#2052=CARTESIAN_POINT('',(0.025,0.009,-0.0206215906273013));
#2053=CARTESIAN_POINT('',(0.025,0.009,-0.0206215906273013));
#2054=CARTESIAN_POINT('',(0.0222446858728648,0.009,-0.0206215906273013));
#2055=CARTESIAN_POINT('',(0.0177553141271351,0.0090000000000002,-0.0206215906273012));
#2056=CARTESIAN_POINT('',(0.0173878297783207,0.0098041771796381,-0.0202706189322682));
#2057=CARTESIAN_POINT('',(0.0168521427304642,0.0114203214459116,-0.0194551360467184));
#2058=CARTESIAN_POINT('',(0.016663017923354,0.0134170768553683,-0.0181050923017238));
#2059=CARTESIAN_POINT('',(0.0169886077418523,0.0148478479661828,-0.0169238585523371));
#2060=CARTESIAN_POINT('',(0.0175658951228486,0.0158190694001572,-0.016016349497095));
#2061=CARTESIAN_POINT('',(0.0185746455739873,0.016553539095383,-0.0152455594777748));
#2062=CARTESIAN_POINT('',(0.0199961637970937,0.0168504102530471,-0.0149091191487089));
#2063=CARTESIAN_POINT('',(0.0214281333198743,0.0165534432928141,-0.0152457433417273));
#2064=CARTESIAN_POINT('',(0.0224327399810704,0.0158185651962857,-0.0160165688022217));
#2065=CARTESIAN_POINT('',(0.0230098126903871,0.0148545414958777,-0.0169182904642492));
#2066=CARTESIAN_POINT('',(0.0233395635501201,0.0134002367269826,-0.0181184533260202));
#2067=CARTESIAN_POINT('',(0.0231456927424213,0.0114209982223657,-0.0194534520715783));
#2068=CARTESIAN_POINT('',(0.0226123805196744,0.00980463738113795,-0.0202704180838674));
#2069=CARTESIAN_POINT('',(0.0222446858728649,0.00899999999999996,-0.0206215906273013));
#2070=CARTESIAN_POINT('',(0.0177553141271351,0.0090000000000002,-0.0206215906273013));
#2071=CARTESIAN_POINT('',(0.025,0.009,-0.0206215906273013));
#2072=CARTESIAN_POINT('',(0.025,0.009,-0.0206215906273013));
#2073=CARTESIAN_POINT('',(-1.31637961539424E-17,0.009,-0.0206215906273013));
#2074=CARTESIAN_POINT('',(-1.04083408558608E-17,1.37772764904077E-18,0.));
#2075=CARTESIAN_POINT('',(-9.08434708912354E-18,-0.001,-0.022477766792989));
#2076=CARTESIAN_POINT('',(0.025,-0.001,-0.022477766792989));
#2077=CARTESIAN_POINT('',(0.02,-0.001,-0.022477766792989));
#2078=CARTESIAN_POINT('',(0.025,-0.001,-0.022477766792989));
#2079=CARTESIAN_POINT('',(0.04,1.37772764904077E-18,0.));
#2080=CARTESIAN_POINT('',(0.025,-0.006,-0.0216852484422014));
#2081=CARTESIAN_POINT('',(0.00823533136886531,-0.006,-0.0216852484422014));
#2082=CARTESIAN_POINT('',(0.025,-0.006,-0.0216852484422014));
#2083=CARTESIAN_POINT('',(0.025,-0.006,0.0216852484422014));
#2084=CARTESIAN_POINT('',(3.46944695195361E-18,-0.006,0.0216852484422014));
#2085=CARTESIAN_POINT('',(3.46944695195361E-18,1.37772764904077E-18,0.));
#2086=CARTESIAN_POINT('',(0.015,-0.036,0.));
#2087=CARTESIAN_POINT('',(0.02,-0.036,0.0182712958942601));
#2088=CARTESIAN_POINT('',(0.024,-0.036,0.00669275971735069));
#2089=CARTESIAN_POINT('',(0.0235355339059327,-0.036,0.03));
#2090=CARTESIAN_POINT('',(0.024,-0.036,0.));
#2091=CARTESIAN_POINT('',(0.024,-0.036,-0.00669275971735069));
#2092=CARTESIAN_POINT('',(0.02,-0.036,-0.0182712958942601));
#2093=CARTESIAN_POINT('',(0.0235355339059327,-0.036,-0.03));
#2094=CARTESIAN_POINT('',(0.0235355339059327,-0.036,-0.03));
#2095=CARTESIAN_POINT('',(0.0235355339059327,-0.036,-0.0315));
#2096=CARTESIAN_POINT('',(0.015,-0.036,-0.0315));
#2097=CARTESIAN_POINT('',(0.0439478975515723,-0.036,-0.0315));
#2098=CARTESIAN_POINT('',(0.0439478975515723,-0.036,-0.03));
#2099=CARTESIAN_POINT('',(0.0439478975515723,-0.036,-0.03));
#2100=CARTESIAN_POINT('',(0.0439478975515723,-0.036,-0.02746));
#2101=CARTESIAN_POINT('',(0.0457439487757862,-0.036,-0.0292560512242139));
#2102=CARTESIAN_POINT('',(0.05,-0.036,-0.025));
#2103=CARTESIAN_POINT('',(0.0492560512242138,-0.036,-0.0257439487757862));
#2104=CARTESIAN_POINT('',(0.04746,-0.036,-0.0239478975515723));
#2105=CARTESIAN_POINT('',(0.05,-0.036,-0.0239478975515723));
#2106=CARTESIAN_POINT('',(0.05,-0.036,0.));
#2107=CARTESIAN_POINT('',(0.05,-0.036,0.0239478975515723));
#2108=CARTESIAN_POINT('',(0.04746,-0.036,0.0239478975515723));
#2109=CARTESIAN_POINT('',(0.0492560512242138,-0.036,0.0257439487757862));
#2110=CARTESIAN_POINT('',(0.045,-0.036,0.03));
#2111=CARTESIAN_POINT('',(0.0457439487757862,-0.036,0.0292560512242139));
#2112=CARTESIAN_POINT('',(0.0439478975515723,-0.036,0.02746));
#2113=CARTESIAN_POINT('',(0.0439478975515723,-0.036,0.03));
#2114=CARTESIAN_POINT('',(0.0439478975515723,-0.036,0.03));
#2115=CARTESIAN_POINT('',(0.0439478975515723,-0.036,0.0315));
#2116=CARTESIAN_POINT('',(0.015,-0.036,0.0315));
#2117=CARTESIAN_POINT('',(0.0235355339059327,-0.036,0.0315));
#2118=CARTESIAN_POINT('',(0.0235355339059327,-0.036,0.03));
#2119=CARTESIAN_POINT('',(0.175,7.9602041944578E-19,-1.7347234759768E-18));
#2120=CARTESIAN_POINT('',(0.175,7.9602041944578E-19,-1.7347234759768E-18));
#2121=CARTESIAN_POINT('',(0.175,-0.013,-1.7347234759768E-18));
#2122=CARTESIAN_POINT('',(0.05,7.9602041944578E-19,-1.7347234759768E-18));
#2123=CARTESIAN_POINT('',(0.05,-0.013,-1.7347234759768E-18));
#2124=CARTESIAN_POINT('',(0.175,0.,0.));
#2125=CARTESIAN_POINT('',(0.175,4.89858719658941E-19,0.));
#2126=CARTESIAN_POINT('',(0.175,-0.008,0.));
#2127=CARTESIAN_POINT('',(0.015,-0.006,0.));
#2128=CARTESIAN_POINT('',(0.02,-0.006,-0.0182712958942601));
#2129=CARTESIAN_POINT('',(0.0164644660940673,-0.006,-0.03));
#2130=CARTESIAN_POINT('',(0.0164644660940673,-0.006,-0.03));
#2131=CARTESIAN_POINT('',(0.0164644660940673,-0.006,-0.0315));
#2132=CARTESIAN_POINT('',(0.015,-0.006,-0.0315));
#2133=CARTESIAN_POINT('',(0.015,-0.006,0.));
#2134=CARTESIAN_POINT('',(3.46944695195361E-18,-0.006,0.));
#2135=CARTESIAN_POINT('',(3.46944695195361E-18,-0.006,0.0315));
#2136=CARTESIAN_POINT('',(0.015,-0.006,0.0315));
#2137=CARTESIAN_POINT('',(0.05,0.,0.));
#2138=CARTESIAN_POINT('',(0.05,1.37772764904077E-18,0.));
#2139=CARTESIAN_POINT('',(0.05,-0.00854,0.0214078975515723));
#2140=CARTESIAN_POINT('',(0.05,-0.00674394877578617,0.0239478975515723));
#2141=CARTESIAN_POINT('',(0.05,0.,0.0239478975515723));
#2142=CARTESIAN_POINT('',(0.05,0.,-0.0239478975515723));
#2143=CARTESIAN_POINT('',(0.05,-0.00674394877578617,-0.0239478975515723));
#2144=CARTESIAN_POINT('',(0.05,-0.00854,-0.0214078975515723));
#2145=CARTESIAN_POINT('',(0.02,-0.01,-0.0182712958942601));
#2146=CARTESIAN_POINT('',(0.016,-0.0106,-0.00669275971735069));
#2147=CARTESIAN_POINT('',(0.016,-0.0106,-0.00669275971735069));
#2148=CARTESIAN_POINT('',(0.0164644660940673,-0.01,-0.03));
#2149=CARTESIAN_POINT('',(0.02,-0.006,-0.0182712958942601));
#2150=CARTESIAN_POINT('',(0.0235355339059327,-0.01,-0.03));
#2151=CARTESIAN_POINT('',(0.024,-0.0106,-0.00669275971735069));
#2152=CARTESIAN_POINT('',(0.024,-0.0106,-0.00669275971735069));
#2153=CARTESIAN_POINT('',(0.02,-0.0106,-0.0182712958942601));
#2154=CARTESIAN_POINT('',(0.02,-0.01,0.0182712958942601));
#2155=CARTESIAN_POINT('',(0.016,-0.0106,0.00669275971735069));
#2156=CARTESIAN_POINT('',(0.016,-0.0106,0.00669275971735069));
#2157=CARTESIAN_POINT('',(0.02,-0.0106,0.0182712958942601));
#2158=CARTESIAN_POINT('',(0.024,-0.0106,0.00669275971735069));
#2159=CARTESIAN_POINT('',(0.024,-0.0106,0.00669275971735069));
#2160=CARTESIAN_POINT('',(0.0235355339059327,-0.01,0.03));
#2161=CARTESIAN_POINT('',(0.0235355339059327,-0.01,0.03));
#2162=CARTESIAN_POINT('',(0.02,-0.01,0.0182712958942601));
#2163=CARTESIAN_POINT('',(0.0164644660940673,-0.01,0.03));
#2164=CARTESIAN_POINT('',(0.0164644660940673,-0.01,0.03));
#2165=CARTESIAN_POINT('',(0.025,-0.01,0.));
#2166=CARTESIAN_POINT('',(0.0235355339059327,-0.01,0.03));
#2167=CARTESIAN_POINT('',(0.0235355339059327,-0.01,0.0315));
#2168=CARTESIAN_POINT('',(0.015,-0.01,0.0315));
#2169=CARTESIAN_POINT('',(0.0164644660940673,-0.01,0.0315));
#2170=CARTESIAN_POINT('',(0.0164644660940673,-0.01,0.03));
#2171=CARTESIAN_POINT('',(0.02,0.027084,0.0182712958942601));
#2172=CARTESIAN_POINT('',(0.02,0.001,0.0182712958942601));
#2173=CARTESIAN_POINT('',(0.01675,0.001,0.0182712958942601));
#2174=CARTESIAN_POINT('',(0.02,0.027084,-0.0182712958942601));
#2175=CARTESIAN_POINT('',(0.0222446858728648,0.009,-0.0206215906273013));
#2176=CARTESIAN_POINT('',(0.0222446858728648,0.008,-0.0206215906273013));
#2177=CARTESIAN_POINT('',(0.02,0.008,-0.0182712958942601));
#2178=CARTESIAN_POINT('',(0.0177553141271351,0.008,-0.0206215906273013));
#2179=CARTESIAN_POINT('',(0.0177553141271351,0.0090000000000002,-0.0206215906273013));
#2180=CARTESIAN_POINT('',(-1.06151555880577E-17,0.004,-0.079582));
#2181=CARTESIAN_POINT('',(-1.21459640869919E-17,0.009,-0.079582));
#2182=CARTESIAN_POINT('',(-1.38777878078145E-17,0.009,0.007));
#2183=CARTESIAN_POINT('',(-1.38777878078145E-17,0.004,0.007));
#2184=CARTESIAN_POINT('',(-1.04083408558608E-17,0.00489897948556636,0.007));
#2185=CARTESIAN_POINT('',(-1.08903886754322E-17,0.00489897948556636,0.005));
#2186=CARTESIAN_POINT('',(-9.08434708912354E-18,-0.001,-0.079582));
#2187=CARTESIAN_POINT('',(0.02,0.009,-0.079582));
#2188=CARTESIAN_POINT('',(0.02,0.009,0.007));
#2189=CARTESIAN_POINT('',(0.02,-0.001,-0.079582));
#2190=CARTESIAN_POINT('',(0.02,-0.001,-0.0182712958942601));
#2191=CARTESIAN_POINT('',(0.04,-0.001,-0.079582));
#2192=CARTESIAN_POINT('',(0.02,-0.003,-0.005));
#2193=CARTESIAN_POINT('',(2.70385848784533E-18,-0.003,-0.005));
#2194=CARTESIAN_POINT('',(3.46944695195361E-18,-0.008,-0.005));
#2195=CARTESIAN_POINT('',(0.02,-0.008,-0.005));
#2196=CARTESIAN_POINT('',(0.04,-0.003,-0.005));
#2197=CARTESIAN_POINT('',(2.70385848784533E-18,-0.003,0.0537248));
#2198=CARTESIAN_POINT('',(3.46944695195361E-18,0.002,0.0537248));
#2199=CARTESIAN_POINT('',(3.46944695195361E-18,-0.036,0.0315));
#2200=CARTESIAN_POINT('',(3.46944695195361E-18,-0.008,0.0315));
#2201=CARTESIAN_POINT('',(3.46944695195361E-18,-0.008,0.0537248));
#2202=CARTESIAN_POINT('',(0.02,-0.008,0.0537248));
#2203=CARTESIAN_POINT('',(0.02,-0.008,0.0182712958942601));
#2204=CARTESIAN_POINT('',(0.02625,-0.008,0.0182712958942601));
#2205=CARTESIAN_POINT('',(0.015,-0.008,0.0315));
#2206=CARTESIAN_POINT('',(0.02,0.002,0.0537248));
#2207=CARTESIAN_POINT('',(0.02,0.002,0.0182712958942601));
#2208=CARTESIAN_POINT('',(0.05,1.37772764904077E-18,0.));
#2209=CARTESIAN_POINT('',(0.04746,1.37772764904077E-18,0.));
#2210=CARTESIAN_POINT('',(0.05,0.,-0.025));
#2211=CARTESIAN_POINT('',(0.0457439487757862,0.,-0.0292560512242139));
#2212=CARTESIAN_POINT('',(0.0457439487757862,-0.00854,-0.0292560512242139));
#2213=CARTESIAN_POINT('',(0.05,-0.00854,-0.025));
#2214=CARTESIAN_POINT('',(0.0492560512242138,-0.00854,-0.0257439487757862));
#2215=CARTESIAN_POINT('',(0.0492560512242138,0.,-0.0257439487757862));
#2216=CARTESIAN_POINT('',(0.045,-0.036,0.03));
#2217=CARTESIAN_POINT('',(0.045,-0.00854,0.03));
#2218=CARTESIAN_POINT('',(0.0492560512242138,-0.00854,0.0257439487757862));
#2219=CARTESIAN_POINT('',(0.0457439487757862,-0.00854,0.0292560512242139));
#2220=CARTESIAN_POINT('',(0.0457439487757862,-0.036,0.0292560512242139));
#2221=CARTESIAN_POINT('',(0.0492560512242138,-0.036,0.0257439487757862));
#2222=CARTESIAN_POINT('',(0.04746,0.,-0.0239478975515723));
#2223=CARTESIAN_POINT('',(0.04746,-0.00854,-0.0239478975515723));
#2224=CARTESIAN_POINT('',(0.0439478975515723,-0.036,-0.02746));
#2225=CARTESIAN_POINT('',(0.0439478975515723,-0.036,-0.03));
#2226=CARTESIAN_POINT('',(0.0439478975515723,-0.00674394877578617,-0.03));
#2227=CARTESIAN_POINT('',(0.0439478975515723,-0.00854,-0.02746));
#2228=CARTESIAN_POINT('',(0.0432039487757861,-0.00854,-0.0282039487757862));
#2229=CARTESIAN_POINT('',(0.0414078975515723,-0.00854,-0.03));
#2230=CARTESIAN_POINT('',(0.0439478975515723,-0.036,0.02746));
#2231=CARTESIAN_POINT('',(0.0439478975515723,-0.00854,0.02746));
#2232=CARTESIAN_POINT('',(0.0439478975515723,-0.00674394877578617,0.03));
#2233=CARTESIAN_POINT('',(0.0439478975515723,-0.036,0.03));
#2234=CARTESIAN_POINT('',(0.04746,0.,0.0239478975515723));
#2235=CARTESIAN_POINT('',(0.04746,-0.00854,0.0239478975515723));
#2236=CARTESIAN_POINT('',(0.0432039487757861,-0.00854,0.0282039487757862));
#2237=CARTESIAN_POINT('',(0.0414078975515723,-0.00854,0.03));
#2238=CARTESIAN_POINT('',(0.04492,1.37772764904077E-18,0.));
#2239=CARTESIAN_POINT('',(-0.005,-0.0303,0.0243));
#2240=CARTESIAN_POINT('',(-0.005,-0.0303,0.0243));
#2241=CARTESIAN_POINT('',(-0.005,-0.0277,0.0243));
#2242=CARTESIAN_POINT('',(-0.005,-0.00675,0.));
#2243=CARTESIAN_POINT('',(-0.005,-0.0303,-0.0243));
#2244=CARTESIAN_POINT('',(-0.005,-0.0303,-0.0243));
#2245=CARTESIAN_POINT('',(-0.005,-0.0277,-0.0243));
#2246=CARTESIAN_POINT('',(-0.005,-0.00675,0.));
#2247=CARTESIAN_POINT('',(0.025,-0.006,0.));
#2248=CARTESIAN_POINT('',(0.04,-0.003,0.0537248));
#2249=CARTESIAN_POINT('',(0.04,4.89858719658941E-19,0.));
#2250=CARTESIAN_POINT('',(0.039998,4.89858719658941E-19,0.));
#2251=CARTESIAN_POINT('',(-0.066046,0.00489897948556636,0.005));
#2252=CARTESIAN_POINT('',(0.02,0.00489897948556636,0.007));
#2253=CARTESIAN_POINT('',(0.02,0.004,0.007));
#2254=CARTESIAN_POINT('',(0.02,-0.0106,0.));
#2255=CARTESIAN_POINT('',(0.024,-0.0106,0.));
#2256=CARTESIAN_POINT('',(0.016,-0.0106,0.));
#2257=CARTESIAN_POINT('',(0.016,-0.0106,0.));
#2258=CARTESIAN_POINT('',(0.024,-0.0106,0.));
#2259=CARTESIAN_POINT('',(0.0164644660940673,-0.01,0.03));
#2260=CARTESIAN_POINT('',(0.0164644660940673,-0.036,0.0315));
#2261=CARTESIAN_POINT('',(0.0235355339059327,-0.01,0.03));
#2262=CARTESIAN_POINT('',(0.0235355339059327,-0.036,0.0315));
#2263=CARTESIAN_POINT('',(0.0439478975515723,-0.036,0.03));
#2264=CARTESIAN_POINT('',(0.0439478975515723,-0.00674394877578617,0.03));
#2265=CARTESIAN_POINT('',(0.0439478975515723,-0.00674394877578617,0.0315));
#2266=CARTESIAN_POINT('',(0.0439478975515723,-0.036,0.0315));
#2267=CARTESIAN_POINT('',(0.0439478975515724,-0.00674394877578617,0.03));
#2268=CARTESIAN_POINT('',(0.0439478975515724,-0.00674394877578617,0.0315));
#2269=CARTESIAN_POINT('',(0.0432829271065625,-0.00627374366483108,0.03));
#2270=CARTESIAN_POINT('',(0.0432829271065625,-0.00627374366483108,0.0315));
#2271=CARTESIAN_POINT('',(0.0423483077734826,-0.006,0.03));
#2272=CARTESIAN_POINT('',(0.0423483077734826,-0.006,0.0315));
#2273=CARTESIAN_POINT('',(0.0414078975515724,-0.006,0.03));
#2274=CARTESIAN_POINT('',(0.0414078975515724,-0.006,0.0315));
#2275=CARTESIAN_POINT('',(0.0414078975515723,-0.00854,0.0315));
#2276=CARTESIAN_POINT('',(0.015,-0.036,0.0315));
#2277=CARTESIAN_POINT('',(0.0414078975515723,-0.006,-0.03));
#2278=CARTESIAN_POINT('',(0.0414078975515723,-0.006,-0.0315));
#2279=CARTESIAN_POINT('',(0.0423483077734825,-0.006,-0.03));
#2280=CARTESIAN_POINT('',(0.0423483077734825,-0.006,-0.0315));
#2281=CARTESIAN_POINT('',(0.0432829271065625,-0.00627374366483107,-0.03));
#2282=CARTESIAN_POINT('',(0.0432829271065625,-0.00627374366483107,-0.0315));
#2283=CARTESIAN_POINT('',(0.0439478975515723,-0.00674394877578616,-0.03));
#2284=CARTESIAN_POINT('',(0.0439478975515723,-0.00674394877578616,-0.0315));
#2285=CARTESIAN_POINT('',(0.0439478975515723,-0.00674394877578617,-0.03));
#2286=CARTESIAN_POINT('',(0.0439478975515723,-0.00674394877578617,-0.0315));
#2287=CARTESIAN_POINT('',(0.0414078975515723,-0.00854,-0.0315));
#2288=CARTESIAN_POINT('',(0.0439478975515723,-0.036,-0.03));
#2289=CARTESIAN_POINT('',(0.0439478975515723,-0.036,-0.0315));
#2290=CARTESIAN_POINT('',(0.0235355339059327,-0.01,-0.03));
#2291=CARTESIAN_POINT('',(0.0235355339059327,-0.036,-0.0315));
#2292=CARTESIAN_POINT('',(0.015,-0.036,-0.0315));
#2293=CARTESIAN_POINT('',(0.0164644660940673,-0.01,-0.03));
#2294=CARTESIAN_POINT('',(0.0164644660940673,-0.036,-0.0315));
#2295=CARTESIAN_POINT('',(0.015,-0.036,-0.0315));
#2296=CARTESIAN_POINT('',(0.02,-0.007,0.01325));
#2297=CARTESIAN_POINT('',(0.02,-0.007,0.0182712958942601));
#2298=CARTESIAN_POINT('',(0.02625,-0.007,0.0182712958942601));
#2299=CARTESIAN_POINT('',(0.02,-0.007,0.0182712958942601));
#2300=CARTESIAN_POINT('',(0.02,-6.50521303491303E-18,-0.0147029850116323));
#2301=CARTESIAN_POINT('',(0.02,-6.50521303491303E-18,-0.0182712958942601));
#2302=CARTESIAN_POINT('',(0.0242064708987289,-5.98073657291965E-18,-0.0182712958942601));
#2303=CARTESIAN_POINT('',(0.02,-6.50521303491303E-18,-0.0182712958942601));
#2304=CARTESIAN_POINT('',(0.02,0.008,-0.00776064794713005));
#2305=CARTESIAN_POINT('',(0.02,0.008,-0.0206215906273013));
#2306=CARTESIAN_POINT('',(0.02,0.008,-0.0206215906273013));
#2307=CARTESIAN_POINT('',(0.02,0.001,0.0182712958942601));
#2308=CARTESIAN_POINT('',(0.02,0.001,0.0182712958942601));
#2309=CARTESIAN_POINT('',(0.01575,0.001,0.0182712958942601));
#2310=CARTESIAN_POINT('',(0.02,0.002,0.0182712958942601));
#2311=CARTESIAN_POINT('',(0.02,0.001,0.0146147499133797));
#2312=CARTESIAN_POINT('',(0.02,0.002,0.0146147499133797));
#2313=CARTESIAN_POINT('',(0.025,0.009,-0.0206215906273013));
#2314=CARTESIAN_POINT('',(0.025,0.009,-0.0206215906273013));
#2315=MECHANICAL_DESIGN_GEOMETRIC_PRESENTATION_REPRESENTATION('',(#1327),
#2316);
#2316=(
GEOMETRIC_REPRESENTATION_CONTEXT(3)
GLOBAL_UNCERTAINTY_ASSIGNED_CONTEXT((#2317))
GLOBAL_UNIT_ASSIGNED_CONTEXT((#2320,#2319,#2318))
REPRESENTATION_CONTEXT('Part 1','TOP_LEVEL_ASSEMBLY_PART')
);
#2317=UNCERTAINTY_MEASURE_WITH_UNIT(LENGTH_MEASURE(2.E-5),#2320,
'DISTANCE_ACCURACY_VALUE','Maximum Tolerance applied to model');
#2318=(
NAMED_UNIT(*)
SI_UNIT($,.STERADIAN.)
SOLID_ANGLE_UNIT()
);
#2319=(
NAMED_UNIT(*)
PLANE_ANGLE_UNIT()
SI_UNIT($,.RADIAN.)
);
#2320=(
LENGTH_UNIT()
NAMED_UNIT(*)
SI_UNIT($,.METRE.)
);
#2321=PRODUCT_DEFINITION_SHAPE('','',#2322);
#2322=PRODUCT_DEFINITION('','',#2324,#2323);
#2323=PRODUCT_DEFINITION_CONTEXT('',#2330,'design');
#2324=PRODUCT_DEFINITION_FORMATION_WITH_SPECIFIED_SOURCE('','',#2326,
 .NOT_KNOWN.);
#2325=PRODUCT_RELATED_PRODUCT_CATEGORY('','',(#2326));
#2326=PRODUCT('Part 1','Part 1','Part 1',(#2328));
#2327=PRODUCT_CATEGORY('','');
#2328=PRODUCT_CONTEXT('',#2330,'mechanical');
#2329=APPLICATION_PROTOCOL_DEFINITION('international standard',
'ap242_managed_model_based_3d_engineering',2020,#2330);
#2330=APPLICATION_CONTEXT('managed model based 3d engineering');
ENDSEC;
END-ISO-10303-21;
