ISO-10303-21;
HEADER;
/* Generated by software containing ST-Developer
 * from STEP Tools, Inc. (www.steptools.com) 
 */
/* OPTION: using custom renumber hook */

FILE_DESCRIPTION(
/* description */ ('STEP AP242 Edition 2',
'CAx-IF Rec.Pracs.---Representation and Presentation of Product Manufa
cturing Information (PMI)---4.0---2014-10-13',
'CAx-IF Rec.Pracs.---3D Tessellated Geometry---0.4---2014-09-14','2;1',
'CAx-IF Rec.Pracs.---User Defined Attributes---1.5---2016-08-15'),
/* implementation_level */ '2;1');

FILE_NAME(
/* name */ 'Cover Back Handle',
/* time_stamp */ '2026-06-24T13:26:44Z',
/* author */ (''),
/* organization */ (''),
/* preprocessor_version */ 'ST-DEVELOPER v20',
/* originating_system */ 'ONSHAPE BY PTC INC, 1.216',
/* authorisation */ '  ');

FILE_SCHEMA (('AP242_MANAGED_MODEL_BASED_3D_ENGINEERING_MIM_LF { 1 0 10303 442 3 1 4 }'));
ENDSEC;

DATA;
#10=SHAPE_REPRESENTATION_RELATIONSHIP('','',#498,#11);
#11=ADVANCED_BREP_SHAPE_REPRESENTATION('',(#496),#790);
#12=ELLIPSE('',#521,0.00305328708116352,0.002159);
#13=ELLIPSE('',#523,0.00305328708116352,0.002159);
#14=CYLINDRICAL_SURFACE('',#520,0.002159);
#15=CYLINDRICAL_SURFACE('',#522,0.002159);
#16=CYLINDRICAL_SURFACE('',#524,0.002159);
#17=CIRCLE('',#502,0.002159);
#18=CIRCLE('',#503,0.002159);
#19=ORIENTED_EDGE('',*,*,#153,.F.);
#20=ORIENTED_EDGE('',*,*,#154,.T.);
#21=ORIENTED_EDGE('',*,*,#155,.T.);
#22=ORIENTED_EDGE('',*,*,#156,.F.);
#23=ORIENTED_EDGE('',*,*,#157,.T.);
#24=ORIENTED_EDGE('',*,*,#158,.T.);
#25=ORIENTED_EDGE('',*,*,#159,.T.);
#26=ORIENTED_EDGE('',*,*,#160,.F.);
#27=ORIENTED_EDGE('',*,*,#161,.T.);
#28=ORIENTED_EDGE('',*,*,#162,.F.);
#29=ORIENTED_EDGE('',*,*,#163,.T.);
#30=ORIENTED_EDGE('',*,*,#164,.T.);
#31=ORIENTED_EDGE('',*,*,#165,.T.);
#32=ORIENTED_EDGE('',*,*,#166,.F.);
#33=ORIENTED_EDGE('',*,*,#167,.T.);
#34=ORIENTED_EDGE('',*,*,#168,.F.);
#35=ORIENTED_EDGE('',*,*,#169,.T.);
#36=ORIENTED_EDGE('',*,*,#153,.T.);
#37=ORIENTED_EDGE('',*,*,#170,.F.);
#38=ORIENTED_EDGE('',*,*,#171,.T.);
#39=ORIENTED_EDGE('',*,*,#166,.T.);
#40=ORIENTED_EDGE('',*,*,#172,.T.);
#41=ORIENTED_EDGE('',*,*,#155,.F.);
#42=ORIENTED_EDGE('',*,*,#173,.T.);
#43=ORIENTED_EDGE('',*,*,#170,.T.);
#44=ORIENTED_EDGE('',*,*,#174,.F.);
#45=ORIENTED_EDGE('',*,*,#175,.F.);
#46=ORIENTED_EDGE('',*,*,#176,.F.);
#47=ORIENTED_EDGE('',*,*,#177,.T.);
#48=ORIENTED_EDGE('',*,*,#178,.F.);
#49=ORIENTED_EDGE('',*,*,#179,.F.);
#50=ORIENTED_EDGE('',*,*,#180,.F.);
#51=ORIENTED_EDGE('',*,*,#181,.T.);
#52=ORIENTED_EDGE('',*,*,#182,.F.);
#53=ORIENTED_EDGE('',*,*,#183,.T.);
#54=ORIENTED_EDGE('',*,*,#184,.T.);
#55=ORIENTED_EDGE('',*,*,#168,.T.);
#56=ORIENTED_EDGE('',*,*,#185,.T.);
#57=ORIENTED_EDGE('',*,*,#186,.F.);
#58=ORIENTED_EDGE('',*,*,#187,.T.);
#59=ORIENTED_EDGE('',*,*,#157,.F.);
#60=ORIENTED_EDGE('',*,*,#156,.T.);
#61=ORIENTED_EDGE('',*,*,#182,.T.);
#62=ORIENTED_EDGE('',*,*,#188,.T.);
#63=ORIENTED_EDGE('',*,*,#189,.T.);
#64=ORIENTED_EDGE('',*,*,#190,.F.);
#65=ORIENTED_EDGE('',*,*,#178,.T.);
#66=ORIENTED_EDGE('',*,*,#191,.T.);
#67=ORIENTED_EDGE('',*,*,#192,.F.);
#68=ORIENTED_EDGE('',*,*,#193,.F.);
#69=ORIENTED_EDGE('',*,*,#174,.T.);
#70=ORIENTED_EDGE('',*,*,#172,.F.);
#71=ORIENTED_EDGE('',*,*,#165,.F.);
#72=ORIENTED_EDGE('',*,*,#194,.T.);
#73=ORIENTED_EDGE('',*,*,#195,.T.);
#74=ORIENTED_EDGE('',*,*,#196,.F.);
#75=ORIENTED_EDGE('',*,*,#161,.F.);
#76=ORIENTED_EDGE('',*,*,#197,.F.);
#77=ORIENTED_EDGE('',*,*,#190,.T.);
#78=ORIENTED_EDGE('',*,*,#198,.F.);
#79=ORIENTED_EDGE('',*,*,#199,.F.);
#80=ORIENTED_EDGE('',*,*,#179,.T.);
#81=ORIENTED_EDGE('',*,*,#189,.F.);
#82=ORIENTED_EDGE('',*,*,#200,.F.);
#83=ORIENTED_EDGE('',*,*,#201,.T.);
#84=ORIENTED_EDGE('',*,*,#198,.T.);
#85=ORIENTED_EDGE('',*,*,#188,.F.);
#86=ORIENTED_EDGE('',*,*,#181,.F.);
#87=ORIENTED_EDGE('',*,*,#202,.T.);
#88=ORIENTED_EDGE('',*,*,#200,.T.);
#89=ORIENTED_EDGE('',*,*,#180,.T.);
#90=ORIENTED_EDGE('',*,*,#199,.T.);
#91=ORIENTED_EDGE('',*,*,#201,.F.);
#92=ORIENTED_EDGE('',*,*,#202,.F.);
#93=ORIENTED_EDGE('',*,*,#193,.T.);
#94=ORIENTED_EDGE('',*,*,#203,.F.);
#95=ORIENTED_EDGE('',*,*,#204,.F.);
#96=ORIENTED_EDGE('',*,*,#175,.T.);
#97=ORIENTED_EDGE('',*,*,#192,.T.);
#98=ORIENTED_EDGE('',*,*,#205,.F.);
#99=ORIENTED_EDGE('',*,*,#206,.F.);
#100=ORIENTED_EDGE('',*,*,#203,.T.);
#101=ORIENTED_EDGE('',*,*,#191,.F.);
#102=ORIENTED_EDGE('',*,*,#177,.F.);
#103=ORIENTED_EDGE('',*,*,#207,.T.);
#104=ORIENTED_EDGE('',*,*,#205,.T.);
#105=ORIENTED_EDGE('',*,*,#176,.T.);
#106=ORIENTED_EDGE('',*,*,#204,.T.);
#107=ORIENTED_EDGE('',*,*,#206,.T.);
#108=ORIENTED_EDGE('',*,*,#207,.F.);
#109=ORIENTED_EDGE('',*,*,#194,.F.);
#110=ORIENTED_EDGE('',*,*,#164,.F.);
#111=ORIENTED_EDGE('',*,*,#208,.T.);
#112=ORIENTED_EDGE('',*,*,#209,.T.);
#113=ORIENTED_EDGE('',*,*,#196,.T.);
#114=ORIENTED_EDGE('',*,*,#210,.F.);
#115=ORIENTED_EDGE('',*,*,#211,.F.);
#116=ORIENTED_EDGE('',*,*,#162,.T.);
#117=ORIENTED_EDGE('',*,*,#195,.F.);
#118=ORIENTED_EDGE('',*,*,#209,.F.);
#119=ORIENTED_EDGE('',*,*,#212,.T.);
#120=ORIENTED_EDGE('',*,*,#210,.T.);
#121=ORIENTED_EDGE('',*,*,#208,.F.);
#122=ORIENTED_EDGE('',*,*,#163,.F.);
#123=ORIENTED_EDGE('',*,*,#211,.T.);
#124=ORIENTED_EDGE('',*,*,#212,.F.);
#125=ORIENTED_EDGE('',*,*,#169,.F.);
#126=ORIENTED_EDGE('',*,*,#184,.F.);
#127=ORIENTED_EDGE('',*,*,#213,.F.);
#128=ORIENTED_EDGE('',*,*,#154,.F.);
#129=ORIENTED_EDGE('',*,*,#167,.F.);
#130=ORIENTED_EDGE('',*,*,#171,.F.);
#131=ORIENTED_EDGE('',*,*,#214,.F.);
#132=ORIENTED_EDGE('',*,*,#185,.F.);
#133=ORIENTED_EDGE('',*,*,#213,.T.);
#134=ORIENTED_EDGE('',*,*,#183,.F.);
#135=ORIENTED_EDGE('',*,*,#214,.T.);
#136=ORIENTED_EDGE('',*,*,#173,.F.);
#137=ORIENTED_EDGE('',*,*,#158,.F.);
#138=ORIENTED_EDGE('',*,*,#187,.F.);
#139=ORIENTED_EDGE('',*,*,#215,.T.);
#140=ORIENTED_EDGE('',*,*,#216,.T.);
#141=ORIENTED_EDGE('',*,*,#160,.T.);
#142=ORIENTED_EDGE('',*,*,#217,.F.);
#143=ORIENTED_EDGE('',*,*,#218,.F.);
#144=ORIENTED_EDGE('',*,*,#197,.T.);
#145=ORIENTED_EDGE('',*,*,#159,.F.);
#146=ORIENTED_EDGE('',*,*,#216,.F.);
#147=ORIENTED_EDGE('',*,*,#219,.T.);
#148=ORIENTED_EDGE('',*,*,#217,.T.);
#149=ORIENTED_EDGE('',*,*,#215,.F.);
#150=ORIENTED_EDGE('',*,*,#186,.T.);
#151=ORIENTED_EDGE('',*,*,#218,.T.);
#152=ORIENTED_EDGE('',*,*,#219,.F.);
#153=EDGE_CURVE('',#220,#221,#264,.T.);
#154=EDGE_CURVE('',#220,#222,#265,.T.);
#155=EDGE_CURVE('',#222,#223,#266,.T.);
#156=EDGE_CURVE('',#221,#223,#267,.T.);
#157=EDGE_CURVE('',#221,#224,#268,.T.);
#158=EDGE_CURVE('',#224,#225,#269,.T.);
#159=EDGE_CURVE('',#225,#226,#270,.T.);
#160=EDGE_CURVE('',#227,#226,#271,.T.);
#161=EDGE_CURVE('',#227,#228,#272,.T.);
#162=EDGE_CURVE('',#229,#228,#273,.T.);
#163=EDGE_CURVE('',#229,#230,#274,.T.);
#164=EDGE_CURVE('',#230,#231,#275,.T.);
#165=EDGE_CURVE('',#231,#232,#276,.T.);
#166=EDGE_CURVE('',#233,#232,#277,.T.);
#167=EDGE_CURVE('',#233,#234,#17,.F.);
#168=EDGE_CURVE('',#235,#234,#278,.T.);
#169=EDGE_CURVE('',#235,#220,#18,.F.);
#170=EDGE_CURVE('',#236,#237,#279,.T.);
#171=EDGE_CURVE('',#236,#233,#280,.F.);
#172=EDGE_CURVE('',#232,#237,#281,.T.);
#173=EDGE_CURVE('',#222,#236,#282,.T.);
#174=EDGE_CURVE('',#238,#237,#283,.T.);
#175=EDGE_CURVE('',#239,#238,#284,.T.);
#176=EDGE_CURVE('',#240,#239,#285,.T.);
#177=EDGE_CURVE('',#240,#241,#286,.T.);
#178=EDGE_CURVE('',#242,#241,#287,.T.);
#179=EDGE_CURVE('',#243,#242,#288,.T.);
#180=EDGE_CURVE('',#244,#243,#289,.T.);
#181=EDGE_CURVE('',#244,#245,#290,.T.);
#182=EDGE_CURVE('',#223,#245,#291,.T.);
#183=EDGE_CURVE('',#246,#247,#292,.F.);
#184=EDGE_CURVE('',#247,#235,#293,.F.);
#185=EDGE_CURVE('',#234,#246,#294,.T.);
#186=EDGE_CURVE('',#248,#249,#295,.T.);
#187=EDGE_CURVE('',#248,#224,#296,.T.);
#188=EDGE_CURVE('',#245,#250,#297,.T.);
#189=EDGE_CURVE('',#250,#251,#298,.T.);
#190=EDGE_CURVE('',#242,#251,#299,.T.);
#191=EDGE_CURVE('',#241,#252,#300,.T.);
#192=EDGE_CURVE('',#253,#252,#301,.T.);
#193=EDGE_CURVE('',#238,#253,#302,.T.);
#194=EDGE_CURVE('',#231,#254,#303,.T.);
#195=EDGE_CURVE('',#254,#255,#304,.T.);
#196=EDGE_CURVE('',#228,#255,#305,.T.);
#197=EDGE_CURVE('',#249,#227,#306,.T.);
#198=EDGE_CURVE('',#256,#251,#307,.T.);
#199=EDGE_CURVE('',#243,#256,#308,.T.);
#200=EDGE_CURVE('',#257,#250,#309,.T.);
#201=EDGE_CURVE('',#257,#256,#310,.T.);
#202=EDGE_CURVE('',#244,#257,#311,.T.);
#203=EDGE_CURVE('',#258,#253,#312,.T.);
#204=EDGE_CURVE('',#239,#258,#313,.T.);
#205=EDGE_CURVE('',#259,#252,#314,.T.);
#206=EDGE_CURVE('',#258,#259,#315,.T.);
#207=EDGE_CURVE('',#240,#259,#316,.T.);
#208=EDGE_CURVE('',#230,#260,#317,.T.);
#209=EDGE_CURVE('',#260,#254,#318,.T.);
#210=EDGE_CURVE('',#261,#255,#319,.T.);
#211=EDGE_CURVE('',#229,#261,#320,.T.);
#212=EDGE_CURVE('',#260,#261,#321,.T.);
#213=EDGE_CURVE('',#222,#247,#12,.T.);
#214=EDGE_CURVE('',#246,#236,#13,.F.);
#215=EDGE_CURVE('',#248,#262,#322,.T.);
#216=EDGE_CURVE('',#262,#225,#323,.T.);
#217=EDGE_CURVE('',#263,#226,#324,.T.);
#218=EDGE_CURVE('',#249,#263,#325,.T.);
#219=EDGE_CURVE('',#262,#263,#326,.T.);
#220=VERTEX_POINT('',#655);
#221=VERTEX_POINT('',#656);
#222=VERTEX_POINT('',#658);
#223=VERTEX_POINT('',#660);
#224=VERTEX_POINT('',#664);
#225=VERTEX_POINT('',#666);
#226=VERTEX_POINT('',#668);
#227=VERTEX_POINT('',#670);
#228=VERTEX_POINT('',#672);
#229=VERTEX_POINT('',#674);
#230=VERTEX_POINT('',#676);
#231=VERTEX_POINT('',#678);
#232=VERTEX_POINT('',#680);
#233=VERTEX_POINT('',#682);
#234=VERTEX_POINT('',#684);
#235=VERTEX_POINT('',#686);
#236=VERTEX_POINT('',#690);
#237=VERTEX_POINT('',#691);
#238=VERTEX_POINT('',#697);
#239=VERTEX_POINT('',#699);
#240=VERTEX_POINT('',#701);
#241=VERTEX_POINT('',#703);
#242=VERTEX_POINT('',#705);
#243=VERTEX_POINT('',#707);
#244=VERTEX_POINT('',#709);
#245=VERTEX_POINT('',#711);
#246=VERTEX_POINT('',#715);
#247=VERTEX_POINT('',#716);
#248=VERTEX_POINT('',#721);
#249=VERTEX_POINT('',#722);
#250=VERTEX_POINT('',#725);
#251=VERTEX_POINT('',#727);
#252=VERTEX_POINT('',#730);
#253=VERTEX_POINT('',#732);
#254=VERTEX_POINT('',#735);
#255=VERTEX_POINT('',#737);
#256=VERTEX_POINT('',#742);
#257=VERTEX_POINT('',#746);
#258=VERTEX_POINT('',#753);
#259=VERTEX_POINT('',#757);
#260=VERTEX_POINT('',#764);
#261=VERTEX_POINT('',#768);
#262=VERTEX_POINT('',#780);
#263=VERTEX_POINT('',#784);
#264=LINE('',#654,#327);
#265=LINE('',#657,#328);
#266=LINE('',#659,#329);
#267=LINE('',#661,#330);
#268=LINE('',#663,#331);
#269=LINE('',#665,#332);
#270=LINE('',#667,#333);
#271=LINE('',#669,#334);
#272=LINE('',#671,#335);
#273=LINE('',#673,#336);
#274=LINE('',#675,#337);
#275=LINE('',#677,#338);
#276=LINE('',#679,#339);
#277=LINE('',#681,#340);
#278=LINE('',#685,#341);
#279=LINE('',#689,#342);
#280=LINE('',#692,#343);
#281=LINE('',#693,#344);
#282=LINE('',#695,#345);
#283=LINE('',#696,#346);
#284=LINE('',#698,#347);
#285=LINE('',#700,#348);
#286=LINE('',#702,#349);
#287=LINE('',#704,#350);
#288=LINE('',#706,#351);
#289=LINE('',#708,#352);
#290=LINE('',#710,#353);
#291=LINE('',#712,#354);
#292=LINE('',#714,#355);
#293=LINE('',#717,#356);
#294=LINE('',#718,#357);
#295=LINE('',#720,#358);
#296=LINE('',#723,#359);
#297=LINE('',#724,#360);
#298=LINE('',#726,#361);
#299=LINE('',#728,#362);
#300=LINE('',#729,#363);
#301=LINE('',#731,#364);
#302=LINE('',#733,#365);
#303=LINE('',#734,#366);
#304=LINE('',#736,#367);
#305=LINE('',#738,#368);
#306=LINE('',#739,#369);
#307=LINE('',#741,#370);
#308=LINE('',#743,#371);
#309=LINE('',#745,#372);
#310=LINE('',#747,#373);
#311=LINE('',#749,#374);
#312=LINE('',#752,#375);
#313=LINE('',#754,#376);
#314=LINE('',#756,#377);
#315=LINE('',#758,#378);
#316=LINE('',#760,#379);
#317=LINE('',#763,#380);
#318=LINE('',#765,#381);
#319=LINE('',#767,#382);
#320=LINE('',#769,#383);
#321=LINE('',#771,#384);
#322=LINE('',#779,#385);
#323=LINE('',#781,#386);
#324=LINE('',#783,#387);
#325=LINE('',#785,#388);
#326=LINE('',#787,#389);
#327=VECTOR('',#533,1.);
#328=VECTOR('',#534,1.);
#329=VECTOR('',#535,1.);
#330=VECTOR('',#536,1.);
#331=VECTOR('',#539,1.);
#332=VECTOR('',#540,1.);
#333=VECTOR('',#541,1.);
#334=VECTOR('',#542,1.);
#335=VECTOR('',#543,1.);
#336=VECTOR('',#544,1.);
#337=VECTOR('',#545,1.);
#338=VECTOR('',#546,1.);
#339=VECTOR('',#547,1.);
#340=VECTOR('',#548,1.);
#341=VECTOR('',#551,1.);
#342=VECTOR('',#556,1.);
#343=VECTOR('',#557,1.);
#344=VECTOR('',#558,1.);
#345=VECTOR('',#561,1.);
#346=VECTOR('',#562,1.);
#347=VECTOR('',#563,1.);
#348=VECTOR('',#564,1.);
#349=VECTOR('',#565,1.);
#350=VECTOR('',#566,1.);
#351=VECTOR('',#567,1.);
#352=VECTOR('',#568,1.);
#353=VECTOR('',#569,1.);
#354=VECTOR('',#570,1.);
#355=VECTOR('',#573,1.);
#356=VECTOR('',#574,1.);
#357=VECTOR('',#575,1.);
#358=VECTOR('',#578,1.);
#359=VECTOR('',#579,1.);
#360=VECTOR('',#580,1.);
#361=VECTOR('',#581,1.);
#362=VECTOR('',#582,1.);
#363=VECTOR('',#583,1.);
#364=VECTOR('',#584,1.);
#365=VECTOR('',#585,1.);
#366=VECTOR('',#586,1.);
#367=VECTOR('',#587,1.);
#368=VECTOR('',#588,1.);
#369=VECTOR('',#589,1.);
#370=VECTOR('',#592,1.);
#371=VECTOR('',#593,1.);
#372=VECTOR('',#596,1.);
#373=VECTOR('',#597,1.);
#374=VECTOR('',#600,1.);
#375=VECTOR('',#605,1.);
#376=VECTOR('',#606,1.);
#377=VECTOR('',#609,1.);
#378=VECTOR('',#610,1.);
#379=VECTOR('',#613,1.);
#380=VECTOR('',#618,1.);
#381=VECTOR('',#619,1.);
#382=VECTOR('',#622,1.);
#383=VECTOR('',#623,1.);
#384=VECTOR('',#626,1.);
#385=VECTOR('',#641,1.);
#386=VECTOR('',#642,1.);
#387=VECTOR('',#645,1.);
#388=VECTOR('',#646,1.);
#389=VECTOR('',#649,1.);
#390=EDGE_LOOP('',(#19,#20,#21,#22));
#391=EDGE_LOOP('',(#23,#24,#25,#26,#27,#28,#29,#30,#31,#32,#33,#34,#35,
#36));
#392=EDGE_LOOP('',(#37,#38,#39,#40));
#393=EDGE_LOOP('',(#41,#42,#43,#44,#45,#46,#47,#48,#49,#50,#51,#52));
#394=EDGE_LOOP('',(#53,#54,#55,#56));
#395=EDGE_LOOP('',(#57,#58,#59,#60,#61,#62,#63,#64,#65,#66,#67,#68,#69,
#70,#71,#72,#73,#74,#75,#76));
#396=EDGE_LOOP('',(#77,#78,#79,#80));
#397=EDGE_LOOP('',(#81,#82,#83,#84));
#398=EDGE_LOOP('',(#85,#86,#87,#88));
#399=EDGE_LOOP('',(#89,#90,#91,#92));
#400=EDGE_LOOP('',(#93,#94,#95,#96));
#401=EDGE_LOOP('',(#97,#98,#99,#100));
#402=EDGE_LOOP('',(#101,#102,#103,#104));
#403=EDGE_LOOP('',(#105,#106,#107,#108));
#404=EDGE_LOOP('',(#109,#110,#111,#112));
#405=EDGE_LOOP('',(#113,#114,#115,#116));
#406=EDGE_LOOP('',(#117,#118,#119,#120));
#407=EDGE_LOOP('',(#121,#122,#123,#124));
#408=EDGE_LOOP('',(#125,#126,#127,#128));
#409=EDGE_LOOP('',(#129,#130,#131,#132));
#410=EDGE_LOOP('',(#133,#134,#135,#136));
#411=EDGE_LOOP('',(#137,#138,#139,#140));
#412=EDGE_LOOP('',(#141,#142,#143,#144));
#413=EDGE_LOOP('',(#145,#146,#147,#148));
#414=EDGE_LOOP('',(#149,#150,#151,#152));
#415=FACE_BOUND('',#390,.T.);
#416=FACE_BOUND('',#391,.T.);
#417=FACE_BOUND('',#392,.T.);
#418=FACE_BOUND('',#393,.T.);
#419=FACE_BOUND('',#394,.T.);
#420=FACE_BOUND('',#395,.T.);
#421=FACE_BOUND('',#396,.T.);
#422=FACE_BOUND('',#397,.T.);
#423=FACE_BOUND('',#398,.T.);
#424=FACE_BOUND('',#399,.T.);
#425=FACE_BOUND('',#400,.T.);
#426=FACE_BOUND('',#401,.T.);
#427=FACE_BOUND('',#402,.T.);
#428=FACE_BOUND('',#403,.T.);
#429=FACE_BOUND('',#404,.T.);
#430=FACE_BOUND('',#405,.T.);
#431=FACE_BOUND('',#406,.T.);
#432=FACE_BOUND('',#407,.T.);
#433=FACE_BOUND('',#408,.T.);
#434=FACE_BOUND('',#409,.T.);
#435=FACE_BOUND('',#410,.T.);
#436=FACE_BOUND('',#411,.T.);
#437=FACE_BOUND('',#412,.T.);
#438=FACE_BOUND('',#413,.T.);
#439=FACE_BOUND('',#414,.T.);
#440=PLANE('',#500);
#441=PLANE('',#501);
#442=PLANE('',#504);
#443=PLANE('',#505);
#444=PLANE('',#506);
#445=PLANE('',#507);
#446=PLANE('',#508);
#447=PLANE('',#509);
#448=PLANE('',#510);
#449=PLANE('',#511);
#450=PLANE('',#512);
#451=PLANE('',#513);
#452=PLANE('',#514);
#453=PLANE('',#515);
#454=PLANE('',#516);
#455=PLANE('',#517);
#456=PLANE('',#518);
#457=PLANE('',#519);
#458=PLANE('',#525);
#459=PLANE('',#526);
#460=PLANE('',#527);
#461=PLANE('',#528);
#462=ADVANCED_FACE('',(#415),#440,.T.);
#463=ADVANCED_FACE('',(#416),#441,.F.);
#464=ADVANCED_FACE('',(#417),#442,.F.);
#465=ADVANCED_FACE('',(#418),#443,.T.);
#466=ADVANCED_FACE('',(#419),#444,.T.);
#467=ADVANCED_FACE('',(#420),#445,.F.);
#468=ADVANCED_FACE('',(#421),#446,.F.);
#469=ADVANCED_FACE('',(#422),#447,.T.);
#470=ADVANCED_FACE('',(#423),#448,.T.);
#471=ADVANCED_FACE('',(#424),#449,.T.);
#472=ADVANCED_FACE('',(#425),#450,.F.);
#473=ADVANCED_FACE('',(#426),#451,.F.);
#474=ADVANCED_FACE('',(#427),#452,.T.);
#475=ADVANCED_FACE('',(#428),#453,.T.);
#476=ADVANCED_FACE('',(#429),#454,.T.);
#477=ADVANCED_FACE('',(#430),#455,.F.);
#478=ADVANCED_FACE('',(#431),#456,.T.);
#479=ADVANCED_FACE('',(#432),#457,.T.);
#480=ADVANCED_FACE('',(#433),#14,.T.);
#481=ADVANCED_FACE('',(#434),#15,.T.);
#482=ADVANCED_FACE('',(#435),#16,.T.);
#483=ADVANCED_FACE('',(#436),#458,.T.);
#484=ADVANCED_FACE('',(#437),#459,.F.);
#485=ADVANCED_FACE('',(#438),#460,.T.);
#486=ADVANCED_FACE('',(#439),#461,.T.);
#487=CLOSED_SHELL('',(#462,#463,#464,#465,#466,#467,#468,#469,#470,#471,
#472,#473,#474,#475,#476,#477,#478,#479,#480,#481,#482,#483,#484,#485,#486));
#488=STYLED_ITEM('',(#489),#496);
#489=PRESENTATION_STYLE_ASSIGNMENT((#490));
#490=SURFACE_STYLE_USAGE(.BOTH.,#491);
#491=SURFACE_SIDE_STYLE('',(#492));
#492=SURFACE_STYLE_FILL_AREA(#493);
#493=FILL_AREA_STYLE('',(#494));
#494=FILL_AREA_STYLE_COLOUR('',#495);
#495=COLOUR_RGB('',0.262745098039216,0.282352941176471,0.301960784313725);
#496=MANIFOLD_SOLID_BREP('Part 1',#487);
#497=SHAPE_DEFINITION_REPRESENTATION(#795,#498);
#498=SHAPE_REPRESENTATION('Part 1',(#499),#790);
#499=AXIS2_PLACEMENT_3D('',#652,#529,#530);
#500=AXIS2_PLACEMENT_3D('',#653,#531,#532);
#501=AXIS2_PLACEMENT_3D('',#662,#537,#538);
#502=AXIS2_PLACEMENT_3D('',#683,#549,#550);
#503=AXIS2_PLACEMENT_3D('',#687,#552,#553);
#504=AXIS2_PLACEMENT_3D('',#688,#554,#555);
#505=AXIS2_PLACEMENT_3D('',#694,#559,#560);
#506=AXIS2_PLACEMENT_3D('',#713,#571,#572);
#507=AXIS2_PLACEMENT_3D('',#719,#576,#577);
#508=AXIS2_PLACEMENT_3D('',#740,#590,#591);
#509=AXIS2_PLACEMENT_3D('',#744,#594,#595);
#510=AXIS2_PLACEMENT_3D('',#748,#598,#599);
#511=AXIS2_PLACEMENT_3D('',#750,#601,#602);
#512=AXIS2_PLACEMENT_3D('',#751,#603,#604);
#513=AXIS2_PLACEMENT_3D('',#755,#607,#608);
#514=AXIS2_PLACEMENT_3D('',#759,#611,#612);
#515=AXIS2_PLACEMENT_3D('',#761,#614,#615);
#516=AXIS2_PLACEMENT_3D('',#762,#616,#617);
#517=AXIS2_PLACEMENT_3D('',#766,#620,#621);
#518=AXIS2_PLACEMENT_3D('',#770,#624,#625);
#519=AXIS2_PLACEMENT_3D('',#772,#627,#628);
#520=AXIS2_PLACEMENT_3D('',#773,#629,#630);
#521=AXIS2_PLACEMENT_3D('',#774,#631,#632);
#522=AXIS2_PLACEMENT_3D('',#775,#633,#634);
#523=AXIS2_PLACEMENT_3D('',#776,#635,#636);
#524=AXIS2_PLACEMENT_3D('',#777,#637,#638);
#525=AXIS2_PLACEMENT_3D('',#778,#639,#640);
#526=AXIS2_PLACEMENT_3D('',#782,#643,#644);
#527=AXIS2_PLACEMENT_3D('',#786,#647,#648);
#528=AXIS2_PLACEMENT_3D('',#788,#650,#651);
#529=DIRECTION('',(0.,0.,1.));
#530=DIRECTION('',(1.,0.,0.));
#531=DIRECTION('',(-1.82602471155453E-16,0.,-1.));
#532=DIRECTION('',(-1.,0.,1.82602471155453E-16));
#533=DIRECTION('',(0.,-1.,0.));
#534=DIRECTION('',(1.,0.,-1.82602471155453E-16));
#535=DIRECTION('',(0.,-1.,0.));
#536=DIRECTION('',(1.,0.,-1.82602471155453E-16));
#537=DIRECTION('',(1.,0.,0.));
#538=DIRECTION('',(0.,-1.,0.));
#539=DIRECTION('',(0.,0.,1.));
#540=DIRECTION('',(0.,1.,0.));
#541=DIRECTION('',(0.,0.,1.));
#542=DIRECTION('',(0.,1.,0.));
#543=DIRECTION('',(0.,0.,1.));
#544=DIRECTION('',(0.,1.,0.));
#545=DIRECTION('',(0.,0.,1.));
#546=DIRECTION('',(0.,1.,0.));
#547=DIRECTION('',(0.,0.,1.));
#548=DIRECTION('',(0.,-1.,0.));
#549=DIRECTION('',(1.,0.,0.));
#550=DIRECTION('',(0.,-1.,0.));
#551=DIRECTION('',(0.,0.,1.));
#552=DIRECTION('',(1.,0.,0.));
#553=DIRECTION('',(0.,-1.,0.));
#554=DIRECTION('',(-1.82602471155453E-16,0.,-1.));
#555=DIRECTION('',(-1.,0.,1.82602471155453E-16));
#556=DIRECTION('',(0.,-1.,0.));
#557=DIRECTION('',(1.,0.,-1.82602471155453E-16));
#558=DIRECTION('',(1.,0.,-1.82602471155453E-16));
#559=DIRECTION('',(1.,0.,0.));
#560=DIRECTION('',(0.,-1.,0.));
#561=DIRECTION('',(0.,0.,1.));
#562=DIRECTION('',(0.,0.,1.));
#563=DIRECTION('',(0.,1.,0.));
#564=DIRECTION('',(0.,0.,1.));
#565=DIRECTION('',(0.,1.,0.));
#566=DIRECTION('',(0.,0.,1.));
#567=DIRECTION('',(0.,1.,0.));
#568=DIRECTION('',(0.,0.,1.));
#569=DIRECTION('',(0.,1.,0.));
#570=DIRECTION('',(0.,0.,1.));
#571=DIRECTION('',(0.,1.,0.));
#572=DIRECTION('',(1.,0.,0.));
#573=DIRECTION('',(0.,0.,1.));
#574=DIRECTION('',(1.,0.,-1.82602471155453E-16));
#575=DIRECTION('',(1.,0.,-1.82602471155453E-16));
#576=DIRECTION('',(0.,1.,0.));
#577=DIRECTION('',(1.,0.,0.));
#578=DIRECTION('',(0.,0.,1.));
#579=DIRECTION('',(-1.,0.,0.));
#580=DIRECTION('',(-1.,0.,0.));
#581=DIRECTION('',(0.,0.,1.));
#582=DIRECTION('',(-1.,0.,0.));
#583=DIRECTION('',(-1.,0.,0.));
#584=DIRECTION('',(0.,0.,-1.));
#585=DIRECTION('',(-1.,0.,0.));
#586=DIRECTION('',(1.,0.,0.));
#587=DIRECTION('',(0.,0.,-1.));
#588=DIRECTION('',(1.,0.,0.));
#589=DIRECTION('',(-1.,0.,0.));
#590=DIRECTION('',(0.,0.,-1.));
#591=DIRECTION('',(0.,1.,0.));
#592=DIRECTION('',(0.,1.,0.));
#593=DIRECTION('',(-1.,0.,0.));
#594=DIRECTION('',(-1.,0.,0.));
#595=DIRECTION('',(0.,1.,0.));
#596=DIRECTION('',(0.,1.,0.));
#597=DIRECTION('',(0.,0.,1.));
#598=DIRECTION('',(0.,0.,-1.));
#599=DIRECTION('',(0.,1.,0.));
#600=DIRECTION('',(-1.,0.,0.));
#601=DIRECTION('',(0.,-1.,0.));
#602=DIRECTION('',(1.,0.,0.));
#603=DIRECTION('',(0.,0.,-1.));
#604=DIRECTION('',(0.,1.,0.));
#605=DIRECTION('',(0.,1.,0.));
#606=DIRECTION('',(-1.,0.,0.));
#607=DIRECTION('',(1.,0.,0.));
#608=DIRECTION('',(0.,-1.,0.));
#609=DIRECTION('',(0.,1.,0.));
#610=DIRECTION('',(0.,0.,-1.));
#611=DIRECTION('',(0.,0.,-1.));
#612=DIRECTION('',(0.,1.,0.));
#613=DIRECTION('',(-1.,0.,0.));
#614=DIRECTION('',(0.,-1.,0.));
#615=DIRECTION('',(1.,0.,0.));
#616=DIRECTION('',(0.,0.,1.));
#617=DIRECTION('',(0.,-1.,0.));
#618=DIRECTION('',(1.,0.,0.));
#619=DIRECTION('',(0.,1.,0.));
#620=DIRECTION('',(0.,0.,1.));
#621=DIRECTION('',(0.,-1.,0.));
#622=DIRECTION('',(0.,1.,0.));
#623=DIRECTION('',(1.,0.,0.));
#624=DIRECTION('',(1.,0.,0.));
#625=DIRECTION('',(0.,-1.,0.));
#626=DIRECTION('',(0.,0.,-1.));
#627=DIRECTION('',(0.,-1.,0.));
#628=DIRECTION('',(1.,0.,0.));
#629=DIRECTION('',(1.,0.,-1.82602471155453E-16));
#630=DIRECTION('',(-1.82602471155453E-16,0.,-1.));
#631=DIRECTION('',(0.707106781186548,0.,0.707106781186548));
#632=DIRECTION('',(0.707106781186548,0.,-0.707106781186548));
#633=DIRECTION('',(-1.,0.,1.82602471155453E-16));
#634=DIRECTION('',(1.82602471155453E-16,0.,1.));
#635=DIRECTION('',(-0.707106781186548,0.,0.707106781186548));
#636=DIRECTION('',(-0.707106781186548,0.,-0.707106781186548));
#637=DIRECTION('',(0.,0.,1.));
#638=DIRECTION('',(0.,-1.,0.));
#639=DIRECTION('',(0.,0.,1.));
#640=DIRECTION('',(0.,-1.,0.));
#641=DIRECTION('',(0.,1.,0.));
#642=DIRECTION('',(-1.,0.,0.));
#643=DIRECTION('',(0.,0.,1.));
#644=DIRECTION('',(0.,-1.,0.));
#645=DIRECTION('',(-1.,0.,0.));
#646=DIRECTION('',(0.,1.,0.));
#647=DIRECTION('',(0.,-1.,0.));
#648=DIRECTION('',(-1.,0.,0.));
#649=DIRECTION('',(0.,0.,1.));
#650=DIRECTION('',(-1.,0.,0.));
#651=DIRECTION('',(0.,0.,1.));
#652=CARTESIAN_POINT('',(0.,0.,0.));
#653=CARTESIAN_POINT('',(0.,0.0045,-0.01992));
#654=CARTESIAN_POINT('',(-0.076,0.0045,-0.01992));
#655=CARTESIAN_POINT('',(-0.076,0.002341,-0.01992));
#656=CARTESIAN_POINT('',(-0.076,0.,-0.01992));
#657=CARTESIAN_POINT('',(0.,0.002341,-0.01992));
#658=CARTESIAN_POINT('',(0.076,0.002341,-0.01992));
#659=CARTESIAN_POINT('',(0.076,0.0045,-0.01992));
#660=CARTESIAN_POINT('',(0.076,0.,-0.01992));
#661=CARTESIAN_POINT('',(0.,0.,-0.01992));
#662=CARTESIAN_POINT('',(-0.076,0.0045,2.08166817117217E-17));
#663=CARTESIAN_POINT('',(-0.076,0.,2.08166817117217E-17));
#664=CARTESIAN_POINT('',(-0.076,0.,-0.01492));
#665=CARTESIAN_POINT('',(-0.076,0.00125,-0.01492));
#666=CARTESIAN_POINT('',(-0.076,0.0025,-0.01492));
#667=CARTESIAN_POINT('',(-0.076,0.0025,-0.011085));
#668=CARTESIAN_POINT('',(-0.076,0.0025,-0.00725));
#669=CARTESIAN_POINT('',(-0.076,0.00125,-0.00725));
#670=CARTESIAN_POINT('',(-0.076,0.,-0.00725));
#671=CARTESIAN_POINT('',(-0.076,0.,2.08166817117217E-17));
#672=CARTESIAN_POINT('',(-0.076,0.,-0.00225));
#673=CARTESIAN_POINT('',(-0.076,-0.0025,-0.00225));
#674=CARTESIAN_POINT('',(-0.076,-0.0025,-0.00225));
#675=CARTESIAN_POINT('',(-0.076,-0.0025,2.08166817117217E-17));
#676=CARTESIAN_POINT('',(-0.076,-0.0025,0.00225));
#677=CARTESIAN_POINT('',(-0.076,-0.0025,0.00225));
#678=CARTESIAN_POINT('',(-0.076,0.,0.00225));
#679=CARTESIAN_POINT('',(-0.076,0.,2.08166817117217E-17));
#680=CARTESIAN_POINT('',(-0.076,0.,0.01992));
#681=CARTESIAN_POINT('',(-0.076,0.0045,0.01992));
#682=CARTESIAN_POINT('',(-0.076,0.002341,0.01992));
#683=CARTESIAN_POINT('',(-0.076,0.002341,0.017761));
#684=CARTESIAN_POINT('',(-0.076,0.0045,0.017761));
#685=CARTESIAN_POINT('',(-0.076,0.0045,2.08166817117217E-17));
#686=CARTESIAN_POINT('',(-0.076,0.0045,-0.017761));
#687=CARTESIAN_POINT('',(-0.076,0.002341,-0.017761));
#688=CARTESIAN_POINT('',(0.,0.0045,0.01992));
#689=CARTESIAN_POINT('',(0.076,0.0045,0.01992));
#690=CARTESIAN_POINT('',(0.076,0.002341,0.01992));
#691=CARTESIAN_POINT('',(0.076,0.,0.01992));
#692=CARTESIAN_POINT('',(-0.076,0.002341,0.01992));
#693=CARTESIAN_POINT('',(0.,0.,0.01992));
#694=CARTESIAN_POINT('',(0.076,0.0045,-6.93889390390723E-18));
#695=CARTESIAN_POINT('',(0.076,0.002341,-6.93889390390723E-18));
#696=CARTESIAN_POINT('',(0.076,0.,-6.93889390390723E-18));
#697=CARTESIAN_POINT('',(0.076,0.,0.01767));
#698=CARTESIAN_POINT('',(0.076,-0.0025,0.01767));
#699=CARTESIAN_POINT('',(0.076,-0.0025,0.01767));
#700=CARTESIAN_POINT('',(0.076,-0.0025,-6.93889390390723E-18));
#701=CARTESIAN_POINT('',(0.076,-0.0025,0.01317));
#702=CARTESIAN_POINT('',(0.076,-0.0025,0.01317));
#703=CARTESIAN_POINT('',(0.076,0.,0.01317));
#704=CARTESIAN_POINT('',(0.076,0.,-6.93889390390723E-18));
#705=CARTESIAN_POINT('',(0.076,0.,-0.01317));
#706=CARTESIAN_POINT('',(0.076,-0.0025,-0.01317));
#707=CARTESIAN_POINT('',(0.076,-0.0025,-0.01317));
#708=CARTESIAN_POINT('',(0.076,-0.0025,-6.93889390390723E-18));
#709=CARTESIAN_POINT('',(0.076,-0.0025,-0.01767));
#710=CARTESIAN_POINT('',(0.076,-0.0025,-0.01767));
#711=CARTESIAN_POINT('',(0.076,0.,-0.01767));
#712=CARTESIAN_POINT('',(0.076,0.,-6.93889390390723E-18));
#713=CARTESIAN_POINT('',(0.,0.0045,3.46944695195361E-18));
#714=CARTESIAN_POINT('',(0.073841,0.0045,3.46944695195361E-18));
#715=CARTESIAN_POINT('',(0.073841,0.0045,0.017761));
#716=CARTESIAN_POINT('',(0.073841,0.0045,-0.017761));
#717=CARTESIAN_POINT('',(-3.243202490192E-18,0.0045,-0.017761));
#718=CARTESIAN_POINT('',(0.076,0.0045,0.017761));
#719=CARTESIAN_POINT('',(0.,0.,3.46944695195361E-18));
#720=CARTESIAN_POINT('',(-0.066,0.,2.08166817117217E-17));
#721=CARTESIAN_POINT('',(-0.066,0.,-0.01492));
#722=CARTESIAN_POINT('',(-0.066,0.,-0.00725));
#723=CARTESIAN_POINT('',(-0.066,0.,-0.01492));
#724=CARTESIAN_POINT('',(0.07475,0.,-0.01767));
#725=CARTESIAN_POINT('',(0.0735,0.,-0.01767));
#726=CARTESIAN_POINT('',(0.0735,0.,-0.01542));
#727=CARTESIAN_POINT('',(0.0735,0.,-0.01317));
#728=CARTESIAN_POINT('',(0.07475,0.,-0.01317));
#729=CARTESIAN_POINT('',(0.07475,0.,0.01317));
#730=CARTESIAN_POINT('',(0.0735,0.,0.01317));
#731=CARTESIAN_POINT('',(0.0735,0.,0.01542));
#732=CARTESIAN_POINT('',(0.0735,0.,0.01767));
#733=CARTESIAN_POINT('',(0.07475,0.,0.01767));
#734=CARTESIAN_POINT('',(-0.07475,0.,0.00225));
#735=CARTESIAN_POINT('',(-0.0735,0.,0.00225));
#736=CARTESIAN_POINT('',(-0.0735,0.,-2.16840434497101E-19));
#737=CARTESIAN_POINT('',(-0.0735,0.,-0.00225));
#738=CARTESIAN_POINT('',(-0.07475,0.,-0.00225));
#739=CARTESIAN_POINT('',(-0.066,0.,-0.00725));
#740=CARTESIAN_POINT('',(0.07475,-0.0025,-0.01317));
#741=CARTESIAN_POINT('',(0.0735,-0.0025,-0.01317));
#742=CARTESIAN_POINT('',(0.0735,-0.0025,-0.01317));
#743=CARTESIAN_POINT('',(0.07475,-0.0025,-0.01317));
#744=CARTESIAN_POINT('',(0.0735,-0.0025,-0.01542));
#745=CARTESIAN_POINT('',(0.0735,-0.0025,-0.01767));
#746=CARTESIAN_POINT('',(0.0735,-0.0025,-0.01767));
#747=CARTESIAN_POINT('',(0.0735,-0.0025,-0.01542));
#748=CARTESIAN_POINT('',(0.07475,-0.0025,-0.01767));
#749=CARTESIAN_POINT('',(0.07475,-0.0025,-0.01767));
#750=CARTESIAN_POINT('',(0.,-0.0025,3.46944695195361E-18));
#751=CARTESIAN_POINT('',(0.07475,-0.0025,0.01767));
#752=CARTESIAN_POINT('',(0.0735,-0.0025,0.01767));
#753=CARTESIAN_POINT('',(0.0735,-0.0025,0.01767));
#754=CARTESIAN_POINT('',(0.07475,-0.0025,0.01767));
#755=CARTESIAN_POINT('',(0.0735,-0.0025,0.01542));
#756=CARTESIAN_POINT('',(0.0735,-0.0025,0.01317));
#757=CARTESIAN_POINT('',(0.0735,-0.0025,0.01317));
#758=CARTESIAN_POINT('',(0.0735,-0.0025,0.01542));
#759=CARTESIAN_POINT('',(0.07475,-0.0025,0.01317));
#760=CARTESIAN_POINT('',(0.07475,-0.0025,0.01317));
#761=CARTESIAN_POINT('',(0.,-0.0025,3.46944695195361E-18));
#762=CARTESIAN_POINT('',(-0.07475,-0.0025,0.00225));
#763=CARTESIAN_POINT('',(-0.07475,-0.0025,0.00225));
#764=CARTESIAN_POINT('',(-0.0735,-0.0025,0.00225));
#765=CARTESIAN_POINT('',(-0.0735,-0.0025,0.00225));
#766=CARTESIAN_POINT('',(-0.07475,-0.0025,-0.00225));
#767=CARTESIAN_POINT('',(-0.0735,-0.0025,-0.00225));
#768=CARTESIAN_POINT('',(-0.0735,-0.0025,-0.00225));
#769=CARTESIAN_POINT('',(-0.07475,-0.0025,-0.00225));
#770=CARTESIAN_POINT('',(-0.0735,-0.0025,-2.16840434497101E-19));
#771=CARTESIAN_POINT('',(-0.0735,-0.0025,-2.16840434497101E-19));
#772=CARTESIAN_POINT('',(0.,-0.0025,3.46944695195361E-18));
#773=CARTESIAN_POINT('',(3.94238735224624E-19,0.002341,-0.017761));
#774=CARTESIAN_POINT('',(0.073841,0.002341,-0.017761));
#775=CARTESIAN_POINT('',(3.243202490192E-18,0.002341,0.017761));
#776=CARTESIAN_POINT('',(0.073841,0.002341,0.017761));
#777=CARTESIAN_POINT('',(0.073841,0.002341,-6.93889390390723E-18));
#778=CARTESIAN_POINT('',(-0.066,0.00125,-0.01492));
#779=CARTESIAN_POINT('',(-0.066,0.00125,-0.01492));
#780=CARTESIAN_POINT('',(-0.066,0.0025,-0.01492));
#781=CARTESIAN_POINT('',(-0.066,0.0025,-0.01492));
#782=CARTESIAN_POINT('',(-0.066,0.00125,-0.00725));
#783=CARTESIAN_POINT('',(-0.066,0.0025,-0.00725));
#784=CARTESIAN_POINT('',(-0.066,0.0025,-0.00725));
#785=CARTESIAN_POINT('',(-0.066,0.00125,-0.00725));
#786=CARTESIAN_POINT('',(-0.066,0.0025,-0.011085));
#787=CARTESIAN_POINT('',(-0.066,0.0025,-0.011085));
#788=CARTESIAN_POINT('',(-0.066,0.001,1.7347234759768E-17));
#789=MECHANICAL_DESIGN_GEOMETRIC_PRESENTATION_REPRESENTATION('',(#488),
#790);
#790=(
GEOMETRIC_REPRESENTATION_CONTEXT(3)
GLOBAL_UNCERTAINTY_ASSIGNED_CONTEXT((#791))
GLOBAL_UNIT_ASSIGNED_CONTEXT((#794,#793,#792))
REPRESENTATION_CONTEXT('Part 1','TOP_LEVEL_ASSEMBLY_PART')
);
#791=UNCERTAINTY_MEASURE_WITH_UNIT(LENGTH_MEASURE(1.E-8),#794,
'DISTANCE_ACCURACY_VALUE','Maximum Tolerance applied to model');
#792=(
NAMED_UNIT(*)
SI_UNIT($,.STERADIAN.)
SOLID_ANGLE_UNIT()
);
#793=(
NAMED_UNIT(*)
PLANE_ANGLE_UNIT()
SI_UNIT($,.RADIAN.)
);
#794=(
LENGTH_UNIT()
NAMED_UNIT(*)
SI_UNIT($,.METRE.)
);
#795=PRODUCT_DEFINITION_SHAPE('','',#796);
#796=PRODUCT_DEFINITION('','',#798,#797);
#797=PRODUCT_DEFINITION_CONTEXT('',#804,'design');
#798=PRODUCT_DEFINITION_FORMATION_WITH_SPECIFIED_SOURCE('','',#800,
 .NOT_KNOWN.);
#799=PRODUCT_RELATED_PRODUCT_CATEGORY('','',(#800));
#800=PRODUCT('Part 1','Part 1','Part 1',(#802));
#801=PRODUCT_CATEGORY('','');
#802=PRODUCT_CONTEXT('',#804,'mechanical');
#803=APPLICATION_PROTOCOL_DEFINITION('international standard',
'ap242_managed_model_based_3d_engineering',2020,#804);
#804=APPLICATION_CONTEXT('managed model based 3d engineering');
ENDSEC;
END-ISO-10303-21;
