ISO-10303-21;
HEADER;
/* Generated by software containing ST-Developer
 * from STEP Tools, Inc. (www.steptools.com) 
 */
/* OPTION: using custom renumber hook */

FILE_DESCRIPTION(
/* description */ ('STEP AP242 Edition 2',
'CAx-IF Rec.Pracs.---Representation and Presentation of Product Manufa
cturing Information (PMI)---4.0---2014-10-13',
'CAx-IF Rec.Pracs.---3D Tessellated Geometry---0.4---2014-09-14','2;1',
'CAx-IF Rec.Pracs.---User Defined Attributes---1.5---2016-08-15'),
/* implementation_level */ '2;1');

FILE_NAME(
/* name */ 'Flywheel Again',
/* time_stamp */ '2026-06-11T12:13:55Z',
/* author */ (''),
/* organization */ (''),
/* preprocessor_version */ 'ST-DEVELOPER v20',
/* originating_system */ 'ONSHAPE BY PTC INC, 1.216',
/* authorisation */ '  ');

FILE_SCHEMA (('AP242_MANAGED_MODEL_BASED_3D_ENGINEERING_MIM_LF { 1 0 10303 442 3 1 4 }'));
ENDSEC;

DATA;
#10=SHAPE_REPRESENTATION_RELATIONSHIP('','',#89,#11);
#11=ADVANCED_BREP_SHAPE_REPRESENTATION('',(#87),#149);
#12=CYLINDRICAL_SURFACE('',#99,0.001);
#13=TOROIDAL_SURFACE('',#94,0.019477,0.006477);
#14=TOROIDAL_SURFACE('',#100,0.0176139184385027,0.00254);
#15=TOROIDAL_SURFACE('',#102,0.0177851031637653,0.00127);
#16=ORIENTED_EDGE('',*,*,#28,.T.);
#17=ORIENTED_EDGE('',*,*,#29,.T.);
#18=ORIENTED_EDGE('',*,*,#30,.T.);
#19=ORIENTED_EDGE('',*,*,#31,.F.);
#20=ORIENTED_EDGE('',*,*,#32,.F.);
#21=ORIENTED_EDGE('',*,*,#31,.T.);
#22=ORIENTED_EDGE('',*,*,#32,.T.);
#23=ORIENTED_EDGE('',*,*,#29,.F.);
#24=ORIENTED_EDGE('',*,*,#33,.T.);
#25=ORIENTED_EDGE('',*,*,#30,.F.);
#26=ORIENTED_EDGE('',*,*,#28,.F.);
#27=ORIENTED_EDGE('',*,*,#33,.F.);
#28=EDGE_CURVE('',#34,#34,#40,.F.);
#29=EDGE_CURVE('',#35,#35,#41,.T.);
#30=EDGE_CURVE('',#36,#36,#42,.T.);
#31=EDGE_CURVE('',#37,#37,#43,.F.);
#32=EDGE_CURVE('',#38,#38,#44,.T.);
#33=EDGE_CURVE('',#39,#39,#45,.T.);
#34=VERTEX_POINT('',#132);
#35=VERTEX_POINT('',#134);
#36=VERTEX_POINT('',#137);
#37=VERTEX_POINT('',#139);
#38=VERTEX_POINT('',#142);
#39=VERTEX_POINT('',#146);
#40=CIRCLE('',#92,0.0177851031637653);
#41=CIRCLE('',#93,0.001);
#42=CIRCLE('',#95,0.0181387301459667);
#43=CIRCLE('',#96,0.0132344844813969);
#44=CIRCLE('',#98,0.001);
#45=CIRCLE('',#101,0.0185969386041164);
#46=EDGE_LOOP('',(#16));
#47=EDGE_LOOP('',(#17));
#48=EDGE_LOOP('',(#18));
#49=EDGE_LOOP('',(#19));
#50=EDGE_LOOP('',(#20));
#51=EDGE_LOOP('',(#21));
#52=EDGE_LOOP('',(#22));
#53=EDGE_LOOP('',(#23));
#54=EDGE_LOOP('',(#24));
#55=EDGE_LOOP('',(#25));
#56=EDGE_LOOP('',(#26));
#57=EDGE_LOOP('',(#27));
#58=FACE_BOUND('',#46,.T.);
#59=FACE_BOUND('',#47,.T.);
#60=FACE_BOUND('',#48,.T.);
#61=FACE_BOUND('',#49,.T.);
#62=FACE_BOUND('',#50,.T.);
#63=FACE_BOUND('',#51,.T.);
#64=FACE_BOUND('',#52,.T.);
#65=FACE_BOUND('',#53,.T.);
#66=FACE_BOUND('',#54,.T.);
#67=FACE_BOUND('',#55,.T.);
#68=FACE_BOUND('',#56,.T.);
#69=FACE_BOUND('',#57,.T.);
#70=PLANE('',#91);
#71=PLANE('',#97);
#72=ADVANCED_FACE('',(#58,#59),#70,.F.);
#73=ADVANCED_FACE('',(#60,#61),#13,.F.);
#74=ADVANCED_FACE('',(#62,#63),#71,.T.);
#75=ADVANCED_FACE('',(#64,#65),#12,.F.);
#76=ADVANCED_FACE('',(#66,#67),#14,.T.);
#77=ADVANCED_FACE('',(#68,#69),#15,.T.);
#78=CLOSED_SHELL('',(#72,#73,#74,#75,#76,#77));
#79=STYLED_ITEM('',(#80),#87);
#80=PRESENTATION_STYLE_ASSIGNMENT((#81));
#81=SURFACE_STYLE_USAGE(.BOTH.,#82);
#82=SURFACE_SIDE_STYLE('',(#83));
#83=SURFACE_STYLE_FILL_AREA(#84);
#84=FILL_AREA_STYLE('',(#85));
#85=FILL_AREA_STYLE_COLOUR('',#86);
#86=COLOUR_RGB('',0.262745098039216,0.282352941176471,0.301960784313725);
#87=MANIFOLD_SOLID_BREP('Part 1',#78);
#88=SHAPE_DEFINITION_REPRESENTATION(#154,#89);
#89=SHAPE_REPRESENTATION('Part 1',(#90),#149);
#90=AXIS2_PLACEMENT_3D('',#129,#103,#104);
#91=AXIS2_PLACEMENT_3D('',#130,#105,#106);
#92=AXIS2_PLACEMENT_3D('',#131,#107,#108);
#93=AXIS2_PLACEMENT_3D('',#133,#109,#110);
#94=AXIS2_PLACEMENT_3D('',#135,#111,#112);
#95=AXIS2_PLACEMENT_3D('',#136,#113,#114);
#96=AXIS2_PLACEMENT_3D('',#138,#115,#116);
#97=AXIS2_PLACEMENT_3D('',#140,#117,#118);
#98=AXIS2_PLACEMENT_3D('',#141,#119,#120);
#99=AXIS2_PLACEMENT_3D('',#143,#121,#122);
#100=AXIS2_PLACEMENT_3D('',#144,#123,#124);
#101=AXIS2_PLACEMENT_3D('',#145,#125,#126);
#102=AXIS2_PLACEMENT_3D('',#147,#127,#128);
#103=DIRECTION('',(0.,0.,1.));
#104=DIRECTION('',(1.,0.,0.));
#105=DIRECTION('',(0.,1.,0.));
#106=DIRECTION('',(1.,0.,0.));
#107=DIRECTION('',(0.,1.,0.));
#108=DIRECTION('',(1.,0.,0.));
#109=DIRECTION('',(0.,1.,0.));
#110=DIRECTION('',(1.,0.,0.));
#111=DIRECTION('',(0.,-1.,0.));
#112=DIRECTION('',(-1.,0.,0.));
#113=DIRECTION('',(0.,1.,0.));
#114=DIRECTION('',(1.,0.,0.));
#115=DIRECTION('',(0.,-1.,0.));
#116=DIRECTION('',(-1.,0.,0.));
#117=DIRECTION('',(0.,1.,0.));
#118=DIRECTION('',(1.,0.,0.));
#119=DIRECTION('',(0.,1.,0.));
#120=DIRECTION('',(1.,0.,0.));
#121=DIRECTION('',(0.,1.,0.));
#122=DIRECTION('',(1.,0.,0.));
#123=DIRECTION('',(0.,-1.,0.));
#124=DIRECTION('',(-1.,0.,0.));
#125=DIRECTION('',(0.,1.,0.));
#126=DIRECTION('',(1.,0.,0.));
#127=DIRECTION('',(0.,1.,0.));
#128=DIRECTION('',(1.,0.,0.));
#129=CARTESIAN_POINT('',(0.,0.,0.));
#130=CARTESIAN_POINT('',(0.,0.,0.));
#131=CARTESIAN_POINT('',(0.,0.,-1.25526296912604E-18));
#132=CARTESIAN_POINT('',(0.0177851031637653,0.,-1.25526296912604E-18));
#133=CARTESIAN_POINT('',(0.,0.,-1.19403062916867E-18));
#134=CARTESIAN_POINT('',(0.001,0.,-1.19403062916867E-18));
#135=CARTESIAN_POINT('',(0.,0.008727,-1.25526296912604E-18));
#136=CARTESIAN_POINT('',(0.,0.00238976378870196,-1.25526296912604E-18));
#137=CARTESIAN_POINT('',(0.0181387301459667,0.00238976378870196,-1.25526296912604E-18));
#138=CARTESIAN_POINT('',(0.,0.007,-1.25526296912604E-18));
#139=CARTESIAN_POINT('',(-0.0132344844813969,0.007,-1.25526296912604E-18));
#140=CARTESIAN_POINT('',(0.,0.007,0.));
#141=CARTESIAN_POINT('',(0.,0.007,-1.19403062916867E-18));
#142=CARTESIAN_POINT('',(0.001,0.007,-1.19403062916867E-18));
#143=CARTESIAN_POINT('',(0.,-0.0184,-1.19403062916867E-18));
#144=CARTESIAN_POINT('',(0.,-9.54268823951535E-5,-1.25526296912604E-18));
#145=CARTESIAN_POINT('',(0.,0.00224663873453295,-1.25526296912604E-18));
#146=CARTESIAN_POINT('',(0.0185969386041164,0.00224663873453295,-1.25526296912604E-18));
#147=CARTESIAN_POINT('',(0.,0.00127,-1.25526296912604E-18));
#148=MECHANICAL_DESIGN_GEOMETRIC_PRESENTATION_REPRESENTATION('',(#79),#149);
#149=(
GEOMETRIC_REPRESENTATION_CONTEXT(3)
GLOBAL_UNCERTAINTY_ASSIGNED_CONTEXT((#150))
GLOBAL_UNIT_ASSIGNED_CONTEXT((#153,#152,#151))
REPRESENTATION_CONTEXT('Part 1','TOP_LEVEL_ASSEMBLY_PART')
);
#150=UNCERTAINTY_MEASURE_WITH_UNIT(LENGTH_MEASURE(1.E-8),#153,
'DISTANCE_ACCURACY_VALUE','Maximum Tolerance applied to model');
#151=(
NAMED_UNIT(*)
SI_UNIT($,.STERADIAN.)
SOLID_ANGLE_UNIT()
);
#152=(
NAMED_UNIT(*)
PLANE_ANGLE_UNIT()
SI_UNIT($,.RADIAN.)
);
#153=(
LENGTH_UNIT()
NAMED_UNIT(*)
SI_UNIT($,.METRE.)
);
#154=PRODUCT_DEFINITION_SHAPE('','',#155);
#155=PRODUCT_DEFINITION('','',#157,#156);
#156=PRODUCT_DEFINITION_CONTEXT('',#163,'design');
#157=PRODUCT_DEFINITION_FORMATION_WITH_SPECIFIED_SOURCE('','',#159,
 .NOT_KNOWN.);
#158=PRODUCT_RELATED_PRODUCT_CATEGORY('','',(#159));
#159=PRODUCT('Part 1','Part 1','Part 1',(#161));
#160=PRODUCT_CATEGORY('','');
#161=PRODUCT_CONTEXT('',#163,'mechanical');
#162=APPLICATION_PROTOCOL_DEFINITION('international standard',
'ap242_managed_model_based_3d_engineering',2020,#163);
#163=APPLICATION_CONTEXT('managed model based 3d engineering');
ENDSEC;
END-ISO-10303-21;
