ISO-10303-21;
HEADER;
/* Generated by software containing ST-Developer
 * from STEP Tools, Inc. (www.steptools.com) 
 */
/* OPTION: using custom renumber hook */

FILE_DESCRIPTION(
/* description */ ('STEP AP242 Edition 2',
'CAx-IF Rec.Pracs.---Representation and Presentation of Product Manufa
cturing Information (PMI)---4.0---2014-10-13',
'CAx-IF Rec.Pracs.---3D Tessellated Geometry---0.4---2014-09-14','2;1',
'CAx-IF Rec.Pracs.---User Defined Attributes---1.5---2016-08-15'),
/* implementation_level */ '2;1');

FILE_NAME(
/* name */ 'Handle V3 back',
/* time_stamp */ '2026-06-24T13:26:12Z',
/* author */ (''),
/* organization */ (''),
/* preprocessor_version */ 'ST-DEVELOPER v20',
/* originating_system */ 'ONSHAPE BY PTC INC, 1.216',
/* authorisation */ '  ');

FILE_SCHEMA (('AP242_MANAGED_MODEL_BASED_3D_ENGINEERING_MIM_LF { 1 0 10303 442 3 1 4 }'));
ENDSEC;

DATA;
#10=SHAPE_REPRESENTATION_RELATIONSHIP('','',#1033,#11);
#11=ADVANCED_BREP_SHAPE_REPRESENTATION('',(#1031),#1715);
#12=SPHERICAL_SURFACE('',#1085,0.00508);
#13=SPHERICAL_SURFACE('',#1087,0.00508);
#14=SPHERICAL_SURFACE('',#1096,0.00508);
#15=SPHERICAL_SURFACE('',#1098,0.00508);
#16=SPHERICAL_SURFACE('',#1108,0.00508);
#17=SPHERICAL_SURFACE('',#1110,0.00508);
#18=ELLIPSE('',#1060,0.00533873811929868,0.00508);
#19=ELLIPSE('',#1062,0.00533873811929868,0.00508);
#20=CYLINDRICAL_SURFACE('',#1059,0.00508);
#21=CYLINDRICAL_SURFACE('',#1061,0.00508);
#22=CYLINDRICAL_SURFACE('',#1063,0.00508);
#23=CYLINDRICAL_SURFACE('',#1065,0.00508);
#24=CYLINDRICAL_SURFACE('',#1072,0.003075);
#25=CYLINDRICAL_SURFACE('',#1075,0.003075);
#26=CYLINDRICAL_SURFACE('',#1076,0.003075);
#27=CYLINDRICAL_SURFACE('',#1079,0.003075);
#28=CYLINDRICAL_SURFACE('',#1082,0.00508);
#29=CYLINDRICAL_SURFACE('',#1089,0.00508);
#30=CYLINDRICAL_SURFACE('',#1091,0.00508);
#31=CYLINDRICAL_SURFACE('',#1093,0.00508);
#32=CYLINDRICAL_SURFACE('',#1100,0.00508);
#33=CYLINDRICAL_SURFACE('',#1102,0.00508);
#34=CYLINDRICAL_SURFACE('',#1104,0.00508);
#35=CYLINDRICAL_SURFACE('',#1106,0.00508);
#36=CYLINDRICAL_SURFACE('',#1112,0.00508);
#37=CYLINDRICAL_SURFACE('',#1117,0.0177);
#38=LINE('',#1430,#142);
#39=LINE('',#1433,#143);
#40=LINE('',#1435,#144);
#41=LINE('',#1437,#145);
#42=LINE('',#1441,#146);
#43=LINE('',#1443,#147);
#44=LINE('',#1445,#148);
#45=LINE('',#1449,#149);
#46=LINE('',#1451,#150);
#47=LINE('',#1453,#151);
#48=LINE('',#1455,#152);
#49=LINE('',#1458,#153);
#50=LINE('',#1460,#154);
#51=LINE('',#1462,#155);
#52=LINE('',#1464,#156);
#53=LINE('',#1466,#157);
#54=LINE('',#1468,#158);
#55=LINE('',#1470,#159);
#56=LINE('',#1472,#160);
#57=LINE('',#1474,#161);
#58=LINE('',#1476,#162);
#59=LINE('',#1478,#163);
#60=LINE('',#1480,#164);
#61=LINE('',#1482,#165);
#62=LINE('',#1484,#166);
#63=LINE('',#1492,#167);
#64=LINE('',#1497,#168);
#65=LINE('',#1501,#169);
#66=LINE('',#1505,#170);
#67=LINE('',#1513,#171);
#68=LINE('',#1515,#172);
#69=LINE('',#1516,#173);
#70=LINE('',#1518,#174);
#71=LINE('',#1520,#175);
#72=LINE('',#1522,#176);
#73=LINE('',#1524,#177);
#74=LINE('',#1526,#178);
#75=LINE('',#1527,#179);
#76=LINE('',#1529,#180);
#77=LINE('',#1531,#181);
#78=LINE('',#1534,#182);
#79=LINE('',#1536,#183);
#80=LINE('',#1538,#184);
#81=LINE('',#1540,#185);
#82=LINE('',#1541,#186);
#83=LINE('',#1543,#187);
#84=LINE('',#1545,#188);
#85=LINE('',#1547,#189);
#86=LINE('',#1548,#190);
#87=LINE('',#1549,#191);
#88=LINE('',#1551,#192);
#89=LINE('',#1554,#193);
#90=LINE('',#1556,#194);
#91=LINE('',#1558,#195);
#92=LINE('',#1560,#196);
#93=LINE('',#1563,#197);
#94=LINE('',#1565,#198);
#95=LINE('',#1567,#199);
#96=LINE('',#1569,#200);
#97=LINE('',#1572,#201);
#98=LINE('',#1573,#202);
#99=LINE('',#1575,#203);
#100=LINE('',#1577,#204);
#101=LINE('',#1579,#205);
#102=LINE('',#1581,#206);
#103=LINE('',#1583,#207);
#104=LINE('',#1585,#208);
#105=LINE('',#1587,#209);
#106=LINE('',#1596,#210);
#107=LINE('',#1598,#211);
#108=LINE('',#1601,#212);
#109=LINE('',#1602,#213);
#110=LINE('',#1604,#214);
#111=LINE('',#1606,#215);
#112=LINE('',#1607,#216);
#113=LINE('',#1609,#217);
#114=LINE('',#1610,#218);
#115=LINE('',#1612,#219);
#116=LINE('',#1615,#220);
#117=LINE('',#1616,#221);
#118=LINE('',#1618,#222);
#119=LINE('',#1620,#223);
#120=LINE('',#1622,#224);
#121=LINE('',#1624,#225);
#122=LINE('',#1625,#226);
#123=LINE('',#1627,#227);
#124=LINE('',#1674,#228);
#125=LINE('',#1676,#229);
#126=LINE('',#1677,#230);
#127=LINE('',#1682,#231);
#128=LINE('',#1684,#232);
#129=LINE('',#1686,#233);
#130=LINE('',#1688,#234);
#131=LINE('',#1690,#235);
#132=LINE('',#1693,#236);
#133=LINE('',#1695,#237);
#134=LINE('',#1697,#238);
#135=LINE('',#1699,#239);
#136=LINE('',#1701,#240);
#137=LINE('',#1704,#241);
#138=LINE('',#1706,#242);
#139=LINE('',#1708,#243);
#140=LINE('',#1710,#244);
#141=LINE('',#1712,#245);
#142=VECTOR('',#1136,1.);
#143=VECTOR('',#1137,1.);
#144=VECTOR('',#1138,1.);
#145=VECTOR('',#1139,1.);
#146=VECTOR('',#1142,1.);
#147=VECTOR('',#1143,1.);
#148=VECTOR('',#1144,1.);
#149=VECTOR('',#1147,1.);
#150=VECTOR('',#1148,1.);
#151=VECTOR('',#1149,1.);
#152=VECTOR('',#1152,1.);
#153=VECTOR('',#1153,1.);
#154=VECTOR('',#1154,1.);
#155=VECTOR('',#1155,1.);
#156=VECTOR('',#1156,1.);
#157=VECTOR('',#1157,1.);
#158=VECTOR('',#1158,1.);
#159=VECTOR('',#1159,1.);
#160=VECTOR('',#1160,1.);
#161=VECTOR('',#1161,1.);
#162=VECTOR('',#1162,1.);
#163=VECTOR('',#1163,1.);
#164=VECTOR('',#1166,1.);
#165=VECTOR('',#1167,1.);
#166=VECTOR('',#1168,1.);
#167=VECTOR('',#1177,1.);
#168=VECTOR('',#1180,1.);
#169=VECTOR('',#1183,1.);
#170=VECTOR('',#1186,1.);
#171=VECTOR('',#1195,1.);
#172=VECTOR('',#1196,1.);
#173=VECTOR('',#1197,1.);
#174=VECTOR('',#1198,1.);
#175=VECTOR('',#1199,1.);
#176=VECTOR('',#1200,1.);
#177=VECTOR('',#1201,1.);
#178=VECTOR('',#1202,1.);
#179=VECTOR('',#1203,1.);
#180=VECTOR('',#1204,1.);
#181=VECTOR('',#1207,1.);
#182=VECTOR('',#1208,1.);
#183=VECTOR('',#1209,1.);
#184=VECTOR('',#1210,1.);
#185=VECTOR('',#1213,1.);
#186=VECTOR('',#1214,1.);
#187=VECTOR('',#1217,1.);
#188=VECTOR('',#1218,1.);
#189=VECTOR('',#1219,1.);
#190=VECTOR('',#1220,1.);
#191=VECTOR('',#1221,1.);
#192=VECTOR('',#1224,1.);
#193=VECTOR('',#1225,1.);
#194=VECTOR('',#1226,1.);
#195=VECTOR('',#1227,1.);
#196=VECTOR('',#1230,1.);
#197=VECTOR('',#1231,1.);
#198=VECTOR('',#1232,1.);
#199=VECTOR('',#1233,1.);
#200=VECTOR('',#1236,1.);
#201=VECTOR('',#1237,1.);
#202=VECTOR('',#1238,1.);
#203=VECTOR('',#1239,1.);
#204=VECTOR('',#1240,1.);
#205=VECTOR('',#1243,1.);
#206=VECTOR('',#1244,1.);
#207=VECTOR('',#1245,1.);
#208=VECTOR('',#1246,1.);
#209=VECTOR('',#1247,1.);
#210=VECTOR('',#1264,1.);
#211=VECTOR('',#1267,1.);
#212=VECTOR('',#1268,1.);
#213=VECTOR('',#1269,1.);
#214=VECTOR('',#1270,1.);
#215=VECTOR('',#1271,1.);
#216=VECTOR('',#1272,1.);
#217=VECTOR('',#1273,1.);
#218=VECTOR('',#1274,1.);
#219=VECTOR('',#1277,1.);
#220=VECTOR('',#1278,1.);
#221=VECTOR('',#1279,1.);
#222=VECTOR('',#1280,1.);
#223=VECTOR('',#1281,1.);
#224=VECTOR('',#1282,1.);
#225=VECTOR('',#1283,1.);
#226=VECTOR('',#1284,1.);
#227=VECTOR('',#1287,1.);
#228=VECTOR('',#1376,1.);
#229=VECTOR('',#1379,1.);
#230=VECTOR('',#1380,1.);
#231=VECTOR('',#1389,1.);
#232=VECTOR('',#1390,1.);
#233=VECTOR('',#1393,1.);
#234=VECTOR('',#1394,1.);
#235=VECTOR('',#1397,1.);
#236=VECTOR('',#1402,1.);
#237=VECTOR('',#1403,1.);
#238=VECTOR('',#1406,1.);
#239=VECTOR('',#1407,1.);
#240=VECTOR('',#1410,1.);
#241=VECTOR('',#1415,1.);
#242=VECTOR('',#1416,1.);
#243=VECTOR('',#1419,1.);
#244=VECTOR('',#1420,1.);
#245=VECTOR('',#1423,1.);
#246=ORIENTED_EDGE('',*,*,#526,.F.);
#247=ORIENTED_EDGE('',*,*,#527,.F.);
#248=ORIENTED_EDGE('',*,*,#528,.T.);
#249=ORIENTED_EDGE('',*,*,#529,.F.);
#250=ORIENTED_EDGE('',*,*,#530,.F.);
#251=ORIENTED_EDGE('',*,*,#531,.T.);
#252=ORIENTED_EDGE('',*,*,#532,.F.);
#253=ORIENTED_EDGE('',*,*,#533,.T.);
#254=ORIENTED_EDGE('',*,*,#534,.T.);
#255=ORIENTED_EDGE('',*,*,#535,.F.);
#256=ORIENTED_EDGE('',*,*,#536,.T.);
#257=ORIENTED_EDGE('',*,*,#537,.F.);
#258=ORIENTED_EDGE('',*,*,#538,.F.);
#259=ORIENTED_EDGE('',*,*,#539,.F.);
#260=ORIENTED_EDGE('',*,*,#540,.F.);
#261=ORIENTED_EDGE('',*,*,#541,.T.);
#262=ORIENTED_EDGE('',*,*,#542,.T.);
#263=ORIENTED_EDGE('',*,*,#543,.T.);
#264=ORIENTED_EDGE('',*,*,#544,.F.);
#265=ORIENTED_EDGE('',*,*,#545,.T.);
#266=ORIENTED_EDGE('',*,*,#546,.T.);
#267=ORIENTED_EDGE('',*,*,#547,.F.);
#268=ORIENTED_EDGE('',*,*,#548,.F.);
#269=ORIENTED_EDGE('',*,*,#549,.T.);
#270=ORIENTED_EDGE('',*,*,#550,.F.);
#271=ORIENTED_EDGE('',*,*,#551,.T.);
#272=ORIENTED_EDGE('',*,*,#552,.T.);
#273=ORIENTED_EDGE('',*,*,#553,.T.);
#274=ORIENTED_EDGE('',*,*,#533,.F.);
#275=ORIENTED_EDGE('',*,*,#554,.F.);
#276=ORIENTED_EDGE('',*,*,#555,.F.);
#277=ORIENTED_EDGE('',*,*,#556,.F.);
#278=ORIENTED_EDGE('',*,*,#557,.F.);
#279=ORIENTED_EDGE('',*,*,#558,.T.);
#280=ORIENTED_EDGE('',*,*,#559,.T.);
#281=ORIENTED_EDGE('',*,*,#560,.T.);
#282=ORIENTED_EDGE('',*,*,#561,.T.);
#283=ORIENTED_EDGE('',*,*,#562,.T.);
#284=ORIENTED_EDGE('',*,*,#563,.F.);
#285=ORIENTED_EDGE('',*,*,#564,.T.);
#286=ORIENTED_EDGE('',*,*,#565,.T.);
#287=ORIENTED_EDGE('',*,*,#566,.T.);
#288=ORIENTED_EDGE('',*,*,#567,.F.);
#289=ORIENTED_EDGE('',*,*,#530,.T.);
#290=ORIENTED_EDGE('',*,*,#568,.T.);
#291=ORIENTED_EDGE('',*,*,#569,.F.);
#292=ORIENTED_EDGE('',*,*,#570,.F.);
#293=ORIENTED_EDGE('',*,*,#571,.F.);
#294=ORIENTED_EDGE('',*,*,#572,.F.);
#295=ORIENTED_EDGE('',*,*,#573,.T.);
#296=ORIENTED_EDGE('',*,*,#574,.T.);
#297=ORIENTED_EDGE('',*,*,#551,.F.);
#298=ORIENTED_EDGE('',*,*,#532,.T.);
#299=ORIENTED_EDGE('',*,*,#575,.F.);
#300=ORIENTED_EDGE('',*,*,#576,.F.);
#301=ORIENTED_EDGE('',*,*,#577,.F.);
#302=ORIENTED_EDGE('',*,*,#578,.T.);
#303=ORIENTED_EDGE('',*,*,#579,.T.);
#304=ORIENTED_EDGE('',*,*,#580,.T.);
#305=ORIENTED_EDGE('',*,*,#559,.F.);
#306=ORIENTED_EDGE('',*,*,#581,.T.);
#307=ORIENTED_EDGE('',*,*,#577,.T.);
#308=ORIENTED_EDGE('',*,*,#582,.T.);
#309=ORIENTED_EDGE('',*,*,#529,.T.);
#310=ORIENTED_EDGE('',*,*,#583,.T.);
#311=ORIENTED_EDGE('',*,*,#584,.T.);
#312=ORIENTED_EDGE('',*,*,#585,.F.);
#313=ORIENTED_EDGE('',*,*,#537,.T.);
#314=ORIENTED_EDGE('',*,*,#586,.T.);
#315=ORIENTED_EDGE('',*,*,#563,.T.);
#316=ORIENTED_EDGE('',*,*,#587,.T.);
#317=ORIENTED_EDGE('',*,*,#588,.T.);
#318=ORIENTED_EDGE('',*,*,#589,.T.);
#319=ORIENTED_EDGE('',*,*,#590,.T.);
#320=ORIENTED_EDGE('',*,*,#591,.T.);
#321=ORIENTED_EDGE('',*,*,#592,.T.);
#322=ORIENTED_EDGE('',*,*,#593,.T.);
#323=ORIENTED_EDGE('',*,*,#594,.T.);
#324=ORIENTED_EDGE('',*,*,#595,.T.);
#325=ORIENTED_EDGE('',*,*,#596,.T.);
#326=ORIENTED_EDGE('',*,*,#597,.T.);
#327=ORIENTED_EDGE('',*,*,#557,.T.);
#328=ORIENTED_EDGE('',*,*,#598,.T.);
#329=ORIENTED_EDGE('',*,*,#599,.T.);
#330=ORIENTED_EDGE('',*,*,#600,.T.);
#331=ORIENTED_EDGE('',*,*,#601,.T.);
#332=ORIENTED_EDGE('',*,*,#602,.T.);
#333=ORIENTED_EDGE('',*,*,#603,.T.);
#334=ORIENTED_EDGE('',*,*,#604,.T.);
#335=ORIENTED_EDGE('',*,*,#605,.T.);
#336=ORIENTED_EDGE('',*,*,#561,.F.);
#337=ORIENTED_EDGE('',*,*,#597,.F.);
#338=ORIENTED_EDGE('',*,*,#606,.T.);
#339=ORIENTED_EDGE('',*,*,#581,.F.);
#340=ORIENTED_EDGE('',*,*,#558,.F.);
#341=ORIENTED_EDGE('',*,*,#582,.F.);
#342=ORIENTED_EDGE('',*,*,#607,.T.);
#343=ORIENTED_EDGE('',*,*,#601,.F.);
#344=ORIENTED_EDGE('',*,*,#560,.F.);
#345=ORIENTED_EDGE('',*,*,#605,.F.);
#346=ORIENTED_EDGE('',*,*,#608,.T.);
#347=ORIENTED_EDGE('',*,*,#541,.F.);
#348=ORIENTED_EDGE('',*,*,#568,.F.);
#349=ORIENTED_EDGE('',*,*,#587,.F.);
#350=ORIENTED_EDGE('',*,*,#562,.F.);
#351=ORIENTED_EDGE('',*,*,#543,.F.);
#352=ORIENTED_EDGE('',*,*,#609,.T.);
#353=ORIENTED_EDGE('',*,*,#598,.F.);
#354=ORIENTED_EDGE('',*,*,#564,.F.);
#355=ORIENTED_EDGE('',*,*,#586,.F.);
#356=ORIENTED_EDGE('',*,*,#610,.F.);
#357=ORIENTED_EDGE('',*,*,#611,.T.);
#358=ORIENTED_EDGE('',*,*,#612,.T.);
#359=ORIENTED_EDGE('',*,*,#548,.T.);
#360=ORIENTED_EDGE('',*,*,#613,.F.);
#361=ORIENTED_EDGE('',*,*,#614,.T.);
#362=ORIENTED_EDGE('',*,*,#615,.T.);
#363=ORIENTED_EDGE('',*,*,#544,.T.);
#364=ORIENTED_EDGE('',*,*,#616,.F.);
#365=ORIENTED_EDGE('',*,*,#617,.F.);
#366=ORIENTED_EDGE('',*,*,#569,.T.);
#367=ORIENTED_EDGE('',*,*,#540,.T.);
#368=ORIENTED_EDGE('',*,*,#618,.F.);
#369=ORIENTED_EDGE('',*,*,#619,.F.);
#370=ORIENTED_EDGE('',*,*,#620,.T.);
#371=ORIENTED_EDGE('',*,*,#534,.F.);
#372=ORIENTED_EDGE('',*,*,#553,.F.);
#373=ORIENTED_EDGE('',*,*,#621,.T.);
#374=ORIENTED_EDGE('',*,*,#622,.F.);
#375=ORIENTED_EDGE('',*,*,#623,.F.);
#376=ORIENTED_EDGE('',*,*,#624,.T.);
#377=ORIENTED_EDGE('',*,*,#625,.F.);
#378=ORIENTED_EDGE('',*,*,#616,.T.);
#379=ORIENTED_EDGE('',*,*,#610,.T.);
#380=ORIENTED_EDGE('',*,*,#536,.F.);
#381=ORIENTED_EDGE('',*,*,#626,.T.);
#382=ORIENTED_EDGE('',*,*,#627,.F.);
#383=ORIENTED_EDGE('',*,*,#570,.T.);
#384=ORIENTED_EDGE('',*,*,#617,.T.);
#385=ORIENTED_EDGE('',*,*,#625,.T.);
#386=ORIENTED_EDGE('',*,*,#619,.T.);
#387=ORIENTED_EDGE('',*,*,#628,.T.);
#388=ORIENTED_EDGE('',*,*,#555,.T.);
#389=ORIENTED_EDGE('',*,*,#628,.F.);
#390=ORIENTED_EDGE('',*,*,#626,.F.);
#391=ORIENTED_EDGE('',*,*,#535,.T.);
#392=ORIENTED_EDGE('',*,*,#620,.F.);
#393=ORIENTED_EDGE('',*,*,#576,.T.);
#394=ORIENTED_EDGE('',*,*,#629,.F.);
#395=ORIENTED_EDGE('',*,*,#565,.F.);
#396=ORIENTED_EDGE('',*,*,#567,.T.);
#397=ORIENTED_EDGE('',*,*,#629,.T.);
#398=ORIENTED_EDGE('',*,*,#575,.T.);
#399=ORIENTED_EDGE('',*,*,#531,.F.);
#400=ORIENTED_EDGE('',*,*,#630,.F.);
#401=ORIENTED_EDGE('',*,*,#556,.T.);
#402=ORIENTED_EDGE('',*,*,#630,.T.);
#403=ORIENTED_EDGE('',*,*,#631,.T.);
#404=ORIENTED_EDGE('',*,*,#566,.F.);
#405=ORIENTED_EDGE('',*,*,#631,.F.);
#406=ORIENTED_EDGE('',*,*,#632,.F.);
#407=ORIENTED_EDGE('',*,*,#542,.F.);
#408=ORIENTED_EDGE('',*,*,#633,.F.);
#409=ORIENTED_EDGE('',*,*,#588,.F.);
#410=ORIENTED_EDGE('',*,*,#609,.F.);
#411=ORIENTED_EDGE('',*,*,#632,.T.);
#412=ORIENTED_EDGE('',*,*,#634,.F.);
#413=ORIENTED_EDGE('',*,*,#633,.T.);
#414=ORIENTED_EDGE('',*,*,#608,.F.);
#415=ORIENTED_EDGE('',*,*,#635,.F.);
#416=ORIENTED_EDGE('',*,*,#634,.T.);
#417=ORIENTED_EDGE('',*,*,#591,.F.);
#418=ORIENTED_EDGE('',*,*,#636,.F.);
#419=ORIENTED_EDGE('',*,*,#599,.F.);
#420=ORIENTED_EDGE('',*,*,#635,.T.);
#421=ORIENTED_EDGE('',*,*,#604,.F.);
#422=ORIENTED_EDGE('',*,*,#637,.F.);
#423=ORIENTED_EDGE('',*,*,#589,.F.);
#424=ORIENTED_EDGE('',*,*,#638,.F.);
#425=ORIENTED_EDGE('',*,*,#590,.F.);
#426=ORIENTED_EDGE('',*,*,#639,.F.);
#427=ORIENTED_EDGE('',*,*,#595,.F.);
#428=ORIENTED_EDGE('',*,*,#636,.T.);
#429=ORIENTED_EDGE('',*,*,#638,.T.);
#430=ORIENTED_EDGE('',*,*,#640,.F.);
#431=ORIENTED_EDGE('',*,*,#639,.T.);
#432=ORIENTED_EDGE('',*,*,#637,.T.);
#433=ORIENTED_EDGE('',*,*,#641,.F.);
#434=ORIENTED_EDGE('',*,*,#640,.T.);
#435=ORIENTED_EDGE('',*,*,#594,.F.);
#436=ORIENTED_EDGE('',*,*,#642,.F.);
#437=ORIENTED_EDGE('',*,*,#600,.F.);
#438=ORIENTED_EDGE('',*,*,#606,.F.);
#439=ORIENTED_EDGE('',*,*,#596,.F.);
#440=ORIENTED_EDGE('',*,*,#643,.F.);
#441=ORIENTED_EDGE('',*,*,#578,.F.);
#442=ORIENTED_EDGE('',*,*,#607,.F.);
#443=ORIENTED_EDGE('',*,*,#580,.F.);
#444=ORIENTED_EDGE('',*,*,#644,.F.);
#445=ORIENTED_EDGE('',*,*,#602,.F.);
#446=ORIENTED_EDGE('',*,*,#641,.T.);
#447=ORIENTED_EDGE('',*,*,#603,.F.);
#448=ORIENTED_EDGE('',*,*,#645,.F.);
#449=ORIENTED_EDGE('',*,*,#592,.F.);
#450=ORIENTED_EDGE('',*,*,#643,.T.);
#451=ORIENTED_EDGE('',*,*,#642,.T.);
#452=ORIENTED_EDGE('',*,*,#646,.F.);
#453=ORIENTED_EDGE('',*,*,#645,.T.);
#454=ORIENTED_EDGE('',*,*,#644,.T.);
#455=ORIENTED_EDGE('',*,*,#647,.F.);
#456=ORIENTED_EDGE('',*,*,#646,.T.);
#457=ORIENTED_EDGE('',*,*,#593,.F.);
#458=ORIENTED_EDGE('',*,*,#647,.T.);
#459=ORIENTED_EDGE('',*,*,#579,.F.);
#460=ORIENTED_EDGE('',*,*,#627,.T.);
#461=ORIENTED_EDGE('',*,*,#624,.F.);
#462=ORIENTED_EDGE('',*,*,#648,.F.);
#463=ORIENTED_EDGE('',*,*,#571,.T.);
#464=ORIENTED_EDGE('',*,*,#622,.T.);
#465=ORIENTED_EDGE('',*,*,#649,.T.);
#466=ORIENTED_EDGE('',*,*,#573,.F.);
#467=ORIENTED_EDGE('',*,*,#650,.T.);
#468=ORIENTED_EDGE('',*,*,#572,.T.);
#469=ORIENTED_EDGE('',*,*,#648,.T.);
#470=ORIENTED_EDGE('',*,*,#623,.T.);
#471=ORIENTED_EDGE('',*,*,#650,.F.);
#472=ORIENTED_EDGE('',*,*,#574,.F.);
#473=ORIENTED_EDGE('',*,*,#649,.F.);
#474=ORIENTED_EDGE('',*,*,#621,.F.);
#475=ORIENTED_EDGE('',*,*,#552,.F.);
#476=ORIENTED_EDGE('',*,*,#526,.T.);
#477=ORIENTED_EDGE('',*,*,#554,.T.);
#478=ORIENTED_EDGE('',*,*,#545,.F.);
#479=ORIENTED_EDGE('',*,*,#615,.F.);
#480=ORIENTED_EDGE('',*,*,#651,.T.);
#481=ORIENTED_EDGE('',*,*,#652,.T.);
#482=ORIENTED_EDGE('',*,*,#547,.T.);
#483=ORIENTED_EDGE('',*,*,#653,.F.);
#484=ORIENTED_EDGE('',*,*,#654,.F.);
#485=ORIENTED_EDGE('',*,*,#613,.T.);
#486=ORIENTED_EDGE('',*,*,#546,.F.);
#487=ORIENTED_EDGE('',*,*,#652,.F.);
#488=ORIENTED_EDGE('',*,*,#655,.T.);
#489=ORIENTED_EDGE('',*,*,#653,.T.);
#490=ORIENTED_EDGE('',*,*,#651,.F.);
#491=ORIENTED_EDGE('',*,*,#614,.F.);
#492=ORIENTED_EDGE('',*,*,#654,.T.);
#493=ORIENTED_EDGE('',*,*,#655,.F.);
#494=ORIENTED_EDGE('',*,*,#539,.T.);
#495=ORIENTED_EDGE('',*,*,#656,.F.);
#496=ORIENTED_EDGE('',*,*,#657,.F.);
#497=ORIENTED_EDGE('',*,*,#618,.T.);
#498=ORIENTED_EDGE('',*,*,#550,.T.);
#499=ORIENTED_EDGE('',*,*,#658,.F.);
#500=ORIENTED_EDGE('',*,*,#659,.F.);
#501=ORIENTED_EDGE('',*,*,#656,.T.);
#502=ORIENTED_EDGE('',*,*,#549,.F.);
#503=ORIENTED_EDGE('',*,*,#612,.F.);
#504=ORIENTED_EDGE('',*,*,#660,.T.);
#505=ORIENTED_EDGE('',*,*,#658,.T.);
#506=ORIENTED_EDGE('',*,*,#611,.F.);
#507=ORIENTED_EDGE('',*,*,#657,.T.);
#508=ORIENTED_EDGE('',*,*,#659,.T.);
#509=ORIENTED_EDGE('',*,*,#660,.F.);
#510=ORIENTED_EDGE('',*,*,#583,.F.);
#511=ORIENTED_EDGE('',*,*,#528,.F.);
#512=ORIENTED_EDGE('',*,*,#661,.T.);
#513=ORIENTED_EDGE('',*,*,#662,.T.);
#514=ORIENTED_EDGE('',*,*,#585,.T.);
#515=ORIENTED_EDGE('',*,*,#663,.F.);
#516=ORIENTED_EDGE('',*,*,#664,.F.);
#517=ORIENTED_EDGE('',*,*,#538,.T.);
#518=ORIENTED_EDGE('',*,*,#584,.F.);
#519=ORIENTED_EDGE('',*,*,#662,.F.);
#520=ORIENTED_EDGE('',*,*,#665,.T.);
#521=ORIENTED_EDGE('',*,*,#663,.T.);
#522=ORIENTED_EDGE('',*,*,#661,.F.);
#523=ORIENTED_EDGE('',*,*,#527,.T.);
#524=ORIENTED_EDGE('',*,*,#664,.T.);
#525=ORIENTED_EDGE('',*,*,#665,.F.);
#526=EDGE_CURVE('',#666,#666,#754,.T.);
#527=EDGE_CURVE('',#667,#668,#38,.T.);
#528=EDGE_CURVE('',#667,#669,#39,.T.);
#529=EDGE_CURVE('',#670,#669,#40,.T.);
#530=EDGE_CURVE('',#671,#670,#41,.T.);
#531=EDGE_CURVE('',#671,#672,#755,.F.);
#532=EDGE_CURVE('',#673,#672,#42,.T.);
#533=EDGE_CURVE('',#673,#674,#43,.T.);
#534=EDGE_CURVE('',#674,#675,#44,.T.);
#535=EDGE_CURVE('',#676,#675,#756,.T.);
#536=EDGE_CURVE('',#676,#677,#45,.T.);
#537=EDGE_CURVE('',#678,#677,#46,.T.);
#538=EDGE_CURVE('',#668,#678,#47,.T.);
#539=EDGE_CURVE('',#679,#680,#48,.T.);
#540=EDGE_CURVE('',#681,#679,#49,.T.);
#541=EDGE_CURVE('',#681,#682,#50,.T.);
#542=EDGE_CURVE('',#682,#683,#51,.F.);
#543=EDGE_CURVE('',#683,#684,#52,.F.);
#544=EDGE_CURVE('',#685,#684,#53,.T.);
#545=EDGE_CURVE('',#685,#686,#54,.T.);
#546=EDGE_CURVE('',#686,#687,#55,.T.);
#547=EDGE_CURVE('',#688,#687,#56,.T.);
#548=EDGE_CURVE('',#689,#688,#57,.T.);
#549=EDGE_CURVE('',#689,#690,#58,.T.);
#550=EDGE_CURVE('',#680,#690,#59,.T.);
#551=EDGE_CURVE('',#673,#691,#60,.T.);
#552=EDGE_CURVE('',#691,#692,#61,.T.);
#553=EDGE_CURVE('',#692,#674,#62,.F.);
#554=EDGE_CURVE('',#693,#693,#757,.T.);
#555=EDGE_CURVE('',#694,#694,#758,.T.);
#556=EDGE_CURVE('',#695,#695,#759,.T.);
#557=EDGE_CURVE('',#696,#697,#63,.T.);
#558=EDGE_CURVE('',#696,#698,#760,.F.);
#559=EDGE_CURVE('',#698,#699,#64,.T.);
#560=EDGE_CURVE('',#699,#700,#761,.F.);
#561=EDGE_CURVE('',#700,#701,#65,.T.);
#562=EDGE_CURVE('',#701,#702,#762,.F.);
#563=EDGE_CURVE('',#703,#702,#66,.T.);
#564=EDGE_CURVE('',#703,#697,#763,.F.);
#565=EDGE_CURVE('',#704,#704,#764,.T.);
#566=EDGE_CURVE('',#705,#705,#765,.T.);
#567=EDGE_CURVE('',#671,#706,#67,.F.);
#568=EDGE_CURVE('',#670,#681,#68,.T.);
#569=EDGE_CURVE('',#707,#681,#69,.T.);
#570=EDGE_CURVE('',#708,#707,#70,.T.);
#571=EDGE_CURVE('',#709,#708,#71,.T.);
#572=EDGE_CURVE('',#710,#709,#72,.T.);
#573=EDGE_CURVE('',#710,#711,#73,.T.);
#574=EDGE_CURVE('',#711,#691,#74,.F.);
#575=EDGE_CURVE('',#712,#672,#75,.T.);
#576=EDGE_CURVE('',#706,#712,#76,.T.);
#577=EDGE_CURVE('',#713,#714,#77,.T.);
#578=EDGE_CURVE('',#713,#715,#78,.F.);
#579=EDGE_CURVE('',#715,#716,#79,.T.);
#580=EDGE_CURVE('',#716,#714,#80,.T.);
#581=EDGE_CURVE('',#698,#713,#81,.F.);
#582=EDGE_CURVE('',#714,#699,#82,.T.);
#583=EDGE_CURVE('',#669,#717,#83,.T.);
#584=EDGE_CURVE('',#717,#718,#84,.T.);
#585=EDGE_CURVE('',#678,#718,#85,.T.);
#586=EDGE_CURVE('',#677,#703,#86,.F.);
#587=EDGE_CURVE('',#702,#670,#87,.T.);
#588=EDGE_CURVE('',#719,#720,#88,.T.);
#589=EDGE_CURVE('',#720,#721,#89,.T.);
#590=EDGE_CURVE('',#721,#722,#90,.F.);
#591=EDGE_CURVE('',#722,#719,#91,.F.);
#592=EDGE_CURVE('',#723,#724,#92,.T.);
#593=EDGE_CURVE('',#724,#725,#93,.F.);
#594=EDGE_CURVE('',#725,#726,#94,.F.);
#595=EDGE_CURVE('',#726,#723,#95,.T.);
#596=EDGE_CURVE('',#727,#728,#96,.T.);
#597=EDGE_CURVE('',#728,#696,#97,.T.);
#598=EDGE_CURVE('',#697,#729,#98,.T.);
#599=EDGE_CURVE('',#729,#730,#99,.T.);
#600=EDGE_CURVE('',#730,#727,#100,.T.);
#601=EDGE_CURVE('',#700,#731,#101,.F.);
#602=EDGE_CURVE('',#731,#732,#102,.F.);
#603=EDGE_CURVE('',#732,#733,#103,.F.);
#604=EDGE_CURVE('',#733,#734,#104,.F.);
#605=EDGE_CURVE('',#734,#701,#105,.F.);
#606=EDGE_CURVE('',#728,#713,#18,.F.);
#607=EDGE_CURVE('',#714,#731,#19,.T.);
#608=EDGE_CURVE('',#734,#682,#766,.F.);
#609=EDGE_CURVE('',#683,#729,#767,.T.);
#610=EDGE_CURVE('',#684,#677,#106,.F.);
#611=EDGE_CURVE('',#735,#736,#107,.T.);
#612=EDGE_CURVE('',#736,#689,#108,.T.);
#613=EDGE_CURVE('',#737,#688,#109,.T.);
#614=EDGE_CURVE('',#737,#738,#110,.T.);
#615=EDGE_CURVE('',#738,#685,#111,.T.);
#616=EDGE_CURVE('',#739,#684,#112,.T.);
#617=EDGE_CURVE('',#707,#739,#113,.T.);
#618=EDGE_CURVE('',#735,#679,#114,.T.);
#619=EDGE_CURVE('',#740,#741,#115,.T.);
#620=EDGE_CURVE('',#740,#675,#116,.T.);
#621=EDGE_CURVE('',#692,#742,#117,.F.);
#622=EDGE_CURVE('',#743,#742,#118,.T.);
#623=EDGE_CURVE('',#744,#743,#119,.F.);
#624=EDGE_CURVE('',#744,#745,#120,.T.);
#625=EDGE_CURVE('',#739,#745,#121,.F.);
#626=EDGE_CURVE('',#676,#741,#122,.F.);
#627=EDGE_CURVE('',#708,#745,#123,.T.);
#628=EDGE_CURVE('',#741,#740,#768,.T.);
#629=EDGE_CURVE('',#706,#712,#769,.T.);
#630=EDGE_CURVE('',#746,#746,#770,.T.);
#631=EDGE_CURVE('',#747,#747,#771,.T.);
#632=EDGE_CURVE('',#683,#719,#772,.T.);
#633=EDGE_CURVE('',#720,#682,#773,.T.);
#634=EDGE_CURVE('',#729,#719,#774,.T.);
#635=EDGE_CURVE('',#720,#734,#775,.T.);
#636=EDGE_CURVE('',#730,#722,#776,.T.);
#637=EDGE_CURVE('',#721,#733,#777,.T.);
#638=EDGE_CURVE('',#722,#726,#778,.T.);
#639=EDGE_CURVE('',#723,#721,#779,.T.);
#640=EDGE_CURVE('',#730,#726,#780,.F.);
#641=EDGE_CURVE('',#723,#733,#781,.F.);
#642=EDGE_CURVE('',#727,#725,#782,.T.);
#643=EDGE_CURVE('',#715,#727,#783,.T.);
#644=EDGE_CURVE('',#732,#716,#784,.T.);
#645=EDGE_CURVE('',#724,#732,#785,.T.);
#646=EDGE_CURVE('',#715,#725,#786,.F.);
#647=EDGE_CURVE('',#724,#716,#787,.F.);
#648=EDGE_CURVE('',#709,#744,#124,.T.);
#649=EDGE_CURVE('',#742,#711,#125,.T.);
#650=EDGE_CURVE('',#710,#743,#126,.T.);
#651=EDGE_CURVE('',#738,#748,#127,.T.);
#652=EDGE_CURVE('',#748,#686,#128,.T.);
#653=EDGE_CURVE('',#749,#687,#129,.T.);
#654=EDGE_CURVE('',#737,#749,#130,.T.);
#655=EDGE_CURVE('',#748,#749,#131,.T.);
#656=EDGE_CURVE('',#750,#680,#132,.T.);
#657=EDGE_CURVE('',#735,#750,#133,.T.);
#658=EDGE_CURVE('',#751,#690,#134,.T.);
#659=EDGE_CURVE('',#750,#751,#135,.T.);
#660=EDGE_CURVE('',#736,#751,#136,.T.);
#661=EDGE_CURVE('',#667,#752,#137,.T.);
#662=EDGE_CURVE('',#752,#717,#138,.T.);
#663=EDGE_CURVE('',#753,#718,#139,.T.);
#664=EDGE_CURVE('',#668,#753,#140,.T.);
#665=EDGE_CURVE('',#752,#753,#141,.T.);
#666=VERTEX_POINT('',#1429);
#667=VERTEX_POINT('',#1431);
#668=VERTEX_POINT('',#1432);
#669=VERTEX_POINT('',#1434);
#670=VERTEX_POINT('',#1436);
#671=VERTEX_POINT('',#1438);
#672=VERTEX_POINT('',#1440);
#673=VERTEX_POINT('',#1442);
#674=VERTEX_POINT('',#1444);
#675=VERTEX_POINT('',#1446);
#676=VERTEX_POINT('',#1448);
#677=VERTEX_POINT('',#1450);
#678=VERTEX_POINT('',#1452);
#679=VERTEX_POINT('',#1456);
#680=VERTEX_POINT('',#1457);
#681=VERTEX_POINT('',#1459);
#682=VERTEX_POINT('',#1461);
#683=VERTEX_POINT('',#1463);
#684=VERTEX_POINT('',#1465);
#685=VERTEX_POINT('',#1467);
#686=VERTEX_POINT('',#1469);
#687=VERTEX_POINT('',#1471);
#688=VERTEX_POINT('',#1473);
#689=VERTEX_POINT('',#1475);
#690=VERTEX_POINT('',#1477);
#691=VERTEX_POINT('',#1481);
#692=VERTEX_POINT('',#1483);
#693=VERTEX_POINT('',#1487);
#694=VERTEX_POINT('',#1489);
#695=VERTEX_POINT('',#1491);
#696=VERTEX_POINT('',#1493);
#697=VERTEX_POINT('',#1494);
#698=VERTEX_POINT('',#1496);
#699=VERTEX_POINT('',#1498);
#700=VERTEX_POINT('',#1500);
#701=VERTEX_POINT('',#1502);
#702=VERTEX_POINT('',#1504);
#703=VERTEX_POINT('',#1506);
#704=VERTEX_POINT('',#1509);
#705=VERTEX_POINT('',#1511);
#706=VERTEX_POINT('',#1514);
#707=VERTEX_POINT('',#1517);
#708=VERTEX_POINT('',#1519);
#709=VERTEX_POINT('',#1521);
#710=VERTEX_POINT('',#1523);
#711=VERTEX_POINT('',#1525);
#712=VERTEX_POINT('',#1528);
#713=VERTEX_POINT('',#1532);
#714=VERTEX_POINT('',#1533);
#715=VERTEX_POINT('',#1535);
#716=VERTEX_POINT('',#1537);
#717=VERTEX_POINT('',#1544);
#718=VERTEX_POINT('',#1546);
#719=VERTEX_POINT('',#1552);
#720=VERTEX_POINT('',#1553);
#721=VERTEX_POINT('',#1555);
#722=VERTEX_POINT('',#1557);
#723=VERTEX_POINT('',#1561);
#724=VERTEX_POINT('',#1562);
#725=VERTEX_POINT('',#1564);
#726=VERTEX_POINT('',#1566);
#727=VERTEX_POINT('',#1570);
#728=VERTEX_POINT('',#1571);
#729=VERTEX_POINT('',#1574);
#730=VERTEX_POINT('',#1576);
#731=VERTEX_POINT('',#1580);
#732=VERTEX_POINT('',#1582);
#733=VERTEX_POINT('',#1584);
#734=VERTEX_POINT('',#1586);
#735=VERTEX_POINT('',#1599);
#736=VERTEX_POINT('',#1600);
#737=VERTEX_POINT('',#1603);
#738=VERTEX_POINT('',#1605);
#739=VERTEX_POINT('',#1608);
#740=VERTEX_POINT('',#1613);
#741=VERTEX_POINT('',#1614);
#742=VERTEX_POINT('',#1617);
#743=VERTEX_POINT('',#1619);
#744=VERTEX_POINT('',#1621);
#745=VERTEX_POINT('',#1623);
#746=VERTEX_POINT('',#1636);
#747=VERTEX_POINT('',#1640);
#748=VERTEX_POINT('',#1683);
#749=VERTEX_POINT('',#1687);
#750=VERTEX_POINT('',#1694);
#751=VERTEX_POINT('',#1698);
#752=VERTEX_POINT('',#1705);
#753=VERTEX_POINT('',#1709);
#754=CIRCLE('',#1036,0.0177);
#755=CIRCLE('',#1037,0.003075);
#756=CIRCLE('',#1038,0.003075);
#757=CIRCLE('',#1042,0.0177);
#758=CIRCLE('',#1043,0.003075);
#759=CIRCLE('',#1044,0.003075);
#760=CIRCLE('',#1045,0.00508);
#761=CIRCLE('',#1046,0.00508);
#762=CIRCLE('',#1047,0.00508);
#763=CIRCLE('',#1048,0.00508);
#764=CIRCLE('',#1049,0.003075);
#765=CIRCLE('',#1050,0.003075);
#766=CIRCLE('',#1064,0.00508);
#767=CIRCLE('',#1066,0.00508);
#768=CIRCLE('',#1071,0.003075);
#769=CIRCLE('',#1074,0.003075);
#770=CIRCLE('',#1077,0.003075);
#771=CIRCLE('',#1080,0.003075);
#772=CIRCLE('',#1083,0.00508);
#773=CIRCLE('',#1084,0.00508);
#774=CIRCLE('',#1086,0.00508);
#775=CIRCLE('',#1088,0.00508);
#776=CIRCLE('',#1090,0.00508);
#777=CIRCLE('',#1092,0.00508);
#778=CIRCLE('',#1094,0.00508);
#779=CIRCLE('',#1095,0.00508);
#780=CIRCLE('',#1097,0.00508);
#781=CIRCLE('',#1099,0.00508);
#782=CIRCLE('',#1101,0.00508);
#783=CIRCLE('',#1103,0.00508);
#784=CIRCLE('',#1105,0.00508);
#785=CIRCLE('',#1107,0.00508);
#786=CIRCLE('',#1109,0.00508);
#787=CIRCLE('',#1111,0.00508);
#788=EDGE_LOOP('',(#246));
#789=EDGE_LOOP('',(#247,#248,#249,#250,#251,#252,#253,#254,#255,#256,#257,
#258));
#790=EDGE_LOOP('',(#259,#260,#261,#262,#263,#264,#265,#266,#267,#268,#269,
#270));
#791=EDGE_LOOP('',(#271,#272,#273,#274));
#792=EDGE_LOOP('',(#275));
#793=EDGE_LOOP('',(#276));
#794=EDGE_LOOP('',(#277));
#795=EDGE_LOOP('',(#278,#279,#280,#281,#282,#283,#284,#285));
#796=EDGE_LOOP('',(#286));
#797=EDGE_LOOP('',(#287));
#798=EDGE_LOOP('',(#288,#289,#290,#291,#292,#293,#294,#295,#296,#297,#298,
#299,#300));
#799=EDGE_LOOP('',(#301,#302,#303,#304));
#800=EDGE_LOOP('',(#305,#306,#307,#308));
#801=EDGE_LOOP('',(#309,#310,#311,#312,#313,#314,#315,#316));
#802=EDGE_LOOP('',(#317,#318,#319,#320));
#803=EDGE_LOOP('',(#321,#322,#323,#324));
#804=EDGE_LOOP('',(#325,#326,#327,#328,#329,#330));
#805=EDGE_LOOP('',(#331,#332,#333,#334,#335,#336));
#806=EDGE_LOOP('',(#337,#338,#339,#340));
#807=EDGE_LOOP('',(#341,#342,#343,#344));
#808=EDGE_LOOP('',(#345,#346,#347,#348,#349,#350));
#809=EDGE_LOOP('',(#351,#352,#353,#354,#355,#356));
#810=EDGE_LOOP('',(#357,#358,#359,#360,#361,#362,#363,#364,#365,#366,#367,
#368));
#811=EDGE_LOOP('',(#369,#370,#371,#372,#373,#374,#375,#376,#377,#378,#379,
#380,#381));
#812=EDGE_LOOP('',(#382,#383,#384,#385));
#813=EDGE_LOOP('',(#386,#387));
#814=EDGE_LOOP('',(#388));
#815=EDGE_LOOP('',(#389,#390,#391,#392));
#816=EDGE_LOOP('',(#393,#394));
#817=EDGE_LOOP('',(#395));
#818=EDGE_LOOP('',(#396,#397,#398,#399));
#819=EDGE_LOOP('',(#400));
#820=EDGE_LOOP('',(#401));
#821=EDGE_LOOP('',(#402));
#822=EDGE_LOOP('',(#403));
#823=EDGE_LOOP('',(#404));
#824=EDGE_LOOP('',(#405));
#825=EDGE_LOOP('',(#406,#407,#408,#409));
#826=EDGE_LOOP('',(#410,#411,#412));
#827=EDGE_LOOP('',(#413,#414,#415));
#828=EDGE_LOOP('',(#416,#417,#418,#419));
#829=EDGE_LOOP('',(#420,#421,#422,#423));
#830=EDGE_LOOP('',(#424,#425,#426,#427));
#831=EDGE_LOOP('',(#428,#429,#430));
#832=EDGE_LOOP('',(#431,#432,#433));
#833=EDGE_LOOP('',(#434,#435,#436,#437));
#834=EDGE_LOOP('',(#438,#439,#440,#441));
#835=EDGE_LOOP('',(#442,#443,#444,#445));
#836=EDGE_LOOP('',(#446,#447,#448,#449));
#837=EDGE_LOOP('',(#450,#451,#452));
#838=EDGE_LOOP('',(#453,#454,#455));
#839=EDGE_LOOP('',(#456,#457,#458,#459));
#840=EDGE_LOOP('',(#460,#461,#462,#463));
#841=EDGE_LOOP('',(#464,#465,#466,#467));
#842=EDGE_LOOP('',(#468,#469,#470,#471));
#843=EDGE_LOOP('',(#472,#473,#474,#475));
#844=EDGE_LOOP('',(#476));
#845=EDGE_LOOP('',(#477));
#846=EDGE_LOOP('',(#478,#479,#480,#481));
#847=EDGE_LOOP('',(#482,#483,#484,#485));
#848=EDGE_LOOP('',(#486,#487,#488,#489));
#849=EDGE_LOOP('',(#490,#491,#492,#493));
#850=EDGE_LOOP('',(#494,#495,#496,#497));
#851=EDGE_LOOP('',(#498,#499,#500,#501));
#852=EDGE_LOOP('',(#502,#503,#504,#505));
#853=EDGE_LOOP('',(#506,#507,#508,#509));
#854=EDGE_LOOP('',(#510,#511,#512,#513));
#855=EDGE_LOOP('',(#514,#515,#516,#517));
#856=EDGE_LOOP('',(#518,#519,#520,#521));
#857=EDGE_LOOP('',(#522,#523,#524,#525));
#858=FACE_BOUND('',#788,.T.);
#859=FACE_BOUND('',#789,.T.);
#860=FACE_BOUND('',#790,.T.);
#861=FACE_BOUND('',#791,.T.);
#862=FACE_BOUND('',#792,.T.);
#863=FACE_BOUND('',#793,.T.);
#864=FACE_BOUND('',#794,.T.);
#865=FACE_BOUND('',#795,.T.);
#866=FACE_BOUND('',#796,.T.);
#867=FACE_BOUND('',#797,.T.);
#868=FACE_BOUND('',#798,.T.);
#869=FACE_BOUND('',#799,.T.);
#870=FACE_BOUND('',#800,.T.);
#871=FACE_BOUND('',#801,.T.);
#872=FACE_BOUND('',#802,.T.);
#873=FACE_BOUND('',#803,.T.);
#874=FACE_BOUND('',#804,.T.);
#875=FACE_BOUND('',#805,.T.);
#876=FACE_BOUND('',#806,.T.);
#877=FACE_BOUND('',#807,.T.);
#878=FACE_BOUND('',#808,.T.);
#879=FACE_BOUND('',#809,.T.);
#880=FACE_BOUND('',#810,.T.);
#881=FACE_BOUND('',#811,.T.);
#882=FACE_BOUND('',#812,.T.);
#883=FACE_BOUND('',#813,.T.);
#884=FACE_BOUND('',#814,.T.);
#885=FACE_BOUND('',#815,.T.);
#886=FACE_BOUND('',#816,.T.);
#887=FACE_BOUND('',#817,.T.);
#888=FACE_BOUND('',#818,.T.);
#889=FACE_BOUND('',#819,.T.);
#890=FACE_BOUND('',#820,.T.);
#891=FACE_BOUND('',#821,.T.);
#892=FACE_BOUND('',#822,.T.);
#893=FACE_BOUND('',#823,.T.);
#894=FACE_BOUND('',#824,.T.);
#895=FACE_BOUND('',#825,.T.);
#896=FACE_BOUND('',#826,.T.);
#897=FACE_BOUND('',#827,.T.);
#898=FACE_BOUND('',#828,.T.);
#899=FACE_BOUND('',#829,.T.);
#900=FACE_BOUND('',#830,.T.);
#901=FACE_BOUND('',#831,.T.);
#902=FACE_BOUND('',#832,.T.);
#903=FACE_BOUND('',#833,.T.);
#904=FACE_BOUND('',#834,.T.);
#905=FACE_BOUND('',#835,.T.);
#906=FACE_BOUND('',#836,.T.);
#907=FACE_BOUND('',#837,.T.);
#908=FACE_BOUND('',#838,.T.);
#909=FACE_BOUND('',#839,.T.);
#910=FACE_BOUND('',#840,.T.);
#911=FACE_BOUND('',#841,.T.);
#912=FACE_BOUND('',#842,.T.);
#913=FACE_BOUND('',#843,.T.);
#914=FACE_BOUND('',#844,.T.);
#915=FACE_BOUND('',#845,.T.);
#916=FACE_BOUND('',#846,.T.);
#917=FACE_BOUND('',#847,.T.);
#918=FACE_BOUND('',#848,.T.);
#919=FACE_BOUND('',#849,.T.);
#920=FACE_BOUND('',#850,.T.);
#921=FACE_BOUND('',#851,.T.);
#922=FACE_BOUND('',#852,.T.);
#923=FACE_BOUND('',#853,.T.);
#924=FACE_BOUND('',#854,.T.);
#925=FACE_BOUND('',#855,.T.);
#926=FACE_BOUND('',#856,.T.);
#927=FACE_BOUND('',#857,.T.);
#928=PLANE('',#1035);
#929=PLANE('',#1039);
#930=PLANE('',#1040);
#931=PLANE('',#1041);
#932=PLANE('',#1051);
#933=PLANE('',#1052);
#934=PLANE('',#1053);
#935=PLANE('',#1054);
#936=PLANE('',#1055);
#937=PLANE('',#1056);
#938=PLANE('',#1057);
#939=PLANE('',#1058);
#940=PLANE('',#1067);
#941=PLANE('',#1068);
#942=PLANE('',#1069);
#943=PLANE('',#1070);
#944=PLANE('',#1073);
#945=PLANE('',#1078);
#946=PLANE('',#1081);
#947=PLANE('',#1113);
#948=PLANE('',#1114);
#949=PLANE('',#1115);
#950=PLANE('',#1116);
#951=PLANE('',#1118);
#952=PLANE('',#1119);
#953=PLANE('',#1120);
#954=PLANE('',#1121);
#955=PLANE('',#1122);
#956=PLANE('',#1123);
#957=PLANE('',#1124);
#958=PLANE('',#1125);
#959=PLANE('',#1126);
#960=PLANE('',#1127);
#961=PLANE('',#1128);
#962=PLANE('',#1129);
#963=ADVANCED_FACE('',(#858,#859),#928,.T.);
#964=ADVANCED_FACE('',(#860),#929,.F.);
#965=ADVANCED_FACE('',(#861),#930,.T.);
#966=ADVANCED_FACE('',(#862,#863,#864,#865,#866,#867),#931,.F.);
#967=ADVANCED_FACE('',(#868),#932,.F.);
#968=ADVANCED_FACE('',(#869),#933,.F.);
#969=ADVANCED_FACE('',(#870),#934,.F.);
#970=ADVANCED_FACE('',(#871),#935,.F.);
#971=ADVANCED_FACE('',(#872),#936,.F.);
#972=ADVANCED_FACE('',(#873),#937,.F.);
#973=ADVANCED_FACE('',(#874),#938,.T.);
#974=ADVANCED_FACE('',(#875),#939,.F.);
#975=ADVANCED_FACE('',(#876),#20,.T.);
#976=ADVANCED_FACE('',(#877),#21,.T.);
#977=ADVANCED_FACE('',(#878),#22,.T.);
#978=ADVANCED_FACE('',(#879),#23,.T.);
#979=ADVANCED_FACE('',(#880),#940,.F.);
#980=ADVANCED_FACE('',(#881),#941,.F.);
#981=ADVANCED_FACE('',(#882),#942,.T.);
#982=ADVANCED_FACE('',(#883),#943,.T.);
#983=ADVANCED_FACE('',(#884,#885),#24,.F.);
#984=ADVANCED_FACE('',(#886),#944,.T.);
#985=ADVANCED_FACE('',(#887,#888),#25,.F.);
#986=ADVANCED_FACE('',(#889,#890),#26,.F.);
#987=ADVANCED_FACE('',(#891),#945,.T.);
#988=ADVANCED_FACE('',(#892,#893),#27,.F.);
#989=ADVANCED_FACE('',(#894),#946,.T.);
#990=ADVANCED_FACE('',(#895),#28,.T.);
#991=ADVANCED_FACE('',(#896),#12,.T.);
#992=ADVANCED_FACE('',(#897),#13,.T.);
#993=ADVANCED_FACE('',(#898),#29,.T.);
#994=ADVANCED_FACE('',(#899),#30,.T.);
#995=ADVANCED_FACE('',(#900),#31,.T.);
#996=ADVANCED_FACE('',(#901),#14,.T.);
#997=ADVANCED_FACE('',(#902),#15,.T.);
#998=ADVANCED_FACE('',(#903),#32,.T.);
#999=ADVANCED_FACE('',(#904),#33,.T.);
#1000=ADVANCED_FACE('',(#905),#34,.T.);
#1001=ADVANCED_FACE('',(#906),#35,.T.);
#1002=ADVANCED_FACE('',(#907),#16,.T.);
#1003=ADVANCED_FACE('',(#908),#17,.T.);
#1004=ADVANCED_FACE('',(#909),#36,.T.);
#1005=ADVANCED_FACE('',(#910),#947,.F.);
#1006=ADVANCED_FACE('',(#911),#948,.T.);
#1007=ADVANCED_FACE('',(#912),#949,.T.);
#1008=ADVANCED_FACE('',(#913),#950,.F.);
#1009=ADVANCED_FACE('',(#914,#915),#37,.F.);
#1010=ADVANCED_FACE('',(#916),#951,.T.);
#1011=ADVANCED_FACE('',(#917),#952,.F.);
#1012=ADVANCED_FACE('',(#918),#953,.T.);
#1013=ADVANCED_FACE('',(#919),#954,.T.);
#1014=ADVANCED_FACE('',(#920),#955,.F.);
#1015=ADVANCED_FACE('',(#921),#956,.F.);
#1016=ADVANCED_FACE('',(#922),#957,.T.);
#1017=ADVANCED_FACE('',(#923),#958,.T.);
#1018=ADVANCED_FACE('',(#924),#959,.T.);
#1019=ADVANCED_FACE('',(#925),#960,.F.);
#1020=ADVANCED_FACE('',(#926),#961,.T.);
#1021=ADVANCED_FACE('',(#927),#962,.T.);
#1022=CLOSED_SHELL('',(#963,#964,#965,#966,#967,#968,#969,#970,#971,#972,
#973,#974,#975,#976,#977,#978,#979,#980,#981,#982,#983,#984,#985,#986,#987,
#988,#989,#990,#991,#992,#993,#994,#995,#996,#997,#998,#999,#1000,#1001,
#1002,#1003,#1004,#1005,#1006,#1007,#1008,#1009,#1010,#1011,#1012,#1013,
#1014,#1015,#1016,#1017,#1018,#1019,#1020,#1021));
#1023=STYLED_ITEM('',(#1024),#1031);
#1024=PRESENTATION_STYLE_ASSIGNMENT((#1025));
#1025=SURFACE_STYLE_USAGE(.BOTH.,#1026);
#1026=SURFACE_SIDE_STYLE('',(#1027));
#1027=SURFACE_STYLE_FILL_AREA(#1028);
#1028=FILL_AREA_STYLE('',(#1029));
#1029=FILL_AREA_STYLE_COLOUR('',#1030);
#1030=COLOUR_RGB('',0.262745098039216,0.282352941176471,0.301960784313725);
#1031=MANIFOLD_SOLID_BREP('Part 1',#1022);
#1032=SHAPE_DEFINITION_REPRESENTATION(#1720,#1033);
#1033=SHAPE_REPRESENTATION('Part 1',(#1034),#1715);
#1034=AXIS2_PLACEMENT_3D('',#1426,#1130,#1131);
#1035=AXIS2_PLACEMENT_3D('',#1427,#1132,#1133);
#1036=AXIS2_PLACEMENT_3D('',#1428,#1134,#1135);
#1037=AXIS2_PLACEMENT_3D('',#1439,#1140,#1141);
#1038=AXIS2_PLACEMENT_3D('',#1447,#1145,#1146);
#1039=AXIS2_PLACEMENT_3D('',#1454,#1150,#1151);
#1040=AXIS2_PLACEMENT_3D('',#1479,#1164,#1165);
#1041=AXIS2_PLACEMENT_3D('',#1485,#1169,#1170);
#1042=AXIS2_PLACEMENT_3D('',#1486,#1171,#1172);
#1043=AXIS2_PLACEMENT_3D('',#1488,#1173,#1174);
#1044=AXIS2_PLACEMENT_3D('',#1490,#1175,#1176);
#1045=AXIS2_PLACEMENT_3D('',#1495,#1178,#1179);
#1046=AXIS2_PLACEMENT_3D('',#1499,#1181,#1182);
#1047=AXIS2_PLACEMENT_3D('',#1503,#1184,#1185);
#1048=AXIS2_PLACEMENT_3D('',#1507,#1187,#1188);
#1049=AXIS2_PLACEMENT_3D('',#1508,#1189,#1190);
#1050=AXIS2_PLACEMENT_3D('',#1510,#1191,#1192);
#1051=AXIS2_PLACEMENT_3D('',#1512,#1193,#1194);
#1052=AXIS2_PLACEMENT_3D('',#1530,#1205,#1206);
#1053=AXIS2_PLACEMENT_3D('',#1539,#1211,#1212);
#1054=AXIS2_PLACEMENT_3D('',#1542,#1215,#1216);
#1055=AXIS2_PLACEMENT_3D('',#1550,#1222,#1223);
#1056=AXIS2_PLACEMENT_3D('',#1559,#1228,#1229);
#1057=AXIS2_PLACEMENT_3D('',#1568,#1234,#1235);
#1058=AXIS2_PLACEMENT_3D('',#1578,#1241,#1242);
#1059=AXIS2_PLACEMENT_3D('',#1588,#1248,#1249);
#1060=AXIS2_PLACEMENT_3D('',#1589,#1250,#1251);
#1061=AXIS2_PLACEMENT_3D('',#1590,#1252,#1253);
#1062=AXIS2_PLACEMENT_3D('',#1591,#1254,#1255);
#1063=AXIS2_PLACEMENT_3D('',#1592,#1256,#1257);
#1064=AXIS2_PLACEMENT_3D('',#1593,#1258,#1259);
#1065=AXIS2_PLACEMENT_3D('',#1594,#1260,#1261);
#1066=AXIS2_PLACEMENT_3D('',#1595,#1262,#1263);
#1067=AXIS2_PLACEMENT_3D('',#1597,#1265,#1266);
#1068=AXIS2_PLACEMENT_3D('',#1611,#1275,#1276);
#1069=AXIS2_PLACEMENT_3D('',#1626,#1285,#1286);
#1070=AXIS2_PLACEMENT_3D('',#1628,#1288,#1289);
#1071=AXIS2_PLACEMENT_3D('',#1629,#1290,#1291);
#1072=AXIS2_PLACEMENT_3D('',#1630,#1292,#1293);
#1073=AXIS2_PLACEMENT_3D('',#1631,#1294,#1295);
#1074=AXIS2_PLACEMENT_3D('',#1632,#1296,#1297);
#1075=AXIS2_PLACEMENT_3D('',#1633,#1298,#1299);
#1076=AXIS2_PLACEMENT_3D('',#1634,#1300,#1301);
#1077=AXIS2_PLACEMENT_3D('',#1635,#1302,#1303);
#1078=AXIS2_PLACEMENT_3D('',#1637,#1304,#1305);
#1079=AXIS2_PLACEMENT_3D('',#1638,#1306,#1307);
#1080=AXIS2_PLACEMENT_3D('',#1639,#1308,#1309);
#1081=AXIS2_PLACEMENT_3D('',#1641,#1310,#1311);
#1082=AXIS2_PLACEMENT_3D('',#1642,#1312,#1313);
#1083=AXIS2_PLACEMENT_3D('',#1643,#1314,#1315);
#1084=AXIS2_PLACEMENT_3D('',#1644,#1316,#1317);
#1085=AXIS2_PLACEMENT_3D('',#1645,#1318,#1319);
#1086=AXIS2_PLACEMENT_3D('',#1646,#1320,#1321);
#1087=AXIS2_PLACEMENT_3D('',#1647,#1322,#1323);
#1088=AXIS2_PLACEMENT_3D('',#1648,#1324,#1325);
#1089=AXIS2_PLACEMENT_3D('',#1649,#1326,#1327);
#1090=AXIS2_PLACEMENT_3D('',#1650,#1328,#1329);
#1091=AXIS2_PLACEMENT_3D('',#1651,#1330,#1331);
#1092=AXIS2_PLACEMENT_3D('',#1652,#1332,#1333);
#1093=AXIS2_PLACEMENT_3D('',#1653,#1334,#1335);
#1094=AXIS2_PLACEMENT_3D('',#1654,#1336,#1337);
#1095=AXIS2_PLACEMENT_3D('',#1655,#1338,#1339);
#1096=AXIS2_PLACEMENT_3D('',#1656,#1340,#1341);
#1097=AXIS2_PLACEMENT_3D('',#1657,#1342,#1343);
#1098=AXIS2_PLACEMENT_3D('',#1658,#1344,#1345);
#1099=AXIS2_PLACEMENT_3D('',#1659,#1346,#1347);
#1100=AXIS2_PLACEMENT_3D('',#1660,#1348,#1349);
#1101=AXIS2_PLACEMENT_3D('',#1661,#1350,#1351);
#1102=AXIS2_PLACEMENT_3D('',#1662,#1352,#1353);
#1103=AXIS2_PLACEMENT_3D('',#1663,#1354,#1355);
#1104=AXIS2_PLACEMENT_3D('',#1664,#1356,#1357);
#1105=AXIS2_PLACEMENT_3D('',#1665,#1358,#1359);
#1106=AXIS2_PLACEMENT_3D('',#1666,#1360,#1361);
#1107=AXIS2_PLACEMENT_3D('',#1667,#1362,#1363);
#1108=AXIS2_PLACEMENT_3D('',#1668,#1364,#1365);
#1109=AXIS2_PLACEMENT_3D('',#1669,#1366,#1367);
#1110=AXIS2_PLACEMENT_3D('',#1670,#1368,#1369);
#1111=AXIS2_PLACEMENT_3D('',#1671,#1370,#1371);
#1112=AXIS2_PLACEMENT_3D('',#1672,#1372,#1373);
#1113=AXIS2_PLACEMENT_3D('',#1673,#1374,#1375);
#1114=AXIS2_PLACEMENT_3D('',#1675,#1377,#1378);
#1115=AXIS2_PLACEMENT_3D('',#1678,#1381,#1382);
#1116=AXIS2_PLACEMENT_3D('',#1679,#1383,#1384);
#1117=AXIS2_PLACEMENT_3D('',#1680,#1385,#1386);
#1118=AXIS2_PLACEMENT_3D('',#1681,#1387,#1388);
#1119=AXIS2_PLACEMENT_3D('',#1685,#1391,#1392);
#1120=AXIS2_PLACEMENT_3D('',#1689,#1395,#1396);
#1121=AXIS2_PLACEMENT_3D('',#1691,#1398,#1399);
#1122=AXIS2_PLACEMENT_3D('',#1692,#1400,#1401);
#1123=AXIS2_PLACEMENT_3D('',#1696,#1404,#1405);
#1124=AXIS2_PLACEMENT_3D('',#1700,#1408,#1409);
#1125=AXIS2_PLACEMENT_3D('',#1702,#1411,#1412);
#1126=AXIS2_PLACEMENT_3D('',#1703,#1413,#1414);
#1127=AXIS2_PLACEMENT_3D('',#1707,#1417,#1418);
#1128=AXIS2_PLACEMENT_3D('',#1711,#1421,#1422);
#1129=AXIS2_PLACEMENT_3D('',#1713,#1424,#1425);
#1130=DIRECTION('',(0.,0.,1.));
#1131=DIRECTION('',(1.,0.,0.));
#1132=DIRECTION('',(-1.,-8.67361737988404E-17,0.));
#1133=DIRECTION('',(-8.67361737988404E-17,1.,0.));
#1134=DIRECTION('',(-1.,-8.67361737988404E-17,0.));
#1135=DIRECTION('',(-8.67361737988404E-17,1.,0.));
#1136=DIRECTION('',(0.,0.,1.));
#1137=DIRECTION('',(-8.67361737988404E-17,1.,0.));
#1138=DIRECTION('',(0.,0.,1.));
#1139=DIRECTION('',(-8.67361737988404E-17,1.,0.));
#1140=DIRECTION('',(-1.,-8.67361737988404E-17,0.));
#1141=DIRECTION('',(-8.67361737988404E-17,1.,0.));
#1142=DIRECTION('',(-8.67361737988404E-17,1.,0.));
#1143=DIRECTION('',(0.,0.,1.));
#1144=DIRECTION('',(-8.67361737988404E-17,1.,0.));
#1145=DIRECTION('',(-1.,-8.67361737988404E-17,0.));
#1146=DIRECTION('',(-8.67361737988404E-17,1.,0.));
#1147=DIRECTION('',(-8.67361737988404E-17,1.,0.));
#1148=DIRECTION('',(0.,0.,1.));
#1149=DIRECTION('',(-8.67361737988404E-17,1.,0.));
#1150=DIRECTION('',(8.67361737988404E-17,-1.,0.));
#1151=DIRECTION('',(-1.,-8.67361737988404E-17,0.));
#1152=DIRECTION('',(-1.,-8.67361737988404E-17,0.));
#1153=DIRECTION('',(0.,0.,1.));
#1154=DIRECTION('',(-1.,-8.67361737988404E-17,0.));
#1155=DIRECTION('',(0.,0.,-1.));
#1156=DIRECTION('',(-1.,-8.67361737988404E-17,0.));
#1157=DIRECTION('',(0.,0.,1.));
#1158=DIRECTION('',(-1.,-8.67361737988404E-17,0.));
#1159=DIRECTION('',(0.,0.,-1.));
#1160=DIRECTION('',(-1.,-8.67361737988404E-17,0.));
#1161=DIRECTION('',(0.,0.,1.));
#1162=DIRECTION('',(-1.,-8.67361737988404E-17,0.));
#1163=DIRECTION('',(0.,0.,1.));
#1164=DIRECTION('',(-8.67361737988404E-17,1.,0.));
#1165=DIRECTION('',(1.,8.67361737988404E-17,0.));
#1166=DIRECTION('',(-1.,-8.67361737988404E-17,0.));
#1167=DIRECTION('',(0.,0.,1.));
#1168=DIRECTION('',(-1.,-8.67361737988404E-17,0.));
#1169=DIRECTION('',(-1.,0.,0.));
#1170=DIRECTION('',(0.,1.,0.));
#1171=DIRECTION('',(1.,0.,0.));
#1172=DIRECTION('',(0.,-1.,0.));
#1173=DIRECTION('',(1.,0.,0.));
#1174=DIRECTION('',(0.,-1.,0.));
#1175=DIRECTION('',(1.,0.,0.));
#1176=DIRECTION('',(0.,-1.,0.));
#1177=DIRECTION('',(0.,1.,0.));
#1178=DIRECTION('',(-1.,0.,0.));
#1179=DIRECTION('',(0.,1.,0.));
#1180=DIRECTION('',(0.,0.,-1.));
#1181=DIRECTION('',(-1.,0.,0.));
#1182=DIRECTION('',(0.,1.,0.));
#1183=DIRECTION('',(0.,1.,0.));
#1184=DIRECTION('',(-1.,0.,0.));
#1185=DIRECTION('',(0.,1.,0.));
#1186=DIRECTION('',(0.,0.,-1.));
#1187=DIRECTION('',(-1.,0.,0.));
#1188=DIRECTION('',(0.,1.,0.));
#1189=DIRECTION('',(-1.,0.,0.));
#1190=DIRECTION('',(0.,-1.,0.));
#1191=DIRECTION('',(-1.,0.,0.));
#1192=DIRECTION('',(0.,-1.,0.));
#1193=DIRECTION('',(0.,0.,-1.));
#1194=DIRECTION('',(0.,1.,0.));
#1195=DIRECTION('',(1.,0.,0.));
#1196=DIRECTION('',(-1.,-8.67361737988404E-17,0.));
#1197=DIRECTION('',(-8.67361737988404E-17,1.,0.));
#1198=DIRECTION('',(-1.,-8.67361737988404E-17,0.));
#1199=DIRECTION('',(-8.67361737988404E-17,1.,0.));
#1200=DIRECTION('',(-1.,-8.67361737988404E-17,0.));
#1201=DIRECTION('',(-8.67361737988404E-17,1.,0.));
#1202=DIRECTION('',(-0.707106781186548,-0.707106781186548,0.));
#1203=DIRECTION('',(1.,0.,0.));
#1204=DIRECTION('',(0.,-1.,0.));
#1205=DIRECTION('',(-0.585267275170066,0.810840438443351,0.));
#1206=DIRECTION('',(0.810840438443351,0.585267275170066,0.));
#1207=DIRECTION('',(0.,0.,-1.));
#1208=DIRECTION('',(0.810840438443351,0.585267275170066,0.));
#1209=DIRECTION('',(0.,0.,-1.));
#1210=DIRECTION('',(0.810840438443351,0.585267275170066,0.));
#1211=DIRECTION('',(0.,1.,0.));
#1212=DIRECTION('',(1.,0.,0.));
#1213=DIRECTION('',(1.,0.,0.));
#1214=DIRECTION('',(1.,0.,0.));
#1215=DIRECTION('',(8.67361737988404E-17,-1.,0.));
#1216=DIRECTION('',(-1.,-8.67361737988404E-17,0.));
#1217=DIRECTION('',(1.,8.67361737988404E-17,0.));
#1218=DIRECTION('',(0.,0.,1.));
#1219=DIRECTION('',(1.,8.67361737988404E-17,0.));
#1220=DIRECTION('',(-1.,-8.67361737988404E-17,0.));
#1221=DIRECTION('',(-1.,-8.67361737988404E-17,0.));
#1222=DIRECTION('',(0.986659290867892,0.162798782993202,0.));
#1223=DIRECTION('',(0.162798782993202,-0.986659290867892,0.));
#1224=DIRECTION('',(0.,0.,-1.));
#1225=DIRECTION('',(0.162798782993202,-0.986659290867892,0.));
#1226=DIRECTION('',(0.,0.,-1.));
#1227=DIRECTION('',(0.162798782993202,-0.986659290867892,0.));
#1228=DIRECTION('',(-0.162798782993202,0.986659290867892,0.));
#1229=DIRECTION('',(0.986659290867892,0.162798782993202,0.));
#1230=DIRECTION('',(0.986659290867892,0.162798782993202,0.));
#1231=DIRECTION('',(0.,0.,-1.));
#1232=DIRECTION('',(0.986659290867892,0.162798782993202,0.));
#1233=DIRECTION('',(0.,0.,-1.));
#1234=DIRECTION('',(0.,0.,1.));
#1235=DIRECTION('',(1.,0.,0.));
#1236=DIRECTION('',(0.810840438443351,0.585267275170066,0.));
#1237=DIRECTION('',(1.,0.,0.));
#1238=DIRECTION('',(-1.,-8.67361737988404E-17,0.));
#1239=DIRECTION('',(0.162798782993202,-0.986659290867892,0.));
#1240=DIRECTION('',(0.986659290867892,0.162798782993202,0.));
#1241=DIRECTION('',(0.,0.,1.));
#1242=DIRECTION('',(1.,0.,0.));
#1243=DIRECTION('',(1.,0.,0.));
#1244=DIRECTION('',(0.810840438443351,0.585267275170066,0.));
#1245=DIRECTION('',(0.986659290867892,0.162798782993202,0.));
#1246=DIRECTION('',(0.162798782993202,-0.986659290867892,0.));
#1247=DIRECTION('',(-1.,-8.67361737988404E-17,0.));
#1248=DIRECTION('',(-1.,0.,0.));
#1249=DIRECTION('',(0.,1.,0.));
#1250=DIRECTION('',(-0.951535716209158,-0.30753825904808,0.));
#1251=DIRECTION('',(0.307538259048081,-0.951535716209158,0.));
#1252=DIRECTION('',(1.,0.,0.));
#1253=DIRECTION('',(0.,-1.,0.));
#1254=DIRECTION('',(0.951535716209158,0.30753825904808,0.));
#1255=DIRECTION('',(-0.307538259048081,0.951535716209158,0.));
#1256=DIRECTION('',(-1.,-8.67361737988404E-17,0.));
#1257=DIRECTION('',(-8.67361737988404E-17,1.,0.));
#1258=DIRECTION('',(-1.,-8.67361737988404E-17,0.));
#1259=DIRECTION('',(-8.67361737988404E-17,1.,0.));
#1260=DIRECTION('',(1.,8.67361737988404E-17,0.));
#1261=DIRECTION('',(8.67361737988404E-17,-1.,0.));
#1262=DIRECTION('',(1.,8.67361737988404E-17,0.));
#1263=DIRECTION('',(8.67361737988404E-17,-1.,0.));
#1264=DIRECTION('',(-1.,-8.67361737988404E-17,0.));
#1265=DIRECTION('',(-1.,-8.67361737988404E-17,0.));
#1266=DIRECTION('',(-8.67361737988404E-17,1.,0.));
#1267=DIRECTION('',(0.,0.,1.));
#1268=DIRECTION('',(-8.67361737988404E-17,1.,0.));
#1269=DIRECTION('',(-8.67361737988404E-17,1.,0.));
#1270=DIRECTION('',(0.,0.,1.));
#1271=DIRECTION('',(-8.67361737988404E-17,1.,0.));
#1272=DIRECTION('',(-8.67361737988404E-17,1.,0.));
#1273=DIRECTION('',(0.,0.,1.));
#1274=DIRECTION('',(-8.67361737988404E-17,1.,0.));
#1275=DIRECTION('',(0.,0.,1.));
#1276=DIRECTION('',(0.,-1.,0.));
#1277=DIRECTION('',(0.,1.,0.));
#1278=DIRECTION('',(1.,0.,0.));
#1279=DIRECTION('',(0.707106781186548,0.707106781186548,0.));
#1280=DIRECTION('',(-8.67361737988404E-17,1.,0.));
#1281=DIRECTION('',(-1.,-8.67361737988404E-17,0.));
#1282=DIRECTION('',(-8.67361737988404E-17,1.,0.));
#1283=DIRECTION('',(-1.,-8.67361737988404E-17,0.));
#1284=DIRECTION('',(1.,0.,0.));
#1285=DIRECTION('',(-8.67361737988404E-17,1.,0.));
#1286=DIRECTION('',(1.,8.67361737988404E-17,0.));
#1287=DIRECTION('',(0.,0.,1.));
#1288=DIRECTION('',(1.,0.,0.));
#1289=DIRECTION('',(0.,0.,-1.));
#1290=DIRECTION('',(1.,0.,0.));
#1291=DIRECTION('',(0.,-1.,0.));
#1292=DIRECTION('',(1.,0.,0.));
#1293=DIRECTION('',(0.,-1.,0.));
#1294=DIRECTION('',(1.,0.,0.));
#1295=DIRECTION('',(0.,0.,-1.));
#1296=DIRECTION('',(-1.,0.,0.));
#1297=DIRECTION('',(0.,-1.,0.));
#1298=DIRECTION('',(1.,0.,0.));
#1299=DIRECTION('',(0.,-1.,0.));
#1300=DIRECTION('',(1.,0.,0.));
#1301=DIRECTION('',(0.,-1.,0.));
#1302=DIRECTION('',(1.,0.,0.));
#1303=DIRECTION('',(0.,-1.,0.));
#1304=DIRECTION('',(1.,0.,0.));
#1305=DIRECTION('',(0.,0.,-1.));
#1306=DIRECTION('',(1.,0.,0.));
#1307=DIRECTION('',(0.,-1.,0.));
#1308=DIRECTION('',(-1.,0.,0.));
#1309=DIRECTION('',(0.,-1.,0.));
#1310=DIRECTION('',(1.,0.,0.));
#1311=DIRECTION('',(0.,0.,-1.));
#1312=DIRECTION('',(0.,0.,-1.));
#1313=DIRECTION('',(0.,1.,0.));
#1314=DIRECTION('',(0.,0.,1.));
#1315=DIRECTION('',(0.,-1.,0.));
#1316=DIRECTION('',(0.,0.,-1.));
#1317=DIRECTION('',(0.,1.,0.));
#1318=DIRECTION('',(0.986659290867892,0.162798782993202,0.));
#1319=DIRECTION('',(0.162798782993202,-0.986659290867892,0.));
#1320=DIRECTION('',(0.162798782993202,-0.986659290867892,0.));
#1321=DIRECTION('',(-0.986659290867893,-0.162798782993202,0.));
#1322=DIRECTION('',(0.986659290867892,0.162798782993202,0.));
#1323=DIRECTION('',(0.162798782993202,-0.986659290867892,0.));
#1324=DIRECTION('',(0.162798782993202,-0.986659290867892,0.));
#1325=DIRECTION('',(-0.986659290867893,-0.162798782993202,0.));
#1326=DIRECTION('',(-0.162798782993202,0.986659290867892,0.));
#1327=DIRECTION('',(0.986659290867892,0.162798782993202,0.));
#1328=DIRECTION('',(0.162798782993201,-0.986659290867893,0.));
#1329=DIRECTION('',(-0.986659290867893,-0.162798782993201,0.));
#1330=DIRECTION('',(0.162798782993202,-0.986659290867892,0.));
#1331=DIRECTION('',(-0.986659290867892,-0.162798782993202,0.));
#1332=DIRECTION('',(0.162798782993202,-0.986659290867892,-2.22370764345482E-16));
#1333=DIRECTION('',(-0.986659290867893,-0.162798782993202,0.));
#1334=DIRECTION('',(0.,0.,-1.));
#1335=DIRECTION('',(0.,1.,0.));
#1336=DIRECTION('',(0.,0.,1.));
#1337=DIRECTION('',(0.,-1.,0.));
#1338=DIRECTION('',(0.,0.,-1.));
#1339=DIRECTION('',(0.,1.,0.));
#1340=DIRECTION('',(-0.986659290867892,-0.162798782993202,0.));
#1341=DIRECTION('',(-0.162798782993202,0.986659290867893,0.));
#1342=DIRECTION('',(-0.986659290867892,-0.162798782993202,-1.57007236643931E-15));
#1343=DIRECTION('',(-0.162798782993202,0.986659290867893,0.));
#1344=DIRECTION('',(-0.986659290867892,-0.162798782993202,0.));
#1345=DIRECTION('',(-0.162798782993202,0.986659290867893,0.));
#1346=DIRECTION('',(-0.986659290867892,-0.162798782993202,0.));
#1347=DIRECTION('',(-0.162798782993202,0.986659290867893,0.));
#1348=DIRECTION('',(-0.986659290867892,-0.162798782993202,0.));
#1349=DIRECTION('',(-0.162798782993202,0.986659290867892,0.));
#1350=DIRECTION('',(0.986659290867892,0.162798782993202,0.));
#1351=DIRECTION('',(0.162798782993202,-0.986659290867893,0.));
#1352=DIRECTION('',(-0.810840438443351,-0.585267275170066,0.));
#1353=DIRECTION('',(-0.585267275170066,0.810840438443351,0.));
#1354=DIRECTION('',(-0.810840438443351,-0.585267275170066,-1.19914592357302E-15));
#1355=DIRECTION('',(-0.585267275170066,0.810840438443351,0.));
#1356=DIRECTION('',(0.810840438443351,0.585267275170066,0.));
#1357=DIRECTION('',(0.585267275170066,-0.810840438443351,0.));
#1358=DIRECTION('',(-0.810840438443351,-0.585267275170067,0.));
#1359=DIRECTION('',(-0.585267275170067,0.810840438443351,0.));
#1360=DIRECTION('',(0.986659290867892,0.162798782993202,0.));
#1361=DIRECTION('',(0.162798782993202,-0.986659290867892,0.));
#1362=DIRECTION('',(0.986659290867892,0.162798782993202,-1.23651621992109E-15));
#1363=DIRECTION('',(0.162798782993202,-0.986659290867893,0.));
#1364=DIRECTION('',(0.,-1.36592399683213E-15,1.));
#1365=DIRECTION('',(0.,-1.,-1.36592399683213E-15));
#1366=DIRECTION('',(0.,0.,1.));
#1367=DIRECTION('',(0.,-1.,0.));
#1368=DIRECTION('',(-1.36592399683213E-15,0.,-1.));
#1369=DIRECTION('',(-1.,0.,1.36592399683213E-15));
#1370=DIRECTION('',(0.,0.,-1.));
#1371=DIRECTION('',(0.,1.,0.));
#1372=DIRECTION('',(0.,0.,-1.));
#1373=DIRECTION('',(0.,1.,0.));
#1374=DIRECTION('',(-1.,-8.67361737988404E-17,0.));
#1375=DIRECTION('',(-8.67361737988404E-17,1.,0.));
#1376=DIRECTION('',(0.,0.,1.));
#1377=DIRECTION('',(-1.,-8.67361737988404E-17,0.));
#1378=DIRECTION('',(-8.67361737988404E-17,1.,0.));
#1379=DIRECTION('',(0.,0.,-1.));
#1380=DIRECTION('',(0.,0.,1.));
#1381=DIRECTION('',(-8.67361737988404E-17,1.,0.));
#1382=DIRECTION('',(1.,8.67361737988404E-17,0.));
#1383=DIRECTION('',(0.707106781186548,-0.707106781186548,0.));
#1384=DIRECTION('',(0.,0.,1.));
#1385=DIRECTION('',(1.,0.,0.));
#1386=DIRECTION('',(0.,-1.,0.));
#1387=DIRECTION('',(0.,0.,-1.));
#1388=DIRECTION('',(0.,1.,0.));
#1389=DIRECTION('',(-1.,-8.67361737988404E-17,0.));
#1390=DIRECTION('',(-8.67361737988404E-17,1.,0.));
#1391=DIRECTION('',(0.,0.,-1.));
#1392=DIRECTION('',(0.,1.,0.));
#1393=DIRECTION('',(-8.67361737988404E-17,1.,0.));
#1394=DIRECTION('',(-1.,-8.67361737988404E-17,0.));
#1395=DIRECTION('',(1.,8.67361737988404E-17,0.));
#1396=DIRECTION('',(8.67361737988404E-17,-1.,0.));
#1397=DIRECTION('',(0.,0.,-1.));
#1398=DIRECTION('',(-8.67361737988404E-17,1.,0.));
#1399=DIRECTION('',(1.,8.67361737988404E-17,0.));
#1400=DIRECTION('',(0.,0.,-1.));
#1401=DIRECTION('',(0.,1.,0.));
#1402=DIRECTION('',(-8.67361737988404E-17,1.,0.));
#1403=DIRECTION('',(-1.,-8.67361737988404E-17,0.));
#1404=DIRECTION('',(-1.,-8.67361737988404E-17,0.));
#1405=DIRECTION('',(-8.67361737988404E-17,1.,0.));
#1406=DIRECTION('',(-8.67361737988404E-17,1.,0.));
#1407=DIRECTION('',(0.,0.,1.));
#1408=DIRECTION('',(0.,0.,-1.));
#1409=DIRECTION('',(0.,1.,0.));
#1410=DIRECTION('',(-1.,-8.67361737988404E-17,0.));
#1411=DIRECTION('',(-8.67361737988404E-17,1.,0.));
#1412=DIRECTION('',(1.,8.67361737988404E-17,0.));
#1413=DIRECTION('',(0.,0.,1.));
#1414=DIRECTION('',(0.,-1.,0.));
#1415=DIRECTION('',(1.,8.67361737988404E-17,0.));
#1416=DIRECTION('',(-8.67361737988404E-17,1.,0.));
#1417=DIRECTION('',(0.,0.,1.));
#1418=DIRECTION('',(0.,-1.,0.));
#1419=DIRECTION('',(-8.67361737988404E-17,1.,0.));
#1420=DIRECTION('',(1.,8.67361737988404E-17,0.));
#1421=DIRECTION('',(-1.,-8.67361737988404E-17,0.));
#1422=DIRECTION('',(-8.67361737988404E-17,1.,0.));
#1423=DIRECTION('',(0.,0.,1.));
#1424=DIRECTION('',(-8.67361737988404E-17,1.,0.));
#1425=DIRECTION('',(1.,8.67361737988404E-17,0.));
#1426=CARTESIAN_POINT('',(0.,0.,0.));
#1427=CARTESIAN_POINT('',(0.076,0.01,0.));
#1428=CARTESIAN_POINT('',(0.076,0.03,0.));
#1429=CARTESIAN_POINT('',(0.076,0.0477,0.));
#1430=CARTESIAN_POINT('',(0.076,0.057,-4.33680868994202E-19));
#1431=CARTESIAN_POINT('',(0.076,0.057,-0.0025));
#1432=CARTESIAN_POINT('',(0.076,0.057,0.0025));
#1433=CARTESIAN_POINT('',(0.076,0.057,-0.0025));
#1434=CARTESIAN_POINT('',(0.076,0.06,-0.0025));
#1435=CARTESIAN_POINT('',(0.076,0.06,0.));
#1436=CARTESIAN_POINT('',(0.076,0.06,-0.01992));
#1437=CARTESIAN_POINT('',(0.076,0.01,-0.01992));
#1438=CARTESIAN_POINT('',(0.076,0.057995,-0.01992));
#1439=CARTESIAN_POINT('',(0.076,0.05492,-0.01992));
#1440=CARTESIAN_POINT('',(0.076,0.051845,-0.01992));
#1441=CARTESIAN_POINT('',(0.076,0.01,-0.01992));
#1442=CARTESIAN_POINT('',(0.076,0.01,-0.01992));
#1443=CARTESIAN_POINT('',(0.076,0.01,0.));
#1444=CARTESIAN_POINT('',(0.076,0.01,0.01992));
#1445=CARTESIAN_POINT('',(0.076,0.01,0.01992));
#1446=CARTESIAN_POINT('',(0.076,0.051845,0.01992));
#1447=CARTESIAN_POINT('',(0.076,0.05492,0.01992));
#1448=CARTESIAN_POINT('',(0.076,0.057995,0.01992));
#1449=CARTESIAN_POINT('',(0.076,0.01,0.01992));
#1450=CARTESIAN_POINT('',(0.076,0.06,0.01992));
#1451=CARTESIAN_POINT('',(0.076,0.06,0.));
#1452=CARTESIAN_POINT('',(0.076,0.06,0.0025));
#1453=CARTESIAN_POINT('',(0.076,0.057,0.0025));
#1454=CARTESIAN_POINT('',(1.38777878078145E-17,0.06,0.025));
#1455=CARTESIAN_POINT('',(-0.0715,0.06,-0.01792));
#1456=CARTESIAN_POINT('',(-0.07,0.06,-0.01792));
#1457=CARTESIAN_POINT('',(-0.073,0.06,-0.01792));
#1458=CARTESIAN_POINT('',(-0.07,0.06,0.));
#1459=CARTESIAN_POINT('',(-0.07,0.06,-0.01992));
#1460=CARTESIAN_POINT('',(1.38777878078145E-17,0.06,-0.01992));
#1461=CARTESIAN_POINT('',(-0.0740131128624862,0.06,-0.01992));
#1462=CARTESIAN_POINT('',(-0.0740131128624862,0.06,0.025));
#1463=CARTESIAN_POINT('',(-0.0740131128624862,0.06,0.01992));
#1464=CARTESIAN_POINT('',(0.08,0.06,0.01992));
#1465=CARTESIAN_POINT('',(-0.07,0.06,0.01992));
#1466=CARTESIAN_POINT('',(-0.07,0.06,0.));
#1467=CARTESIAN_POINT('',(-0.07,0.06,0.01792));
#1468=CARTESIAN_POINT('',(-0.0715,0.06,0.01792));
#1469=CARTESIAN_POINT('',(-0.073,0.06,0.01792));
#1470=CARTESIAN_POINT('',(-0.073,0.06,0.01542));
#1471=CARTESIAN_POINT('',(-0.073,0.06,0.01292));
#1472=CARTESIAN_POINT('',(-0.0715,0.06,0.01292));
#1473=CARTESIAN_POINT('',(-0.07,0.06,0.01292));
#1474=CARTESIAN_POINT('',(-0.07,0.06,0.));
#1475=CARTESIAN_POINT('',(-0.07,0.06,-0.01292));
#1476=CARTESIAN_POINT('',(-0.0715,0.06,-0.01292));
#1477=CARTESIAN_POINT('',(-0.073,0.06,-0.01292));
#1478=CARTESIAN_POINT('',(-0.073,0.06,-0.01542));
#1479=CARTESIAN_POINT('',(-8.67361737988404E-19,0.01,0.));
#1480=CARTESIAN_POINT('',(1.82145964977565E-17,0.01,-0.01992));
#1481=CARTESIAN_POINT('',(-0.00790022127396324,0.01,-0.01992));
#1482=CARTESIAN_POINT('',(-0.00790022127396324,0.01,0.));
#1483=CARTESIAN_POINT('',(-0.00790022127396324,0.01,0.01992));
#1484=CARTESIAN_POINT('',(0.08,0.01,0.01992));
#1485=CARTESIAN_POINT('',(0.08,0.03,0.025));
#1486=CARTESIAN_POINT('',(0.08,0.03,0.));
#1487=CARTESIAN_POINT('',(0.08,0.0123,0.));
#1488=CARTESIAN_POINT('',(0.08,0.05492,0.01992));
#1489=CARTESIAN_POINT('',(0.08,0.051845,0.01992));
#1490=CARTESIAN_POINT('',(0.08,0.00508,0.01992));
#1491=CARTESIAN_POINT('',(0.08,0.002005,0.01992));
#1492=CARTESIAN_POINT('',(0.08,0.03,0.025));
#1493=CARTESIAN_POINT('',(0.08,0.00508,0.025));
#1494=CARTESIAN_POINT('',(0.08,0.05492,0.025));
#1495=CARTESIAN_POINT('',(0.08,0.00508,0.01992));
#1496=CARTESIAN_POINT('',(0.08,0.,0.01992));
#1497=CARTESIAN_POINT('',(0.08,0.,0.025));
#1498=CARTESIAN_POINT('',(0.08,0.,-0.01992));
#1499=CARTESIAN_POINT('',(0.08,0.00508,-0.01992));
#1500=CARTESIAN_POINT('',(0.08,0.00508,-0.025));
#1501=CARTESIAN_POINT('',(0.08,0.03,-0.025));
#1502=CARTESIAN_POINT('',(0.08,0.05492,-0.025));
#1503=CARTESIAN_POINT('',(0.08,0.05492,-0.01992));
#1504=CARTESIAN_POINT('',(0.08,0.06,-0.01992));
#1505=CARTESIAN_POINT('',(0.08,0.06,0.025));
#1506=CARTESIAN_POINT('',(0.08,0.06,0.01992));
#1507=CARTESIAN_POINT('',(0.08,0.05492,0.01992));
#1508=CARTESIAN_POINT('',(0.08,0.05492,-0.01992));
#1509=CARTESIAN_POINT('',(0.08,0.051845,-0.01992));
#1510=CARTESIAN_POINT('',(0.08,0.00508,-0.01992));
#1511=CARTESIAN_POINT('',(0.08,0.002005,-0.01992));
#1512=CARTESIAN_POINT('',(1.82145964977565E-17,0.01,-0.01992));
#1513=CARTESIAN_POINT('',(0.0698,0.057995,-0.01992));
#1514=CARTESIAN_POINT('',(0.0698,0.057995,-0.01992));
#1515=CARTESIAN_POINT('',(1.38777878078145E-17,0.06,-0.01992));
#1516=CARTESIAN_POINT('',(-0.07,0.01,-0.01992));
#1517=CARTESIAN_POINT('',(-0.07,0.01,-0.01992));
#1518=CARTESIAN_POINT('',(1.82145964977565E-17,0.01,-0.01992));
#1519=CARTESIAN_POINT('',(-0.06,0.01,-0.01992));
#1520=CARTESIAN_POINT('',(-0.06,-0.020988,-0.01992));
#1521=CARTESIAN_POINT('',(-0.06,-0.020988,-0.01992));
#1522=CARTESIAN_POINT('',(2.09023770514349E-17,-0.020988,-0.01992));
#1523=CARTESIAN_POINT('',(-0.0379002212739633,-0.020988,-0.01992));
#1524=CARTESIAN_POINT('',(-0.0379002212739633,-0.020988,-0.01992));
#1525=CARTESIAN_POINT('',(-0.0379002212739633,-0.02,-0.01992));
#1526=CARTESIAN_POINT('',(-0.00395011063698161,0.0139501106369816,-0.01992));
#1527=CARTESIAN_POINT('',(0.0698,0.051845,-0.01992));
#1528=CARTESIAN_POINT('',(0.0698,0.051845,-0.01992));
#1529=CARTESIAN_POINT('',(0.0698,0.01,-0.01992));
#1530=CARTESIAN_POINT('',(-0.00957500812066269,-0.017558018255102,0.025));
#1531=CARTESIAN_POINT('',(0.0147502050326378,-3.46944695195361E-18,0.025));
#1532=CARTESIAN_POINT('',(0.0147502050326378,-3.46944695195361E-18,0.01992));
#1533=CARTESIAN_POINT('',(0.0147502050326378,-3.46944695195361E-18,-0.01992));
#1534=CARTESIAN_POINT('',(-0.0339002212739632,-0.035116036510204,0.01992));
#1535=CARTESIAN_POINT('',(-0.0329321115036286,-0.0344172517179247,0.01992));
#1536=CARTESIAN_POINT('',(-0.0329321115036286,-0.0344172517179247,0.025));
#1537=CARTESIAN_POINT('',(-0.0329321115036286,-0.0344172517179247,-0.01992));
#1538=CARTESIAN_POINT('',(-0.00957500812066269,-0.017558018255102,-0.01992));
#1539=CARTESIAN_POINT('',(0.0473751025163189,0.,0.025));
#1540=CARTESIAN_POINT('',(0.0147502050326378,0.,0.01992));
#1541=CARTESIAN_POINT('',(0.0473751025163189,0.,-0.01992));
#1542=CARTESIAN_POINT('',(1.38777878078145E-17,0.06,0.025));
#1543=CARTESIAN_POINT('',(0.0775,0.06,-0.0025));
#1544=CARTESIAN_POINT('',(0.079,0.06,-0.0025));
#1545=CARTESIAN_POINT('',(0.079,0.06,0.));
#1546=CARTESIAN_POINT('',(0.079,0.06,0.0025));
#1547=CARTESIAN_POINT('',(0.0775,0.06,0.0025));
#1548=CARTESIAN_POINT('',(0.08,0.06,0.01992));
#1549=CARTESIAN_POINT('',(1.38777878078145E-17,0.06,-0.01992));
#1550=CARTESIAN_POINT('',(-0.07175,0.01,0.025));
#1551=CARTESIAN_POINT('',(-0.0790253420600951,0.0540929821823945,0.025));
#1552=CARTESIAN_POINT('',(-0.0790253420600951,0.0540929821823945,0.01992));
#1553=CARTESIAN_POINT('',(-0.0790253420600951,0.0540929821823945,-0.01992));
#1554=CARTESIAN_POINT('',(-0.07175,0.01,-0.01992));
#1555=CARTESIAN_POINT('',(-0.0643270178176055,-0.0349877708023911,-0.01992));
#1556=CARTESIAN_POINT('',(-0.0643270178176055,-0.0349877708023911,0.025));
#1557=CARTESIAN_POINT('',(-0.0643270178176055,-0.0349877708023911,0.01992));
#1558=CARTESIAN_POINT('',(-0.0791618,0.05492,0.01992));
#1559=CARTESIAN_POINT('',(-0.0487001106369816,-0.037558018255102,0.025));
#1560=CARTESIAN_POINT('',(-0.0487001106369816,-0.037558018255102,-0.01992));
#1561=CARTESIAN_POINT('',(-0.0584877708023911,-0.0391729821823946,-0.01992));
#1562=CARTESIAN_POINT('',(-0.0350782514438871,-0.0353104114882414,-0.01992));
#1563=CARTESIAN_POINT('',(-0.0350782514438871,-0.0353104114882414,0.025));
#1564=CARTESIAN_POINT('',(-0.0350782514438871,-0.0353104114882414,0.01992));
#1565=CARTESIAN_POINT('',(-0.0635,-0.04,0.01992));
#1566=CARTESIAN_POINT('',(-0.0584877708023911,-0.0391729821823946,0.01992));
#1567=CARTESIAN_POINT('',(-0.0584877708023911,-0.0391729821823946,0.025));
#1568=CARTESIAN_POINT('',(0.,0.01,0.025));
#1569=CARTESIAN_POINT('',(0.018814976101557,0.00919906942729223,0.025));
#1570=CARTESIAN_POINT('',(-0.0359052692614925,-0.0302981822906325,0.025));
#1571=CARTESIAN_POINT('',(0.0131083388059151,0.00508,0.025));
#1572=CARTESIAN_POINT('',(0.08,0.00508,0.025));
#1573=CARTESIAN_POINT('',(-0.08,0.05492,0.025));
#1574=CARTESIAN_POINT('',(-0.0740131128624862,0.05492,0.025));
#1575=CARTESIAN_POINT('',(-0.0584877708023911,-0.0391729821823946,0.025));
#1576=CARTESIAN_POINT('',(-0.0593147886199966,-0.0341607529847857,0.025));
#1577=CARTESIAN_POINT('',(-0.0347272390915687,-0.0301038073125951,0.025));
#1578=CARTESIAN_POINT('',(0.,0.01,-0.025));
#1579=CARTESIAN_POINT('',(0.,0.00508,-0.025));
#1580=CARTESIAN_POINT('',(0.0131083388059151,0.00508,-0.025));
#1581=CARTESIAN_POINT('',(0.00682492851854443,0.000544613944606653,-0.025));
#1582=CARTESIAN_POINT('',(-0.0359052692614925,-0.0302981822906325,-0.025));
#1583=CARTESIAN_POINT('',(0.00552136009375768,-0.0234627884470162,-0.025));
#1584=CARTESIAN_POINT('',(-0.0593147886199966,-0.0341607529847857,-0.025));
#1585=CARTESIAN_POINT('',(-0.0648361487137543,-0.000697964537769474,-0.025));
#1586=CARTESIAN_POINT('',(-0.0740131128624862,0.05492,-0.025));
#1587=CARTESIAN_POINT('',(-3.89618892704391E-18,0.05492,-0.025));
#1588=CARTESIAN_POINT('',(0.,0.00508,0.01992));
#1589=CARTESIAN_POINT('',(0.0131083388059151,0.00508,0.01992));
#1590=CARTESIAN_POINT('',(0.0473751025163189,0.00508,-0.01992));
#1591=CARTESIAN_POINT('',(0.0131083388059151,0.00508,-0.01992));
#1592=CARTESIAN_POINT('',(1.43184075707126E-17,0.05492,-0.01992));
#1593=CARTESIAN_POINT('',(-0.0740131128624862,0.05492,-0.01992));
#1594=CARTESIAN_POINT('',(-3.89618892704391E-18,0.05492,0.01992));
#1595=CARTESIAN_POINT('',(-0.0740131128624862,0.05492,0.01992));
#1596=CARTESIAN_POINT('',(0.08,0.06,0.01992));
#1597=CARTESIAN_POINT('',(-0.07,0.01,0.));
#1598=CARTESIAN_POINT('',(-0.07,0.057,0.));
#1599=CARTESIAN_POINT('',(-0.07,0.057,-0.01792));
#1600=CARTESIAN_POINT('',(-0.07,0.057,-0.01292));
#1601=CARTESIAN_POINT('',(-0.07,0.057,-0.01292));
#1602=CARTESIAN_POINT('',(-0.07,0.057,0.01292));
#1603=CARTESIAN_POINT('',(-0.07,0.057,0.01292));
#1604=CARTESIAN_POINT('',(-0.07,0.057,0.));
#1605=CARTESIAN_POINT('',(-0.07,0.057,0.01792));
#1606=CARTESIAN_POINT('',(-0.07,0.057,0.01792));
#1607=CARTESIAN_POINT('',(-0.07,0.01,0.01992));
#1608=CARTESIAN_POINT('',(-0.07,0.01,0.01992));
#1609=CARTESIAN_POINT('',(-0.07,0.01,0.));
#1610=CARTESIAN_POINT('',(-0.07,0.057,-0.01792));
#1611=CARTESIAN_POINT('',(0.08,0.01,0.01992));
#1612=CARTESIAN_POINT('',(0.0698,0.01,0.01992));
#1613=CARTESIAN_POINT('',(0.0698,0.051845,0.01992));
#1614=CARTESIAN_POINT('',(0.0698,0.057995,0.01992));
#1615=CARTESIAN_POINT('',(0.0698,0.051845,0.01992));
#1616=CARTESIAN_POINT('',(0.0360498893630183,0.0539501106369816,0.01992));
#1617=CARTESIAN_POINT('',(-0.0379002212739633,-0.02,0.01992));
#1618=CARTESIAN_POINT('',(-0.0379002212739633,-0.020988,0.01992));
#1619=CARTESIAN_POINT('',(-0.0379002212739633,-0.020988,0.01992));
#1620=CARTESIAN_POINT('',(0.08,-0.020988,0.01992));
#1621=CARTESIAN_POINT('',(-0.06,-0.020988,0.01992));
#1622=CARTESIAN_POINT('',(-0.06,-0.020988,0.01992));
#1623=CARTESIAN_POINT('',(-0.06,0.01,0.01992));
#1624=CARTESIAN_POINT('',(0.08,0.01,0.01992));
#1625=CARTESIAN_POINT('',(0.0698,0.057995,0.01992));
#1626=CARTESIAN_POINT('',(-8.67361737988404E-19,0.01,0.));
#1627=CARTESIAN_POINT('',(-0.06,0.01,0.));
#1628=CARTESIAN_POINT('',(0.0698,0.03,0.));
#1629=CARTESIAN_POINT('',(0.0698,0.05492,0.01992));
#1630=CARTESIAN_POINT('',(0.0698,0.05492,0.01992));
#1631=CARTESIAN_POINT('',(0.0698,0.03,0.));
#1632=CARTESIAN_POINT('',(0.0698,0.05492,-0.01992));
#1633=CARTESIAN_POINT('',(0.0698,0.05492,-0.01992));
#1634=CARTESIAN_POINT('',(0.0698,0.00508,0.01992));
#1635=CARTESIAN_POINT('',(0.0698,0.00508,0.01992));
#1636=CARTESIAN_POINT('',(0.0698,0.002005,0.01992));
#1637=CARTESIAN_POINT('',(0.0698,0.03,0.));
#1638=CARTESIAN_POINT('',(0.0698,0.00508,-0.01992));
#1639=CARTESIAN_POINT('',(0.0698,0.00508,-0.01992));
#1640=CARTESIAN_POINT('',(0.0698,0.002005,-0.01992));
#1641=CARTESIAN_POINT('',(0.0698,0.03,0.));
#1642=CARTESIAN_POINT('',(-0.0740131128624862,0.05492,0.025));
#1643=CARTESIAN_POINT('',(-0.0740131128624862,0.05492,0.01992));
#1644=CARTESIAN_POINT('',(-0.0740131128624862,0.05492,-0.01992));
#1645=CARTESIAN_POINT('',(-0.0740131128624862,0.05492,0.01992));
#1646=CARTESIAN_POINT('',(-0.0740131128624862,0.05492,0.01992));
#1647=CARTESIAN_POINT('',(-0.0740131128624862,0.05492,-0.01992));
#1648=CARTESIAN_POINT('',(-0.0740131128624862,0.05492,-0.01992));
#1649=CARTESIAN_POINT('',(-0.0648361487137543,-0.000697964537769474,0.01992));
#1650=CARTESIAN_POINT('',(-0.0593147886199966,-0.0341607529847857,0.01992));
#1651=CARTESIAN_POINT('',(-0.0667377708023911,0.0108270178176054,-0.01992));
#1652=CARTESIAN_POINT('',(-0.0593147886199966,-0.0341607529847857,-0.01992));
#1653=CARTESIAN_POINT('',(-0.0593147886199966,-0.0341607529847857,0.025));
#1654=CARTESIAN_POINT('',(-0.0593147886199966,-0.0341607529847857,0.01992));
#1655=CARTESIAN_POINT('',(-0.0593147886199966,-0.0341607529847857,-0.01992));
#1656=CARTESIAN_POINT('',(-0.0593147886199966,-0.0341607529847857,0.01992));
#1657=CARTESIAN_POINT('',(-0.0593147886199966,-0.0341607529847857,0.01992));
#1658=CARTESIAN_POINT('',(-0.0593147886199966,-0.0341607529847857,-0.01992));
#1659=CARTESIAN_POINT('',(-0.0593147886199966,-0.0341607529847857,-0.01992));
#1660=CARTESIAN_POINT('',(0.00552136009375768,-0.0234627884470162,0.01992));
#1661=CARTESIAN_POINT('',(-0.0359052692614925,-0.0302981822906325,0.01992));
#1662=CARTESIAN_POINT('',(0.00682492851854443,0.000544613944606651,0.01992));
#1663=CARTESIAN_POINT('',(-0.0359052692614925,-0.0302981822906325,0.01992));
#1664=CARTESIAN_POINT('',(-0.0125481658785266,-0.0134389488278098,-0.01992));
#1665=CARTESIAN_POINT('',(-0.0359052692614925,-0.0302981822906325,-0.01992));
#1666=CARTESIAN_POINT('',(-0.0495271284545871,-0.0325457890574931,-0.01992));
#1667=CARTESIAN_POINT('',(-0.0359052692614925,-0.0302981822906325,-0.01992));
#1668=CARTESIAN_POINT('',(-0.0359052692614925,-0.0302981822906325,0.01992));
#1669=CARTESIAN_POINT('',(-0.0359052692614925,-0.0302981822906325,0.01992));
#1670=CARTESIAN_POINT('',(-0.0359052692614925,-0.0302981822906325,-0.01992));
#1671=CARTESIAN_POINT('',(-0.0359052692614925,-0.0302981822906325,-0.01992));
#1672=CARTESIAN_POINT('',(-0.0359052692614925,-0.0302981822906325,0.025));
#1673=CARTESIAN_POINT('',(-0.06,-0.020988,0.));
#1674=CARTESIAN_POINT('',(-0.06,-0.020988,0.));
#1675=CARTESIAN_POINT('',(-0.0379002212739633,-0.020988,0.));
#1676=CARTESIAN_POINT('',(-0.0379002212739633,-0.02,0.));
#1677=CARTESIAN_POINT('',(-0.0379002212739633,-0.020988,0.));
#1678=CARTESIAN_POINT('',(0.003,-0.020988,0.));
#1679=CARTESIAN_POINT('',(-0.00790022127396324,0.01,0.));
#1680=CARTESIAN_POINT('',(0.075,0.03,0.));
#1681=CARTESIAN_POINT('',(-0.0715,0.057,0.01792));
#1682=CARTESIAN_POINT('',(-0.0715,0.057,0.01792));
#1683=CARTESIAN_POINT('',(-0.073,0.057,0.01792));
#1684=CARTESIAN_POINT('',(-0.073,0.057,0.01792));
#1685=CARTESIAN_POINT('',(-0.0715,0.057,0.01292));
#1686=CARTESIAN_POINT('',(-0.073,0.057,0.01292));
#1687=CARTESIAN_POINT('',(-0.073,0.057,0.01292));
#1688=CARTESIAN_POINT('',(-0.0715,0.057,0.01292));
#1689=CARTESIAN_POINT('',(-0.073,0.057,0.01542));
#1690=CARTESIAN_POINT('',(-0.073,0.057,0.01542));
#1691=CARTESIAN_POINT('',(0.0024934435687569,0.057,0.));
#1692=CARTESIAN_POINT('',(-0.0715,0.057,-0.01792));
#1693=CARTESIAN_POINT('',(-0.073,0.057,-0.01792));
#1694=CARTESIAN_POINT('',(-0.073,0.057,-0.01792));
#1695=CARTESIAN_POINT('',(-0.0715,0.057,-0.01792));
#1696=CARTESIAN_POINT('',(-0.073,0.057,-0.01542));
#1697=CARTESIAN_POINT('',(-0.073,0.057,-0.01292));
#1698=CARTESIAN_POINT('',(-0.073,0.057,-0.01292));
#1699=CARTESIAN_POINT('',(-0.073,0.057,-0.01542));
#1700=CARTESIAN_POINT('',(-0.0715,0.057,-0.01292));
#1701=CARTESIAN_POINT('',(-0.0715,0.057,-0.01292));
#1702=CARTESIAN_POINT('',(0.0024934435687569,0.057,0.));
#1703=CARTESIAN_POINT('',(0.0775,0.057,-0.0025));
#1704=CARTESIAN_POINT('',(0.0775,0.057,-0.0025));
#1705=CARTESIAN_POINT('',(0.079,0.057,-0.0025));
#1706=CARTESIAN_POINT('',(0.079,0.057,-0.0025));
#1707=CARTESIAN_POINT('',(0.0775,0.057,0.0025));
#1708=CARTESIAN_POINT('',(0.079,0.057,0.0025));
#1709=CARTESIAN_POINT('',(0.079,0.057,0.0025));
#1710=CARTESIAN_POINT('',(0.0775,0.057,0.0025));
#1711=CARTESIAN_POINT('',(0.079,0.057,0.));
#1712=CARTESIAN_POINT('',(0.079,0.057,0.));
#1713=CARTESIAN_POINT('',(0.0024934435687569,0.057,0.));
#1714=MECHANICAL_DESIGN_GEOMETRIC_PRESENTATION_REPRESENTATION('',(#1023),
#1715);
#1715=(
GEOMETRIC_REPRESENTATION_CONTEXT(3)
GLOBAL_UNCERTAINTY_ASSIGNED_CONTEXT((#1716))
GLOBAL_UNIT_ASSIGNED_CONTEXT((#1719,#1718,#1717))
REPRESENTATION_CONTEXT('Part 1','TOP_LEVEL_ASSEMBLY_PART')
);
#1716=UNCERTAINTY_MEASURE_WITH_UNIT(LENGTH_MEASURE(1.E-8),#1719,
'DISTANCE_ACCURACY_VALUE','Maximum Tolerance applied to model');
#1717=(
NAMED_UNIT(*)
SI_UNIT($,.STERADIAN.)
SOLID_ANGLE_UNIT()
);
#1718=(
NAMED_UNIT(*)
PLANE_ANGLE_UNIT()
SI_UNIT($,.RADIAN.)
);
#1719=(
LENGTH_UNIT()
NAMED_UNIT(*)
SI_UNIT($,.METRE.)
);
#1720=PRODUCT_DEFINITION_SHAPE('','',#1721);
#1721=PRODUCT_DEFINITION('','',#1723,#1722);
#1722=PRODUCT_DEFINITION_CONTEXT('',#1729,'design');
#1723=PRODUCT_DEFINITION_FORMATION_WITH_SPECIFIED_SOURCE('','',#1725,
 .NOT_KNOWN.);
#1724=PRODUCT_RELATED_PRODUCT_CATEGORY('','',(#1725));
#1725=PRODUCT('Part 1','Part 1','Part 1',(#1727));
#1726=PRODUCT_CATEGORY('','');
#1727=PRODUCT_CONTEXT('',#1729,'mechanical');
#1728=APPLICATION_PROTOCOL_DEFINITION('international standard',
'ap242_managed_model_based_3d_engineering',2020,#1729);
#1729=APPLICATION_CONTEXT('managed model based 3d engineering');
ENDSEC;
END-ISO-10303-21;
