ISO-10303-21;
HEADER;
/* Generated by software containing ST-Developer
 * from STEP Tools, Inc. (www.steptools.com) 
 */
/* OPTION: using custom renumber hook */

FILE_DESCRIPTION(
/* description */ ('STEP AP242 Edition 2',
'CAx-IF Rec.Pracs.---Representation and Presentation of Product Manufa
cturing Information (PMI)---4.0---2014-10-13',
'CAx-IF Rec.Pracs.---3D Tessellated Geometry---0.4---2014-09-14','2;1',
'CAx-IF Rec.Pracs.---User Defined Attributes---1.5---2016-08-15'),
/* implementation_level */ '2;1');

FILE_NAME(
/* name */ 'Inside Barrel',
/* time_stamp */ '2026-06-24T13:27:18Z',
/* author */ (''),
/* organization */ (''),
/* preprocessor_version */ 'ST-DEVELOPER v20',
/* originating_system */ 'ONSHAPE BY PTC INC, 1.216',
/* authorisation */ '  ');

FILE_SCHEMA (('AP242_MANAGED_MODEL_BASED_3D_ENGINEERING_MIM_LF { 1 0 10303 442 3 1 4 }'));
ENDSEC;

DATA;
#10=SHAPE_REPRESENTATION_RELATIONSHIP('','',#370,#11);
#11=ADVANCED_BREP_SHAPE_REPRESENTATION('',(#368),#624);
#12=PLANE('',#385);
#13=PLANE('',#386);
#14=PLANE('',#391);
#15=PLANE('',#392);
#16=PLANE('',#393);
#17=PLANE('',#394);
#18=PLANE('',#395);
#19=PLANE('',#396);
#20=PLANE('',#397);
#21=PLANE('',#400);
#22=PLANE('',#401);
#23=PLANE('',#402);
#24=PLANE('',#403);
#25=PLANE('',#405);
#26=PLANE('',#406);
#27=B_SPLINE_CURVE_WITH_KNOTS('',3,(#549,#550,#551,#552,#553,#554,#555,
#556,#557,#558,#559),.UNSPECIFIED.,.T.,.F.,(1,1,1,1,1,1,1,1,1,1,1,1,1,1,
1),(-0.00822663148497126,-0.00548442098998084,-0.00274221049499042,0.,0.00274221049499042,
0.00548442098998084,0.00822663148497126,0.0109688419799617,0.0137110524749521,
0.0164532629699425,0.0191954734649329,0.0219376839599234,0.0246798944549138,
0.0274221049499042,0.0301643154448946),.UNSPECIFIED.);
#28=LINE('',#516,#58);
#29=LINE('',#521,#59);
#30=LINE('',#524,#60);
#31=LINE('',#529,#61);
#32=LINE('',#533,#62);
#33=LINE('',#537,#63);
#34=LINE('',#541,#64);
#35=LINE('',#546,#65);
#36=LINE('',#570,#66);
#37=LINE('',#571,#67);
#38=LINE('',#575,#68);
#39=LINE('',#576,#69);
#40=LINE('',#582,#70);
#41=LINE('',#584,#71);
#42=LINE('',#586,#72);
#43=LINE('',#588,#73);
#44=LINE('',#590,#74);
#45=LINE('',#592,#75);
#46=LINE('',#594,#76);
#47=LINE('',#595,#77);
#48=LINE('',#597,#78);
#49=LINE('',#598,#79);
#50=LINE('',#602,#80);
#51=LINE('',#606,#81);
#52=LINE('',#608,#82);
#53=LINE('',#609,#83);
#54=LINE('',#613,#84);
#55=LINE('',#617,#85);
#56=LINE('',#619,#86);
#57=LINE('',#621,#87);
#58=VECTOR('',#414,1.);
#59=VECTOR('',#417,1.);
#60=VECTOR('',#420,1.);
#61=VECTOR('',#423,1.);
#62=VECTOR('',#426,1.);
#63=VECTOR('',#429,1.);
#64=VECTOR('',#434,1.);
#65=VECTOR('',#437,1.);
#66=VECTOR('',#450,1.);
#67=VECTOR('',#451,1.);
#68=VECTOR('',#454,1.);
#69=VECTOR('',#455,1.);
#70=VECTOR('',#464,1.);
#71=VECTOR('',#465,1.);
#72=VECTOR('',#466,1.);
#73=VECTOR('',#469,1.);
#74=VECTOR('',#470,1.);
#75=VECTOR('',#471,1.);
#76=VECTOR('',#474,1.);
#77=VECTOR('',#475,1.);
#78=VECTOR('',#478,1.);
#79=VECTOR('',#479,1.);
#80=VECTOR('',#486,1.);
#81=VECTOR('',#489,1.);
#82=VECTOR('',#492,1.);
#83=VECTOR('',#493,1.);
#84=VECTOR('',#500,1.);
#85=VECTOR('',#503,1.);
#86=VECTOR('',#506,1.);
#87=VECTOR('',#509,1.);
#88=ORIENTED_EDGE('',*,*,#182,.T.);
#89=ORIENTED_EDGE('',*,*,#183,.F.);
#90=ORIENTED_EDGE('',*,*,#184,.T.);
#91=ORIENTED_EDGE('',*,*,#185,.F.);
#92=ORIENTED_EDGE('',*,*,#186,.F.);
#93=ORIENTED_EDGE('',*,*,#187,.F.);
#94=ORIENTED_EDGE('',*,*,#188,.F.);
#95=ORIENTED_EDGE('',*,*,#189,.F.);
#96=ORIENTED_EDGE('',*,*,#190,.F.);
#97=ORIENTED_EDGE('',*,*,#191,.T.);
#98=ORIENTED_EDGE('',*,*,#192,.F.);
#99=ORIENTED_EDGE('',*,*,#193,.T.);
#100=ORIENTED_EDGE('',*,*,#194,.F.);
#101=ORIENTED_EDGE('',*,*,#195,.F.);
#102=ORIENTED_EDGE('',*,*,#196,.T.);
#103=ORIENTED_EDGE('',*,*,#197,.T.);
#104=ORIENTED_EDGE('',*,*,#198,.F.);
#105=ORIENTED_EDGE('',*,*,#199,.T.);
#106=ORIENTED_EDGE('',*,*,#200,.F.);
#107=ORIENTED_EDGE('',*,*,#201,.T.);
#108=ORIENTED_EDGE('',*,*,#182,.F.);
#109=ORIENTED_EDGE('',*,*,#200,.T.);
#110=ORIENTED_EDGE('',*,*,#202,.F.);
#111=ORIENTED_EDGE('',*,*,#203,.T.);
#112=ORIENTED_EDGE('',*,*,#188,.T.);
#113=ORIENTED_EDGE('',*,*,#204,.T.);
#114=ORIENTED_EDGE('',*,*,#205,.F.);
#115=ORIENTED_EDGE('',*,*,#206,.F.);
#116=ORIENTED_EDGE('',*,*,#192,.T.);
#117=ORIENTED_EDGE('',*,*,#207,.F.);
#118=ORIENTED_EDGE('',*,*,#201,.F.);
#119=ORIENTED_EDGE('',*,*,#208,.T.);
#120=ORIENTED_EDGE('',*,*,#199,.F.);
#121=ORIENTED_EDGE('',*,*,#208,.F.);
#122=ORIENTED_EDGE('',*,*,#195,.T.);
#123=ORIENTED_EDGE('',*,*,#209,.T.);
#124=ORIENTED_EDGE('',*,*,#210,.F.);
#125=ORIENTED_EDGE('',*,*,#211,.F.);
#126=ORIENTED_EDGE('',*,*,#212,.T.);
#127=ORIENTED_EDGE('',*,*,#213,.T.);
#128=ORIENTED_EDGE('',*,*,#214,.F.);
#129=ORIENTED_EDGE('',*,*,#197,.F.);
#130=ORIENTED_EDGE('',*,*,#211,.T.);
#131=ORIENTED_EDGE('',*,*,#215,.T.);
#132=ORIENTED_EDGE('',*,*,#184,.F.);
#133=ORIENTED_EDGE('',*,*,#216,.T.);
#134=ORIENTED_EDGE('',*,*,#212,.F.);
#135=ORIENTED_EDGE('',*,*,#196,.F.);
#136=ORIENTED_EDGE('',*,*,#198,.T.);
#137=ORIENTED_EDGE('',*,*,#214,.T.);
#138=ORIENTED_EDGE('',*,*,#217,.F.);
#139=ORIENTED_EDGE('',*,*,#186,.T.);
#140=ORIENTED_EDGE('',*,*,#218,.F.);
#141=ORIENTED_EDGE('',*,*,#209,.F.);
#142=ORIENTED_EDGE('',*,*,#183,.T.);
#143=ORIENTED_EDGE('',*,*,#217,.T.);
#144=ORIENTED_EDGE('',*,*,#213,.F.);
#145=ORIENTED_EDGE('',*,*,#216,.F.);
#146=ORIENTED_EDGE('',*,*,#185,.T.);
#147=ORIENTED_EDGE('',*,*,#215,.F.);
#148=ORIENTED_EDGE('',*,*,#210,.T.);
#149=ORIENTED_EDGE('',*,*,#218,.T.);
#150=ORIENTED_EDGE('',*,*,#205,.T.);
#151=ORIENTED_EDGE('',*,*,#219,.F.);
#152=ORIENTED_EDGE('',*,*,#220,.F.);
#153=ORIENTED_EDGE('',*,*,#221,.T.);
#154=ORIENTED_EDGE('',*,*,#194,.T.);
#155=ORIENTED_EDGE('',*,*,#222,.T.);
#156=ORIENTED_EDGE('',*,*,#220,.T.);
#157=ORIENTED_EDGE('',*,*,#223,.F.);
#158=ORIENTED_EDGE('',*,*,#206,.T.);
#159=ORIENTED_EDGE('',*,*,#221,.F.);
#160=ORIENTED_EDGE('',*,*,#222,.F.);
#161=ORIENTED_EDGE('',*,*,#193,.F.);
#162=ORIENTED_EDGE('',*,*,#187,.T.);
#163=ORIENTED_EDGE('',*,*,#223,.T.);
#164=ORIENTED_EDGE('',*,*,#219,.T.);
#165=ORIENTED_EDGE('',*,*,#204,.F.);
#166=ORIENTED_EDGE('',*,*,#190,.T.);
#167=ORIENTED_EDGE('',*,*,#224,.F.);
#168=ORIENTED_EDGE('',*,*,#225,.T.);
#169=ORIENTED_EDGE('',*,*,#226,.T.);
#170=ORIENTED_EDGE('',*,*,#189,.T.);
#171=ORIENTED_EDGE('',*,*,#203,.F.);
#172=ORIENTED_EDGE('',*,*,#227,.F.);
#173=ORIENTED_EDGE('',*,*,#224,.T.);
#174=ORIENTED_EDGE('',*,*,#226,.F.);
#175=ORIENTED_EDGE('',*,*,#228,.T.);
#176=ORIENTED_EDGE('',*,*,#207,.T.);
#177=ORIENTED_EDGE('',*,*,#191,.F.);
#178=ORIENTED_EDGE('',*,*,#202,.T.);
#179=ORIENTED_EDGE('',*,*,#228,.F.);
#180=ORIENTED_EDGE('',*,*,#225,.F.);
#181=ORIENTED_EDGE('',*,*,#227,.T.);
#182=EDGE_CURVE('',#229,#229,#262,.T.);
#183=EDGE_CURVE('',#230,#231,#28,.F.);
#184=EDGE_CURVE('',#230,#232,#263,.F.);
#185=EDGE_CURVE('',#233,#232,#29,.T.);
#186=EDGE_CURVE('',#231,#233,#264,.F.);
#187=EDGE_CURVE('',#234,#235,#30,.T.);
#188=EDGE_CURVE('',#236,#234,#265,.T.);
#189=EDGE_CURVE('',#237,#236,#31,.F.);
#190=EDGE_CURVE('',#238,#237,#266,.F.);
#191=EDGE_CURVE('',#238,#239,#32,.F.);
#192=EDGE_CURVE('',#240,#239,#267,.T.);
#193=EDGE_CURVE('',#240,#241,#33,.T.);
#194=EDGE_CURVE('',#235,#241,#268,.F.);
#195=EDGE_CURVE('',#242,#243,#34,.T.);
#196=EDGE_CURVE('',#242,#244,#269,.T.);
#197=EDGE_CURVE('',#244,#245,#35,.T.);
#198=EDGE_CURVE('',#243,#245,#270,.T.);
#199=EDGE_CURVE('',#246,#246,#27,.T.);
#200=EDGE_CURVE('',#247,#247,#271,.T.);
#201=EDGE_CURVE('',#248,#248,#272,.T.);
#202=EDGE_CURVE('',#249,#250,#273,.T.);
#203=EDGE_CURVE('',#249,#236,#36,.T.);
#204=EDGE_CURVE('',#234,#251,#37,.T.);
#205=EDGE_CURVE('',#252,#251,#274,.T.);
#206=EDGE_CURVE('',#240,#252,#38,.T.);
#207=EDGE_CURVE('',#250,#239,#39,.T.);
#208=EDGE_CURVE('',#253,#253,#275,.T.);
#209=EDGE_CURVE('',#243,#254,#40,.T.);
#210=EDGE_CURVE('',#255,#254,#41,.T.);
#211=EDGE_CURVE('',#242,#255,#42,.T.);
#212=EDGE_CURVE('',#244,#256,#43,.T.);
#213=EDGE_CURVE('',#256,#257,#44,.T.);
#214=EDGE_CURVE('',#245,#257,#45,.T.);
#215=EDGE_CURVE('',#255,#232,#46,.T.);
#216=EDGE_CURVE('',#230,#256,#47,.T.);
#217=EDGE_CURVE('',#231,#257,#48,.T.);
#218=EDGE_CURVE('',#254,#233,#49,.T.);
#219=EDGE_CURVE('',#258,#251,#50,.T.);
#220=EDGE_CURVE('',#259,#258,#276,.T.);
#221=EDGE_CURVE('',#259,#252,#51,.T.);
#222=EDGE_CURVE('',#241,#259,#52,.T.);
#223=EDGE_CURVE('',#235,#258,#53,.T.);
#224=EDGE_CURVE('',#260,#237,#54,.T.);
#225=EDGE_CURVE('',#260,#261,#277,.T.);
#226=EDGE_CURVE('',#261,#238,#55,.T.);
#227=EDGE_CURVE('',#260,#249,#56,.T.);
#228=EDGE_CURVE('',#261,#250,#57,.T.);
#229=VERTEX_POINT('',#515);
#230=VERTEX_POINT('',#517);
#231=VERTEX_POINT('',#518);
#232=VERTEX_POINT('',#520);
#233=VERTEX_POINT('',#522);
#234=VERTEX_POINT('',#525);
#235=VERTEX_POINT('',#526);
#236=VERTEX_POINT('',#528);
#237=VERTEX_POINT('',#530);
#238=VERTEX_POINT('',#532);
#239=VERTEX_POINT('',#534);
#240=VERTEX_POINT('',#536);
#241=VERTEX_POINT('',#538);
#242=VERTEX_POINT('',#542);
#243=VERTEX_POINT('',#543);
#244=VERTEX_POINT('',#545);
#245=VERTEX_POINT('',#547);
#246=VERTEX_POINT('',#560);
#247=VERTEX_POINT('',#562);
#248=VERTEX_POINT('',#564);
#249=VERTEX_POINT('',#568);
#250=VERTEX_POINT('',#569);
#251=VERTEX_POINT('',#572);
#252=VERTEX_POINT('',#574);
#253=VERTEX_POINT('',#579);
#254=VERTEX_POINT('',#583);
#255=VERTEX_POINT('',#585);
#256=VERTEX_POINT('',#589);
#257=VERTEX_POINT('',#591);
#258=VERTEX_POINT('',#603);
#259=VERTEX_POINT('',#605);
#260=VERTEX_POINT('',#614);
#261=VERTEX_POINT('',#616);
#262=CIRCLE('',#373,0.007);
#263=CIRCLE('',#374,0.007);
#264=CIRCLE('',#375,0.007);
#265=CIRCLE('',#376,0.007);
#266=CIRCLE('',#377,0.007);
#267=CIRCLE('',#378,0.007);
#268=CIRCLE('',#379,0.007);
#269=CIRCLE('',#381,0.0175);
#270=CIRCLE('',#382,0.0175);
#271=CIRCLE('',#383,0.0175);
#272=CIRCLE('',#384,0.0175);
#273=CIRCLE('',#387,0.00950186781609196);
#274=CIRCLE('',#388,0.00950186781609196);
#275=CIRCLE('',#390,0.0035);
#276=CIRCLE('',#399,0.00950186781609196);
#277=CIRCLE('',#404,0.00950186781609196);
#278=EDGE_LOOP('',(#88));
#279=EDGE_LOOP('',(#89,#90,#91,#92));
#280=EDGE_LOOP('',(#93,#94,#95,#96,#97,#98,#99,#100));
#281=EDGE_LOOP('',(#101,#102,#103,#104));
#282=EDGE_LOOP('',(#105));
#283=EDGE_LOOP('',(#106));
#284=EDGE_LOOP('',(#107));
#285=EDGE_LOOP('',(#108));
#286=EDGE_LOOP('',(#109));
#287=EDGE_LOOP('',(#110,#111,#112,#113,#114,#115,#116,#117));
#288=EDGE_LOOP('',(#118));
#289=EDGE_LOOP('',(#119));
#290=EDGE_LOOP('',(#120));
#291=EDGE_LOOP('',(#121));
#292=EDGE_LOOP('',(#122,#123,#124,#125));
#293=EDGE_LOOP('',(#126,#127,#128,#129));
#294=EDGE_LOOP('',(#130,#131,#132,#133,#134,#135));
#295=EDGE_LOOP('',(#136,#137,#138,#139,#140,#141));
#296=EDGE_LOOP('',(#142,#143,#144,#145));
#297=EDGE_LOOP('',(#146,#147,#148,#149));
#298=EDGE_LOOP('',(#150,#151,#152,#153));
#299=EDGE_LOOP('',(#154,#155,#156,#157));
#300=EDGE_LOOP('',(#158,#159,#160,#161));
#301=EDGE_LOOP('',(#162,#163,#164,#165));
#302=EDGE_LOOP('',(#166,#167,#168,#169));
#303=EDGE_LOOP('',(#170,#171,#172,#173));
#304=EDGE_LOOP('',(#174,#175,#176,#177));
#305=EDGE_LOOP('',(#178,#179,#180,#181));
#306=FACE_BOUND('',#278,.T.);
#307=FACE_BOUND('',#279,.T.);
#308=FACE_BOUND('',#280,.T.);
#309=FACE_BOUND('',#281,.T.);
#310=FACE_BOUND('',#282,.T.);
#311=FACE_BOUND('',#283,.T.);
#312=FACE_BOUND('',#284,.T.);
#313=FACE_BOUND('',#285,.T.);
#314=FACE_BOUND('',#286,.T.);
#315=FACE_BOUND('',#287,.T.);
#316=FACE_BOUND('',#288,.T.);
#317=FACE_BOUND('',#289,.T.);
#318=FACE_BOUND('',#290,.T.);
#319=FACE_BOUND('',#291,.T.);
#320=FACE_BOUND('',#292,.T.);
#321=FACE_BOUND('',#293,.T.);
#322=FACE_BOUND('',#294,.T.);
#323=FACE_BOUND('',#295,.T.);
#324=FACE_BOUND('',#296,.T.);
#325=FACE_BOUND('',#297,.T.);
#326=FACE_BOUND('',#298,.T.);
#327=FACE_BOUND('',#299,.T.);
#328=FACE_BOUND('',#300,.T.);
#329=FACE_BOUND('',#301,.T.);
#330=FACE_BOUND('',#302,.T.);
#331=FACE_BOUND('',#303,.T.);
#332=FACE_BOUND('',#304,.T.);
#333=FACE_BOUND('',#305,.T.);
#334=CYLINDRICAL_SURFACE('',#372,0.007);
#335=CYLINDRICAL_SURFACE('',#380,0.0175);
#336=CYLINDRICAL_SURFACE('',#389,0.0035);
#337=CYLINDRICAL_SURFACE('',#398,0.00950186781609196);
#338=CYLINDRICAL_SURFACE('',#407,0.00950186781609196);
#339=ADVANCED_FACE('',(#306,#307,#308),#334,.F.);
#340=ADVANCED_FACE('',(#309,#310,#311,#312),#335,.T.);
#341=ADVANCED_FACE('',(#313,#314),#12,.T.);
#342=ADVANCED_FACE('',(#315,#316),#13,.F.);
#343=ADVANCED_FACE('',(#317,#318),#336,.T.);
#344=ADVANCED_FACE('',(#319),#14,.F.);
#345=ADVANCED_FACE('',(#320),#15,.T.);
#346=ADVANCED_FACE('',(#321),#16,.F.);
#347=ADVANCED_FACE('',(#322),#17,.F.);
#348=ADVANCED_FACE('',(#323),#18,.T.);
#349=ADVANCED_FACE('',(#324),#19,.T.);
#350=ADVANCED_FACE('',(#325),#20,.T.);
#351=ADVANCED_FACE('',(#326),#337,.F.);
#352=ADVANCED_FACE('',(#327),#21,.T.);
#353=ADVANCED_FACE('',(#328),#22,.F.);
#354=ADVANCED_FACE('',(#329),#23,.T.);
#355=ADVANCED_FACE('',(#330),#24,.T.);
#356=ADVANCED_FACE('',(#331),#25,.T.);
#357=ADVANCED_FACE('',(#332),#26,.F.);
#358=ADVANCED_FACE('',(#333),#338,.F.);
#359=CLOSED_SHELL('',(#339,#340,#341,#342,#343,#344,#345,#346,#347,#348,
#349,#350,#351,#352,#353,#354,#355,#356,#357,#358));
#360=STYLED_ITEM('',(#361),#368);
#361=PRESENTATION_STYLE_ASSIGNMENT((#362));
#362=SURFACE_STYLE_USAGE(.BOTH.,#363);
#363=SURFACE_SIDE_STYLE('',(#364));
#364=SURFACE_STYLE_FILL_AREA(#365);
#365=FILL_AREA_STYLE('',(#366));
#366=FILL_AREA_STYLE_COLOUR('',#367);
#367=COLOUR_RGB('',0.262745098039216,0.282352941176471,0.301960784313725);
#368=MANIFOLD_SOLID_BREP('Part 1',#359);
#369=SHAPE_DEFINITION_REPRESENTATION(#629,#370);
#370=SHAPE_REPRESENTATION('Part 1',(#371),#624);
#371=AXIS2_PLACEMENT_3D('',#512,#408,#409);
#372=AXIS2_PLACEMENT_3D('',#513,#410,#411);
#373=AXIS2_PLACEMENT_3D('',#514,#412,#413);
#374=AXIS2_PLACEMENT_3D('',#519,#415,#416);
#375=AXIS2_PLACEMENT_3D('',#523,#418,#419);
#376=AXIS2_PLACEMENT_3D('',#527,#421,#422);
#377=AXIS2_PLACEMENT_3D('',#531,#424,#425);
#378=AXIS2_PLACEMENT_3D('',#535,#427,#428);
#379=AXIS2_PLACEMENT_3D('',#539,#430,#431);
#380=AXIS2_PLACEMENT_3D('',#540,#432,#433);
#381=AXIS2_PLACEMENT_3D('',#544,#435,#436);
#382=AXIS2_PLACEMENT_3D('',#548,#438,#439);
#383=AXIS2_PLACEMENT_3D('',#561,#440,#441);
#384=AXIS2_PLACEMENT_3D('',#563,#442,#443);
#385=AXIS2_PLACEMENT_3D('',#565,#444,#445);
#386=AXIS2_PLACEMENT_3D('',#566,#446,#447);
#387=AXIS2_PLACEMENT_3D('',#567,#448,#449);
#388=AXIS2_PLACEMENT_3D('',#573,#452,#453);
#389=AXIS2_PLACEMENT_3D('',#577,#456,#457);
#390=AXIS2_PLACEMENT_3D('',#578,#458,#459);
#391=AXIS2_PLACEMENT_3D('',#580,#460,#461);
#392=AXIS2_PLACEMENT_3D('',#581,#462,#463);
#393=AXIS2_PLACEMENT_3D('',#587,#467,#468);
#394=AXIS2_PLACEMENT_3D('',#593,#472,#473);
#395=AXIS2_PLACEMENT_3D('',#596,#476,#477);
#396=AXIS2_PLACEMENT_3D('',#599,#480,#481);
#397=AXIS2_PLACEMENT_3D('',#600,#482,#483);
#398=AXIS2_PLACEMENT_3D('',#601,#484,#485);
#399=AXIS2_PLACEMENT_3D('',#604,#487,#488);
#400=AXIS2_PLACEMENT_3D('',#607,#490,#491);
#401=AXIS2_PLACEMENT_3D('',#610,#494,#495);
#402=AXIS2_PLACEMENT_3D('',#611,#496,#497);
#403=AXIS2_PLACEMENT_3D('',#612,#498,#499);
#404=AXIS2_PLACEMENT_3D('',#615,#501,#502);
#405=AXIS2_PLACEMENT_3D('',#618,#504,#505);
#406=AXIS2_PLACEMENT_3D('',#620,#507,#508);
#407=AXIS2_PLACEMENT_3D('',#622,#510,#511);
#408=DIRECTION('',(0.,0.,1.));
#409=DIRECTION('',(1.,0.,0.));
#410=DIRECTION('',(1.,0.,0.));
#411=DIRECTION('',(0.,-1.,0.));
#412=DIRECTION('',(1.,0.,0.));
#413=DIRECTION('',(0.,-1.,0.));
#414=DIRECTION('',(1.,0.,0.));
#415=DIRECTION('',(1.,0.,0.));
#416=DIRECTION('',(0.,-1.,0.));
#417=DIRECTION('',(1.,0.,0.));
#418=DIRECTION('',(1.,0.,0.));
#419=DIRECTION('',(0.,-1.,0.));
#420=DIRECTION('',(1.,0.,0.));
#421=DIRECTION('',(1.,0.,0.));
#422=DIRECTION('',(0.,-1.,0.));
#423=DIRECTION('',(1.,0.,0.));
#424=DIRECTION('',(-1.,0.,0.));
#425=DIRECTION('',(0.,1.,0.));
#426=DIRECTION('',(1.,0.,0.));
#427=DIRECTION('',(1.,0.,0.));
#428=DIRECTION('',(0.,-1.,0.));
#429=DIRECTION('',(1.,0.,0.));
#430=DIRECTION('',(-1.,0.,0.));
#431=DIRECTION('',(0.,1.,0.));
#432=DIRECTION('',(-1.,0.,0.));
#433=DIRECTION('',(0.,1.,0.));
#434=DIRECTION('',(-1.,0.,0.));
#435=DIRECTION('',(1.,0.,0.));
#436=DIRECTION('',(0.,-1.,0.));
#437=DIRECTION('',(-1.,0.,0.));
#438=DIRECTION('',(1.,0.,0.));
#439=DIRECTION('',(0.,-1.,0.));
#440=DIRECTION('',(1.,0.,0.));
#441=DIRECTION('',(0.,-1.,0.));
#442=DIRECTION('',(1.,0.,0.));
#443=DIRECTION('',(0.,-1.,0.));
#444=DIRECTION('',(1.,0.,0.));
#445=DIRECTION('',(0.,0.,-1.));
#446=DIRECTION('',(1.,0.,0.));
#447=DIRECTION('',(0.,0.,-1.));
#448=DIRECTION('',(-1.,0.,0.));
#449=DIRECTION('',(0.,1.,0.));
#450=DIRECTION('',(0.,0.,1.));
#451=DIRECTION('',(0.,0.,1.));
#452=DIRECTION('',(-1.,0.,0.));
#453=DIRECTION('',(0.,1.,0.));
#454=DIRECTION('',(0.,0.,1.));
#455=DIRECTION('',(0.,0.,1.));
#456=DIRECTION('',(0.,0.,1.));
#457=DIRECTION('',(0.,-1.,0.));
#458=DIRECTION('',(0.,0.,1.));
#459=DIRECTION('',(0.,-1.,0.));
#460=DIRECTION('',(0.,0.,1.));
#461=DIRECTION('',(1.,0.,0.));
#462=DIRECTION('',(6.67201336914157E-17,0.,1.));
#463=DIRECTION('',(1.,0.,-6.67201336914157E-17));
#464=DIRECTION('',(0.,-1.,0.));
#465=DIRECTION('',(-1.,0.,6.67201336914157E-17));
#466=DIRECTION('',(0.,-1.,0.));
#467=DIRECTION('',(6.67201336914157E-17,0.,1.));
#468=DIRECTION('',(1.,0.,-6.67201336914157E-17));
#469=DIRECTION('',(0.,-1.,0.));
#470=DIRECTION('',(-1.,0.,6.67201336914157E-17));
#471=DIRECTION('',(0.,-1.,0.));
#472=DIRECTION('',(1.,0.,0.));
#473=DIRECTION('',(0.,-1.,0.));
#474=DIRECTION('',(0.,0.,1.));
#475=DIRECTION('',(0.,0.,1.));
#476=DIRECTION('',(1.,0.,0.));
#477=DIRECTION('',(0.,-1.,0.));
#478=DIRECTION('',(0.,0.,1.));
#479=DIRECTION('',(0.,0.,1.));
#480=DIRECTION('',(0.,1.,0.));
#481=DIRECTION('',(1.,0.,0.));
#482=DIRECTION('',(0.,1.,0.));
#483=DIRECTION('',(1.,0.,0.));
#484=DIRECTION('',(-1.,0.,0.));
#485=DIRECTION('',(0.,1.,0.));
#486=DIRECTION('',(-1.,0.,0.));
#487=DIRECTION('',(-1.,0.,0.));
#488=DIRECTION('',(0.,1.,0.));
#489=DIRECTION('',(-1.,0.,0.));
#490=DIRECTION('',(-1.,0.,0.));
#491=DIRECTION('',(0.,0.,1.));
#492=DIRECTION('',(0.,0.,1.));
#493=DIRECTION('',(0.,0.,1.));
#494=DIRECTION('',(0.,-1.,0.));
#495=DIRECTION('',(-1.,0.,0.));
#496=DIRECTION('',(0.,-1.,0.));
#497=DIRECTION('',(-1.,0.,0.));
#498=DIRECTION('',(-1.,0.,0.));
#499=DIRECTION('',(0.,0.,1.));
#500=DIRECTION('',(0.,0.,1.));
#501=DIRECTION('',(-1.,0.,0.));
#502=DIRECTION('',(0.,1.,0.));
#503=DIRECTION('',(0.,0.,1.));
#504=DIRECTION('',(0.,-1.,0.));
#505=DIRECTION('',(-1.,0.,0.));
#506=DIRECTION('',(-1.,0.,0.));
#507=DIRECTION('',(0.,-1.,0.));
#508=DIRECTION('',(-1.,0.,0.));
#509=DIRECTION('',(-1.,0.,0.));
#510=DIRECTION('',(-1.,0.,0.));
#511=DIRECTION('',(0.,1.,0.));
#512=CARTESIAN_POINT('',(0.,0.,0.));
#513=CARTESIAN_POINT('',(-0.030886,1.07156594925393E-18,0.));
#514=CARTESIAN_POINT('',(0.2,1.07156594925393E-18,0.));
#515=CARTESIAN_POINT('',(0.2,-0.007,0.));
#516=CARTESIAN_POINT('',(-0.030886,0.003201562,0.00622494986005157));
#517=CARTESIAN_POINT('',(0.1775,0.003201562,0.00622494986005157));
#518=CARTESIAN_POINT('',(0.0995,0.003201562,0.00622494986005157));
#519=CARTESIAN_POINT('',(0.1775,1.07156594925393E-18,0.));
#520=CARTESIAN_POINT('',(0.1775,0.003201562,-0.00622494986005157));
#521=CARTESIAN_POINT('',(-0.030886,0.003201562,-0.00622494986005157));
#522=CARTESIAN_POINT('',(0.0995,0.003201562,-0.00622494986005157));
#523=CARTESIAN_POINT('',(0.0995,1.07156594925393E-18,0.));
#524=CARTESIAN_POINT('',(-0.030886,0.00605,0.00352100837829166));
#525=CARTESIAN_POINT('',(0.,0.00605,0.00352100837829166));
#526=CARTESIAN_POINT('',(0.090678,0.00605,0.00352100837829166));
#527=CARTESIAN_POINT('',(0.,1.07156594925393E-18,0.));
#528=CARTESIAN_POINT('',(0.,0.00605,-0.00352100837829166));
#529=CARTESIAN_POINT('',(-0.030886,0.00605,-0.00352100837829166));
#530=CARTESIAN_POINT('',(0.090678,0.00605,-0.00352100837829166));
#531=CARTESIAN_POINT('',(0.090678,1.07156594925393E-18,0.));
#532=CARTESIAN_POINT('',(0.090678,-0.00605,-0.00352100837829165));
#533=CARTESIAN_POINT('',(-0.030886,-0.00605,-0.00352100837829165));
#534=CARTESIAN_POINT('',(0.,-0.00605,-0.00352100837829165));
#535=CARTESIAN_POINT('',(0.,1.07156594925393E-18,0.));
#536=CARTESIAN_POINT('',(0.,-0.00605,0.00352100837829165));
#537=CARTESIAN_POINT('',(-0.030886,-0.00605,0.00352100837829165));
#538=CARTESIAN_POINT('',(0.090678,-0.00605,0.00352100837829165));
#539=CARTESIAN_POINT('',(0.090678,1.07156594925393E-18,0.));
#540=CARTESIAN_POINT('',(0.2,1.07156594925393E-18,0.));
#541=CARTESIAN_POINT('',(0.2,0.0143614066163451,-0.01));
#542=CARTESIAN_POINT('',(0.1775,0.0143614066163451,-0.01));
#543=CARTESIAN_POINT('',(0.0995,0.0143614066163451,-0.01));
#544=CARTESIAN_POINT('',(0.1775,1.07156594925393E-18,0.));
#545=CARTESIAN_POINT('',(0.1775,0.0143614066163451,0.01));
#546=CARTESIAN_POINT('',(0.2,0.0143614066163451,0.01));
#547=CARTESIAN_POINT('',(0.0995,0.0143614066163451,0.01));
#548=CARTESIAN_POINT('',(0.0995,1.07156594925393E-18,0.));
#549=CARTESIAN_POINT('',(0.183254579027443,-0.00274034621547629,-0.0173254211061967));
#550=CARTESIAN_POINT('',(0.18600061200821,-0.00387964820518706,-0.0170570058923992));
#551=CARTESIAN_POINT('',(0.188742972939718,-0.00274106096377545,-0.0173251245211001));
#552=CARTESIAN_POINT('',(0.189878485046783,-3.60373026246386E-6,-0.0175874423589869));
#553=CARTESIAN_POINT('',(0.188743083191695,0.00274304121056443,-0.0173251053066612));
#554=CARTESIAN_POINT('',(0.186001265019441,0.00387784032140477,-0.0170572390622484));
#555=CARTESIAN_POINT('',(0.183260400049984,0.00274559576599958,-0.017324507995969));
#556=CARTESIAN_POINT('',(0.182121256522877,2.37114991621763E-6,-0.0175875174660119));
#557=CARTESIAN_POINT('',(0.183254579027443,-0.00274034621547629,-0.0173254211061967));
#558=CARTESIAN_POINT('',(0.18600061200821,-0.00387964820518706,-0.0170570058923992));
#559=CARTESIAN_POINT('',(0.188742972939718,-0.00274106096377545,-0.0173251245211001));
#560=CARTESIAN_POINT('',(0.186,-0.0035,-0.0171464281994822));
#561=CARTESIAN_POINT('',(0.2,1.07156594925393E-18,0.));
#562=CARTESIAN_POINT('',(0.2,-0.0175,0.));
#563=CARTESIAN_POINT('',(0.,1.07156594925393E-18,0.));
#564=CARTESIAN_POINT('',(0.,-0.0175,0.));
#565=CARTESIAN_POINT('',(0.2,0.,0.));
#566=CARTESIAN_POINT('',(0.,0.,0.));
#567=CARTESIAN_POINT('',(0.,4.33680868994202E-19,0.00157686781609196));
#568=CARTESIAN_POINT('',(0.,0.00605,-0.00575));
#569=CARTESIAN_POINT('',(0.,-0.00605,-0.00575));
#570=CARTESIAN_POINT('',(0.,0.00605,8.67361737988404E-19));
#571=CARTESIAN_POINT('',(0.,0.00605,8.67361737988404E-19));
#572=CARTESIAN_POINT('',(0.,0.00605,0.00575));
#573=CARTESIAN_POINT('',(0.,-8.67361737988404E-19,-0.00157686781609196));
#574=CARTESIAN_POINT('',(0.,-0.00605,0.00575));
#575=CARTESIAN_POINT('',(0.,-0.00605,8.67361737988404E-19));
#576=CARTESIAN_POINT('',(0.,-0.00605,8.67361737988404E-19));
#577=CARTESIAN_POINT('',(0.186,1.53080849893419E-19,-0.0349));
#578=CARTESIAN_POINT('',(0.186,1.53080849893419E-19,-0.0349));
#579=CARTESIAN_POINT('',(0.186,-0.0035,-0.0349));
#580=CARTESIAN_POINT('',(0.186,0.,-0.0349));
#581=CARTESIAN_POINT('',(0.1385,0.028601562,-0.01));
#582=CARTESIAN_POINT('',(0.0995,0.028601562,-0.01));
#583=CARTESIAN_POINT('',(0.0995,0.003201562,-0.01));
#584=CARTESIAN_POINT('',(0.1385,0.003201562,-0.01));
#585=CARTESIAN_POINT('',(0.1775,0.003201562,-0.01));
#586=CARTESIAN_POINT('',(0.1775,0.028601562,-0.01));
#587=CARTESIAN_POINT('',(0.1385,0.028601562,0.01));
#588=CARTESIAN_POINT('',(0.1775,0.028601562,0.01));
#589=CARTESIAN_POINT('',(0.1775,0.003201562,0.01));
#590=CARTESIAN_POINT('',(0.1385,0.003201562,0.01));
#591=CARTESIAN_POINT('',(0.0995,0.003201562,0.01));
#592=CARTESIAN_POINT('',(0.0995,0.028601562,0.01));
#593=CARTESIAN_POINT('',(0.1775,0.028601562,-3.46944695195361E-18));
#594=CARTESIAN_POINT('',(0.1775,0.003201562,-3.46944695195361E-18));
#595=CARTESIAN_POINT('',(0.1775,0.003201562,-3.46944695195361E-18));
#596=CARTESIAN_POINT('',(0.0995,0.028601562,1.7347234759768E-18));
#597=CARTESIAN_POINT('',(0.0995,0.003201562,1.7347234759768E-18));
#598=CARTESIAN_POINT('',(0.0995,0.003201562,1.7347234759768E-18));
#599=CARTESIAN_POINT('',(0.1385,0.003201562,0.));
#600=CARTESIAN_POINT('',(0.1385,0.003201562,0.));
#601=CARTESIAN_POINT('',(0.090678,-8.67361737988404E-19,-0.00157686781609196));
#602=CARTESIAN_POINT('',(0.090678,0.00605,0.00575));
#603=CARTESIAN_POINT('',(0.090678,0.00605,0.00575));
#604=CARTESIAN_POINT('',(0.090678,-8.67361737988404E-19,-0.00157686781609196));
#605=CARTESIAN_POINT('',(0.090678,-0.00605,0.00575));
#606=CARTESIAN_POINT('',(0.090678,-0.00605,0.00575));
#607=CARTESIAN_POINT('',(0.090678,0.,0.));
#608=CARTESIAN_POINT('',(0.090678,-0.00605,8.67361737988404E-19));
#609=CARTESIAN_POINT('',(0.090678,0.00605,8.67361737988404E-19));
#610=CARTESIAN_POINT('',(0.090678,-0.00605,8.67361737988404E-19));
#611=CARTESIAN_POINT('',(0.090678,0.00605,8.67361737988404E-19));
#612=CARTESIAN_POINT('',(0.090678,0.,0.));
#613=CARTESIAN_POINT('',(0.090678,0.00605,8.67361737988404E-19));
#614=CARTESIAN_POINT('',(0.090678,0.00605,-0.00575));
#615=CARTESIAN_POINT('',(0.090678,4.33680868994202E-19,0.00157686781609196));
#616=CARTESIAN_POINT('',(0.090678,-0.00605,-0.00575));
#617=CARTESIAN_POINT('',(0.090678,-0.00605,8.67361737988404E-19));
#618=CARTESIAN_POINT('',(0.090678,0.00605,8.67361737988404E-19));
#619=CARTESIAN_POINT('',(0.090678,0.00605,-0.00575));
#620=CARTESIAN_POINT('',(0.090678,-0.00605,8.67361737988404E-19));
#621=CARTESIAN_POINT('',(0.090678,-0.00605,-0.00575));
#622=CARTESIAN_POINT('',(0.090678,4.33680868994202E-19,0.00157686781609196));
#623=MECHANICAL_DESIGN_GEOMETRIC_PRESENTATION_REPRESENTATION('',(#360),
#624);
#624=(
GEOMETRIC_REPRESENTATION_CONTEXT(3)
GLOBAL_UNCERTAINTY_ASSIGNED_CONTEXT((#625))
GLOBAL_UNIT_ASSIGNED_CONTEXT((#628,#627,#626))
REPRESENTATION_CONTEXT('Part 1','TOP_LEVEL_ASSEMBLY_PART')
);
#625=UNCERTAINTY_MEASURE_WITH_UNIT(LENGTH_MEASURE(2.E-5),#628,
'DISTANCE_ACCURACY_VALUE','Maximum Tolerance applied to model');
#626=(
NAMED_UNIT(*)
SI_UNIT($,.STERADIAN.)
SOLID_ANGLE_UNIT()
);
#627=(
NAMED_UNIT(*)
PLANE_ANGLE_UNIT()
SI_UNIT($,.RADIAN.)
);
#628=(
LENGTH_UNIT()
NAMED_UNIT(*)
SI_UNIT($,.METRE.)
);
#629=PRODUCT_DEFINITION_SHAPE('','',#630);
#630=PRODUCT_DEFINITION('','',#632,#631);
#631=PRODUCT_DEFINITION_CONTEXT('',#638,'design');
#632=PRODUCT_DEFINITION_FORMATION_WITH_SPECIFIED_SOURCE('','',#634,
 .NOT_KNOWN.);
#633=PRODUCT_RELATED_PRODUCT_CATEGORY('','',(#634));
#634=PRODUCT('Part 1','Part 1','Part 1',(#636));
#635=PRODUCT_CATEGORY('','');
#636=PRODUCT_CONTEXT('',#638,'mechanical');
#637=APPLICATION_PROTOCOL_DEFINITION('international standard',
'ap242_managed_model_based_3d_engineering',2020,#638);
#638=APPLICATION_CONTEXT('managed model based 3d engineering');
ENDSEC;
END-ISO-10303-21;
