ISO-10303-21;
HEADER;
/* Generated by software containing ST-Developer
 * from STEP Tools, Inc. (www.steptools.com) 
 */
/* OPTION: using custom renumber hook */

FILE_DESCRIPTION(
/* description */ ('STEP AP242 Edition 2',
'CAx-IF Rec.Pracs.---Representation and Presentation of Product Manufa
cturing Information (PMI)---4.0---2014-10-13',
'CAx-IF Rec.Pracs.---3D Tessellated Geometry---0.4---2014-09-14','2;1',
'CAx-IF Rec.Pracs.---User Defined Attributes---1.5---2016-08-15'),
/* implementation_level */ '2;1');

FILE_NAME(
/* name */ 'Mag',
/* time_stamp */ '2026-06-11T12:13:40Z',
/* author */ (''),
/* organization */ (''),
/* preprocessor_version */ 'ST-DEVELOPER v20',
/* originating_system */ 'ONSHAPE BY PTC INC, 1.216',
/* authorisation */ '  ');

FILE_SCHEMA (('AP242_MANAGED_MODEL_BASED_3D_ENGINEERING_MIM_LF { 1 0 10303 442 3 1 4 }'));
ENDSEC;

DATA;
#10=SHAPE_REPRESENTATION_RELATIONSHIP('','',#1001,#11);
#11=ADVANCED_BREP_SHAPE_REPRESENTATION('',(#999),#1571);
#12=ORIENTED_EDGE('',*,*,#284,.F.);
#13=ORIENTED_EDGE('',*,*,#285,.T.);
#14=ORIENTED_EDGE('',*,*,#286,.F.);
#15=ORIENTED_EDGE('',*,*,#287,.F.);
#16=ORIENTED_EDGE('',*,*,#288,.F.);
#17=ORIENTED_EDGE('',*,*,#289,.F.);
#18=ORIENTED_EDGE('',*,*,#290,.F.);
#19=ORIENTED_EDGE('',*,*,#291,.F.);
#20=ORIENTED_EDGE('',*,*,#292,.T.);
#21=ORIENTED_EDGE('',*,*,#293,.T.);
#22=ORIENTED_EDGE('',*,*,#294,.F.);
#23=ORIENTED_EDGE('',*,*,#295,.F.);
#24=ORIENTED_EDGE('',*,*,#296,.T.);
#25=ORIENTED_EDGE('',*,*,#285,.F.);
#26=ORIENTED_EDGE('',*,*,#297,.F.);
#27=ORIENTED_EDGE('',*,*,#298,.F.);
#28=ORIENTED_EDGE('',*,*,#299,.F.);
#29=ORIENTED_EDGE('',*,*,#300,.T.);
#30=ORIENTED_EDGE('',*,*,#295,.T.);
#31=ORIENTED_EDGE('',*,*,#301,.T.);
#32=ORIENTED_EDGE('',*,*,#302,.T.);
#33=ORIENTED_EDGE('',*,*,#303,.T.);
#34=ORIENTED_EDGE('',*,*,#304,.F.);
#35=ORIENTED_EDGE('',*,*,#305,.T.);
#36=ORIENTED_EDGE('',*,*,#306,.F.);
#37=ORIENTED_EDGE('',*,*,#307,.F.);
#38=ORIENTED_EDGE('',*,*,#308,.F.);
#39=ORIENTED_EDGE('',*,*,#291,.T.);
#40=ORIENTED_EDGE('',*,*,#309,.F.);
#41=ORIENTED_EDGE('',*,*,#310,.F.);
#42=ORIENTED_EDGE('',*,*,#311,.T.);
#43=ORIENTED_EDGE('',*,*,#312,.F.);
#44=ORIENTED_EDGE('',*,*,#313,.F.);
#45=ORIENTED_EDGE('',*,*,#314,.T.);
#46=ORIENTED_EDGE('',*,*,#315,.T.);
#47=ORIENTED_EDGE('',*,*,#316,.F.);
#48=ORIENTED_EDGE('',*,*,#317,.T.);
#49=ORIENTED_EDGE('',*,*,#318,.T.);
#50=ORIENTED_EDGE('',*,*,#319,.T.);
#51=ORIENTED_EDGE('',*,*,#320,.F.);
#52=ORIENTED_EDGE('',*,*,#321,.T.);
#53=ORIENTED_EDGE('',*,*,#322,.T.);
#54=ORIENTED_EDGE('',*,*,#323,.T.);
#55=ORIENTED_EDGE('',*,*,#324,.F.);
#56=ORIENTED_EDGE('',*,*,#325,.F.);
#57=ORIENTED_EDGE('',*,*,#287,.T.);
#58=ORIENTED_EDGE('',*,*,#326,.F.);
#59=ORIENTED_EDGE('',*,*,#299,.T.);
#60=ORIENTED_EDGE('',*,*,#327,.T.);
#61=ORIENTED_EDGE('',*,*,#328,.F.);
#62=ORIENTED_EDGE('',*,*,#329,.F.);
#63=ORIENTED_EDGE('',*,*,#307,.T.);
#64=ORIENTED_EDGE('',*,*,#330,.T.);
#65=ORIENTED_EDGE('',*,*,#331,.T.);
#66=ORIENTED_EDGE('',*,*,#332,.F.);
#67=ORIENTED_EDGE('',*,*,#333,.F.);
#68=ORIENTED_EDGE('',*,*,#334,.T.);
#69=ORIENTED_EDGE('',*,*,#335,.T.);
#70=ORIENTED_EDGE('',*,*,#336,.F.);
#71=ORIENTED_EDGE('',*,*,#337,.F.);
#72=ORIENTED_EDGE('',*,*,#293,.F.);
#73=ORIENTED_EDGE('',*,*,#338,.T.);
#74=ORIENTED_EDGE('',*,*,#328,.T.);
#75=ORIENTED_EDGE('',*,*,#339,.F.);
#76=ORIENTED_EDGE('',*,*,#340,.T.);
#77=ORIENTED_EDGE('',*,*,#341,.T.);
#78=ORIENTED_EDGE('',*,*,#342,.T.);
#79=ORIENTED_EDGE('',*,*,#343,.T.);
#80=ORIENTED_EDGE('',*,*,#344,.F.);
#81=ORIENTED_EDGE('',*,*,#345,.F.);
#82=ORIENTED_EDGE('',*,*,#346,.T.);
#83=ORIENTED_EDGE('',*,*,#347,.T.);
#84=ORIENTED_EDGE('',*,*,#322,.F.);
#85=ORIENTED_EDGE('',*,*,#348,.T.);
#86=ORIENTED_EDGE('',*,*,#313,.T.);
#87=ORIENTED_EDGE('',*,*,#349,.T.);
#88=ORIENTED_EDGE('',*,*,#315,.F.);
#89=ORIENTED_EDGE('',*,*,#350,.T.);
#90=ORIENTED_EDGE('',*,*,#320,.T.);
#91=ORIENTED_EDGE('',*,*,#351,.F.);
#92=ORIENTED_EDGE('',*,*,#352,.F.);
#93=ORIENTED_EDGE('',*,*,#353,.T.);
#94=ORIENTED_EDGE('',*,*,#354,.T.);
#95=ORIENTED_EDGE('',*,*,#345,.T.);
#96=ORIENTED_EDGE('',*,*,#355,.F.);
#97=ORIENTED_EDGE('',*,*,#356,.T.);
#98=ORIENTED_EDGE('',*,*,#357,.T.);
#99=ORIENTED_EDGE('',*,*,#347,.F.);
#100=ORIENTED_EDGE('',*,*,#354,.F.);
#101=ORIENTED_EDGE('',*,*,#358,.T.);
#102=ORIENTED_EDGE('',*,*,#355,.T.);
#103=ORIENTED_EDGE('',*,*,#346,.F.);
#104=ORIENTED_EDGE('',*,*,#357,.F.);
#105=ORIENTED_EDGE('',*,*,#359,.T.);
#106=ORIENTED_EDGE('',*,*,#352,.T.);
#107=ORIENTED_EDGE('',*,*,#344,.T.);
#108=ORIENTED_EDGE('',*,*,#360,.F.);
#109=ORIENTED_EDGE('',*,*,#361,.F.);
#110=ORIENTED_EDGE('',*,*,#362,.T.);
#111=ORIENTED_EDGE('',*,*,#363,.T.);
#112=ORIENTED_EDGE('',*,*,#364,.F.);
#113=ORIENTED_EDGE('',*,*,#365,.F.);
#114=ORIENTED_EDGE('',*,*,#366,.T.);
#115=ORIENTED_EDGE('',*,*,#361,.T.);
#116=ORIENTED_EDGE('',*,*,#367,.T.);
#117=ORIENTED_EDGE('',*,*,#368,.F.);
#118=ORIENTED_EDGE('',*,*,#369,.F.);
#119=ORIENTED_EDGE('',*,*,#365,.T.);
#120=ORIENTED_EDGE('',*,*,#370,.F.);
#121=ORIENTED_EDGE('',*,*,#363,.F.);
#122=ORIENTED_EDGE('',*,*,#371,.T.);
#123=ORIENTED_EDGE('',*,*,#368,.T.);
#124=ORIENTED_EDGE('',*,*,#372,.T.);
#125=ORIENTED_EDGE('',*,*,#373,.T.);
#126=ORIENTED_EDGE('',*,*,#374,.T.);
#127=ORIENTED_EDGE('',*,*,#375,.T.);
#128=ORIENTED_EDGE('',*,*,#362,.F.);
#129=ORIENTED_EDGE('',*,*,#366,.F.);
#130=ORIENTED_EDGE('',*,*,#369,.T.);
#131=ORIENTED_EDGE('',*,*,#371,.F.);
#132=ORIENTED_EDGE('',*,*,#329,.T.);
#133=ORIENTED_EDGE('',*,*,#338,.F.);
#134=ORIENTED_EDGE('',*,*,#292,.F.);
#135=ORIENTED_EDGE('',*,*,#308,.T.);
#136=ORIENTED_EDGE('',*,*,#360,.T.);
#137=ORIENTED_EDGE('',*,*,#370,.T.);
#138=ORIENTED_EDGE('',*,*,#367,.F.);
#139=ORIENTED_EDGE('',*,*,#364,.T.);
#140=ORIENTED_EDGE('',*,*,#376,.F.);
#141=ORIENTED_EDGE('',*,*,#356,.F.);
#142=ORIENTED_EDGE('',*,*,#377,.F.);
#143=ORIENTED_EDGE('',*,*,#375,.F.);
#144=ORIENTED_EDGE('',*,*,#377,.T.);
#145=ORIENTED_EDGE('',*,*,#358,.F.);
#146=ORIENTED_EDGE('',*,*,#378,.F.);
#147=ORIENTED_EDGE('',*,*,#372,.F.);
#148=ORIENTED_EDGE('',*,*,#376,.T.);
#149=ORIENTED_EDGE('',*,*,#374,.F.);
#150=ORIENTED_EDGE('',*,*,#379,.F.);
#151=ORIENTED_EDGE('',*,*,#359,.F.);
#152=ORIENTED_EDGE('',*,*,#378,.T.);
#153=ORIENTED_EDGE('',*,*,#353,.F.);
#154=ORIENTED_EDGE('',*,*,#379,.T.);
#155=ORIENTED_EDGE('',*,*,#373,.F.);
#156=ORIENTED_EDGE('',*,*,#380,.F.);
#157=ORIENTED_EDGE('',*,*,#343,.F.);
#158=ORIENTED_EDGE('',*,*,#381,.F.);
#159=ORIENTED_EDGE('',*,*,#348,.F.);
#160=ORIENTED_EDGE('',*,*,#381,.T.);
#161=ORIENTED_EDGE('',*,*,#342,.F.);
#162=ORIENTED_EDGE('',*,*,#382,.F.);
#163=ORIENTED_EDGE('',*,*,#314,.F.);
#164=ORIENTED_EDGE('',*,*,#380,.T.);
#165=ORIENTED_EDGE('',*,*,#321,.F.);
#166=ORIENTED_EDGE('',*,*,#383,.F.);
#167=ORIENTED_EDGE('',*,*,#340,.F.);
#168=ORIENTED_EDGE('',*,*,#382,.T.);
#169=ORIENTED_EDGE('',*,*,#341,.F.);
#170=ORIENTED_EDGE('',*,*,#383,.T.);
#171=ORIENTED_EDGE('',*,*,#350,.F.);
#172=ORIENTED_EDGE('',*,*,#384,.F.);
#173=ORIENTED_EDGE('',*,*,#316,.T.);
#174=ORIENTED_EDGE('',*,*,#351,.T.);
#175=ORIENTED_EDGE('',*,*,#319,.F.);
#176=ORIENTED_EDGE('',*,*,#385,.F.);
#177=ORIENTED_EDGE('',*,*,#386,.F.);
#178=ORIENTED_EDGE('',*,*,#387,.F.);
#179=ORIENTED_EDGE('',*,*,#388,.F.);
#180=ORIENTED_EDGE('',*,*,#304,.T.);
#181=ORIENTED_EDGE('',*,*,#389,.T.);
#182=ORIENTED_EDGE('',*,*,#309,.T.);
#183=ORIENTED_EDGE('',*,*,#384,.T.);
#184=ORIENTED_EDGE('',*,*,#390,.F.);
#185=ORIENTED_EDGE('',*,*,#391,.F.);
#186=ORIENTED_EDGE('',*,*,#388,.T.);
#187=ORIENTED_EDGE('',*,*,#392,.F.);
#188=ORIENTED_EDGE('',*,*,#393,.F.);
#189=ORIENTED_EDGE('',*,*,#390,.T.);
#190=ORIENTED_EDGE('',*,*,#387,.T.);
#191=ORIENTED_EDGE('',*,*,#394,.F.);
#192=ORIENTED_EDGE('',*,*,#395,.F.);
#193=ORIENTED_EDGE('',*,*,#392,.T.);
#194=ORIENTED_EDGE('',*,*,#386,.T.);
#195=ORIENTED_EDGE('',*,*,#396,.F.);
#196=ORIENTED_EDGE('',*,*,#397,.F.);
#197=ORIENTED_EDGE('',*,*,#394,.T.);
#198=ORIENTED_EDGE('',*,*,#385,.T.);
#199=ORIENTED_EDGE('',*,*,#318,.F.);
#200=ORIENTED_EDGE('',*,*,#398,.T.);
#201=ORIENTED_EDGE('',*,*,#334,.F.);
#202=ORIENTED_EDGE('',*,*,#399,.F.);
#203=ORIENTED_EDGE('',*,*,#396,.T.);
#204=ORIENTED_EDGE('',*,*,#305,.F.);
#205=ORIENTED_EDGE('',*,*,#391,.T.);
#206=ORIENTED_EDGE('',*,*,#393,.T.);
#207=ORIENTED_EDGE('',*,*,#395,.T.);
#208=ORIENTED_EDGE('',*,*,#397,.T.);
#209=ORIENTED_EDGE('',*,*,#399,.T.);
#210=ORIENTED_EDGE('',*,*,#339,.T.);
#211=ORIENTED_EDGE('',*,*,#327,.F.);
#212=ORIENTED_EDGE('',*,*,#349,.F.);
#213=ORIENTED_EDGE('',*,*,#312,.T.);
#214=ORIENTED_EDGE('',*,*,#400,.T.);
#215=ORIENTED_EDGE('',*,*,#401,.T.);
#216=ORIENTED_EDGE('',*,*,#402,.T.);
#217=ORIENTED_EDGE('',*,*,#403,.T.);
#218=ORIENTED_EDGE('',*,*,#404,.T.);
#219=ORIENTED_EDGE('',*,*,#323,.F.);
#220=ORIENTED_EDGE('',*,*,#404,.F.);
#221=ORIENTED_EDGE('',*,*,#405,.F.);
#222=ORIENTED_EDGE('',*,*,#406,.T.);
#223=ORIENTED_EDGE('',*,*,#336,.T.);
#224=ORIENTED_EDGE('',*,*,#407,.F.);
#225=ORIENTED_EDGE('',*,*,#324,.T.);
#226=ORIENTED_EDGE('',*,*,#403,.F.);
#227=ORIENTED_EDGE('',*,*,#408,.F.);
#228=ORIENTED_EDGE('',*,*,#409,.T.);
#229=ORIENTED_EDGE('',*,*,#405,.T.);
#230=ORIENTED_EDGE('',*,*,#402,.F.);
#231=ORIENTED_EDGE('',*,*,#410,.F.);
#232=ORIENTED_EDGE('',*,*,#411,.T.);
#233=ORIENTED_EDGE('',*,*,#408,.T.);
#234=ORIENTED_EDGE('',*,*,#401,.F.);
#235=ORIENTED_EDGE('',*,*,#412,.F.);
#236=ORIENTED_EDGE('',*,*,#413,.T.);
#237=ORIENTED_EDGE('',*,*,#410,.T.);
#238=ORIENTED_EDGE('',*,*,#400,.F.);
#239=ORIENTED_EDGE('',*,*,#311,.F.);
#240=ORIENTED_EDGE('',*,*,#414,.F.);
#241=ORIENTED_EDGE('',*,*,#302,.F.);
#242=ORIENTED_EDGE('',*,*,#415,.T.);
#243=ORIENTED_EDGE('',*,*,#412,.T.);
#244=ORIENTED_EDGE('',*,*,#337,.T.);
#245=ORIENTED_EDGE('',*,*,#406,.F.);
#246=ORIENTED_EDGE('',*,*,#409,.F.);
#247=ORIENTED_EDGE('',*,*,#411,.F.);
#248=ORIENTED_EDGE('',*,*,#413,.F.);
#249=ORIENTED_EDGE('',*,*,#415,.F.);
#250=ORIENTED_EDGE('',*,*,#301,.F.);
#251=ORIENTED_EDGE('',*,*,#294,.T.);
#252=ORIENTED_EDGE('',*,*,#407,.T.);
#253=ORIENTED_EDGE('',*,*,#335,.F.);
#254=ORIENTED_EDGE('',*,*,#398,.F.);
#255=ORIENTED_EDGE('',*,*,#317,.F.);
#256=ORIENTED_EDGE('',*,*,#414,.T.);
#257=ORIENTED_EDGE('',*,*,#310,.T.);
#258=ORIENTED_EDGE('',*,*,#389,.F.);
#259=ORIENTED_EDGE('',*,*,#303,.F.);
#260=ORIENTED_EDGE('',*,*,#330,.F.);
#261=ORIENTED_EDGE('',*,*,#306,.T.);
#262=ORIENTED_EDGE('',*,*,#290,.T.);
#263=ORIENTED_EDGE('',*,*,#416,.F.);
#264=ORIENTED_EDGE('',*,*,#300,.F.);
#265=ORIENTED_EDGE('',*,*,#326,.T.);
#266=ORIENTED_EDGE('',*,*,#286,.T.);
#267=ORIENTED_EDGE('',*,*,#296,.F.);
#268=ORIENTED_EDGE('',*,*,#289,.T.);
#269=ORIENTED_EDGE('',*,*,#417,.T.);
#270=ORIENTED_EDGE('',*,*,#331,.F.);
#271=ORIENTED_EDGE('',*,*,#416,.T.);
#272=ORIENTED_EDGE('',*,*,#288,.T.);
#273=ORIENTED_EDGE('',*,*,#418,.T.);
#274=ORIENTED_EDGE('',*,*,#332,.T.);
#275=ORIENTED_EDGE('',*,*,#417,.F.);
#276=ORIENTED_EDGE('',*,*,#298,.T.);
#277=ORIENTED_EDGE('',*,*,#419,.T.);
#278=ORIENTED_EDGE('',*,*,#333,.T.);
#279=ORIENTED_EDGE('',*,*,#418,.F.);
#280=ORIENTED_EDGE('',*,*,#297,.T.);
#281=ORIENTED_EDGE('',*,*,#284,.T.);
#282=ORIENTED_EDGE('',*,*,#325,.T.);
#283=ORIENTED_EDGE('',*,*,#419,.F.);
#284=EDGE_CURVE('',#420,#421,#508,.T.);
#285=EDGE_CURVE('',#420,#422,#509,.T.);
#286=EDGE_CURVE('',#423,#422,#510,.T.);
#287=EDGE_CURVE('',#421,#423,#511,.T.);
#288=EDGE_CURVE('',#424,#425,#512,.T.);
#289=EDGE_CURVE('',#426,#424,#513,.T.);
#290=EDGE_CURVE('',#427,#426,#514,.T.);
#291=EDGE_CURVE('',#428,#427,#515,.T.);
#292=EDGE_CURVE('',#428,#429,#516,.T.);
#293=EDGE_CURVE('',#429,#430,#517,.T.);
#294=EDGE_CURVE('',#431,#430,#518,.T.);
#295=EDGE_CURVE('',#432,#431,#519,.T.);
#296=EDGE_CURVE('',#432,#422,#520,.T.);
#297=EDGE_CURVE('',#433,#420,#521,.T.);
#298=EDGE_CURVE('',#425,#433,#522,.T.);
#299=EDGE_CURVE('',#434,#435,#523,.T.);
#300=EDGE_CURVE('',#434,#432,#524,.T.);
#301=EDGE_CURVE('',#431,#436,#525,.T.);
#302=EDGE_CURVE('',#436,#437,#526,.T.);
#303=EDGE_CURVE('',#437,#438,#527,.T.);
#304=EDGE_CURVE('',#439,#438,#528,.T.);
#305=EDGE_CURVE('',#439,#435,#529,.T.);
#306=EDGE_CURVE('',#440,#427,#530,.T.);
#307=EDGE_CURVE('',#441,#440,#531,.T.);
#308=EDGE_CURVE('',#428,#441,#532,.T.);
#309=EDGE_CURVE('',#442,#443,#533,.T.);
#310=EDGE_CURVE('',#444,#442,#534,.T.);
#311=EDGE_CURVE('',#444,#445,#535,.T.);
#312=EDGE_CURVE('',#446,#445,#536,.T.);
#313=EDGE_CURVE('',#447,#446,#537,.T.);
#314=EDGE_CURVE('',#447,#448,#538,.T.);
#315=EDGE_CURVE('',#448,#449,#539,.T.);
#316=EDGE_CURVE('',#443,#449,#540,.T.);
#317=EDGE_CURVE('',#450,#451,#541,.T.);
#318=EDGE_CURVE('',#451,#452,#542,.T.);
#319=EDGE_CURVE('',#452,#453,#543,.T.);
#320=EDGE_CURVE('',#454,#453,#544,.T.);
#321=EDGE_CURVE('',#454,#455,#545,.T.);
#322=EDGE_CURVE('',#455,#456,#546,.T.);
#323=EDGE_CURVE('',#456,#457,#547,.T.);
#324=EDGE_CURVE('',#450,#457,#548,.T.);
#325=EDGE_CURVE('',#421,#458,#549,.T.);
#326=EDGE_CURVE('',#434,#423,#550,.T.);
#327=EDGE_CURVE('',#435,#459,#551,.T.);
#328=EDGE_CURVE('',#460,#459,#552,.T.);
#329=EDGE_CURVE('',#441,#460,#553,.T.);
#330=EDGE_CURVE('',#440,#461,#554,.T.);
#331=EDGE_CURVE('',#461,#462,#555,.T.);
#332=EDGE_CURVE('',#463,#462,#556,.T.);
#333=EDGE_CURVE('',#458,#463,#557,.T.);
#334=EDGE_CURVE('',#464,#465,#558,.T.);
#335=EDGE_CURVE('',#465,#466,#559,.T.);
#336=EDGE_CURVE('',#467,#466,#560,.T.);
#337=EDGE_CURVE('',#430,#467,#561,.T.);
#338=EDGE_CURVE('',#429,#460,#562,.T.);
#339=EDGE_CURVE('',#464,#459,#563,.T.);
#340=EDGE_CURVE('',#468,#469,#564,.T.);
#341=EDGE_CURVE('',#469,#470,#565,.T.);
#342=EDGE_CURVE('',#470,#471,#566,.T.);
#343=EDGE_CURVE('',#471,#468,#567,.T.);
#344=EDGE_CURVE('',#472,#473,#568,.T.);
#345=EDGE_CURVE('',#474,#472,#569,.T.);
#346=EDGE_CURVE('',#474,#475,#570,.T.);
#347=EDGE_CURVE('',#475,#473,#571,.T.);
#348=EDGE_CURVE('',#455,#447,#572,.T.);
#349=EDGE_CURVE('',#446,#456,#573,.T.);
#350=EDGE_CURVE('',#448,#454,#574,.T.);
#351=EDGE_CURVE('',#449,#453,#575,.T.);
#352=EDGE_CURVE('',#476,#472,#576,.T.);
#353=EDGE_CURVE('',#476,#477,#577,.T.);
#354=EDGE_CURVE('',#477,#474,#578,.T.);
#355=EDGE_CURVE('',#478,#475,#579,.T.);
#356=EDGE_CURVE('',#478,#479,#580,.T.);
#357=EDGE_CURVE('',#479,#473,#581,.T.);
#358=EDGE_CURVE('',#477,#478,#582,.T.);
#359=EDGE_CURVE('',#479,#476,#583,.T.);
#360=EDGE_CURVE('',#480,#481,#584,.T.);
#361=EDGE_CURVE('',#482,#480,#585,.T.);
#362=EDGE_CURVE('',#482,#483,#586,.T.);
#363=EDGE_CURVE('',#483,#481,#587,.T.);
#364=EDGE_CURVE('',#484,#480,#588,.T.);
#365=EDGE_CURVE('',#485,#484,#589,.T.);
#366=EDGE_CURVE('',#485,#482,#590,.T.);
#367=EDGE_CURVE('',#484,#486,#591,.T.);
#368=EDGE_CURVE('',#487,#486,#592,.T.);
#369=EDGE_CURVE('',#485,#487,#593,.T.);
#370=EDGE_CURVE('',#481,#486,#594,.T.);
#371=EDGE_CURVE('',#483,#487,#595,.T.);
#372=EDGE_CURVE('',#488,#489,#596,.T.);
#373=EDGE_CURVE('',#489,#490,#597,.T.);
#374=EDGE_CURVE('',#490,#491,#598,.T.);
#375=EDGE_CURVE('',#491,#488,#599,.T.);
#376=EDGE_CURVE('',#479,#491,#600,.F.);
#377=EDGE_CURVE('',#488,#478,#601,.F.);
#378=EDGE_CURVE('',#489,#477,#602,.T.);
#379=EDGE_CURVE('',#476,#490,#603,.F.);
#380=EDGE_CURVE('',#468,#455,#604,.F.);
#381=EDGE_CURVE('',#447,#471,#605,.F.);
#382=EDGE_CURVE('',#448,#470,#606,.F.);
#383=EDGE_CURVE('',#469,#454,#607,.T.);
#384=EDGE_CURVE('',#443,#492,#608,.T.);
#385=EDGE_CURVE('',#493,#452,#609,.T.);
#386=EDGE_CURVE('',#494,#493,#610,.T.);
#387=EDGE_CURVE('',#495,#494,#611,.T.);
#388=EDGE_CURVE('',#492,#495,#612,.T.);
#389=EDGE_CURVE('',#438,#442,#613,.T.);
#390=EDGE_CURVE('',#496,#492,#614,.T.);
#391=EDGE_CURVE('',#439,#496,#615,.T.);
#392=EDGE_CURVE('',#497,#495,#616,.T.);
#393=EDGE_CURVE('',#496,#497,#617,.T.);
#394=EDGE_CURVE('',#498,#494,#618,.T.);
#395=EDGE_CURVE('',#497,#498,#619,.T.);
#396=EDGE_CURVE('',#499,#493,#620,.T.);
#397=EDGE_CURVE('',#498,#499,#621,.T.);
#398=EDGE_CURVE('',#451,#465,#622,.T.);
#399=EDGE_CURVE('',#499,#464,#623,.T.);
#400=EDGE_CURVE('',#445,#500,#624,.T.);
#401=EDGE_CURVE('',#500,#501,#625,.T.);
#402=EDGE_CURVE('',#501,#502,#626,.T.);
#403=EDGE_CURVE('',#502,#503,#627,.T.);
#404=EDGE_CURVE('',#503,#457,#628,.T.);
#405=EDGE_CURVE('',#504,#503,#629,.T.);
#406=EDGE_CURVE('',#504,#467,#630,.T.);
#407=EDGE_CURVE('',#450,#466,#631,.T.);
#408=EDGE_CURVE('',#505,#502,#632,.T.);
#409=EDGE_CURVE('',#505,#504,#633,.T.);
#410=EDGE_CURVE('',#506,#501,#634,.T.);
#411=EDGE_CURVE('',#506,#505,#635,.T.);
#412=EDGE_CURVE('',#507,#500,#636,.T.);
#413=EDGE_CURVE('',#507,#506,#637,.T.);
#414=EDGE_CURVE('',#437,#444,#638,.T.);
#415=EDGE_CURVE('',#436,#507,#639,.T.);
#416=EDGE_CURVE('',#461,#426,#640,.T.);
#417=EDGE_CURVE('',#424,#462,#641,.T.);
#418=EDGE_CURVE('',#425,#463,#642,.T.);
#419=EDGE_CURVE('',#433,#458,#643,.T.);
#420=VERTEX_POINT('',#1297);
#421=VERTEX_POINT('',#1298);
#422=VERTEX_POINT('',#1300);
#423=VERTEX_POINT('',#1302);
#424=VERTEX_POINT('',#1306);
#425=VERTEX_POINT('',#1307);
#426=VERTEX_POINT('',#1309);
#427=VERTEX_POINT('',#1311);
#428=VERTEX_POINT('',#1313);
#429=VERTEX_POINT('',#1315);
#430=VERTEX_POINT('',#1317);
#431=VERTEX_POINT('',#1319);
#432=VERTEX_POINT('',#1321);
#433=VERTEX_POINT('',#1324);
#434=VERTEX_POINT('',#1328);
#435=VERTEX_POINT('',#1329);
#436=VERTEX_POINT('',#1332);
#437=VERTEX_POINT('',#1334);
#438=VERTEX_POINT('',#1336);
#439=VERTEX_POINT('',#1338);
#440=VERTEX_POINT('',#1342);
#441=VERTEX_POINT('',#1344);
#442=VERTEX_POINT('',#1348);
#443=VERTEX_POINT('',#1349);
#444=VERTEX_POINT('',#1351);
#445=VERTEX_POINT('',#1353);
#446=VERTEX_POINT('',#1355);
#447=VERTEX_POINT('',#1357);
#448=VERTEX_POINT('',#1359);
#449=VERTEX_POINT('',#1361);
#450=VERTEX_POINT('',#1365);
#451=VERTEX_POINT('',#1366);
#452=VERTEX_POINT('',#1368);
#453=VERTEX_POINT('',#1370);
#454=VERTEX_POINT('',#1372);
#455=VERTEX_POINT('',#1374);
#456=VERTEX_POINT('',#1376);
#457=VERTEX_POINT('',#1378);
#458=VERTEX_POINT('',#1382);
#459=VERTEX_POINT('',#1385);
#460=VERTEX_POINT('',#1387);
#461=VERTEX_POINT('',#1390);
#462=VERTEX_POINT('',#1392);
#463=VERTEX_POINT('',#1394);
#464=VERTEX_POINT('',#1398);
#465=VERTEX_POINT('',#1399);
#466=VERTEX_POINT('',#1401);
#467=VERTEX_POINT('',#1403);
#468=VERTEX_POINT('',#1409);
#469=VERTEX_POINT('',#1410);
#470=VERTEX_POINT('',#1412);
#471=VERTEX_POINT('',#1414);
#472=VERTEX_POINT('',#1417);
#473=VERTEX_POINT('',#1418);
#474=VERTEX_POINT('',#1420);
#475=VERTEX_POINT('',#1422);
#476=VERTEX_POINT('',#1432);
#477=VERTEX_POINT('',#1434);
#478=VERTEX_POINT('',#1438);
#479=VERTEX_POINT('',#1440);
#480=VERTEX_POINT('',#1448);
#481=VERTEX_POINT('',#1449);
#482=VERTEX_POINT('',#1451);
#483=VERTEX_POINT('',#1453);
#484=VERTEX_POINT('',#1457);
#485=VERTEX_POINT('',#1459);
#486=VERTEX_POINT('',#1463);
#487=VERTEX_POINT('',#1465);
#488=VERTEX_POINT('',#1472);
#489=VERTEX_POINT('',#1473);
#490=VERTEX_POINT('',#1475);
#491=VERTEX_POINT('',#1477);
#492=VERTEX_POINT('',#1498);
#493=VERTEX_POINT('',#1500);
#494=VERTEX_POINT('',#1502);
#495=VERTEX_POINT('',#1504);
#496=VERTEX_POINT('',#1509);
#497=VERTEX_POINT('',#1513);
#498=VERTEX_POINT('',#1517);
#499=VERTEX_POINT('',#1521);
#500=VERTEX_POINT('',#1529);
#501=VERTEX_POINT('',#1531);
#502=VERTEX_POINT('',#1533);
#503=VERTEX_POINT('',#1535);
#504=VERTEX_POINT('',#1539);
#505=VERTEX_POINT('',#1544);
#506=VERTEX_POINT('',#1548);
#507=VERTEX_POINT('',#1552);
#508=LINE('',#1296,#644);
#509=LINE('',#1299,#645);
#510=LINE('',#1301,#646);
#511=LINE('',#1303,#647);
#512=LINE('',#1305,#648);
#513=LINE('',#1308,#649);
#514=LINE('',#1310,#650);
#515=LINE('',#1312,#651);
#516=LINE('',#1314,#652);
#517=LINE('',#1316,#653);
#518=LINE('',#1318,#654);
#519=LINE('',#1320,#655);
#520=LINE('',#1322,#656);
#521=LINE('',#1323,#657);
#522=LINE('',#1325,#658);
#523=LINE('',#1327,#659);
#524=LINE('',#1330,#660);
#525=LINE('',#1331,#661);
#526=LINE('',#1333,#662);
#527=LINE('',#1335,#663);
#528=LINE('',#1337,#664);
#529=LINE('',#1339,#665);
#530=LINE('',#1341,#666);
#531=LINE('',#1343,#667);
#532=LINE('',#1345,#668);
#533=LINE('',#1347,#669);
#534=LINE('',#1350,#670);
#535=LINE('',#1352,#671);
#536=LINE('',#1354,#672);
#537=LINE('',#1356,#673);
#538=LINE('',#1358,#674);
#539=LINE('',#1360,#675);
#540=LINE('',#1362,#676);
#541=LINE('',#1364,#677);
#542=LINE('',#1367,#678);
#543=LINE('',#1369,#679);
#544=LINE('',#1371,#680);
#545=LINE('',#1373,#681);
#546=LINE('',#1375,#682);
#547=LINE('',#1377,#683);
#548=LINE('',#1379,#684);
#549=LINE('',#1381,#685);
#550=LINE('',#1383,#686);
#551=LINE('',#1384,#687);
#552=LINE('',#1386,#688);
#553=LINE('',#1388,#689);
#554=LINE('',#1389,#690);
#555=LINE('',#1391,#691);
#556=LINE('',#1393,#692);
#557=LINE('',#1395,#693);
#558=LINE('',#1397,#694);
#559=LINE('',#1400,#695);
#560=LINE('',#1402,#696);
#561=LINE('',#1404,#697);
#562=LINE('',#1405,#698);
#563=LINE('',#1406,#699);
#564=LINE('',#1408,#700);
#565=LINE('',#1411,#701);
#566=LINE('',#1413,#702);
#567=LINE('',#1415,#703);
#568=LINE('',#1416,#704);
#569=LINE('',#1419,#705);
#570=LINE('',#1421,#706);
#571=LINE('',#1423,#707);
#572=LINE('',#1425,#708);
#573=LINE('',#1426,#709);
#574=LINE('',#1428,#710);
#575=LINE('',#1429,#711);
#576=LINE('',#1431,#712);
#577=LINE('',#1433,#713);
#578=LINE('',#1435,#714);
#579=LINE('',#1437,#715);
#580=LINE('',#1439,#716);
#581=LINE('',#1441,#717);
#582=LINE('',#1443,#718);
#583=LINE('',#1445,#719);
#584=LINE('',#1447,#720);
#585=LINE('',#1450,#721);
#586=LINE('',#1452,#722);
#587=LINE('',#1454,#723);
#588=LINE('',#1456,#724);
#589=LINE('',#1458,#725);
#590=LINE('',#1460,#726);
#591=LINE('',#1462,#727);
#592=LINE('',#1464,#728);
#593=LINE('',#1466,#729);
#594=LINE('',#1468,#730);
#595=LINE('',#1469,#731);
#596=LINE('',#1471,#732);
#597=LINE('',#1474,#733);
#598=LINE('',#1476,#734);
#599=LINE('',#1478,#735);
#600=LINE('',#1481,#736);
#601=LINE('',#1482,#737);
#602=LINE('',#1484,#738);
#603=LINE('',#1486,#739);
#604=LINE('',#1489,#740);
#605=LINE('',#1490,#741);
#606=LINE('',#1492,#742);
#607=LINE('',#1494,#743);
#608=LINE('',#1497,#744);
#609=LINE('',#1499,#745);
#610=LINE('',#1501,#746);
#611=LINE('',#1503,#747);
#612=LINE('',#1505,#748);
#613=LINE('',#1507,#749);
#614=LINE('',#1508,#750);
#615=LINE('',#1510,#751);
#616=LINE('',#1512,#752);
#617=LINE('',#1514,#753);
#618=LINE('',#1516,#754);
#619=LINE('',#1518,#755);
#620=LINE('',#1520,#756);
#621=LINE('',#1522,#757);
#622=LINE('',#1524,#758);
#623=LINE('',#1525,#759);
#624=LINE('',#1528,#760);
#625=LINE('',#1530,#761);
#626=LINE('',#1532,#762);
#627=LINE('',#1534,#763);
#628=LINE('',#1536,#764);
#629=LINE('',#1538,#765);
#630=LINE('',#1540,#766);
#631=LINE('',#1541,#767);
#632=LINE('',#1543,#768);
#633=LINE('',#1545,#769);
#634=LINE('',#1547,#770);
#635=LINE('',#1549,#771);
#636=LINE('',#1551,#772);
#637=LINE('',#1553,#773);
#638=LINE('',#1555,#774);
#639=LINE('',#1556,#775);
#640=LINE('',#1561,#776);
#641=LINE('',#1564,#777);
#642=LINE('',#1566,#778);
#643=LINE('',#1568,#779);
#644=VECTOR('',#1058,1.);
#645=VECTOR('',#1059,1.);
#646=VECTOR('',#1060,1.);
#647=VECTOR('',#1061,1.);
#648=VECTOR('',#1064,1.);
#649=VECTOR('',#1065,1.);
#650=VECTOR('',#1066,1.);
#651=VECTOR('',#1067,1.);
#652=VECTOR('',#1068,1.);
#653=VECTOR('',#1069,1.);
#654=VECTOR('',#1070,1.);
#655=VECTOR('',#1071,1.);
#656=VECTOR('',#1072,1.);
#657=VECTOR('',#1073,1.);
#658=VECTOR('',#1074,1.);
#659=VECTOR('',#1077,1.);
#660=VECTOR('',#1078,1.);
#661=VECTOR('',#1079,1.);
#662=VECTOR('',#1080,1.);
#663=VECTOR('',#1081,1.);
#664=VECTOR('',#1082,1.);
#665=VECTOR('',#1083,1.);
#666=VECTOR('',#1086,1.);
#667=VECTOR('',#1087,1.);
#668=VECTOR('',#1088,1.);
#669=VECTOR('',#1091,1.);
#670=VECTOR('',#1092,1.);
#671=VECTOR('',#1093,1.);
#672=VECTOR('',#1094,1.);
#673=VECTOR('',#1095,1.);
#674=VECTOR('',#1096,1.);
#675=VECTOR('',#1097,1.);
#676=VECTOR('',#1098,1.);
#677=VECTOR('',#1101,1.);
#678=VECTOR('',#1102,1.);
#679=VECTOR('',#1103,1.);
#680=VECTOR('',#1104,1.);
#681=VECTOR('',#1105,1.);
#682=VECTOR('',#1106,1.);
#683=VECTOR('',#1107,1.);
#684=VECTOR('',#1108,1.);
#685=VECTOR('',#1111,1.);
#686=VECTOR('',#1112,1.);
#687=VECTOR('',#1113,1.);
#688=VECTOR('',#1114,1.);
#689=VECTOR('',#1115,1.);
#690=VECTOR('',#1116,1.);
#691=VECTOR('',#1117,1.);
#692=VECTOR('',#1118,1.);
#693=VECTOR('',#1119,1.);
#694=VECTOR('',#1122,1.);
#695=VECTOR('',#1123,1.);
#696=VECTOR('',#1124,1.);
#697=VECTOR('',#1125,1.);
#698=VECTOR('',#1126,1.);
#699=VECTOR('',#1127,1.);
#700=VECTOR('',#1130,1.);
#701=VECTOR('',#1131,1.);
#702=VECTOR('',#1132,1.);
#703=VECTOR('',#1133,1.);
#704=VECTOR('',#1134,1.);
#705=VECTOR('',#1135,1.);
#706=VECTOR('',#1136,1.);
#707=VECTOR('',#1137,1.);
#708=VECTOR('',#1140,1.);
#709=VECTOR('',#1141,1.);
#710=VECTOR('',#1144,1.);
#711=VECTOR('',#1145,1.);
#712=VECTOR('',#1148,1.);
#713=VECTOR('',#1149,1.);
#714=VECTOR('',#1150,1.);
#715=VECTOR('',#1153,1.);
#716=VECTOR('',#1154,1.);
#717=VECTOR('',#1155,1.);
#718=VECTOR('',#1158,1.);
#719=VECTOR('',#1161,1.);
#720=VECTOR('',#1164,1.);
#721=VECTOR('',#1165,1.);
#722=VECTOR('',#1166,1.);
#723=VECTOR('',#1167,1.);
#724=VECTOR('',#1170,1.);
#725=VECTOR('',#1171,1.);
#726=VECTOR('',#1172,1.);
#727=VECTOR('',#1175,1.);
#728=VECTOR('',#1176,1.);
#729=VECTOR('',#1177,1.);
#730=VECTOR('',#1180,1.);
#731=VECTOR('',#1181,1.);
#732=VECTOR('',#1184,1.);
#733=VECTOR('',#1185,1.);
#734=VECTOR('',#1186,1.);
#735=VECTOR('',#1187,1.);
#736=VECTOR('',#1192,1.);
#737=VECTOR('',#1193,1.);
#738=VECTOR('',#1196,1.);
#739=VECTOR('',#1199,1.);
#740=VECTOR('',#1204,1.);
#741=VECTOR('',#1205,1.);
#742=VECTOR('',#1208,1.);
#743=VECTOR('',#1211,1.);
#744=VECTOR('',#1216,1.);
#745=VECTOR('',#1217,1.);
#746=VECTOR('',#1218,1.);
#747=VECTOR('',#1219,1.);
#748=VECTOR('',#1220,1.);
#749=VECTOR('',#1223,1.);
#750=VECTOR('',#1224,1.);
#751=VECTOR('',#1225,1.);
#752=VECTOR('',#1228,1.);
#753=VECTOR('',#1229,1.);
#754=VECTOR('',#1232,1.);
#755=VECTOR('',#1233,1.);
#756=VECTOR('',#1236,1.);
#757=VECTOR('',#1237,1.);
#758=VECTOR('',#1240,1.);
#759=VECTOR('',#1241,1.);
#760=VECTOR('',#1246,1.);
#761=VECTOR('',#1247,1.);
#762=VECTOR('',#1248,1.);
#763=VECTOR('',#1249,1.);
#764=VECTOR('',#1250,1.);
#765=VECTOR('',#1253,1.);
#766=VECTOR('',#1254,1.);
#767=VECTOR('',#1255,1.);
#768=VECTOR('',#1258,1.);
#769=VECTOR('',#1259,1.);
#770=VECTOR('',#1262,1.);
#771=VECTOR('',#1263,1.);
#772=VECTOR('',#1266,1.);
#773=VECTOR('',#1267,1.);
#774=VECTOR('',#1270,1.);
#775=VECTOR('',#1271,1.);
#776=VECTOR('',#1280,1.);
#777=VECTOR('',#1285,1.);
#778=VECTOR('',#1288,1.);
#779=VECTOR('',#1291,1.);
#780=EDGE_LOOP('',(#12,#13,#14,#15));
#781=EDGE_LOOP('',(#16,#17,#18,#19,#20,#21,#22,#23,#24,#25,#26,#27));
#782=EDGE_LOOP('',(#28,#29,#30,#31,#32,#33,#34,#35));
#783=EDGE_LOOP('',(#36,#37,#38,#39));
#784=EDGE_LOOP('',(#40,#41,#42,#43,#44,#45,#46,#47));
#785=EDGE_LOOP('',(#48,#49,#50,#51,#52,#53,#54,#55));
#786=EDGE_LOOP('',(#56,#57,#58,#59,#60,#61,#62,#63,#64,#65,#66,#67));
#787=EDGE_LOOP('',(#68,#69,#70,#71,#72,#73,#74,#75));
#788=EDGE_LOOP('',(#76,#77,#78,#79));
#789=EDGE_LOOP('',(#80,#81,#82,#83));
#790=EDGE_LOOP('',(#84,#85,#86,#87));
#791=EDGE_LOOP('',(#88,#89,#90,#91));
#792=EDGE_LOOP('',(#92,#93,#94,#95));
#793=EDGE_LOOP('',(#96,#97,#98,#99));
#794=EDGE_LOOP('',(#100,#101,#102,#103));
#795=EDGE_LOOP('',(#104,#105,#106,#107));
#796=EDGE_LOOP('',(#108,#109,#110,#111));
#797=EDGE_LOOP('',(#112,#113,#114,#115));
#798=EDGE_LOOP('',(#116,#117,#118,#119));
#799=EDGE_LOOP('',(#120,#121,#122,#123));
#800=EDGE_LOOP('',(#124,#125,#126,#127));
#801=EDGE_LOOP('',(#128,#129,#130,#131));
#802=EDGE_LOOP('',(#132,#133,#134,#135));
#803=EDGE_LOOP('',(#136,#137,#138,#139));
#804=EDGE_LOOP('',(#140,#141,#142,#143));
#805=EDGE_LOOP('',(#144,#145,#146,#147));
#806=EDGE_LOOP('',(#148,#149,#150,#151));
#807=EDGE_LOOP('',(#152,#153,#154,#155));
#808=EDGE_LOOP('',(#156,#157,#158,#159));
#809=EDGE_LOOP('',(#160,#161,#162,#163));
#810=EDGE_LOOP('',(#164,#165,#166,#167));
#811=EDGE_LOOP('',(#168,#169,#170,#171));
#812=EDGE_LOOP('',(#172,#173,#174,#175,#176,#177,#178,#179));
#813=EDGE_LOOP('',(#180,#181,#182,#183,#184,#185));
#814=EDGE_LOOP('',(#186,#187,#188,#189));
#815=EDGE_LOOP('',(#190,#191,#192,#193));
#816=EDGE_LOOP('',(#194,#195,#196,#197));
#817=EDGE_LOOP('',(#198,#199,#200,#201,#202,#203));
#818=EDGE_LOOP('',(#204,#205,#206,#207,#208,#209,#210,#211));
#819=EDGE_LOOP('',(#212,#213,#214,#215,#216,#217,#218,#219));
#820=EDGE_LOOP('',(#220,#221,#222,#223,#224,#225));
#821=EDGE_LOOP('',(#226,#227,#228,#229));
#822=EDGE_LOOP('',(#230,#231,#232,#233));
#823=EDGE_LOOP('',(#234,#235,#236,#237));
#824=EDGE_LOOP('',(#238,#239,#240,#241,#242,#243));
#825=EDGE_LOOP('',(#244,#245,#246,#247,#248,#249,#250,#251));
#826=EDGE_LOOP('',(#252,#253,#254,#255));
#827=EDGE_LOOP('',(#256,#257,#258,#259));
#828=EDGE_LOOP('',(#260,#261,#262,#263));
#829=EDGE_LOOP('',(#264,#265,#266,#267));
#830=EDGE_LOOP('',(#268,#269,#270,#271));
#831=EDGE_LOOP('',(#272,#273,#274,#275));
#832=EDGE_LOOP('',(#276,#277,#278,#279));
#833=EDGE_LOOP('',(#280,#281,#282,#283));
#834=FACE_BOUND('',#780,.T.);
#835=FACE_BOUND('',#781,.T.);
#836=FACE_BOUND('',#782,.T.);
#837=FACE_BOUND('',#783,.T.);
#838=FACE_BOUND('',#784,.T.);
#839=FACE_BOUND('',#785,.T.);
#840=FACE_BOUND('',#786,.T.);
#841=FACE_BOUND('',#787,.T.);
#842=FACE_BOUND('',#788,.T.);
#843=FACE_BOUND('',#789,.T.);
#844=FACE_BOUND('',#790,.T.);
#845=FACE_BOUND('',#791,.T.);
#846=FACE_BOUND('',#792,.T.);
#847=FACE_BOUND('',#793,.T.);
#848=FACE_BOUND('',#794,.T.);
#849=FACE_BOUND('',#795,.T.);
#850=FACE_BOUND('',#796,.T.);
#851=FACE_BOUND('',#797,.T.);
#852=FACE_BOUND('',#798,.T.);
#853=FACE_BOUND('',#799,.T.);
#854=FACE_BOUND('',#800,.T.);
#855=FACE_BOUND('',#801,.T.);
#856=FACE_BOUND('',#802,.T.);
#857=FACE_BOUND('',#803,.T.);
#858=FACE_BOUND('',#804,.T.);
#859=FACE_BOUND('',#805,.T.);
#860=FACE_BOUND('',#806,.T.);
#861=FACE_BOUND('',#807,.T.);
#862=FACE_BOUND('',#808,.T.);
#863=FACE_BOUND('',#809,.T.);
#864=FACE_BOUND('',#810,.T.);
#865=FACE_BOUND('',#811,.T.);
#866=FACE_BOUND('',#812,.T.);
#867=FACE_BOUND('',#813,.T.);
#868=FACE_BOUND('',#814,.T.);
#869=FACE_BOUND('',#815,.T.);
#870=FACE_BOUND('',#816,.T.);
#871=FACE_BOUND('',#817,.T.);
#872=FACE_BOUND('',#818,.T.);
#873=FACE_BOUND('',#819,.T.);
#874=FACE_BOUND('',#820,.T.);
#875=FACE_BOUND('',#821,.T.);
#876=FACE_BOUND('',#822,.T.);
#877=FACE_BOUND('',#823,.T.);
#878=FACE_BOUND('',#824,.T.);
#879=FACE_BOUND('',#825,.T.);
#880=FACE_BOUND('',#826,.T.);
#881=FACE_BOUND('',#827,.T.);
#882=FACE_BOUND('',#828,.T.);
#883=FACE_BOUND('',#829,.T.);
#884=FACE_BOUND('',#830,.T.);
#885=FACE_BOUND('',#831,.T.);
#886=FACE_BOUND('',#832,.T.);
#887=FACE_BOUND('',#833,.T.);
#888=PLANE('',#1003);
#889=PLANE('',#1004);
#890=PLANE('',#1005);
#891=PLANE('',#1006);
#892=PLANE('',#1007);
#893=PLANE('',#1008);
#894=PLANE('',#1009);
#895=PLANE('',#1010);
#896=PLANE('',#1011);
#897=PLANE('',#1012);
#898=PLANE('',#1013);
#899=PLANE('',#1014);
#900=PLANE('',#1015);
#901=PLANE('',#1016);
#902=PLANE('',#1017);
#903=PLANE('',#1018);
#904=PLANE('',#1019);
#905=PLANE('',#1020);
#906=PLANE('',#1021);
#907=PLANE('',#1022);
#908=PLANE('',#1023);
#909=PLANE('',#1024);
#910=PLANE('',#1025);
#911=PLANE('',#1026);
#912=PLANE('',#1027);
#913=PLANE('',#1028);
#914=PLANE('',#1029);
#915=PLANE('',#1030);
#916=PLANE('',#1031);
#917=PLANE('',#1032);
#918=PLANE('',#1033);
#919=PLANE('',#1034);
#920=PLANE('',#1035);
#921=PLANE('',#1036);
#922=PLANE('',#1037);
#923=PLANE('',#1038);
#924=PLANE('',#1039);
#925=PLANE('',#1040);
#926=PLANE('',#1041);
#927=PLANE('',#1042);
#928=PLANE('',#1043);
#929=PLANE('',#1044);
#930=PLANE('',#1045);
#931=PLANE('',#1046);
#932=PLANE('',#1047);
#933=PLANE('',#1048);
#934=PLANE('',#1049);
#935=PLANE('',#1050);
#936=PLANE('',#1051);
#937=PLANE('',#1052);
#938=PLANE('',#1053);
#939=ADVANCED_FACE('',(#834),#888,.F.);
#940=ADVANCED_FACE('',(#835),#889,.F.);
#941=ADVANCED_FACE('',(#836),#890,.T.);
#942=ADVANCED_FACE('',(#837),#891,.T.);
#943=ADVANCED_FACE('',(#838),#892,.F.);
#944=ADVANCED_FACE('',(#839),#893,.T.);
#945=ADVANCED_FACE('',(#840),#894,.T.);
#946=ADVANCED_FACE('',(#841),#895,.F.);
#947=ADVANCED_FACE('',(#842,#843),#896,.T.);
#948=ADVANCED_FACE('',(#844),#897,.T.);
#949=ADVANCED_FACE('',(#845),#898,.F.);
#950=ADVANCED_FACE('',(#846),#899,.F.);
#951=ADVANCED_FACE('',(#847),#900,.T.);
#952=ADVANCED_FACE('',(#848),#901,.T.);
#953=ADVANCED_FACE('',(#849),#902,.F.);
#954=ADVANCED_FACE('',(#850),#903,.T.);
#955=ADVANCED_FACE('',(#851),#904,.T.);
#956=ADVANCED_FACE('',(#852),#905,.F.);
#957=ADVANCED_FACE('',(#853),#906,.T.);
#958=ADVANCED_FACE('',(#854,#855),#907,.T.);
#959=ADVANCED_FACE('',(#856,#857),#908,.F.);
#960=ADVANCED_FACE('',(#858),#909,.F.);
#961=ADVANCED_FACE('',(#859),#910,.F.);
#962=ADVANCED_FACE('',(#860),#911,.T.);
#963=ADVANCED_FACE('',(#861),#912,.T.);
#964=ADVANCED_FACE('',(#862),#913,.F.);
#965=ADVANCED_FACE('',(#863),#914,.T.);
#966=ADVANCED_FACE('',(#864),#915,.F.);
#967=ADVANCED_FACE('',(#865),#916,.T.);
#968=ADVANCED_FACE('',(#866),#917,.F.);
#969=ADVANCED_FACE('',(#867),#918,.F.);
#970=ADVANCED_FACE('',(#868),#919,.F.);
#971=ADVANCED_FACE('',(#869),#920,.F.);
#972=ADVANCED_FACE('',(#870),#921,.F.);
#973=ADVANCED_FACE('',(#871),#922,.F.);
#974=ADVANCED_FACE('',(#872),#923,.T.);
#975=ADVANCED_FACE('',(#873),#924,.F.);
#976=ADVANCED_FACE('',(#874),#925,.T.);
#977=ADVANCED_FACE('',(#875),#926,.T.);
#978=ADVANCED_FACE('',(#876),#927,.T.);
#979=ADVANCED_FACE('',(#877),#928,.T.);
#980=ADVANCED_FACE('',(#878),#929,.T.);
#981=ADVANCED_FACE('',(#879),#930,.T.);
#982=ADVANCED_FACE('',(#880),#931,.T.);
#983=ADVANCED_FACE('',(#881),#932,.T.);
#984=ADVANCED_FACE('',(#882),#933,.F.);
#985=ADVANCED_FACE('',(#883),#934,.T.);
#986=ADVANCED_FACE('',(#884),#935,.F.);
#987=ADVANCED_FACE('',(#885),#936,.F.);
#988=ADVANCED_FACE('',(#886),#937,.F.);
#989=ADVANCED_FACE('',(#887),#938,.F.);
#990=CLOSED_SHELL('',(#939,#940,#941,#942,#943,#944,#945,#946,#947,#948,
#949,#950,#951,#952,#953,#954,#955,#956,#957,#958,#959,#960,#961,#962,#963,
#964,#965,#966,#967,#968,#969,#970,#971,#972,#973,#974,#975,#976,#977,#978,
#979,#980,#981,#982,#983,#984,#985,#986,#987,#988,#989));
#991=STYLED_ITEM('',(#992),#999);
#992=PRESENTATION_STYLE_ASSIGNMENT((#993));
#993=SURFACE_STYLE_USAGE(.BOTH.,#994);
#994=SURFACE_SIDE_STYLE('',(#995));
#995=SURFACE_STYLE_FILL_AREA(#996);
#996=FILL_AREA_STYLE('',(#997));
#997=FILL_AREA_STYLE_COLOUR('',#998);
#998=COLOUR_RGB('',0.262745098039216,0.282352941176471,0.301960784313725);
#999=MANIFOLD_SOLID_BREP('Part 1',#990);
#1000=SHAPE_DEFINITION_REPRESENTATION(#1576,#1001);
#1001=SHAPE_REPRESENTATION('Part 1',(#1002),#1571);
#1002=AXIS2_PLACEMENT_3D('',#1294,#1054,#1055);
#1003=AXIS2_PLACEMENT_3D('',#1295,#1056,#1057);
#1004=AXIS2_PLACEMENT_3D('',#1304,#1062,#1063);
#1005=AXIS2_PLACEMENT_3D('',#1326,#1075,#1076);
#1006=AXIS2_PLACEMENT_3D('',#1340,#1084,#1085);
#1007=AXIS2_PLACEMENT_3D('',#1346,#1089,#1090);
#1008=AXIS2_PLACEMENT_3D('',#1363,#1099,#1100);
#1009=AXIS2_PLACEMENT_3D('',#1380,#1109,#1110);
#1010=AXIS2_PLACEMENT_3D('',#1396,#1120,#1121);
#1011=AXIS2_PLACEMENT_3D('',#1407,#1128,#1129);
#1012=AXIS2_PLACEMENT_3D('',#1424,#1138,#1139);
#1013=AXIS2_PLACEMENT_3D('',#1427,#1142,#1143);
#1014=AXIS2_PLACEMENT_3D('',#1430,#1146,#1147);
#1015=AXIS2_PLACEMENT_3D('',#1436,#1151,#1152);
#1016=AXIS2_PLACEMENT_3D('',#1442,#1156,#1157);
#1017=AXIS2_PLACEMENT_3D('',#1444,#1159,#1160);
#1018=AXIS2_PLACEMENT_3D('',#1446,#1162,#1163);
#1019=AXIS2_PLACEMENT_3D('',#1455,#1168,#1169);
#1020=AXIS2_PLACEMENT_3D('',#1461,#1173,#1174);
#1021=AXIS2_PLACEMENT_3D('',#1467,#1178,#1179);
#1022=AXIS2_PLACEMENT_3D('',#1470,#1182,#1183);
#1023=AXIS2_PLACEMENT_3D('',#1479,#1188,#1189);
#1024=AXIS2_PLACEMENT_3D('',#1480,#1190,#1191);
#1025=AXIS2_PLACEMENT_3D('',#1483,#1194,#1195);
#1026=AXIS2_PLACEMENT_3D('',#1485,#1197,#1198);
#1027=AXIS2_PLACEMENT_3D('',#1487,#1200,#1201);
#1028=AXIS2_PLACEMENT_3D('',#1488,#1202,#1203);
#1029=AXIS2_PLACEMENT_3D('',#1491,#1206,#1207);
#1030=AXIS2_PLACEMENT_3D('',#1493,#1209,#1210);
#1031=AXIS2_PLACEMENT_3D('',#1495,#1212,#1213);
#1032=AXIS2_PLACEMENT_3D('',#1496,#1214,#1215);
#1033=AXIS2_PLACEMENT_3D('',#1506,#1221,#1222);
#1034=AXIS2_PLACEMENT_3D('',#1511,#1226,#1227);
#1035=AXIS2_PLACEMENT_3D('',#1515,#1230,#1231);
#1036=AXIS2_PLACEMENT_3D('',#1519,#1234,#1235);
#1037=AXIS2_PLACEMENT_3D('',#1523,#1238,#1239);
#1038=AXIS2_PLACEMENT_3D('',#1526,#1242,#1243);
#1039=AXIS2_PLACEMENT_3D('',#1527,#1244,#1245);
#1040=AXIS2_PLACEMENT_3D('',#1537,#1251,#1252);
#1041=AXIS2_PLACEMENT_3D('',#1542,#1256,#1257);
#1042=AXIS2_PLACEMENT_3D('',#1546,#1260,#1261);
#1043=AXIS2_PLACEMENT_3D('',#1550,#1264,#1265);
#1044=AXIS2_PLACEMENT_3D('',#1554,#1268,#1269);
#1045=AXIS2_PLACEMENT_3D('',#1557,#1272,#1273);
#1046=AXIS2_PLACEMENT_3D('',#1558,#1274,#1275);
#1047=AXIS2_PLACEMENT_3D('',#1559,#1276,#1277);
#1048=AXIS2_PLACEMENT_3D('',#1560,#1278,#1279);
#1049=AXIS2_PLACEMENT_3D('',#1562,#1281,#1282);
#1050=AXIS2_PLACEMENT_3D('',#1563,#1283,#1284);
#1051=AXIS2_PLACEMENT_3D('',#1565,#1286,#1287);
#1052=AXIS2_PLACEMENT_3D('',#1567,#1289,#1290);
#1053=AXIS2_PLACEMENT_3D('',#1569,#1292,#1293);
#1054=DIRECTION('',(0.,0.,1.));
#1055=DIRECTION('',(1.,0.,0.));
#1056=DIRECTION('',(0.,0.,-1.));
#1057=DIRECTION('',(0.,1.,0.));
#1058=DIRECTION('',(1.,0.,0.));
#1059=DIRECTION('',(0.,-1.,0.));
#1060=DIRECTION('',(-1.,0.,0.));
#1061=DIRECTION('',(0.,-1.,0.));
#1062=DIRECTION('',(1.,0.,0.));
#1063=DIRECTION('',(0.,-1.,0.));
#1064=DIRECTION('',(0.,0.294085848837523,-0.95577900872195));
#1065=DIRECTION('',(0.,-1.,0.));
#1066=DIRECTION('',(0.,0.,1.));
#1067=DIRECTION('',(0.,-1.,0.));
#1068=DIRECTION('',(0.,0.,-1.));
#1069=DIRECTION('',(0.,-1.,0.));
#1070=DIRECTION('',(0.,0.,-1.));
#1071=DIRECTION('',(0.,-1.,0.));
#1072=DIRECTION('',(0.,0.,1.));
#1073=DIRECTION('',(0.,0.294085848837523,0.95577900872195));
#1074=DIRECTION('',(0.,-1.,0.));
#1075=DIRECTION('',(0.,0.,1.));
#1076=DIRECTION('',(1.,0.,0.));
#1077=DIRECTION('',(0.,-1.,0.));
#1078=DIRECTION('',(-1.,0.,0.));
#1079=DIRECTION('',(1.,3.55840713020884E-16,0.));
#1080=DIRECTION('',(-3.55840713020884E-16,1.,0.));
#1081=DIRECTION('',(1.,0.,0.));
#1082=DIRECTION('',(-3.55840713020884E-16,1.,0.));
#1083=DIRECTION('',(1.,3.55840713020884E-16,0.));
#1084=DIRECTION('',(0.,0.,1.));
#1085=DIRECTION('',(1.,0.,0.));
#1086=DIRECTION('',(-1.,0.,0.));
#1087=DIRECTION('',(0.,-1.,0.));
#1088=DIRECTION('',(1.,3.55840713020884E-16,0.));
#1089=DIRECTION('',(0.,0.,1.));
#1090=DIRECTION('',(1.,0.,0.));
#1091=DIRECTION('',(0.,-1.,0.));
#1092=DIRECTION('',(1.,0.,0.));
#1093=DIRECTION('',(0.,-1.,0.));
#1094=DIRECTION('',(1.,0.,0.));
#1095=DIRECTION('',(0.,-1.,0.));
#1096=DIRECTION('',(1.,3.55840713020884E-16,0.));
#1097=DIRECTION('',(0.,-1.,0.));
#1098=DIRECTION('',(1.,0.,0.));
#1099=DIRECTION('',(0.,0.,1.));
#1100=DIRECTION('',(1.,0.,0.));
#1101=DIRECTION('',(1.,0.,0.));
#1102=DIRECTION('',(0.,-1.,0.));
#1103=DIRECTION('',(1.,0.,0.));
#1104=DIRECTION('',(0.,-1.,0.));
#1105=DIRECTION('',(-1.,-3.55840713020884E-16,0.));
#1106=DIRECTION('',(0.,-1.,0.));
#1107=DIRECTION('',(1.,0.,0.));
#1108=DIRECTION('',(0.,-1.,0.));
#1109=DIRECTION('',(1.,0.,0.));
#1110=DIRECTION('',(0.,-1.,0.));
#1111=DIRECTION('',(0.,-0.294085848837523,-0.95577900872195));
#1112=DIRECTION('',(0.,0.,1.));
#1113=DIRECTION('',(0.,0.,-1.));
#1114=DIRECTION('',(0.,-1.,0.));
#1115=DIRECTION('',(0.,0.,-1.));
#1116=DIRECTION('',(0.,0.,1.));
#1117=DIRECTION('',(0.,-1.,0.));
#1118=DIRECTION('',(0.,-0.294085848837523,0.95577900872195));
#1119=DIRECTION('',(0.,1.,0.));
#1120=DIRECTION('',(0.,0.,1.));
#1121=DIRECTION('',(1.,0.,0.));
#1122=DIRECTION('',(-3.55840713020884E-16,1.,0.));
#1123=DIRECTION('',(-1.,0.,0.));
#1124=DIRECTION('',(-3.55840713020884E-16,1.,0.));
#1125=DIRECTION('',(1.,3.55840713020884E-16,0.));
#1126=DIRECTION('',(1.,3.55840713020884E-16,0.));
#1127=DIRECTION('',(1.,3.55840713020884E-16,0.));
#1128=DIRECTION('',(-3.55840713020884E-16,1.,0.));
#1129=DIRECTION('',(1.,3.55840713020884E-16,0.));
#1130=DIRECTION('',(1.,3.55840713020884E-16,0.));
#1131=DIRECTION('',(0.,0.,1.));
#1132=DIRECTION('',(-1.,-3.55840713020884E-16,0.));
#1133=DIRECTION('',(0.,0.,-1.));
#1134=DIRECTION('',(1.,3.55840713020884E-16,0.));
#1135=DIRECTION('',(0.,0.,-1.));
#1136=DIRECTION('',(1.,3.55840713020884E-16,0.));
#1137=DIRECTION('',(0.,0.,-1.));
#1138=DIRECTION('',(1.,0.,0.));
#1139=DIRECTION('',(0.,-1.,0.));
#1140=DIRECTION('',(0.,0.,1.));
#1141=DIRECTION('',(0.,0.,-1.));
#1142=DIRECTION('',(1.,0.,0.));
#1143=DIRECTION('',(0.,-1.,0.));
#1144=DIRECTION('',(0.,0.,-1.));
#1145=DIRECTION('',(0.,0.,-1.));
#1146=DIRECTION('',(-1.,-3.55840713020884E-16,0.));
#1147=DIRECTION('',(-3.55840713020884E-16,1.,0.));
#1148=DIRECTION('',(3.55840713020884E-16,-1.,0.));
#1149=DIRECTION('',(0.,0.,1.));
#1150=DIRECTION('',(3.55840713020884E-16,-1.,0.));
#1151=DIRECTION('',(-1.,-3.55840713020884E-16,0.));
#1152=DIRECTION('',(-3.55840713020884E-16,1.,0.));
#1153=DIRECTION('',(3.55840713020884E-16,-1.,0.));
#1154=DIRECTION('',(0.,0.,-1.));
#1155=DIRECTION('',(3.55840713020884E-16,-1.,0.));
#1156=DIRECTION('',(0.,0.,-1.));
#1157=DIRECTION('',(0.,1.,0.));
#1158=DIRECTION('',(1.,3.55840713020884E-16,0.));
#1159=DIRECTION('',(0.,0.,-1.));
#1160=DIRECTION('',(0.,1.,0.));
#1161=DIRECTION('',(-1.,-3.55840713020884E-16,0.));
#1162=DIRECTION('',(1.,3.55840713020884E-16,0.));
#1163=DIRECTION('',(3.55840713020884E-16,-1.,0.));
#1164=DIRECTION('',(0.,0.,1.));
#1165=DIRECTION('',(3.55840713020884E-16,-1.,0.));
#1166=DIRECTION('',(0.,0.,1.));
#1167=DIRECTION('',(3.55840713020884E-16,-1.,0.));
#1168=DIRECTION('',(0.,0.,-1.));
#1169=DIRECTION('',(0.,1.,0.));
#1170=DIRECTION('',(1.,3.55840713020884E-16,0.));
#1171=DIRECTION('',(3.55840713020884E-16,-1.,0.));
#1172=DIRECTION('',(1.,3.55840713020884E-16,0.));
#1173=DIRECTION('',(1.,3.55840713020884E-16,0.));
#1174=DIRECTION('',(3.55840713020884E-16,-1.,0.));
#1175=DIRECTION('',(0.,0.,1.));
#1176=DIRECTION('',(3.55840713020884E-16,-1.,0.));
#1177=DIRECTION('',(0.,0.,1.));
#1178=DIRECTION('',(0.,0.,1.));
#1179=DIRECTION('',(0.,-1.,0.));
#1180=DIRECTION('',(-1.,-3.55840713020884E-16,0.));
#1181=DIRECTION('',(-1.,-3.55840713020884E-16,0.));
#1182=DIRECTION('',(-3.55840713020884E-16,1.,0.));
#1183=DIRECTION('',(1.,3.55840713020884E-16,0.));
#1184=DIRECTION('',(-1.,-3.55840713020884E-16,0.));
#1185=DIRECTION('',(0.,0.,-1.));
#1186=DIRECTION('',(1.,3.55840713020884E-16,0.));
#1187=DIRECTION('',(0.,0.,1.));
#1188=DIRECTION('',(-3.55840713020884E-16,1.,0.));
#1189=DIRECTION('',(1.,3.55840713020884E-16,0.));
#1190=DIRECTION('',(0.707106781186548,-0.707106781186548,0.));
#1191=DIRECTION('',(0.,0.,-1.));
#1192=DIRECTION('',(-0.577350269189626,-0.577350269189626,0.577350269189625));
#1193=DIRECTION('',(0.577350269189626,0.577350269189626,0.577350269189625));
#1194=DIRECTION('',(2.51617381199323E-16,-0.707106781186547,0.707106781186548));
#1195=DIRECTION('',(1.,3.55840713020884E-16,0.));
#1196=DIRECTION('',(0.577350269189625,-0.577350269189626,-0.577350269189626));
#1197=DIRECTION('',(-2.51617381199323E-16,0.707106781186547,0.707106781186548));
#1198=DIRECTION('',(-1.,-3.55840713020884E-16,0.));
#1199=DIRECTION('',(0.577350269189625,-0.577350269189626,0.577350269189626));
#1200=DIRECTION('',(0.707106781186548,0.707106781186547,0.));
#1201=DIRECTION('',(0.,0.,1.));
#1202=DIRECTION('',(-0.707106781186544,-0.707106781186551,0.));
#1203=DIRECTION('',(0.,0.,-1.));
#1204=DIRECTION('',(-0.577350269189628,0.577350269189622,-0.577350269189628));
#1205=DIRECTION('',(0.577350269189628,-0.577350269189622,-0.577350269189628));
#1206=DIRECTION('',(-2.51617381199324E-16,0.707106781186551,-0.707106781186544));
#1207=DIRECTION('',(-1.,-3.55840713020884E-16,0.));
#1208=DIRECTION('',(-0.577350269189628,-0.577350269189622,-0.577350269189628));
#1209=DIRECTION('',(2.51617381199324E-16,-0.707106781186551,-0.707106781186544));
#1210=DIRECTION('',(1.,3.55840713020884E-16,0.));
#1211=DIRECTION('',(-0.577350269189628,-0.577350269189622,0.577350269189628));
#1212=DIRECTION('',(-0.707106781186544,0.707106781186551,0.));
#1213=DIRECTION('',(0.,0.,1.));
#1214=DIRECTION('',(3.55840713020884E-16,-1.,0.));
#1215=DIRECTION('',(1.,3.55840713020884E-16,0.));
#1216=DIRECTION('',(0.,0.,-1.));
#1217=DIRECTION('',(0.,0.,-1.));
#1218=DIRECTION('',(-1.,-3.55840713020884E-16,0.));
#1219=DIRECTION('',(0.,0.,-1.));
#1220=DIRECTION('',(1.,3.55840713020884E-16,-1.23908819712629E-16));
#1221=DIRECTION('',(1.,3.55840713020884E-16,0.));
#1222=DIRECTION('',(3.55840713020884E-16,-1.,0.));
#1223=DIRECTION('',(0.,0.,-1.));
#1224=DIRECTION('',(-3.55840713020884E-16,1.,0.));
#1225=DIRECTION('',(0.,0.,-1.));
#1226=DIRECTION('',(1.23908819712629E-16,4.40918027561181E-32,1.));
#1227=DIRECTION('',(1.,0.,-1.23908819712629E-16));
#1228=DIRECTION('',(-3.55840713020884E-16,1.,0.));
#1229=DIRECTION('',(1.,3.55840713020884E-16,-1.23908819712629E-16));
#1230=DIRECTION('',(1.,3.55840713020884E-16,0.));
#1231=DIRECTION('',(3.55840713020884E-16,-1.,0.));
#1232=DIRECTION('',(-3.55840713020884E-16,1.,0.));
#1233=DIRECTION('',(0.,0.,-1.));
#1234=DIRECTION('',(0.,0.,-1.));
#1235=DIRECTION('',(0.,1.,0.));
#1236=DIRECTION('',(-3.55840713020884E-16,1.,0.));
#1237=DIRECTION('',(-1.,-3.55840713020884E-16,0.));
#1238=DIRECTION('',(1.,3.55840713020884E-16,0.));
#1239=DIRECTION('',(3.55840713020884E-16,-1.,0.));
#1240=DIRECTION('',(0.,0.,-1.));
#1241=DIRECTION('',(0.,0.,-1.));
#1242=DIRECTION('',(3.55840713020884E-16,-1.,0.));
#1243=DIRECTION('',(1.,3.55840713020884E-16,0.));
#1244=DIRECTION('',(3.55840713020884E-16,-1.,0.));
#1245=DIRECTION('',(1.,3.55840713020884E-16,0.));
#1246=DIRECTION('',(0.,0.,-1.));
#1247=DIRECTION('',(-1.,-3.55840713020884E-16,-1.23908819712629E-16));
#1248=DIRECTION('',(0.,0.,-1.));
#1249=DIRECTION('',(1.,3.55840713020884E-16,0.));
#1250=DIRECTION('',(0.,0.,-1.));
#1251=DIRECTION('',(1.,3.55840713020884E-16,0.));
#1252=DIRECTION('',(3.55840713020884E-16,-1.,0.));
#1253=DIRECTION('',(-3.55840713020884E-16,1.,0.));
#1254=DIRECTION('',(0.,0.,-1.));
#1255=DIRECTION('',(0.,0.,-1.));
#1256=DIRECTION('',(0.,0.,1.));
#1257=DIRECTION('',(0.,-1.,0.));
#1258=DIRECTION('',(-3.55840713020884E-16,1.,0.));
#1259=DIRECTION('',(1.,3.55840713020884E-16,0.));
#1260=DIRECTION('',(1.,3.55840713020884E-16,0.));
#1261=DIRECTION('',(3.55840713020884E-16,-1.,0.));
#1262=DIRECTION('',(-3.55840713020884E-16,1.,0.));
#1263=DIRECTION('',(0.,0.,-1.));
#1264=DIRECTION('',(1.23908819712629E-16,4.40918027561181E-32,-1.));
#1265=DIRECTION('',(-1.,0.,-1.23908819712629E-16));
#1266=DIRECTION('',(-3.55840713020884E-16,1.,0.));
#1267=DIRECTION('',(-1.,-3.55840713020884E-16,-1.23908819712629E-16));
#1268=DIRECTION('',(1.,3.55840713020884E-16,0.));
#1269=DIRECTION('',(3.55840713020884E-16,-1.,0.));
#1270=DIRECTION('',(0.,0.,-1.));
#1271=DIRECTION('',(0.,0.,-1.));
#1272=DIRECTION('',(3.55840713020884E-16,-1.,0.));
#1273=DIRECTION('',(1.,3.55840713020884E-16,0.));
#1274=DIRECTION('',(0.,-1.,0.));
#1275=DIRECTION('',(-1.,0.,0.));
#1276=DIRECTION('',(0.,-1.,0.));
#1277=DIRECTION('',(-1.,0.,0.));
#1278=DIRECTION('',(0.,-1.,0.));
#1279=DIRECTION('',(-1.,0.,0.));
#1280=DIRECTION('',(-1.,0.,0.));
#1281=DIRECTION('',(0.,-1.,0.));
#1282=DIRECTION('',(-1.,0.,0.));
#1283=DIRECTION('',(0.,0.,-1.));
#1284=DIRECTION('',(0.,1.,0.));
#1285=DIRECTION('',(1.,0.,0.));
#1286=DIRECTION('',(0.,0.95577900872195,0.294085848837523));
#1287=DIRECTION('',(0.,-0.294085848837523,0.95577900872195));
#1288=DIRECTION('',(1.,0.,0.));
#1289=DIRECTION('',(0.,0.,-1.));
#1290=DIRECTION('',(0.,1.,0.));
#1291=DIRECTION('',(1.,0.,0.));
#1292=DIRECTION('',(0.,-0.95577900872195,0.294085848837523));
#1293=DIRECTION('',(0.,-0.294085848837523,-0.95577900872195));
#1294=CARTESIAN_POINT('',(0.,0.,0.));
#1295=CARTESIAN_POINT('',(0.039002,0.0499,0.0155));
#1296=CARTESIAN_POINT('',(-0.039002,0.0466003289616073,0.0155));
#1297=CARTESIAN_POINT('',(-0.039,0.0466003289616073,0.0155));
#1298=CARTESIAN_POINT('',(0.039,0.0466003289616073,0.0155));
#1299=CARTESIAN_POINT('',(-0.039,0.0499,0.0155));
#1300=CARTESIAN_POINT('',(-0.039,0.0399,0.0155));
#1301=CARTESIAN_POINT('',(0.039002,0.0399,0.0155));
#1302=CARTESIAN_POINT('',(0.039,0.0399,0.0155));
#1303=CARTESIAN_POINT('',(0.039,0.0499,0.0155));
#1304=CARTESIAN_POINT('',(-0.039,-1.38777878078145E-17,0.0095));
#1305=CARTESIAN_POINT('',(-0.039,0.0556003289616073,0.013875));
#1306=CARTESIAN_POINT('',(-0.039,0.0551003289616073,0.0155));
#1307=CARTESIAN_POINT('',(-0.039,0.0561003289616073,0.01225));
#1308=CARTESIAN_POINT('',(-0.039,0.0499,0.0155));
#1309=CARTESIAN_POINT('',(-0.039,0.0599,0.0155));
#1310=CARTESIAN_POINT('',(-0.039,0.0599,0.0125));
#1311=CARTESIAN_POINT('',(-0.039,0.0599,0.0095));
#1312=CARTESIAN_POINT('',(-0.039,-1.38777878078145E-17,0.0095));
#1313=CARTESIAN_POINT('',(-0.039,0.0649,0.0095));
#1314=CARTESIAN_POINT('',(-0.039,0.0649,0.0095));
#1315=CARTESIAN_POINT('',(-0.039,0.0649,-0.0095));
#1316=CARTESIAN_POINT('',(-0.039,-1.38777878078145E-17,-0.0095));
#1317=CARTESIAN_POINT('',(-0.039,-0.068,-0.0095));
#1318=CARTESIAN_POINT('',(-0.039,-0.068,0.0095));
#1319=CARTESIAN_POINT('',(-0.039,-0.068,0.0095));
#1320=CARTESIAN_POINT('',(-0.039,-1.38777878078145E-17,0.0095));
#1321=CARTESIAN_POINT('',(-0.039,0.0399,0.0095));
#1322=CARTESIAN_POINT('',(-0.039,0.0399,0.0125));
#1323=CARTESIAN_POINT('',(-0.039,0.0461003289616073,0.013875));
#1324=CARTESIAN_POINT('',(-0.039,0.0456003289616073,0.01225));
#1325=CARTESIAN_POINT('',(-0.039,0.0508503289616073,0.01225));
#1326=CARTESIAN_POINT('',(6.93889390390723E-18,0.,0.0095));
#1327=CARTESIAN_POINT('',(0.039,1.38777878078145E-17,0.0095));
#1328=CARTESIAN_POINT('',(0.039,0.0399,0.0095));
#1329=CARTESIAN_POINT('',(0.039,-0.068,0.0095));
#1330=CARTESIAN_POINT('',(0.039002,0.0399,0.0095));
#1331=CARTESIAN_POINT('',(1.06752213906265E-18,-0.068,0.0095));
#1332=CARTESIAN_POINT('',(-0.02375,-0.068,0.0095));
#1333=CARTESIAN_POINT('',(-0.02375,-0.068,0.0095));
#1334=CARTESIAN_POINT('',(-0.02375,-0.057,0.0095));
#1335=CARTESIAN_POINT('',(6.93889390390723E-18,-0.057,0.0095));
#1336=CARTESIAN_POINT('',(0.02375,-0.057,0.0095));
#1337=CARTESIAN_POINT('',(0.02375,-0.068,0.0095));
#1338=CARTESIAN_POINT('',(0.02375,-0.068,0.0095));
#1339=CARTESIAN_POINT('',(1.06752213906265E-18,-0.068,0.0095));
#1340=CARTESIAN_POINT('',(6.93889390390723E-18,0.,0.0095));
#1341=CARTESIAN_POINT('',(0.039002,0.0599,0.0095));
#1342=CARTESIAN_POINT('',(0.039,0.0599,0.0095));
#1343=CARTESIAN_POINT('',(0.039,1.38777878078145E-17,0.0095));
#1344=CARTESIAN_POINT('',(0.039,0.0649,0.0095));
#1345=CARTESIAN_POINT('',(3.55840713020884E-20,0.0649,0.0095));
#1346=CARTESIAN_POINT('',(0.,0.,0.00675));
#1347=CARTESIAN_POINT('',(0.02375,0.,0.00675));
#1348=CARTESIAN_POINT('',(0.02375,-0.057,0.00675));
#1349=CARTESIAN_POINT('',(0.02375,-0.065,0.00675));
#1350=CARTESIAN_POINT('',(0.,-0.057,0.00675));
#1351=CARTESIAN_POINT('',(-0.02375,-0.057,0.00675));
#1352=CARTESIAN_POINT('',(-0.02375,0.,0.00675));
#1353=CARTESIAN_POINT('',(-0.02375,-0.065,0.00675));
#1354=CARTESIAN_POINT('',(6.93889390390723E-18,-0.065,0.00675));
#1355=CARTESIAN_POINT('',(-0.03675,-0.065,0.00675));
#1356=CARTESIAN_POINT('',(-0.03675,0.,0.00675));
#1357=CARTESIAN_POINT('',(-0.03675,0.063,0.00675));
#1358=CARTESIAN_POINT('',(0.03675,0.063,0.00675));
#1359=CARTESIAN_POINT('',(0.03675,0.063,0.00675));
#1360=CARTESIAN_POINT('',(0.03675,0.,0.00675));
#1361=CARTESIAN_POINT('',(0.03675,-0.065,0.00675));
#1362=CARTESIAN_POINT('',(6.93889390390723E-18,-0.065,0.00675));
#1363=CARTESIAN_POINT('',(0.,0.,-0.00675));
#1364=CARTESIAN_POINT('',(0.,-0.057,-0.00675));
#1365=CARTESIAN_POINT('',(-0.02375,-0.057,-0.00675));
#1366=CARTESIAN_POINT('',(0.02375,-0.057,-0.00675));
#1367=CARTESIAN_POINT('',(0.02375,0.,-0.00675));
#1368=CARTESIAN_POINT('',(0.02375,-0.065,-0.00675));
#1369=CARTESIAN_POINT('',(6.93889390390723E-18,-0.065,-0.00675));
#1370=CARTESIAN_POINT('',(0.03675,-0.065,-0.00675));
#1371=CARTESIAN_POINT('',(0.03675,0.,-0.00675));
#1372=CARTESIAN_POINT('',(0.03675,0.063,-0.00675));
#1373=CARTESIAN_POINT('',(-2.24179649203156E-17,0.063,-0.00675));
#1374=CARTESIAN_POINT('',(-0.03675,0.063,-0.00675));
#1375=CARTESIAN_POINT('',(-0.03675,0.,-0.00675));
#1376=CARTESIAN_POINT('',(-0.03675,-0.065,-0.00675));
#1377=CARTESIAN_POINT('',(6.93889390390723E-18,-0.065,-0.00675));
#1378=CARTESIAN_POINT('',(-0.02375,-0.065,-0.00675));
#1379=CARTESIAN_POINT('',(-0.02375,0.,-0.00675));
#1380=CARTESIAN_POINT('',(0.039,1.38777878078145E-17,0.0095));
#1381=CARTESIAN_POINT('',(0.039,0.0461003289616073,0.013875));
#1382=CARTESIAN_POINT('',(0.039,0.0456003289616073,0.01225));
#1383=CARTESIAN_POINT('',(0.039,0.0399,0.0125));
#1384=CARTESIAN_POINT('',(0.039,-0.068,0.0095));
#1385=CARTESIAN_POINT('',(0.039,-0.068,-0.0095));
#1386=CARTESIAN_POINT('',(0.039,1.38777878078145E-17,-0.0095));
#1387=CARTESIAN_POINT('',(0.039,0.0649,-0.0095));
#1388=CARTESIAN_POINT('',(0.039,0.0649,0.0095));
#1389=CARTESIAN_POINT('',(0.039,0.0599,0.0125));
#1390=CARTESIAN_POINT('',(0.039,0.0599,0.0155));
#1391=CARTESIAN_POINT('',(0.039,0.0499,0.0155));
#1392=CARTESIAN_POINT('',(0.039,0.0551003289616073,0.0155));
#1393=CARTESIAN_POINT('',(0.039,0.0556003289616073,0.013875));
#1394=CARTESIAN_POINT('',(0.039,0.0561003289616073,0.01225));
#1395=CARTESIAN_POINT('',(0.039,0.0508503289616073,0.01225));
#1396=CARTESIAN_POINT('',(6.93889390390723E-18,0.,-0.0095));
#1397=CARTESIAN_POINT('',(0.02375,-0.068,-0.0095));
#1398=CARTESIAN_POINT('',(0.02375,-0.068,-0.0095));
#1399=CARTESIAN_POINT('',(0.02375,-0.057,-0.0095));
#1400=CARTESIAN_POINT('',(0.,-0.057,-0.0095));
#1401=CARTESIAN_POINT('',(-0.02375,-0.057,-0.0095));
#1402=CARTESIAN_POINT('',(-0.02375,-0.068,-0.0095));
#1403=CARTESIAN_POINT('',(-0.02375,-0.068,-0.0095));
#1404=CARTESIAN_POINT('',(1.06752213906265E-18,-0.068,-0.0095));
#1405=CARTESIAN_POINT('',(3.55840713020884E-20,0.0649,-0.0095));
#1406=CARTESIAN_POINT('',(1.06752213906265E-18,-0.068,-0.0095));
#1407=CARTESIAN_POINT('',(0.,0.065,0.0095));
#1408=CARTESIAN_POINT('',(0.,0.065,-0.00875));
#1409=CARTESIAN_POINT('',(-0.03875,0.065,-0.00875));
#1410=CARTESIAN_POINT('',(0.03875,0.065,-0.00875));
#1411=CARTESIAN_POINT('',(0.03875,0.065,0.00675));
#1412=CARTESIAN_POINT('',(0.03875,0.065,0.00875));
#1413=CARTESIAN_POINT('',(-0.03675,0.065,0.00875));
#1414=CARTESIAN_POINT('',(-0.03875,0.065,0.00875));
#1415=CARTESIAN_POINT('',(-0.03875,0.065,0.0095));
#1416=CARTESIAN_POINT('',(0.,0.065,-0.0095));
#1417=CARTESIAN_POINT('',(-0.039,0.065,-0.0095));
#1418=CARTESIAN_POINT('',(0.039,0.065,-0.0095));
#1419=CARTESIAN_POINT('',(-0.039,0.065,0.0095));
#1420=CARTESIAN_POINT('',(-0.039,0.065,0.0095));
#1421=CARTESIAN_POINT('',(0.,0.065,0.0095));
#1422=CARTESIAN_POINT('',(0.039,0.065,0.0095));
#1423=CARTESIAN_POINT('',(0.039,0.065,0.0095));
#1424=CARTESIAN_POINT('',(-0.03675,0.,0.00675));
#1425=CARTESIAN_POINT('',(-0.03675,0.063,0.00675));
#1426=CARTESIAN_POINT('',(-0.03675,-0.065,0.00675));
#1427=CARTESIAN_POINT('',(0.03675,0.,0.00675));
#1428=CARTESIAN_POINT('',(0.03675,0.063,-0.00675));
#1429=CARTESIAN_POINT('',(0.03675,-0.065,0.00675));
#1430=CARTESIAN_POINT('',(-0.039,0.0729,0.0095));
#1431=CARTESIAN_POINT('',(-0.039,0.0729,-0.0095));
#1432=CARTESIAN_POINT('',(-0.039,0.0694,-0.0095));
#1433=CARTESIAN_POINT('',(-0.039,0.0694,0.0095));
#1434=CARTESIAN_POINT('',(-0.039,0.0694,0.0095));
#1435=CARTESIAN_POINT('',(-0.039,0.0729,0.0095));
#1436=CARTESIAN_POINT('',(0.039,0.0729,0.0095));
#1437=CARTESIAN_POINT('',(0.039,0.0729,0.0095));
#1438=CARTESIAN_POINT('',(0.039,0.0694,0.0095));
#1439=CARTESIAN_POINT('',(0.039,0.0694,0.0095));
#1440=CARTESIAN_POINT('',(0.039,0.0694,-0.0095));
#1441=CARTESIAN_POINT('',(0.039,0.0729,-0.0095));
#1442=CARTESIAN_POINT('',(-2.81114163286498E-18,0.0729,0.0095));
#1443=CARTESIAN_POINT('',(-1.56569913729189E-18,0.0694,0.0095));
#1444=CARTESIAN_POINT('',(-2.81114163286498E-18,0.0729,-0.0095));
#1445=CARTESIAN_POINT('',(-0.039,0.0694,-0.0095));
#1446=CARTESIAN_POINT('',(0.043,0.0729,0.0115));
#1447=CARTESIAN_POINT('',(0.043,0.0649,0.0115));
#1448=CARTESIAN_POINT('',(0.043,0.0649,-0.0135));
#1449=CARTESIAN_POINT('',(0.043,0.0649,0.0135));
#1450=CARTESIAN_POINT('',(0.043,0.0729,-0.0135));
#1451=CARTESIAN_POINT('',(0.043,0.0729,-0.0135));
#1452=CARTESIAN_POINT('',(0.043,0.0729,0.0115));
#1453=CARTESIAN_POINT('',(0.043,0.0729,0.0135));
#1454=CARTESIAN_POINT('',(0.043,0.0729,0.0135));
#1455=CARTESIAN_POINT('',(-9.75003553677221E-18,0.0729,-0.0135));
#1456=CARTESIAN_POINT('',(-6.90330983260514E-18,0.0649,-0.0135));
#1457=CARTESIAN_POINT('',(-0.043,0.0649,-0.0135));
#1458=CARTESIAN_POINT('',(-0.043,0.0729,-0.0135));
#1459=CARTESIAN_POINT('',(-0.043,0.0729,-0.0135));
#1460=CARTESIAN_POINT('',(-9.75003553677221E-18,0.0729,-0.0135));
#1461=CARTESIAN_POINT('',(-0.043,0.0729,0.0115));
#1462=CARTESIAN_POINT('',(-0.043,0.0649,0.0115));
#1463=CARTESIAN_POINT('',(-0.043,0.0649,0.0135));
#1464=CARTESIAN_POINT('',(-0.043,0.0729,0.0135));
#1465=CARTESIAN_POINT('',(-0.043,0.0729,0.0135));
#1466=CARTESIAN_POINT('',(-0.043,0.0729,0.0115));
#1467=CARTESIAN_POINT('',(0.041,0.0729,0.0135));
#1468=CARTESIAN_POINT('',(0.041,0.0649,0.0135));
#1469=CARTESIAN_POINT('',(0.041,0.0729,0.0135));
#1470=CARTESIAN_POINT('',(8.75368154031373E-18,0.0729,5.20417042793042E-18));
#1471=CARTESIAN_POINT('',(8.75368154031373E-18,0.0729,0.013));
#1472=CARTESIAN_POINT('',(0.0425,0.0729,0.013));
#1473=CARTESIAN_POINT('',(-0.0425,0.0729,0.013));
#1474=CARTESIAN_POINT('',(-0.0425,0.0729,-0.0095));
#1475=CARTESIAN_POINT('',(-0.0425,0.0729,-0.013));
#1476=CARTESIAN_POINT('',(0.039,0.0729,-0.013));
#1477=CARTESIAN_POINT('',(0.0425,0.0729,-0.013));
#1478=CARTESIAN_POINT('',(0.0425,0.0729,5.20417042793042E-18));
#1479=CARTESIAN_POINT('',(1.16004072444808E-17,0.0649,5.20417042793042E-18));
#1480=CARTESIAN_POINT('',(0.039,0.0694,0.0095));
#1481=CARTESIAN_POINT('',(0.0326666666666667,0.0630666666666667,-0.00316666666666667));
#1482=CARTESIAN_POINT('',(0.026,0.0564,-0.0035));
#1483=CARTESIAN_POINT('',(-1.56569913729189E-18,0.0694,0.0095));
#1484=CARTESIAN_POINT('',(-0.0381666666666667,0.0685666666666666,0.00866666666666667));
#1485=CARTESIAN_POINT('',(8.75368154031373E-18,0.0729,-0.013));
#1486=CARTESIAN_POINT('',(-0.0381666666666667,0.0685666666666666,-0.00866666666666666));
#1487=CARTESIAN_POINT('',(-0.0425,0.0729,5.20417042793042E-18));
#1488=CARTESIAN_POINT('',(-0.03875,0.065,0.0095));
#1489=CARTESIAN_POINT('',(-0.0258333333333332,0.0520833333333334,0.00416666666666675));
#1490=CARTESIAN_POINT('',(-0.039,0.06525,0.009));
#1491=CARTESIAN_POINT('',(-2.24179649203156E-17,0.063,0.00675));
#1492=CARTESIAN_POINT('',(0.03675,0.063,0.00675));
#1493=CARTESIAN_POINT('',(0.,0.065,-0.00875));
#1494=CARTESIAN_POINT('',(0.03225,0.0585,-0.00224999999999997));
#1495=CARTESIAN_POINT('',(0.03675,0.063,0.00675));
#1496=CARTESIAN_POINT('',(2.31296463463574E-18,-0.065,0.));
#1497=CARTESIAN_POINT('',(0.02375,-0.065,0.006625));
#1498=CARTESIAN_POINT('',(0.02375,-0.065,0.00375));
#1499=CARTESIAN_POINT('',(0.02375,-0.065,-0.006625));
#1500=CARTESIAN_POINT('',(0.02375,-0.065,-0.00375));
#1501=CARTESIAN_POINT('',(0.02725,-0.065,-0.00375));
#1502=CARTESIAN_POINT('',(0.03075,-0.065,-0.00375));
#1503=CARTESIAN_POINT('',(0.03075,-0.065,4.11996825544492E-18));
#1504=CARTESIAN_POINT('',(0.03075,-0.065,0.00375));
#1505=CARTESIAN_POINT('',(0.02725,-0.065,0.00375));
#1506=CARTESIAN_POINT('',(0.02375,-0.068,0.006625));
#1507=CARTESIAN_POINT('',(0.02375,-0.057,0.0159));
#1508=CARTESIAN_POINT('',(0.02375,-0.068,0.00375));
#1509=CARTESIAN_POINT('',(0.02375,-0.068,0.00375));
#1510=CARTESIAN_POINT('',(0.02375,-0.068,0.006625));
#1511=CARTESIAN_POINT('',(0.02725,-0.068,0.00375));
#1512=CARTESIAN_POINT('',(0.03075,-0.068,0.00375));
#1513=CARTESIAN_POINT('',(0.03075,-0.068,0.00375));
#1514=CARTESIAN_POINT('',(0.02725,-0.068,0.00375));
#1515=CARTESIAN_POINT('',(0.03075,-0.068,4.11996825544492E-18));
#1516=CARTESIAN_POINT('',(0.03075,-0.068,-0.00375));
#1517=CARTESIAN_POINT('',(0.03075,-0.068,-0.00375));
#1518=CARTESIAN_POINT('',(0.03075,-0.068,4.11996825544492E-18));
#1519=CARTESIAN_POINT('',(0.02725,-0.068,-0.00375));
#1520=CARTESIAN_POINT('',(0.02375,-0.068,-0.00375));
#1521=CARTESIAN_POINT('',(0.02375,-0.068,-0.00375));
#1522=CARTESIAN_POINT('',(0.02725,-0.068,-0.00375));
#1523=CARTESIAN_POINT('',(0.02375,-0.068,-0.006625));
#1524=CARTESIAN_POINT('',(0.02375,-0.057,0.0159));
#1525=CARTESIAN_POINT('',(0.02375,-0.068,-0.006625));
#1526=CARTESIAN_POINT('',(3.38048677369839E-18,-0.068,0.));
#1527=CARTESIAN_POINT('',(2.31296463463574E-18,-0.065,0.));
#1528=CARTESIAN_POINT('',(-0.02375,-0.065,0.006625));
#1529=CARTESIAN_POINT('',(-0.02375,-0.065,0.00375));
#1530=CARTESIAN_POINT('',(-0.02725,-0.065,0.00375));
#1531=CARTESIAN_POINT('',(-0.03075,-0.065,0.00375));
#1532=CARTESIAN_POINT('',(-0.03075,-0.065,4.11996825544492E-18));
#1533=CARTESIAN_POINT('',(-0.03075,-0.065,-0.00375));
#1534=CARTESIAN_POINT('',(-0.02725,-0.065,-0.00375));
#1535=CARTESIAN_POINT('',(-0.02375,-0.065,-0.00375));
#1536=CARTESIAN_POINT('',(-0.02375,-0.065,-0.006625));
#1537=CARTESIAN_POINT('',(-0.02375,-0.068,-0.006625));
#1538=CARTESIAN_POINT('',(-0.02375,-0.068,-0.00375));
#1539=CARTESIAN_POINT('',(-0.02375,-0.068,-0.00375));
#1540=CARTESIAN_POINT('',(-0.02375,-0.068,-0.006625));
#1541=CARTESIAN_POINT('',(-0.02375,-0.057,0.0159));
#1542=CARTESIAN_POINT('',(-0.02725,-0.068,-0.00375));
#1543=CARTESIAN_POINT('',(-0.03075,-0.068,-0.00375));
#1544=CARTESIAN_POINT('',(-0.03075,-0.068,-0.00375));
#1545=CARTESIAN_POINT('',(-0.02725,-0.068,-0.00375));
#1546=CARTESIAN_POINT('',(-0.03075,-0.068,4.11996825544492E-18));
#1547=CARTESIAN_POINT('',(-0.03075,-0.068,0.00375));
#1548=CARTESIAN_POINT('',(-0.03075,-0.068,0.00375));
#1549=CARTESIAN_POINT('',(-0.03075,-0.068,4.11996825544492E-18));
#1550=CARTESIAN_POINT('',(-0.02725,-0.068,0.00375));
#1551=CARTESIAN_POINT('',(-0.02375,-0.068,0.00375));
#1552=CARTESIAN_POINT('',(-0.02375,-0.068,0.00375));
#1553=CARTESIAN_POINT('',(-0.02725,-0.068,0.00375));
#1554=CARTESIAN_POINT('',(-0.02375,-0.068,0.006625));
#1555=CARTESIAN_POINT('',(-0.02375,-0.057,0.0159));
#1556=CARTESIAN_POINT('',(-0.02375,-0.068,0.006625));
#1557=CARTESIAN_POINT('',(3.38048677369839E-18,-0.068,0.));
#1558=CARTESIAN_POINT('',(0.,-0.057,0.0159));
#1559=CARTESIAN_POINT('',(0.,-0.057,0.0159));
#1560=CARTESIAN_POINT('',(0.039002,0.0599,0.0125));
#1561=CARTESIAN_POINT('',(0.039002,0.0599,0.0155));
#1562=CARTESIAN_POINT('',(0.039002,0.0399,0.0125));
#1563=CARTESIAN_POINT('',(0.039002,0.0499,0.0155));
#1564=CARTESIAN_POINT('',(-0.039002,0.0551003289616073,0.0155));
#1565=CARTESIAN_POINT('',(-0.039002,0.0556003289616073,0.013875));
#1566=CARTESIAN_POINT('',(-0.039002,0.0561003289616073,0.01225));
#1567=CARTESIAN_POINT('',(-0.039002,0.0508503289616073,0.01225));
#1568=CARTESIAN_POINT('',(-0.039002,0.0456003289616073,0.01225));
#1569=CARTESIAN_POINT('',(-0.039002,0.0461003289616073,0.013875));
#1570=MECHANICAL_DESIGN_GEOMETRIC_PRESENTATION_REPRESENTATION('',(#991),
#1571);
#1571=(
GEOMETRIC_REPRESENTATION_CONTEXT(3)
GLOBAL_UNCERTAINTY_ASSIGNED_CONTEXT((#1572))
GLOBAL_UNIT_ASSIGNED_CONTEXT((#1575,#1574,#1573))
REPRESENTATION_CONTEXT('Part 1','TOP_LEVEL_ASSEMBLY_PART')
);
#1572=UNCERTAINTY_MEASURE_WITH_UNIT(LENGTH_MEASURE(1.E-8),#1575,
'DISTANCE_ACCURACY_VALUE','Maximum Tolerance applied to model');
#1573=(
NAMED_UNIT(*)
SI_UNIT($,.STERADIAN.)
SOLID_ANGLE_UNIT()
);
#1574=(
NAMED_UNIT(*)
PLANE_ANGLE_UNIT()
SI_UNIT($,.RADIAN.)
);
#1575=(
LENGTH_UNIT()
NAMED_UNIT(*)
SI_UNIT($,.METRE.)
);
#1576=PRODUCT_DEFINITION_SHAPE('','',#1577);
#1577=PRODUCT_DEFINITION('','',#1579,#1578);
#1578=PRODUCT_DEFINITION_CONTEXT('',#1585,'design');
#1579=PRODUCT_DEFINITION_FORMATION_WITH_SPECIFIED_SOURCE('','',#1581,
 .NOT_KNOWN.);
#1580=PRODUCT_RELATED_PRODUCT_CATEGORY('','',(#1581));
#1581=PRODUCT('Part 1','Part 1','Part 1',(#1583));
#1582=PRODUCT_CATEGORY('','');
#1583=PRODUCT_CONTEXT('',#1585,'mechanical');
#1584=APPLICATION_PROTOCOL_DEFINITION('international standard',
'ap242_managed_model_based_3d_engineering',2020,#1585);
#1585=APPLICATION_CONTEXT('managed model based 3d engineering');
ENDSEC;
END-ISO-10303-21;
